<svg width="20" height="20" viewBox="0 0 20 20" fill="none" xmlns="http://www.w3.org/2000/svg">
<path d="M10 0C4.48615 0 0 4.48577 0 10C0 15.5142 4.48615 20 10 20C15.5138 20 20 15.5142 20 10C20 4.48577 15.5138 0 10 0ZM15.575 6.665L9.42115 13.5881C9.26962 13.7585 9.05846 13.8462 8.84577 13.8462C8.67692 13.8462 8.50731 13.7908 8.36539 13.6777L4.51923 10.6008C4.18769 10.3358 4.13385 9.85154 4.39923 9.51962C4.66423 9.18769 5.14885 9.13385 5.48038 9.39923L8.75615 12.0196L14.425 5.64231C14.7065 5.32462 15.1935 5.29615 15.5108 5.57846C15.8285 5.86115 15.8573 6.34731 15.575 6.665Z" fill="white"/>
</svg>
