<svg width="240" height="240" viewBox="0 0 240 240" fill="none" xmlns="http://www.w3.org/2000/svg">
<g clip-path="url(#clip0_621_14910)">
<path d="M62.5105 57.6838C62.5404 34.7964 78.3525 14.956 100.656 9.82215C80.9696 5.32549 60.5391 13.3416 49.1638 30.0261C37.7885 46.7084 37.7885 68.6571 49.1638 85.3394C60.5391 102.024 80.9696 110.04 100.656 105.543C78.3546 100.41 62.5404 80.5691 62.5105 57.6838Z" fill="#D4E1F4"/>
<path d="M52.1915 162.204C65.1533 148.873 82.2633 140.345 100.712 138.028C97.0918 137.561 93.444 137.326 89.7941 137.326H89.6294C66.958 137.369 45.8881 146.204 30.2963 162.204C15.162 177.734 6.54076 198.759 5.83301 221.704L27.7283 221.668C28.4467 198.736 37.0658 177.725 52.1915 162.204V162.204Z" fill="#D4E1F4"/>
<path d="M90.4888 113.758C121.232 113.76 146.153 88.8394 146.153 58.0984C146.153 27.3574 121.232 2.43652 90.491 2.43652C59.7499 2.43652 34.8291 27.3574 34.8291 58.0984C34.8633 88.8245 59.7628 113.724 90.4888 113.758V113.758ZM90.4888 9.0051C117.603 9.0051 139.584 30.9838 139.584 58.0984C139.584 85.2109 117.603 107.192 90.491 107.192C63.3763 107.192 41.3977 85.2109 41.3977 58.0984C41.4276 30.9966 63.3892 9.03504 90.4888 9.0051Z" fill="#0635C9"/>
<path d="M3.28234 228.694H3.28876L139.024 228.412L139.009 221.843L6.61367 222.117C7.3257 199.172 15.9448 178.145 31.0812 162.615C46.6709 146.617 67.7429 137.782 90.4122 137.739H90.5812C108.739 137.632 126.422 143.525 140.885 154.503L144.857 149.27C129.255 137.423 110.174 131.059 90.5812 131.17H90.4015C65.949 131.217 43.2113 140.756 26.3771 158.031C9.31851 175.536 -0.0489862 199.469 0.000192659 225.414C0.00446908 227.225 1.47342 228.692 3.28448 228.692L3.28234 228.694Z" fill="#0635C9"/>
<path d="M121.767 169.536H135.317V234.138C135.317 235.953 136.788 237.422 138.601 237.422H219.883C221.696 237.422 223.167 235.953 223.167 234.138V169.536H236.717C238.139 169.536 239.398 168.621 239.839 167.27C240.279 165.916 239.798 164.434 238.65 163.598L223.986 152.924V136.186C223.986 134.373 222.517 132.902 220.702 132.902C218.889 132.902 217.418 134.373 217.418 136.186V148.141L181.175 121.756C180.022 120.917 178.459 120.917 177.309 121.756L119.834 163.6C118.684 164.439 118.202 165.92 118.643 167.272C119.083 168.625 120.345 169.54 121.767 169.54V169.536ZM179.242 128.472L226.625 162.967H219.883C218.068 162.967 216.599 164.439 216.599 166.252V230.853H141.885V166.252C141.885 164.439 140.414 162.967 138.601 162.967H131.857L179.242 128.472Z" fill="#70B859"/>
</g>
<defs>
<clipPath id="clip0_621_14910">
<rect width="240" height="240" fill="white"/>
</clipPath>
</defs>
</svg>
