<svg width="100" height="100" viewBox="0 0 100 100" fill="none" xmlns="http://www.w3.org/2000/svg">
<path d="M84.375 1.5625H62.5C59.9156 1.5625 57.8125 3.66562 57.8125 6.25V9.375C54.3656 9.375 51.5625 12.1781 51.5625 15.625C51.5625 19.0719 54.3656 21.875 57.8125 21.875V29.6875H70.3125V26.5625C70.3125 24.8391 71.7141 23.4375 73.4375 23.4375C75.1609 23.4375 76.5625 24.8391 76.5625 26.5625V29.6875H84.375C86.9594 29.6875 89.0625 27.5844 89.0625 25V6.25C89.0625 3.66562 86.9594 1.5625 84.375 1.5625ZM85.9375 25C85.9375 25.8609 85.2375 26.5625 84.375 26.5625H79.6875C79.6875 23.1156 76.8844 20.3125 73.4375 20.3125C69.9906 20.3125 67.1875 23.1156 67.1875 26.5625H60.9375V18.75H57.8125C56.0891 18.75 54.6875 17.3484 54.6875 15.625C54.6875 13.9016 56.0891 12.5 57.8125 12.5H60.9375V6.25C60.9375 5.38906 61.6375 4.6875 62.5 4.6875H84.375C85.2375 4.6875 85.9375 5.38906 85.9375 6.25V25Z" fill="#70B859"/>
<path d="M57.8125 32.8125C54.3656 32.8125 51.5625 35.6156 51.5625 39.0625H45.3125V31.25H42.1875C40.4641 31.25 39.0625 29.8484 39.0625 28.125C39.0625 26.4016 40.4641 25 42.1875 25H45.3125V10.9375H41.1234C24.4797 10.9375 10.9375 24.4797 10.9375 41.1234C10.9375 50.2141 14.9734 58.7297 22.0094 64.4859L28.125 69.4906V73.7266C26.3109 74.3734 25 76.0922 25 78.1266C25 80.2875 26.4766 82.0938 28.4687 82.6328C28.2516 83.1719 28.125 83.7578 28.125 84.375C28.125 86.4406 29.4766 88.1781 31.3344 88.8016C31.9813 94.2203 36.5984 98.4375 42.1875 98.4375C47.7766 98.4375 52.3937 94.2203 53.0406 88.8016C54.8984 88.1781 56.25 86.4406 56.25 84.375C56.25 83.7578 56.1234 83.1719 55.9062 82.6312C57.8984 82.0906 59.375 80.2859 59.375 78.125C59.375 76.0906 58.0641 74.3719 56.25 73.725V69.4891L62.3656 64.4844C69.4016 58.7297 73.4375 50.2141 73.4375 41.1234V39.0625H64.0625C64.0625 35.6156 61.2594 32.8125 57.8125 32.8125ZM41.1234 14.0625H42.1875V21.875C38.7406 21.875 35.9375 24.6781 35.9375 28.125C35.9375 31.5719 38.7406 34.375 42.1875 34.375V39.0625H35.9375C35.9375 35.6156 33.1344 32.8125 29.6875 32.8125C26.2406 32.8125 23.4375 35.6156 23.4375 39.0625H14.1406C15.1969 25.1 26.8953 14.0625 41.1234 14.0625ZM23.9875 62.0672C17.9547 57.1312 14.3828 49.9344 14.0844 42.1875H26.5625V39.0625C26.5625 37.3391 27.9641 35.9375 29.6875 35.9375C31.4109 35.9375 32.8125 37.3391 32.8125 39.0625V42.1875H42.1875V48.4375C38.7406 48.4375 35.9375 51.2406 35.9375 54.6875C35.9375 58.1344 38.7406 60.9375 42.1875 60.9375V73.4375H31.25V68.0094L23.9875 62.0672ZM42.1875 95.3125C38.4156 95.3125 35.2594 92.6234 34.5328 89.0625H49.8422C49.1156 92.6234 45.9594 95.3125 42.1875 95.3125ZM51.5625 85.9375H32.8125C31.95 85.9375 31.25 85.2359 31.25 84.375C31.25 83.5141 31.95 82.8125 32.8125 82.8125H51.5625C52.425 82.8125 53.125 83.5141 53.125 84.375C53.125 85.2359 52.425 85.9375 51.5625 85.9375ZM54.6875 79.6875H51.5625H32.8125H29.6875C28.825 79.6875 28.125 78.9859 28.125 78.125C28.125 77.2641 28.825 76.5625 29.6875 76.5625H54.6875C55.55 76.5625 56.25 77.2641 56.25 78.125C56.25 78.9859 55.55 79.6875 54.6875 79.6875ZM60.3875 62.0672L53.125 68.0094V73.4375H45.3125V57.8125H42.1875C40.4641 57.8125 39.0625 56.4109 39.0625 54.6875C39.0625 52.9641 40.4641 51.5625 42.1875 51.5625H45.3125V42.1875H54.6875V39.0625C54.6875 37.3391 56.0891 35.9375 57.8125 35.9375C59.5359 35.9375 60.9375 37.3391 60.9375 39.0625V42.1875H70.2906C69.9922 49.9344 66.4203 57.1312 60.3875 62.0672Z" fill="#70B859"/>
</svg>
