<svg width="240" height="240" viewBox="0 0 240 240" fill="none" xmlns="http://www.w3.org/2000/svg">
<g clip-path="url(#clip0_629_16178)">
<path d="M88.2068 168.416L128.43 139.132L120.236 133.167L78.4902 163.558V234.17H88.2068V168.416Z" fill="#D4E1F4"/>
<path d="M57.0793 178.458C57.6942 178.458 58.2958 178.262 58.793 177.9L72.66 167.802V237.085C72.66 238.695 73.9657 240 75.575 240H164.894C166.503 240 167.809 238.695 167.809 237.085V167.802L181.678 177.9C182.518 178.532 183.634 178.662 184.6 178.241C185.564 177.818 186.227 176.909 186.331 175.861C186.437 174.814 185.969 173.791 185.109 173.186L167.809 160.592V146.528C167.809 145.565 167.334 144.666 166.541 144.121L152.359 134.405C151.465 133.793 150.309 133.727 149.351 134.232C148.394 134.737 147.797 135.729 147.797 136.811V146.019L121.949 127.202C120.928 126.459 119.541 126.459 118.518 127.202L55.3599 173.186C54.3389 173.928 53.9138 175.245 54.3048 176.444C54.6957 177.645 55.8154 178.458 57.0793 178.456V178.458ZM117.506 234.17H103.903V204.962H117.506V234.17ZM153.627 142.341L161.979 148.065V156.347L153.627 150.268V142.341ZM120.235 133.167L161.979 163.558V234.17H123.336V202.047C123.336 200.438 122.031 199.132 120.421 199.132H100.988C99.3769 199.132 98.0731 200.438 98.0731 202.047V234.17H78.49V163.558L120.235 133.167Z" fill="#0635C9"/>
<path d="M134.619 203.396H154.052C155.663 203.396 156.967 202.09 156.967 200.481V185.906C156.967 184.295 155.663 182.991 154.052 182.991H134.619C133.009 182.991 131.704 184.295 131.704 185.906V200.481C131.704 202.09 133.009 203.396 134.619 203.396ZM137.534 188.821H151.137V197.566H137.534V188.821Z" fill="#0635C9"/>
<path d="M123.05 6.40688C124.659 6.40688 125.965 5.10121 125.965 3.4919V2.91498C125.965 1.30567 124.659 0 123.05 0C121.44 0 120.135 1.30567 120.135 2.91498V3.4919C120.135 5.10121 121.44 6.40688 123.05 6.40688Z" fill="#70B859"/>
<path d="M123.05 30.171C124.659 30.171 125.965 28.8653 125.965 27.256V10.622C125.965 9.0108 124.659 7.70703 123.05 7.70703C121.44 7.70703 120.135 9.0108 120.135 10.622V27.256C120.135 28.8653 121.44 30.171 123.05 30.171Z" fill="#70B859"/>
<path d="M123.05 64.0028C124.659 64.0028 125.965 62.6971 125.965 61.0878V33.9667C125.965 32.3574 124.659 31.0518 123.05 31.0518C121.44 31.0518 120.135 32.3574 120.135 33.9667V61.0878C120.135 62.6971 121.44 64.0028 123.05 64.0028Z" fill="#70B859"/>
<path d="M137.645 25.1569C139.257 25.1569 140.56 23.8531 140.56 22.2419V2.91498C140.56 1.30567 139.257 0 137.645 0C136.036 0 134.73 1.30567 134.73 2.91498V22.2419C134.73 23.8531 136.036 25.1569 137.645 25.1569Z" fill="#70B859"/>
<path d="M137.645 59.5581C139.257 59.5581 140.56 58.2524 140.56 56.6431V31.2831C140.56 29.6719 139.257 28.3682 137.645 28.3682C136.036 28.3682 134.73 29.6719 134.73 31.2831V56.6431C134.73 58.2524 136.036 59.5581 137.645 59.5581Z" fill="#70B859"/>
<path d="M109.422 50.2117C111.031 50.2117 112.337 48.9061 112.337 47.2968V29.5829C112.337 27.9736 111.031 26.668 109.422 26.668C107.813 26.668 106.507 27.9736 106.507 29.5829V47.2968C106.507 48.9061 107.813 50.2117 109.422 50.2117Z" fill="#70B859"/>
<path d="M109.422 24.7036C111.031 24.7036 112.337 23.3979 112.337 21.7886V17.4902C112.337 15.8809 111.031 14.5752 109.422 14.5752C107.813 14.5752 106.507 15.8809 106.507 17.4902V21.7886C106.507 23.3979 107.813 24.7036 109.422 24.7036Z" fill="#70B859"/>
<path d="M121.693 118.199C122.866 119.3 124.71 119.241 125.813 118.068L149.336 93.0062C150.142 92.1465 150.351 90.8864 149.865 89.8123C149.38 88.7381 148.296 88.0625 147.117 88.1005L140.783 88.3016L140.562 63.5718C140.549 61.9719 139.247 60.6833 137.647 60.6833H137.621C136.012 60.6966 134.719 62.0137 134.733 63.6249L134.981 91.3362C134.987 92.1219 135.309 92.8696 135.877 93.4142C136.442 93.957 137.203 94.2493 137.987 94.2246L140.268 94.1525L123.557 111.957L105.752 95.2437L109.513 95.1241C111.086 95.0748 112.337 93.7843 112.337 92.2092V56.4247C112.337 54.8154 111.031 53.5098 109.422 53.5098C107.811 53.5098 106.507 54.8154 106.507 56.4247V89.3853L98.5325 89.6377C97.354 89.6756 96.314 90.4196 95.8984 91.5222C95.4809 92.6248 95.7712 93.8697 96.6309 94.6782L121.693 118.199Z" fill="#70B859"/>
<path d="M64.7499 25.6466C66.3593 25.6466 67.6649 24.3428 67.6649 22.7316V7.77338C67.6649 6.16407 66.3593 4.8584 64.7499 4.8584C63.1406 4.8584 61.835 6.16407 61.835 7.77338V22.7316C61.835 24.3428 63.1406 25.6466 64.7499 25.6466Z" fill="#70B859"/>
<path d="M64.7499 49.6459C66.3593 49.6459 67.6649 48.3402 67.6649 46.7309V33.5224C67.6649 31.9131 66.3593 30.6074 64.7499 30.6074C63.1406 30.6074 61.835 31.9131 61.835 33.5224V46.7309C61.835 48.3402 63.1406 49.6459 64.7499 49.6459Z" fill="#70B859"/>
<path d="M64.7499 61.6335C66.3593 61.6335 67.6649 60.3279 67.6649 58.7186V54.4619C67.6649 52.8506 66.3593 51.5469 64.7499 51.5469C63.1406 51.5469 61.835 52.8506 61.835 54.4619V58.7167C61.8331 60.3279 63.1387 61.6335 64.7499 61.6335Z" fill="#70B859"/>
<path d="M79.3456 25.8404C80.9569 25.8404 82.2606 24.5347 82.2606 22.9254V16.5185C82.2606 14.9092 80.9569 13.6035 79.3456 13.6035C77.7363 13.6035 76.4307 14.9092 76.4307 16.5185V22.9254C76.4307 24.5347 77.7363 25.8404 79.3456 25.8404Z" fill="#70B859"/>
<path d="M79.3456 47.5453C80.9569 47.5453 82.2606 46.2396 82.2606 44.6303V33.9667C82.2606 32.3574 80.9569 31.0518 79.3456 31.0518C77.7363 31.0518 76.4307 32.3574 76.4307 33.9667V44.6303C76.4307 46.2396 77.7363 47.5453 79.3456 47.5453Z" fill="#70B859"/>
<path d="M79.3456 73.74C80.9569 73.74 82.2606 72.4362 82.2606 70.825V53.6787C82.2606 52.0693 80.9569 50.7637 79.3456 50.7637C77.7363 50.7637 76.4307 52.0693 76.4307 53.6787V70.825C76.4307 72.4362 77.7363 73.74 79.3456 73.74Z" fill="#70B859"/>
<path d="M51.122 74.5028C52.7313 74.5028 54.037 73.1972 54.037 71.5879V40.5175C54.037 38.9082 52.7313 37.6025 51.122 37.6025C49.5127 37.6025 48.207 38.9082 48.207 40.5175V71.5879C48.207 73.1972 49.5127 74.5028 51.122 74.5028Z" fill="#70B859"/>
<path d="M51.122 31.9624C52.7313 31.9624 54.037 30.6586 54.037 29.0474V7.77338C54.037 6.16407 52.7313 4.8584 51.122 4.8584C49.5127 4.8584 48.207 6.16407 48.207 7.77338V29.0474C48.207 30.6586 49.5127 31.9624 51.122 31.9624Z" fill="#70B859"/>
<path d="M51.122 97.6154C52.7313 97.6154 54.037 96.3098 54.037 94.7005V80.7158C54.037 79.1064 52.7313 77.8008 51.122 77.8008C49.5127 77.8008 48.207 79.1064 48.207 80.7158V94.7005C48.207 96.3098 49.5127 97.6154 51.122 97.6154Z" fill="#70B859"/>
<path d="M91.5656 123.82C91.0798 122.746 89.9943 122.071 88.8158 122.107L82.4772 122.308L82.2608 101.489V79.8642C82.2608 78.2549 80.9571 76.9492 79.3459 76.9492C77.7366 76.9492 76.4309 78.2549 76.4309 79.8642V101.52L76.6795 125.344C76.6871 126.128 77.0097 126.876 77.5771 127.419C78.1427 127.961 78.9018 128.254 79.6856 128.229L81.9667 128.155L65.2549 145.96L47.45 129.248L51.2114 129.128C52.7865 129.079 54.0353 127.789 54.0353 126.214V102.546C54.0353 100.937 52.7296 99.6314 51.1203 99.6314C49.511 99.6314 48.2053 100.937 48.2053 102.546V123.393L40.2309 123.646C39.0523 123.684 38.0124 124.428 37.5967 125.53C37.1811 126.633 37.4696 127.878 38.3293 128.686L63.3932 152.207C64.566 153.308 66.4106 153.249 67.5132 152.076L91.0361 127.014C91.8427 126.155 92.0515 124.895 91.5656 123.82Z" fill="#70B859"/>
<path d="M175.984 11.2653C177.594 11.2653 178.899 9.95961 178.899 8.3503V7.77338C178.899 6.16407 177.594 4.8584 175.984 4.8584C174.375 4.8584 173.069 6.16407 173.069 7.77338V8.3503C173.069 9.95961 174.375 11.2653 175.984 11.2653Z" fill="#70B859"/>
<path d="M175.984 37.9445C177.594 37.9445 178.899 36.6388 178.899 35.0295V20.3388C178.899 18.7276 177.594 17.4238 175.984 17.4238C174.375 17.4238 173.069 18.7276 173.069 20.3388V35.0295C173.069 36.6388 174.375 37.9445 175.984 37.9445Z" fill="#70B859"/>
<path d="M175.984 47.4838C177.594 47.4838 178.899 46.1781 178.899 44.5688V43.6826C178.899 42.0732 177.594 40.7676 175.984 40.7676C174.375 40.7676 173.069 42.0732 173.069 43.6826V44.5688C173.069 46.1781 174.375 47.4838 175.984 47.4838Z" fill="#70B859"/>
<path d="M190.582 20.2987C192.193 20.2987 193.497 18.9949 193.497 17.3837V7.77338C193.497 6.16407 192.193 4.8584 190.582 4.8584C188.973 4.8584 187.667 6.16407 187.667 7.77338V17.3837C187.667 18.9949 188.973 20.2987 190.582 20.2987Z" fill="#70B859"/>
<path d="M190.582 56.1572C192.193 56.1572 193.497 54.8515 193.497 53.2422V26.4247C193.497 24.8135 192.193 23.5098 190.582 23.5098C188.973 23.5098 187.667 24.8135 187.667 26.4247V53.2422C187.667 54.8515 188.973 56.1572 190.582 56.1572Z" fill="#70B859"/>
<path d="M162.356 25.9194C163.966 25.9194 165.271 24.6138 165.271 23.0045V13.0146C165.271 11.4053 163.966 10.0996 162.356 10.0996C160.747 10.0996 159.441 11.4053 159.441 13.0146V23.0045C159.441 24.6138 160.747 25.9194 162.356 25.9194Z" fill="#70B859"/>
<path d="M162.356 61.1782C163.966 61.1782 165.271 59.8725 165.271 58.2632V32.1328C165.271 30.5234 163.966 29.2178 162.356 29.2178C160.747 29.2178 159.441 30.5234 159.441 32.1328V58.2632C159.441 59.8725 160.747 61.1782 162.356 61.1782Z" fill="#70B859"/>
<path d="M200.052 112.39L193.729 112.589L193.497 63.5814C193.491 61.9759 192.188 60.6797 190.582 60.6797H190.569C188.96 60.6873 187.66 61.9986 187.667 63.608L187.916 115.613C187.92 116.4 188.24 117.152 188.808 117.698C189.373 118.243 190.136 118.537 190.922 118.512L193.203 118.44L176.491 136.245L158.686 119.532L162.448 119.412C164.023 119.363 165.272 118.072 165.272 116.497V68.5384C165.272 66.9291 163.966 65.6234 162.357 65.6234C160.747 65.6234 159.442 66.9291 159.442 68.5384V113.677L151.467 113.929C150.289 113.967 149.249 114.711 148.833 115.814C148.417 116.916 148.706 118.161 149.566 118.97L174.628 142.491C175.8 143.592 177.645 143.533 178.748 142.36L202.269 117.298C203.075 116.438 203.284 115.178 202.798 114.104C202.312 113.03 201.229 112.354 200.05 112.392L200.052 112.39Z" fill="#70B859"/>
</g>
<defs>
<clipPath id="clip0_629_16178">
<rect width="240" height="240" fill="white"/>
</clipPath>
</defs>
</svg>
