<svg width="240" height="240" viewBox="0 0 240 240" fill="none" xmlns="http://www.w3.org/2000/svg">
<g clip-path="url(#clip0_621_14928)">
<path d="M41.8853 48.0469H53.1875V212.024H41.8853V48.0469Z" fill="#D4E1F4"/>
<path d="M140.533 88.0205H151.835V216.625H140.533V88.0205Z" fill="#D4E1F4"/>
<path d="M234.642 189.052C232.988 189.052 231.646 190.392 231.646 192.049V195.544C231.644 198.014 229.649 200.021 227.179 200.039H227.06V190.184C232.91 188.789 237.04 183.567 237.048 177.553V164.238C237.048 157.065 231.235 151.254 224.064 151.254C216.893 151.254 211.08 157.065 211.08 164.238V177.553C211.09 183.567 215.219 188.789 221.068 190.184V215.098C221.068 216.752 222.41 218.094 224.064 218.094C225.718 218.094 227.06 216.752 227.06 215.098V206.031H227.189C232.963 206 237.629 201.316 237.639 195.544V192.049C237.639 190.392 236.299 189.052 234.642 189.052V189.052ZM217.073 177.553V164.238C217.073 160.375 220.203 157.246 224.064 157.246C227.926 157.246 231.055 160.375 231.055 164.238V177.553C231.051 180.251 229.497 182.705 227.06 183.86V181.363C227.06 179.709 225.718 178.367 224.064 178.367C222.41 178.367 221.068 179.709 221.068 181.363V183.86C218.631 182.705 217.076 180.251 217.073 177.553Z" fill="#70B859"/>
<path d="M207.89 197.434V89.8127C207.89 88.1565 206.548 86.8164 204.894 86.8164H141.224C139.568 86.8164 138.228 88.1565 138.228 89.8127V215.238H144.22V177.703H159.451V215.238H165.444V177.703H180.674V197.227C175.566 198.197 171.941 202.763 172.156 207.956C172.37 213.151 176.363 217.401 181.533 217.944C186.704 218.486 191.489 215.154 192.777 210.117C194.064 205.081 191.464 199.861 186.667 197.855V177.703H201.898V197.541C196.928 199.119 193.869 204.103 194.714 209.249C195.558 214.393 200.051 218.141 205.265 218.045C210.477 217.951 214.831 214.048 215.49 208.875C216.15 203.704 212.913 198.831 207.89 197.434V197.434ZM182.615 212.023C180.134 212.023 178.121 210.01 178.121 207.529C178.121 205.046 180.134 203.034 182.615 203.034C185.099 203.034 187.11 205.046 187.11 207.529C187.108 210.01 185.097 212.019 182.615 212.023ZM201.898 150.487H186.667V135.256H201.898V150.487ZM180.674 114.032V129.263H165.444V114.032H180.674ZM165.444 108.04V92.8089H180.674V108.04H165.444ZM159.451 129.263H144.22V114.032H159.451V129.263ZM159.451 135.256V150.487H144.22V135.256H159.451ZM165.444 135.256H180.674V150.487H165.444V135.256ZM201.898 129.263H186.667V114.032H201.898V129.263ZM201.898 108.04H186.667V92.8089H201.898V108.04ZM159.451 92.8089V108.04H144.22V92.8089H159.451ZM144.22 171.71V156.479H159.451V171.71H144.22ZM165.444 171.71V156.479H180.674V171.71H165.444ZM186.667 171.71V156.479H201.898V171.71H186.667ZM205.087 212.023C202.606 212.023 200.593 210.01 200.593 207.529C200.593 205.046 202.606 203.034 205.087 203.034C207.571 203.034 209.582 205.046 209.582 207.529C209.58 210.01 207.569 212.019 205.087 212.023Z" fill="#70B859"/>
<path d="M237.005 212.242H127.99V47.3664C127.99 45.7103 126.648 44.3702 124.994 44.3702H113.842V41.9143H117.919C119.573 41.9143 120.915 40.5722 120.915 38.918V24.7697C120.915 23.1136 119.573 21.7734 117.919 21.7734H47.1754C45.5193 21.7734 44.1791 23.1136 44.1791 24.7697V38.918C44.1791 40.5722 45.5193 41.9143 47.1754 41.9143H51.2523V44.3702H40.1003C38.4441 44.3702 37.104 45.7103 37.104 47.3664V197.47C34.1117 198.336 31.6635 200.491 30.4229 203.349C29.1842 206.205 29.2818 209.467 30.6921 212.242H26.9292C29.1628 207.832 28.0138 202.458 24.1671 199.348C20.3223 196.239 14.8252 196.239 10.9804 199.348C7.13366 202.458 5.98471 207.832 8.22019 212.242H2.99625C1.34207 212.242 0 213.584 0 215.239C0 216.895 1.34207 218.235 2.99625 218.235H237.005C238.659 218.235 240.001 216.895 240.001 215.239C240.001 213.584 238.659 212.242 237.005 212.242V212.242ZM17.5737 203.035C20.057 203.035 22.0681 205.046 22.0681 207.53C22.0681 210.011 20.057 212.024 17.5737 212.024C15.0925 212.024 13.0794 210.011 13.0794 207.53C13.0833 205.048 15.0925 203.037 17.5737 203.035ZM62.5175 203.035C65.0008 203.035 67.0119 205.046 67.0119 207.53C67.0119 210.011 65.0008 212.024 62.5175 212.024C60.0363 212.024 58.0232 210.011 58.0232 207.53C58.0271 205.048 60.0363 203.037 62.5175 203.035ZM64.32 197.208V177.704H79.5509V212.242H71.873C73.3751 209.283 73.3829 205.786 71.8925 202.819C70.4022 199.852 67.5913 197.768 64.32 197.208ZM79.5509 50.3627V65.5937H64.32V50.3627H79.5509ZM121.998 171.711H106.767V156.48H121.998V171.711ZM85.5435 108.041V92.8096H100.774V108.041H85.5435ZM100.774 114.033V129.264H85.5435V114.033H100.774ZM79.5509 108.041H64.32V92.8096H79.5509V108.041ZM79.5509 114.033V129.264H64.32V114.033H79.5509ZM79.5509 135.257V150.488H64.32V135.257H79.5509ZM85.5435 135.257H100.774V150.488H85.5435V135.257ZM100.774 156.48V171.711H85.5435V156.48H100.774ZM121.998 150.488H106.767V135.257H121.998V150.488ZM121.998 129.264H106.767V114.033H121.998V129.264ZM121.998 108.041H106.767V92.8096H121.998V108.041ZM121.998 86.8171H106.767V71.5862H121.998V86.8171ZM100.774 86.8171H85.5435V71.5862H100.774V86.8171ZM85.5435 65.5937V50.3627H100.774V65.5937H85.5435ZM79.5509 71.5862V86.8171H64.32V71.5862H79.5509ZM58.3275 86.8171H43.0965V71.5862H58.3275V86.8171ZM58.3275 92.8096V108.041H43.0965V92.8096H58.3275ZM58.3275 114.033V129.264H43.0965V114.033H58.3275ZM58.3275 135.257V150.488H43.0965V135.257H58.3275ZM58.3275 156.48V171.711H43.0965V156.48H58.3275ZM64.32 156.48H79.5509V171.711H64.32V156.48ZM85.5435 177.704H100.774V212.242H85.5435V177.704ZM106.767 177.704H121.998V212.242H106.767V177.704ZM121.998 65.5937H106.767V50.3627H121.998V65.5937ZM50.1717 27.7659H114.923V35.9218H50.1717V27.7659ZM57.2448 41.9143H107.85V44.3702H57.2448V41.9143ZM58.3275 50.3627V65.5937H43.0965V50.3627H58.3275ZM40.0456 203.035C42.5289 203.035 44.54 205.046 44.54 207.53C44.54 210.011 42.5289 212.024 40.0456 212.024C37.5644 212.024 35.5513 210.011 35.5513 207.53C35.5552 205.048 37.5644 203.037 40.0456 203.035ZM43.0965 197.497V177.704H58.3275V197.922C55.6823 199.067 53.6283 201.254 52.651 203.966C51.6737 206.677 51.859 209.673 53.164 212.242H49.4011C50.8017 209.482 50.9071 206.244 49.6918 203.398C48.4746 200.552 46.0596 198.393 43.0965 197.497V197.497Z" fill="#0635C9"/>
</g>
<defs>
<clipPath id="clip0_621_14928">
<rect width="240" height="240" fill="white"/>
</clipPath>
</defs>
</svg>
