<svg width="240" height="240" viewBox="0 0 240 240" fill="none" xmlns="http://www.w3.org/2000/svg">
<g clip-path="url(#clip0_621_14898)">
<path d="M90.2924 55.5264L6.06055 119.301H24.7359L99.6301 61.8649L90.2924 55.5264Z" fill="#D4E1F4"/>
<path d="M43.4755 119.301H24.8022C26.2956 119.252 27.5504 120.419 27.6044 121.915V232.6H46.2776V121.915C46.2237 120.419 44.9709 119.252 43.4755 119.301Z" fill="#D4E1F4"/>
<path d="M237.119 89.5254L217.288 87.6151C215.198 79.1382 211.788 71.043 207.185 63.6239L219.819 48.3687C220.862 47.1098 220.781 45.2638 219.632 44.0981L198.849 23.0521C197.688 21.8761 195.821 21.7828 194.548 22.8364L179.274 35.4885C171.851 30.9089 163.768 27.4969 155.31 25.3689L153.397 5.53622C153.242 3.90182 151.869 2.65527 150.228 2.65527H120.386C118.745 2.65527 117.372 3.90182 117.214 5.53622L115.304 25.3668C106.827 27.4575 98.7319 30.8674 91.3149 35.4698L76.0598 22.8364C74.7946 21.789 72.9382 21.8761 71.7747 23.0376L50.7265 44.0857C49.5733 45.241 49.4779 47.0807 50.5088 48.348L68.7547 70.7941L73.6994 66.7744L57.2662 46.558L74.2304 29.5939L89.0479 41.8643C90.1326 42.7624 91.6758 42.8433 92.8477 42.0614C100.783 36.8118 109.627 33.0846 118.93 31.0706C120.284 30.7782 121.294 29.6416 121.427 28.2623L123.281 9.02903H147.333L149.187 28.2623C149.32 29.6416 150.33 30.7782 151.684 31.0706C160.986 33.1385 169.837 36.8719 177.81 42.0904C178.975 42.8433 180.498 42.7541 181.568 41.8664L196.371 29.6084L213.076 46.529L200.795 61.3589C199.897 62.4437 199.816 63.9889 200.598 65.1587C205.847 73.0943 209.575 81.9404 211.589 91.2407C211.881 92.5951 213.018 93.6031 214.397 93.7358L233.628 95.5901V119.648L214.656 121.498C213.279 121.633 212.147 122.641 211.852 123.993C209.786 133.295 206.053 142.146 200.832 150.116C200.079 151.284 200.171 152.807 201.056 153.877L213.327 168.694L196.381 185.64L181.564 173.369C180.481 172.471 178.936 172.392 177.766 173.172C171.392 177.406 164.415 180.65 157.071 182.792L158.867 188.907C166.062 186.803 172.935 183.728 179.299 179.766L194.552 192.397C195.817 193.447 197.673 193.36 198.837 192.196L219.883 171.148C221.047 169.986 221.134 168.13 220.084 166.865L207.434 151.587C212.014 144.162 215.426 136.079 217.554 127.619L237.123 125.706C238.755 125.547 240 124.176 240 122.537V92.6967C240 91.0561 238.753 89.683 237.119 89.5254V89.5254Z" fill="#0635C9"/>
<path d="M156.726 158.195L159.213 164.061C180.919 154.862 195.427 134.034 196.527 110.486C197.626 86.937 185.125 64.8456 164.372 53.6661C143.618 42.4846 118.291 44.1978 99.2319 58.0695L102.986 63.2216C120.064 50.7956 142.757 49.2649 161.35 59.2828C179.942 69.3029 191.142 89.0961 190.157 110.194C189.17 131.292 176.173 149.955 156.726 158.197V158.195Z" fill="#0635C9"/>
<path d="M161.154 234.153V125.433H178.764C180.12 125.433 181.329 124.572 181.773 123.288C182.217 122.004 181.798 120.579 180.732 119.741L92.943 50.7624C91.7877 49.8539 90.1616 49.8539 89.0063 50.7624L1.21737 119.741C0.149204 120.579 -0.269767 122.004 0.174093 123.288C0.617953 124.572 1.82716 125.433 3.18571 125.433H20.7929V234.153C20.7929 235.912 22.2199 237.339 23.9787 237.339H157.969C159.729 237.339 161.154 235.912 161.154 234.153V234.153ZM154.783 122.247V230.968H27.1645V122.247C27.1645 120.486 25.7396 119.061 23.9787 119.061H12.3968L90.9747 57.3187L169.55 119.061H157.969C156.21 119.061 154.783 120.486 154.783 122.247Z" fill="#70B859"/>
</g>
<defs>
<clipPath id="clip0_621_14898">
<rect width="240" height="240" fill="white"/>
</clipPath>
</defs>
</svg>
