<svg width="253" height="253" viewBox="0 0 253 253" fill="none" xmlns="http://www.w3.org/2000/svg">
<g clip-path="url(#clip0_621_14881)">
<path d="M57.9996 107.002C56.509 106.766 55.0024 106.646 53.4918 106.646C37.5293 106.646 24.54 119.759 24.54 135.879V149.451C24.6521 149.277 24.7141 149.077 24.7201 148.871L25.2523 137.098C25.2903 136.254 25.6605 135.457 26.2827 134.885C26.903 134.315 27.7253 134.019 28.5657 134.063C28.6377 134.065 30.5505 134.153 33.6177 134.075C34.42 120.461 44.5442 109.219 57.9996 107.002V107.002Z" fill="#D4E1F4"/>
<path d="M36.197 172.243C36.1769 172.14 36.1529 172.04 36.1249 171.942L34.5323 166.406C34.2902 165.114 33.2738 164.103 31.9772 163.871C29.6163 163.445 27.9036 161.382 27.9156 158.983C27.9156 158.583 27.9636 158.185 28.0577 157.797C28.2617 156.888 28.898 156.138 29.7603 155.788C31.8272 156.654 34.1761 156.526 36.1349 155.442C38.4519 154.181 39.9325 151.796 40.0345 149.161L40.3767 141.606C39.8064 141.16 39.2442 140.702 38.686 140.228C35.7288 140.43 33.2258 140.484 31.413 140.486L31.0209 149.161C30.9188 151.796 29.4382 154.181 27.1213 155.442C25.1625 156.526 22.8115 156.654 20.7467 155.788C19.8843 156.138 19.2481 156.888 19.044 157.797C18.95 158.185 18.9019 158.583 18.9019 158.983C18.8879 161.382 20.6006 163.445 22.9636 163.871C24.2581 164.105 25.2745 165.116 25.5166 166.408L27.1133 171.942C27.1413 172.04 27.1653 172.142 27.1833 172.243C29.5042 184.962 40.5587 194.221 53.488 194.275C54.9986 194.273 56.5052 194.143 57.9938 193.887C46.9193 191.935 38.2258 183.303 36.197 172.243V172.243Z" fill="#D4E1F4"/>
<path d="M51.375 204.918V200.568C48.2977 200.372 45.2625 199.742 42.3613 198.695V204.918C47.2533 207.137 52.6975 207.841 57.9917 206.941C55.7087 206.557 53.4838 205.876 51.375 204.918Z" fill="#D4E1F4"/>
<path d="M16.3848 227.492C16.4268 227.318 16.4688 227.144 16.5168 226.97C17.7613 222.534 21.1587 219.025 25.5505 217.636L42.8995 211.956C41.533 211.498 40.1984 210.95 38.9039 210.315L16.5388 217.636C12.1451 219.025 8.74767 222.534 7.50517 226.97C7.45715 227.144 7.41313 227.318 7.37312 227.492C7.16103 228.449 7.06099 229.425 7.07099 230.404V243.497H16.0847V230.404C16.0726 229.425 16.1747 228.449 16.3848 227.492V227.492Z" fill="#D4E1F4"/>
<path d="M178.879 137.168C178.879 122.48 189.109 110.271 202.428 108.088C201.01 107.856 199.573 107.738 198.136 107.738C182.79 107.738 170.305 120.94 170.305 137.168L170.333 147.02L170.405 147.096C170.899 147.63 171.688 147.775 172.34 147.45C172.688 147.278 172.964 146.992 173.126 146.64C174.241 144.197 176.3 142.6 178.501 142.47L178.613 142.464L178.895 142.446L178.879 137.168Z" fill="#D4E1F4"/>
<path d="M186.476 184.553C181.906 179.255 179.377 172.498 179.347 165.501C179.367 164.015 178.322 162.724 176.864 162.434C174.919 162.05 173.53 160.329 173.562 158.348C173.562 158.012 173.6 157.68 173.676 157.354C173.894 156.361 174.737 155.627 175.751 155.551C176.67 155.457 177.494 154.945 177.982 154.163C179.663 154.555 181.43 154.351 182.976 153.586C184.571 152.796 185.847 151.484 186.594 149.869C186.692 149.647 186.836 149.447 187.018 149.285C190.839 149.065 198.799 147.614 205.699 144.641C204.563 143.768 203.476 142.836 202.44 141.85C193.582 147.42 183.232 149.007 178.444 149.285C178.262 149.447 178.118 149.647 178.02 149.869C177.272 151.484 175.997 152.794 174.403 153.586C172.854 154.351 171.089 154.555 169.409 154.163C168.918 154.945 168.096 155.457 167.178 155.551C166.163 155.627 165.321 156.361 165.103 157.354C165.025 157.68 164.987 158.012 164.987 158.348C164.955 160.329 166.345 162.05 168.29 162.434C169.749 162.724 170.793 164.015 170.773 165.501C170.803 172.498 173.33 179.255 177.902 184.553C182.54 189.873 188.6 192.804 194.969 192.804H200.337C200.873 192.804 201.408 192.774 201.94 192.734C196.164 192.284 190.723 189.425 186.476 184.553V184.553Z" fill="#D4E1F4"/>
<path d="M173.6 194.683C171.816 192.108 170.801 189.077 170.675 185.943C169.331 183.949 168.198 181.82 167.294 179.593L166.916 181.033C165.677 185.715 166.554 190.705 169.313 194.683C171.92 198.47 176.025 200.955 180.587 201.51L182.212 200.951C178.712 199.903 175.675 197.692 173.6 194.683V194.683Z" fill="#D4E1F4"/>
<path d="M170.167 215.682L175.785 213.795L173.48 211.57L161.246 215.682C156.304 217.323 152.964 221.941 152.952 227.149V242.821H161.874V227.149C161.886 221.941 165.225 217.323 170.167 215.682V215.682Z" fill="#D4E1F4"/>
<path d="M188.176 209.927L185.503 207.046L180.631 208.719L183.491 211.534L188.176 209.927Z" fill="#D4E1F4"/>
<path d="M194.191 202.098V199.709C192.744 199.579 191.312 199.333 189.905 198.977V202.098L199.277 211.562L201.422 209.397L194.191 202.098Z" fill="#D4E1F4"/>
<path d="M106.763 225.468C104.891 218.807 99.7826 213.543 93.1819 211.468L71.7512 204.519V196.082C79.6705 191.1 85.1747 183.061 86.9514 173.873L88.0519 170.091C93.5081 167.924 96.5333 162.066 95.1387 156.364C94.4524 153.485 92.4776 151.082 89.7866 149.849V136.023C89.7866 116.109 73.642 99.9648 53.7279 99.9648C33.8119 99.9648 17.6693 116.109 17.6693 136.023V149.841C14.9702 151.074 12.9914 153.481 12.3031 156.366C10.9086 162.068 13.9338 167.926 19.39 170.091L20.4904 173.875C22.2672 183.061 27.7714 191.102 35.6906 196.084V204.519L14.2619 211.47C7.65924 213.545 2.55117 218.811 0.678408 225.472C0.61038 225.728 0.546354 225.986 0.482328 226.244C0.150194 227.707 -0.011872 229.203 0.000132824 230.704V247.009C0.000132824 248.987 1.60678 250.594 3.58559 250.594H103.858C105.837 250.594 107.444 248.987 107.444 247.009V230.704C107.454 229.203 107.294 227.709 106.96 226.246C106.899 225.986 106.835 225.728 106.763 225.468V225.468ZM56.1009 138.188C60.3286 142.304 65.3646 145.499 70.8909 147.57C64.2982 146.3 56.455 143.947 49.2581 139.587C51.477 139.219 53.778 138.759 56.1009 138.19V138.188ZM24.8422 136.023C24.8422 120.069 37.7775 107.136 53.7319 107.136C69.6864 107.136 82.6196 120.069 82.6196 136.023V143.246C73.8361 141.966 67.7696 138.506 64.1662 135.745C68.8901 134.067 73.3359 131.69 77.3555 128.692C78.9282 127.488 79.2243 125.237 78.0198 123.666C76.8153 122.096 74.5644 121.798 72.9917 123.004C57.2173 135.101 28.8238 133.825 28.5377 133.811C26.773 133.721 25.2044 134.931 24.8442 136.662L24.8422 136.023ZM27.5073 172.372C27.4853 172.258 27.4573 172.146 27.4253 172.034L25.8166 166.508C25.5285 165.053 24.376 163.927 22.9174 163.671C20.7285 163.289 19.1319 161.386 19.1379 159.163C19.1379 158.795 19.1799 158.427 19.268 158.068C19.436 157.332 19.9342 156.712 20.6165 156.388C22.9975 157.304 25.6725 157.02 27.8094 155.623C29.9443 154.229 31.2788 151.892 31.3949 149.343L31.771 141.036C33.5517 141.03 35.9007 140.973 38.6358 140.793C57.9216 156.984 84.8325 156.252 86.3071 156.198C87.2315 156.418 87.9518 157.142 88.1699 158.066C88.2579 158.427 88.302 158.795 88.3 159.163C88.306 161.386 86.7113 163.289 84.5224 163.671C83.1279 163.929 82.0134 164.975 81.6693 166.348L80.0166 172.034C79.9826 172.146 79.9546 172.258 79.9346 172.372C77.5636 184.981 66.5491 194.117 53.7179 194.117C40.8867 194.117 29.8743 184.981 27.5033 172.372H27.5073ZM53.7219 201.292C57.4154 201.292 61.0849 200.684 64.5803 199.495V204.909C57.6595 207.939 49.7843 207.939 42.8635 204.909V199.493C46.3609 200.684 50.0284 201.29 53.7219 201.292ZM100.273 243.425H7.17104V230.704C7.16104 229.751 7.25908 228.801 7.46716 227.873C7.50518 227.703 7.5492 227.533 7.59521 227.369C8.83172 223.039 12.1711 219.623 16.4728 218.291L38.9399 211.006C48.2877 215.474 59.1541 215.474 68.5019 211.006L90.969 218.291C95.2708 219.623 98.6081 223.035 99.8486 227.363C99.8927 227.531 99.9367 227.701 99.9767 227.873C100.185 228.801 100.283 229.749 100.273 230.702V243.425Z" fill="#0635C9"/>
<path d="M209.593 232.947H206.462C204.483 232.947 202.876 234.552 202.876 236.533C202.876 238.512 204.483 240.118 206.462 240.118H209.593C211.572 240.118 213.179 238.512 213.179 236.533C213.179 234.552 211.572 232.947 209.593 232.947Z" fill="#0635C9"/>
<path d="M239.927 208.83L227.42 204.592C236.38 199.424 241.02 189.098 238.931 178.967L236.404 166.712C239.917 164.053 241.514 159.562 240.468 155.282C239.833 152.617 238.035 150.382 235.568 149.193L235.612 137.157C235.672 117.072 219.437 100.744 199.355 100.686C179.271 100.626 162.942 116.858 162.882 136.942L162.916 148.159V148.239L162.938 149.213C160.495 150.408 158.717 152.633 158.088 155.278C156.954 159.92 158.937 164.766 163 167.281L160.051 178.371C157.348 188.507 161.548 199.226 170.417 204.83L158.628 208.824C150.811 211.471 145.553 218.806 145.555 227.059V246.401C145.555 248.382 147.162 249.986 149.141 249.986H249.415C251.394 249.986 253.001 248.382 253.001 246.401V227.065C253.003 218.812 247.745 211.477 239.927 208.83V208.83ZM185.169 207.407L195.664 217.873V223.299L180.833 208.878L185.169 207.407ZM196.426 199.976H202.132C204.393 199.972 206.646 199.708 208.847 199.186V201.809L199.279 211.353L189.711 201.809V199.186C191.91 199.708 194.165 199.972 196.426 199.976ZM202.834 217.935L213.393 207.407L217.728 208.878L202.834 223.359V217.935ZM228.581 194.302C225.522 198.143 220.93 200.448 216.022 200.608V196.511C223.049 192.765 228.583 186.725 231.7 179.396L231.91 180.414C232.925 185.308 231.704 190.4 228.579 194.302H228.581ZM199.249 107.739C207.024 107.739 214.479 110.84 219.959 116.356C225.438 121.872 228.491 129.345 228.441 137.12L228.407 146.53C221.114 145.858 214.195 142.987 208.567 138.299C213.133 134.297 216.962 129.529 219.885 124.207C220.858 122.485 220.251 120.296 218.527 119.321C216.802 118.349 214.615 118.955 213.641 120.68C202.43 140.526 186.246 141.428 178.469 141.862L178.35 141.87C175.867 142.008 173.551 143.699 172.304 146.284C172.166 146.562 171.936 146.782 171.656 146.912C171.132 147.161 170.511 147.065 170.085 146.67L170.053 136.932C170.071 120.816 183.132 107.755 199.249 107.739V107.739ZM165.057 156.987C165.269 156.118 166.023 155.49 166.916 155.436C167.906 155.346 168.815 154.848 169.421 154.061C173.232 154.8 177.062 152.887 178.761 149.397C178.827 149.257 178.913 149.129 179.017 149.015C184.129 148.729 193.277 148.167 202.598 142.603C209.859 149.189 219.141 153.123 228.925 153.761C229.517 154.714 230.522 155.334 231.64 155.438C232.532 155.492 233.285 156.12 233.499 156.989C233.751 158.025 233.565 159.117 232.983 160.012C232.4 160.904 231.474 161.518 230.426 161.706C228.705 162.027 227.456 163.531 227.458 165.282C227.4 172.381 224.739 179.214 219.981 184.484C215.125 189.85 208.785 192.805 202.128 192.805H196.426C189.767 192.805 183.429 189.85 178.575 184.484C173.807 179.202 171.146 172.353 171.096 165.238C171.098 163.495 169.845 162.005 168.128 161.702C166.286 161.38 164.941 159.778 164.945 157.907C164.945 157.597 164.983 157.287 165.057 156.987V156.987ZM169.473 194.224C166.61 190.156 165.697 185.028 166.98 180.22L167.068 179.89C170.221 187.005 175.667 192.857 182.538 196.515V200.728L181.092 201.218C176.404 200.636 172.182 198.095 169.473 194.224ZM152.728 227.063C152.726 221.883 156.027 217.281 160.931 215.62L173.204 211.461L195.664 233.302V242.821H152.73L152.728 227.063ZM245.83 242.819H202.834V233.362L225.356 211.463L237.627 215.62C242.533 217.283 245.834 221.885 245.832 227.065L245.83 242.819Z" fill="#0635C9"/>
<path d="M184.667 44.6489L169.429 33.5564V14.2405C169.429 12.5418 168.054 11.1673 166.356 11.1673C164.659 11.1673 163.282 12.5418 163.282 14.2405V29.0806L128.324 3.63023C127.246 2.84591 125.785 2.84591 124.707 3.63023L68.3638 44.6509C67.4574 45.2891 66.9632 46.3676 67.0753 47.472C67.1853 48.5765 67.8836 49.5349 68.9 49.981C69.9184 50.4252 71.0949 50.2872 71.9812 49.6189L83.602 41.1595V102.036C83.602 103.733 84.9785 105.109 86.6752 105.109H166.356C168.054 105.109 169.429 103.733 169.429 102.036V41.1575L181.049 49.6189C181.936 50.2852 183.114 50.4232 184.131 49.979C185.147 49.5349 185.845 48.5745 185.957 47.472C186.068 46.3676 185.575 45.2891 184.667 44.6489ZM163.282 98.9629H89.7485V36.6836L126.515 9.91478L163.282 36.6836V98.9629Z" fill="#70B859"/>
<path d="M123.442 39.0488V41.6079C117.257 43.1585 113.2 49.0769 113.98 55.4055C114.762 61.734 120.139 66.488 126.515 66.488C130.097 66.468 133.014 69.3551 133.032 72.9346C133.052 76.516 130.165 79.4332 126.585 79.4512C126.561 79.4512 126.539 79.4492 126.515 79.4492C126.493 79.4492 126.469 79.4512 126.447 79.4512C122.896 79.4112 120.037 76.524 120.033 72.9726C120.033 71.2739 118.656 69.8993 116.959 69.8993C115.263 69.8993 113.886 71.2739 113.886 72.9726C113.894 78.7609 117.83 83.807 123.442 85.2216V88.2148C123.442 89.9135 124.819 91.288 126.515 91.288C128.214 91.288 129.588 89.9135 129.588 88.2148V85.2216C135.775 83.6709 139.833 77.7525 139.05 71.424C138.27 65.0954 132.892 60.3415 126.515 60.3415C122.934 60.3415 120.031 57.4383 120.031 53.8568C120.031 50.2774 122.934 47.3742 126.515 47.3742C130.097 47.3742 133 50.2774 133 53.8588C133 55.5555 134.374 56.9321 136.073 56.9321C137.77 56.9321 139.146 55.5555 139.146 53.8588C139.138 48.0685 135.203 43.0244 129.588 41.6079V39.0488C129.588 37.3521 128.214 35.9756 126.515 35.9756C124.819 35.9756 123.442 37.3521 123.442 39.0488V39.0488Z" fill="#70B859"/>
</g>
<defs>
<clipPath id="clip0_621_14881">
<rect width="253" height="253" fill="white"/>
</clipPath>
</defs>
</svg>
