<svg width="112" height="112" viewBox="0 0 112 112" fill="none" xmlns="http://www.w3.org/2000/svg">
<path d="M83.0566 40.4791V51.1242H48.2797L42.0654 45.8018L48.2797 40.4791H83.0566Z" fill="#70B859"/>
<path d="M83.0566 21.2957V31.9407H48.2797L42.0654 26.6183L48.2797 21.2957H83.0566Z" fill="#70B859"/>
<path d="M83.0566 59.9058V70.5506H48.2797L42.0654 65.2282L48.2797 59.9058H83.0566Z" fill="#70B859"/>
<path d="M83.0566 79.332V89.9768H48.2797L42.0654 84.6544L48.2797 79.332H83.0566Z" fill="#70B859"/>
<path d="M88.4264 0.380127H23.574C20.0955 0.380127 17.2666 3.20966 17.2666 6.68756V105.312C17.2666 108.79 20.0955 111.62 23.574 111.62H88.4264C91.905 111.62 94.7338 108.79 94.7338 105.312V6.68756C94.7338 3.20966 91.905 0.380127 88.4264 0.380127ZM91.2934 105.312C91.2934 106.893 90.0078 108.179 88.4264 108.179H23.574C21.9927 108.179 20.7071 106.893 20.7071 105.312V6.68756C20.7071 5.10688 21.9927 3.82063 23.574 3.82063H88.4264C90.0078 3.82063 91.2934 5.10688 91.2934 6.68756V105.312Z" fill="#222222"/>
<path d="M35.2122 41.7975L30.8523 46.1568L30.1601 45.4646C29.4881 44.7926 28.3996 44.7933 27.7276 45.464C27.0556 46.136 27.0556 47.2251 27.7276 47.8969L29.636 49.8057C30.3106 50.4804 31.3996 50.4747 32.0685 49.8057L37.6447 44.2296C38.3167 43.5582 38.3167 42.4684 37.6447 41.7971C36.9727 41.1255 35.8842 41.1255 35.2122 41.7975Z" fill="#222222"/>
<path d="M35.2122 22.614L30.8523 26.9733L30.1601 26.2812C29.4881 25.6092 28.3996 25.6098 27.7276 26.2805C27.0556 26.9525 27.0556 28.0417 27.7276 28.7134L29.636 30.6223C30.3106 31.2969 31.3996 31.2912 32.0685 30.6223L37.6447 25.0461C38.3167 24.3748 38.3167 23.2849 37.6447 22.6136C36.9727 21.942 35.8842 21.942 35.2122 22.614Z" fill="#222222"/>
<path d="M66.6683 44.0818H50.3589C49.4093 44.0818 48.6387 44.8518 48.6387 45.802C48.6387 46.7523 49.4091 47.5223 50.3589 47.5223H66.6683C67.6179 47.5223 68.3885 46.7523 68.3885 45.802C68.3883 44.8518 67.6179 44.0818 66.6683 44.0818Z" fill="#222222"/>
<path d="M66.6683 24.8983H50.3589C49.4093 24.8983 48.6387 25.6683 48.6387 26.6186C48.6387 27.5688 49.4091 28.3388 50.3589 28.3388H66.6683C67.6179 28.3388 68.3885 27.5688 68.3885 26.6186C68.3883 25.6683 67.6179 24.8983 66.6683 24.8983Z" fill="#222222"/>
<path d="M35.2122 61.2239L30.8523 65.5831L30.1601 64.891C29.4881 64.219 28.3996 64.2197 27.7276 64.8903C27.0556 65.5623 27.0556 66.6515 27.7276 67.3233L29.636 69.2321C30.3106 69.9067 31.3996 69.901 32.0685 69.2321L37.6447 63.6562C38.3167 62.9848 38.3167 61.895 37.6447 61.2237C36.9727 60.5519 35.8842 60.5519 35.2122 61.2239Z" fill="#222222"/>
<path d="M66.6683 63.5078H50.3589C49.4093 63.5078 48.6387 64.2778 48.6387 65.2281C48.6387 66.1783 49.4091 66.9483 50.3589 66.9483H66.6683C67.6179 66.9483 68.3885 66.1783 68.3885 65.2281C68.3885 64.2778 67.6179 63.5078 66.6683 63.5078Z" fill="#222222"/>
<path d="M35.2122 80.6501L30.8523 85.0093L30.1601 84.3172C29.4881 83.6452 28.3996 83.6458 27.7276 84.3165C27.0556 84.9885 27.0556 86.0777 27.7276 86.7495L29.636 88.6583C30.3106 89.3329 31.3996 89.3272 32.0685 88.6583L37.6447 83.0821C38.3167 82.4108 38.3167 81.321 37.6447 80.6496C36.9727 79.978 35.8842 79.9781 35.2122 80.6501Z" fill="#222222"/>
<path d="M66.6683 82.934H50.3589C49.4093 82.934 48.6387 83.704 48.6387 84.6542C48.6387 85.6045 49.4091 86.3745 50.3589 86.3745H66.6683C67.6179 86.3745 68.3885 85.6045 68.3885 84.6542C68.3885 83.704 67.6179 82.934 66.6683 82.934Z" fill="#222222"/>
</svg>
