<svg width="240" height="240" viewBox="0 0 240 240" fill="none" xmlns="http://www.w3.org/2000/svg">
<path d="M204.648 158.483L199.721 162.062L199.721 59.0041C199.721 57.3865 198.412 56.0775 196.794 56.0775C195.178 56.0775 193.867 57.3865 193.867 59.0041L193.867 166.312L173.692 180.972L153.539 166.272L153.539 67.4714C153.539 65.8557 152.23 64.5448 150.613 64.5448C148.997 64.5448 147.686 65.8557 147.686 67.4714L147.686 162.005L142.78 158.424C141.473 157.472 139.644 157.759 138.691 159.065C137.738 160.37 138.024 162.201 139.329 163.153L147.686 169.251L147.686 181.757C147.686 183.373 148.997 184.684 150.613 184.684C152.23 184.684 153.539 183.373 153.539 181.757L153.539 173.518L171.962 186.959C172.989 187.707 174.38 187.709 175.407 186.963L208.087 163.218C208.944 162.609 209.405 161.585 209.299 160.539C209.192 159.493 208.533 158.584 207.571 158.16C206.608 157.735 205.494 157.859 204.648 158.483Z" fill="#0635C9"/>
<path d="M135.604 202.569L130.677 206.147L130.685 123.536C130.685 121.92 129.374 120.609 127.758 120.609C126.142 120.609 124.832 121.92 124.832 123.536L124.828 210.402L104.65 225.06L84.4994 210.36L84.5071 117.511C84.5071 115.896 83.1962 114.585 81.5805 114.585C79.9629 114.585 78.6539 115.896 78.6539 117.511L78.6482 206.09L73.74 202.51C72.4349 201.557 70.6039 201.843 69.6512 203.148C68.6985 204.454 68.9843 206.285 70.2895 207.237L78.6463 213.334L78.6463 225.841C78.6463 227.459 79.9571 228.767 81.5729 228.767C83.1905 228.767 84.4994 227.459 84.4994 225.841L84.4994 217.604L102.924 231.044C103.949 231.793 105.34 231.793 106.369 231.048L139.049 207.304C140.356 206.353 140.646 204.524 139.695 203.215C138.746 201.908 136.915 201.618 135.608 202.569L135.604 202.569Z" fill="#0635C9"/>
<path d="M58.7353 123.344L58.7391 123.344C60.3548 123.344 61.6638 122.037 61.6657 120.421L61.6733 114.817C61.6752 113.2 60.3682 111.887 58.7506 111.885L58.7467 111.885C57.131 111.885 55.8221 113.194 55.8202 114.808L55.8125 120.413C55.8106 122.031 57.1196 123.342 58.7353 123.344Z" fill="#0635C9"/>
<path d="M70.6494 165.895C69.6986 164.588 67.8695 164.298 66.5605 165.247L61.639 168.823L61.6581 129.859C61.6581 128.242 60.3491 126.933 58.7315 126.933C57.1158 126.933 55.8049 128.242 55.8049 129.859L55.7839 173.08L35.6065 187.741L15.4747 173.055L15.4919 159.645L15.4919 143.591C15.4919 141.975 14.181 140.665 12.5653 140.665C10.9495 140.665 9.63867 141.975 9.63867 143.591L9.63867 159.64L9.62724 168.787L4.69623 165.19C3.85217 164.55 2.72993 164.416 1.75821 164.837C0.788393 165.26 0.121526 166.173 0.0148273 167.227C-0.0918715 168.28 0.378746 169.307 1.24377 169.917L9.6158 176.024L9.60056 188.515C9.59865 190.133 10.9076 191.444 12.5233 191.445L12.5272 191.445C14.1429 191.445 15.4518 190.138 15.4537 188.523L15.4652 180.29L33.8783 193.722C34.9034 194.471 36.2943 194.471 37.3232 193.724L69.9996 169.982C71.3067 169.033 71.5982 167.202 70.6494 165.895Z" fill="#0635C9"/>
<path d="M181.403 29.2412C183.019 29.2412 184.33 27.9303 184.33 26.3146L184.33 12.1999C184.33 10.5823 183.019 9.27331 181.403 9.27331C179.787 9.27331 178.476 10.5823 178.476 12.1999L178.476 26.3146C178.476 27.9303 179.787 29.2412 181.403 29.2412Z" fill="#0635C9"/>
<path d="M178.476 71.7218C178.476 73.3395 179.787 74.6484 181.403 74.6484C183.019 74.6484 184.33 73.3395 184.33 71.7218L184.33 36.8676C184.33 35.2519 183.019 33.941 181.403 33.941C179.787 33.941 178.476 35.2519 178.476 36.8676L178.476 71.7218Z" fill="#0635C9"/>
<path d="M178.476 86.3957C178.476 88.0114 179.787 89.3223 181.403 89.3223C183.019 89.3223 184.33 88.0114 184.33 86.3957L184.33 82.6993C184.33 81.0817 183.019 79.7727 181.403 79.7727C179.787 79.7727 178.476 81.0817 178.476 82.6993L178.476 86.3957Z" fill="#0635C9"/>
<path d="M196.796 31.1846C198.414 31.1846 199.723 29.8756 199.723 28.258L199.723 17.0775C199.723 15.4599 198.414 14.1509 196.796 14.1509C195.18 14.1509 193.869 15.4599 193.869 17.0775L193.869 28.258C193.869 29.8756 195.18 31.1846 196.796 31.1846Z" fill="#0635C9"/>
<path d="M193.869 50.7277C193.869 52.3453 195.18 53.6543 196.796 53.6543C198.414 53.6543 199.723 52.3453 199.723 50.7277L199.723 39.1185C199.723 37.5028 198.414 36.1919 196.796 36.1919C195.18 36.1919 193.869 37.5028 193.869 39.1185L193.869 50.7277Z" fill="#0635C9"/>
<path d="M150.614 35.4014C152.232 35.4014 153.541 34.0924 153.541 32.4748L153.541 16.6033C153.541 14.9876 152.232 13.6768 150.614 13.6768C148.999 13.6768 147.688 14.9876 147.688 16.6033L147.688 32.4748C147.688 34.0924 148.999 35.4014 150.614 35.4014Z" fill="#0635C9"/>
<path d="M147.688 56.9689C147.688 58.5865 148.999 59.8955 150.614 59.8955C152.232 59.8955 153.541 58.5865 153.541 56.9689L153.541 42.8466C153.541 41.2309 152.232 39.92 150.614 39.92C148.999 39.92 147.688 41.2309 147.688 42.8466L147.688 56.9689Z" fill="#0635C9"/>
<path d="M163.083 80.2619C163.083 81.8776 164.392 83.1885 166.009 83.1885C167.625 83.1885 168.936 81.8776 168.936 80.2619L168.936 61.5534C168.936 59.9377 167.625 58.6268 166.009 58.6268C164.392 58.6268 163.083 59.9377 163.083 61.5534L163.083 80.2619Z" fill="#0635C9"/>
<path d="M166.009 53.7988C167.625 53.7988 168.936 52.488 168.936 50.8722L168.936 11.7252C168.936 10.1095 167.625 8.79866 166.009 8.79866C164.392 8.79866 163.083 10.1095 163.083 11.7252L163.083 50.8722C163.083 52.488 164.392 53.7988 166.009 53.7988Z" fill="#0635C9"/>
<path d="M163.083 92.1759C163.083 93.7936 164.392 95.1025 166.009 95.1025C167.625 95.1025 168.936 93.7936 168.936 92.1759L168.936 88.6206C168.936 87.0049 167.625 85.694 166.009 85.694C164.392 85.694 163.083 87.0049 163.083 88.6206L163.083 92.1759Z" fill="#0635C9"/>
<path d="M112.367 103.949C113.983 103.949 115.293 102.638 115.293 101.023L115.293 77.1088C115.293 75.4912 113.983 74.1822 112.367 74.1822C110.749 74.1822 109.44 75.4912 109.44 77.1088L109.44 101.023C109.44 102.638 110.749 103.949 112.367 103.949V103.949Z" fill="#0635C9"/>
<path d="M109.44 111.687C109.44 113.304 110.749 114.613 112.367 114.613C113.983 114.613 115.293 113.304 115.293 111.687L115.293 110.734C115.293 109.116 113.983 107.807 112.367 107.807C110.749 107.807 109.44 109.116 109.44 110.734L109.44 111.687Z" fill="#0635C9"/>
<path d="M109.44 156.142C109.44 157.757 110.749 159.068 112.367 159.068C113.983 159.068 115.293 157.757 115.293 156.142L115.293 121.286C115.293 119.67 113.983 118.359 112.367 118.359C110.749 118.359 109.44 119.67 109.44 121.286L109.44 156.142Z" fill="#0635C9"/>
<path d="M130.687 112.678L130.687 101.497C130.687 99.8798 129.376 98.5708 127.76 98.5708C126.144 98.5708 124.833 99.8798 124.833 101.497L124.833 112.678C124.833 114.294 126.144 115.604 127.76 115.604C129.376 115.604 130.687 114.294 130.687 112.678Z" fill="#0635C9"/>
<path d="M84.5068 107.141L84.5068 101.025C84.5068 99.4089 83.196 98.0981 81.5802 98.0981C79.9626 98.0981 78.6537 99.4089 78.6537 101.025L78.6537 107.141C78.6537 108.758 79.9626 110.067 81.5802 110.067C83.196 110.067 84.5068 108.758 84.5068 107.141Z" fill="#0635C9"/>
<path d="M94.0453 145.973C94.0453 147.589 95.3561 148.899 96.9718 148.899C98.5895 148.899 99.8984 147.589 99.8984 145.973L99.8984 145.171C99.8984 143.555 98.5895 142.244 96.9718 142.244C95.3561 142.244 94.0453 143.555 94.0453 145.171L94.0453 145.973Z" fill="#0635C9"/>
<path d="M94.0453 135.292C94.0453 136.908 95.3561 138.219 96.9718 138.219C98.5895 138.219 99.8984 136.908 99.8984 135.292L99.8984 88.762C99.8984 87.1463 98.5895 85.8354 96.9718 85.8354C95.3561 85.8354 94.0453 87.1463 94.0453 88.762L94.0453 135.292Z" fill="#0635C9"/>
<path d="M96.9718 81.0303C98.5895 81.0303 99.8984 79.7194 99.8984 78.1037L99.8984 76.6347C99.8984 75.0189 98.5895 73.7081 96.9718 73.7081C95.3561 73.7081 94.0453 75.0189 94.0453 76.6347L94.0453 78.1037C94.0453 79.7194 95.3561 81.0303 96.9718 81.0303Z" fill="#0635C9"/>
<path d="M43.3234 146.244C44.9391 146.244 46.25 144.935 46.25 143.318L46.25 126.972C46.25 125.356 44.9391 124.045 43.3234 124.045C41.7077 124.045 40.3968 125.356 40.3968 126.972L40.3968 143.318C40.3968 144.935 41.7077 146.244 43.3234 146.244Z" fill="#0635C9"/>
<path d="M40.3968 153.533C40.3968 155.151 41.7077 156.46 43.3234 156.46C44.9391 156.46 46.25 155.151 46.25 153.533L46.25 153.347C46.25 151.731 44.9391 150.42 43.3234 150.42C41.7077 150.42 40.3968 151.731 40.3968 153.347L40.3968 153.533Z" fill="#0635C9"/>
<path d="M12.5348 137.662C14.1525 137.662 15.4614 136.351 15.4614 134.736L15.4614 132.39C15.4614 130.774 14.1525 129.463 12.5348 129.463C10.9191 129.463 9.60824 130.774 9.60824 132.39L9.60824 134.736C9.60824 136.351 10.9191 137.662 12.5348 137.662Z" fill="#0635C9"/>
<path d="M30.8564 145.009L30.8564 132.005C30.8564 130.387 29.5456 129.078 27.9299 129.078C26.3122 129.078 25.0033 130.387 25.0033 132.005L25.0033 145.009C25.0033 146.627 26.3122 147.936 27.9299 147.936C29.5456 147.936 30.8564 146.627 30.8564 145.009Z" fill="#0635C9"/>
<path d="M20.4881 49.5772C20.5147 28.2622 35.8851 10.0625 56.8952 6.46902C39.7548 3.56149 22.521 11.0837 13.0001 25.6291C3.47914 40.1744 3.47914 58.98 13.0001 73.5253C22.521 88.0707 39.7548 95.5929 56.8952 92.6854C35.8851 89.0919 20.5147 70.8922 20.4881 49.5772V49.5772Z" fill="#D4E1F4"/>
<path d="M49.5787 0C22.1971 0 0.00190521 22.1952 0 49.5768C0 76.9583 22.1971 99.1536 49.5787 99.1536C76.9602 99.1536 99.1555 76.9583 99.1555 49.5768C99.125 22.2086 76.9469 0.0304853 49.5787 0V0ZM49.5787 93.3004C25.4305 93.3004 5.85509 73.725 5.85319 49.5768C5.85319 25.4286 25.4305 5.85128 49.5787 5.85128C73.7269 5.85128 93.3023 25.4286 93.3023 49.5768C93.2756 73.7136 73.7155 93.2737 49.5787 93.3004V93.3004Z" fill="#70B859"/>
<path d="M49.5787 27.8385C54.6946 27.8461 58.8406 31.9902 58.8463 37.106C58.8463 38.7236 60.1571 40.0326 61.7729 40.0326C63.3886 40.0326 64.6995 38.7236 64.6995 37.106C64.6899 29.8886 59.5855 23.6791 52.5053 22.273V18.2127C52.5053 16.5951 51.1945 15.2861 49.5787 15.2861C47.963 15.2861 46.6521 16.5951 46.6521 18.2127V22.273C39.0194 23.7801 33.7778 30.8337 34.5342 38.5769C35.2906 46.3202 41.7993 52.2248 49.5787 52.2267C54.6202 52.3106 58.6691 56.4089 58.6919 61.4505C58.7167 66.492 54.706 70.6265 49.6664 70.758C49.6359 70.758 49.6073 70.7542 49.5787 70.7542C49.5502 70.7542 49.5216 70.758 49.4911 70.758C44.4115 70.7066 40.3188 66.5758 40.3112 61.4943C40.3112 59.8786 39.0003 58.5677 37.3846 58.5677C35.7689 58.5677 34.458 59.8786 34.458 61.4943C34.4675 68.7136 39.5719 74.9231 46.6521 76.3292V80.9439C46.6521 82.5597 47.963 83.8705 49.5787 83.8705C51.1945 83.8705 52.5053 82.5597 52.5053 80.9439V76.3292C60.1381 74.8202 65.3797 67.7685 64.6233 60.0253C63.8668 52.282 57.3582 46.3774 49.5787 46.3736C44.461 46.3736 40.3112 42.2256 40.3112 37.106C40.3112 31.9883 44.461 27.8385 49.5787 27.8385V27.8385Z" fill="#70B859"/>
</svg>
