<svg width="112" height="112" viewBox="0 0 112 112" fill="none" xmlns="http://www.w3.org/2000/svg">
<path d="M57.6772 101.394H53.8978C53.0989 98.6171 50.8898 96.4327 48.0974 95.6699V84.6545C48.0974 83.4464 47.1179 82.467 45.9099 82.467C44.702 82.467 43.7224 83.4464 43.7224 84.6545V95.6699C40.1973 96.6329 37.5977 99.8616 37.5977 103.688C37.5977 108.271 41.3265 112 45.9097 112C49.7744 112 53.0316 109.348 53.9578 105.769H57.6763C58.8842 105.769 59.8638 104.79 59.8638 103.581C59.8642 102.374 58.8849 101.394 57.6772 101.394ZM45.9102 107.625C43.7393 107.625 41.9729 105.859 41.9729 103.688C41.9729 101.517 43.7393 99.7507 45.9102 99.7507C48.081 99.7507 49.8474 101.517 49.8474 103.688C49.8474 105.859 48.0813 107.625 45.9102 107.625Z" fill="#222222"/>
<path d="M30.9182 101.394H2.19043C0.982492 101.394 0.00292969 102.374 0.00292969 103.582C0.00292969 104.79 0.982492 105.769 2.19043 105.769H30.9182C32.1262 105.769 33.1057 104.79 33.1057 103.582C33.1055 102.374 32.1259 101.394 30.9182 101.394Z" fill="#222222"/>
<path d="M73.909 7.43701C70.2906 7.43701 67.3467 10.3807 67.3467 13.9993C67.3467 17.6179 70.2904 20.5616 73.909 20.5616C77.5273 20.5616 80.4712 17.6179 80.4712 13.9993C80.4712 10.3807 77.5273 7.43701 73.909 7.43701ZM73.909 16.1866C72.7028 16.1866 71.7215 15.2053 71.7215 13.9991C71.7215 12.7929 72.7028 11.8116 73.909 11.8116C75.1151 11.8116 76.0965 12.7929 76.0965 13.9991C76.0965 15.2053 75.1149 16.1866 73.909 16.1866Z" fill="#70B859"/>
<path d="M41.608 11.8119H14.0439C12.836 11.8119 11.8564 12.7912 11.8564 13.9994C11.8564 15.2075 12.836 16.1869 14.0439 16.1869H41.608C42.8159 16.1869 43.7955 15.2075 43.7955 13.9994C43.7955 12.7912 42.8159 11.8119 41.608 11.8119Z" fill="#222222"/>
<path d="M61.5649 12.4532C61.1582 12.0465 60.5958 11.8123 60.0186 11.8123C59.4432 11.8123 58.8789 12.0463 58.472 12.4532C58.0651 12.8601 57.8311 13.4223 57.8311 13.9998C57.8311 14.5751 58.0649 15.1394 58.472 15.5463C58.8789 15.9532 59.4432 16.1873 60.0186 16.1873C60.5939 16.1873 61.1582 15.9532 61.5649 15.5463C61.9718 15.1394 62.2061 14.5751 62.2061 13.9998C62.2061 13.4223 61.972 12.8579 61.5649 12.4532Z" fill="#70B859"/>
<path d="M52.3422 12.4532C51.9334 12.0443 51.369 11.8123 50.7959 11.8123C50.2206 11.8123 49.6562 12.0441 49.2493 12.4532C48.8403 12.8601 48.6084 13.4223 48.6084 13.9998C48.6084 14.5751 48.8403 15.1394 49.2493 15.5463C49.6562 15.9532 50.2184 16.1873 50.7959 16.1873C51.3712 16.1873 51.9334 15.9532 52.3422 15.5463C52.7491 15.1394 52.9812 14.5751 52.9812 13.9998C52.9812 13.4223 52.7491 12.8601 52.3422 12.4532Z" fill="#70B859"/>
<path d="M73.909 31.9359C70.2906 31.9359 67.3467 34.8796 67.3467 38.4982C67.3467 42.1168 70.2904 45.0605 73.909 45.0605C77.5273 45.0605 80.4712 42.1168 80.4712 38.4982C80.4712 34.8796 77.5273 31.9359 73.909 31.9359ZM73.909 40.6855C72.7028 40.6855 71.7215 39.7042 71.7215 38.498C71.7215 37.2918 72.7028 36.3105 73.909 36.3105C75.1151 36.3105 76.0965 37.2918 76.0965 38.498C76.0965 39.7042 75.1149 40.6855 73.909 40.6855Z" fill="#70B859"/>
<path d="M41.608 36.3108H14.0439C12.836 36.3108 11.8564 37.2901 11.8564 38.4983C11.8564 39.7064 12.836 40.6858 14.0439 40.6858H41.608C42.8159 40.6858 43.7955 39.7064 43.7955 38.4983C43.7955 37.2901 42.8159 36.3108 41.608 36.3108Z" fill="#222222"/>
<path d="M61.5649 36.9521C61.1582 36.5454 60.5958 36.3112 60.0186 36.3112C59.4432 36.3112 58.8789 36.5452 58.472 36.9521C58.0651 37.359 57.8311 37.9233 57.8311 38.4987C57.8311 39.074 58.0649 39.6383 58.472 40.0452C58.8811 40.4521 59.4432 40.6862 60.0186 40.6862C60.5939 40.6862 61.1582 40.4521 61.5649 40.0452C61.9718 39.6383 62.2061 39.074 62.2061 38.4987C62.2061 37.9212 61.972 37.359 61.5649 36.9521Z" fill="#70B859"/>
<path d="M52.3422 36.9521C51.9334 36.5432 51.3712 36.3112 50.7959 36.3112C50.2182 36.3112 49.6562 36.543 49.2493 36.9521C48.8403 37.359 48.6084 37.9212 48.6084 38.4987C48.6084 39.074 48.8403 39.6383 49.2493 40.0452C49.6562 40.4521 50.2184 40.6862 50.7959 40.6862C51.3712 40.6862 51.9334 40.4521 52.3422 40.0452C52.7491 39.6383 52.9812 39.074 52.9812 38.4987C52.9812 37.9212 52.7491 37.359 52.3422 36.9521Z" fill="#70B859"/>
<path d="M91.8736 38.9355C91.8736 33.7739 89.149 29.2388 85.0643 26.6862C89.149 24.1336 91.8736 19.5985 91.8736 14.4368C91.8736 6.47631 85.3972 0 77.4367 0H14.4398C6.47924 0 0.00292969 6.47631 0.00292969 14.4368C0.00292969 19.5985 2.72746 24.1336 6.81218 26.6862C2.72746 29.2388 0.00292969 33.7739 0.00292969 38.9355C0.00292969 44.0972 2.72746 48.6323 6.81218 51.1849C2.72768 53.7377 0.00292969 58.2728 0.00292969 63.4344C0.00292969 71.395 6.47924 77.8713 14.4398 77.8713H57.677C58.885 77.8713 59.8645 76.8919 59.8645 75.6838C59.8645 74.4756 58.885 73.4963 57.677 73.4963H14.4396C8.8914 73.4963 4.37749 68.9824 4.37749 63.4342C4.37749 57.8861 8.8914 53.3722 14.4396 53.3722H77.4365C79.9368 53.3722 82.3336 54.2951 84.1854 55.9709C85.0809 56.7814 86.4641 56.7127 87.2748 55.8167C88.0855 54.9209 88.0166 53.538 87.1208 52.7271C86.4798 52.1472 85.7927 51.6316 85.0698 51.1807C89.1516 48.6277 91.8736 44.0945 91.8736 38.9355ZM4.37771 14.4368C4.37771 8.88869 8.89162 4.37478 14.4398 4.37478H77.4367C82.9849 4.37478 87.4988 8.88869 87.4988 14.4368C87.4988 19.985 82.9849 24.4989 77.4367 24.4989H14.4396C8.8914 24.4989 4.37771 19.985 4.37771 14.4368ZM77.4365 48.9976H14.4396C8.89118 48.9976 4.37749 44.4837 4.37749 38.9355C4.37749 33.3874 8.8914 28.8735 14.4396 28.8735H77.4365C82.9846 28.8735 87.4986 33.3874 87.4986 38.9355C87.4986 44.4837 82.9846 48.9976 77.4365 48.9976Z" fill="#222222"/>
<path d="M41.608 60.8094H14.0439C12.836 60.8094 11.8564 61.7888 11.8564 62.9969C11.8564 64.2051 12.836 65.1844 14.0439 65.1844H41.608C42.8159 65.1844 43.7955 64.2051 43.7955 62.9969C43.7955 61.7888 42.8159 60.8094 41.608 60.8094Z" fill="#222222"/>
<path d="M61.5649 61.4508C61.1582 61.0417 60.5939 60.8098 60.0186 60.8098C59.4432 60.8098 58.8789 61.0417 58.472 61.4508C58.0651 61.8576 57.8311 62.422 57.8311 62.9973C57.8311 63.5726 58.0649 64.1348 58.472 64.5439C58.8789 64.9508 59.4432 65.1848 60.0186 65.1848C60.5939 65.1848 61.1582 64.9508 61.5649 64.5439C61.972 64.137 62.2061 63.5726 62.2061 62.9973C62.2061 62.4198 61.972 61.8576 61.5649 61.4508Z" fill="#70B859"/>
<path d="M52.3422 61.451C51.9334 61.0419 51.3712 60.8101 50.7959 60.8101C50.2184 60.8098 49.6564 61.0419 49.2493 61.451C48.8403 61.8579 48.6084 62.4201 48.6084 62.9976C48.6084 63.5729 48.8403 64.1372 49.2493 64.5441C49.6562 64.951 50.2206 65.1851 50.7959 65.1851C51.369 65.1851 51.9334 64.951 52.3422 64.5441C52.7491 64.1372 52.9812 63.5729 52.9812 62.9976C52.9812 62.4201 52.7491 61.8579 52.3422 61.451Z" fill="#70B859"/>
<path d="M86.1859 72.6244C78.7079 72.6244 72.624 78.7083 72.624 86.1862C72.624 93.6642 78.7079 99.7481 86.1859 99.7481C93.6638 99.7481 99.7477 93.6642 99.7477 86.1862C99.7477 78.708 93.6638 72.6244 86.1859 72.6244ZM86.1859 95.3733C81.1201 95.3733 76.9988 91.252 76.9988 86.1862C76.9988 81.1204 81.1201 76.9992 86.1859 76.9992C91.2517 76.9992 95.3729 81.1204 95.3729 86.1862C95.3729 91.252 91.2517 95.3733 86.1859 95.3733Z" fill="#70B859"/>
<path d="M110.339 80.4593L107.163 79.6683L105.628 75.9629L107.313 73.1598C107.83 72.2988 107.695 71.1963 106.985 70.4863L101.886 65.3881C101.176 64.6778 100.073 64.5426 99.2123 65.0599L96.4097 66.745L92.7043 65.2091L91.9131 62.0335C91.6705 61.0588 90.795 60.3748 89.7905 60.3748H82.5821C81.5776 60.3748 80.7021 61.0588 80.4595 62.0335L79.6683 65.2091L75.9629 66.745L73.1603 65.0599C72.2997 64.5426 71.1968 64.6776 70.4865 65.3881L65.3881 70.4863C64.678 71.1965 64.5426 72.2993 65.06 73.1598L66.745 75.9629L65.2092 79.6683L62.0338 80.4593C61.059 80.7021 60.375 81.5775 60.375 82.582V89.7905C60.375 90.795 61.059 91.6702 62.0338 91.9133L65.2092 92.7043L66.745 96.4097L65.06 99.2127C64.5426 100.074 64.678 101.176 65.3881 101.886L70.4865 106.984C71.197 107.695 72.2997 107.83 73.1603 107.313L75.9629 105.628L79.6683 107.163L80.4595 110.339C80.7021 111.314 81.5776 111.998 82.5821 111.998H89.7905C90.795 111.998 91.6705 111.314 91.9131 110.339L92.7043 107.163L96.4097 105.628L99.2123 107.313C100.073 107.83 101.176 107.695 101.886 106.984L106.985 101.886C107.695 101.176 107.83 100.073 107.313 99.2127L105.628 96.4097L107.163 92.7043L110.339 91.9133C111.314 91.6704 111.998 90.795 111.998 89.7905V82.582C111.997 81.5773 111.314 80.7021 110.339 80.4593ZM105.036 88.7254C104.363 88.8932 103.81 89.3698 103.544 90.0106L101.164 95.7536C100.898 96.3946 100.952 97.1234 101.31 97.718L102.683 100.001L100.002 102.682L97.7185 101.309C97.1241 100.952 96.3948 100.898 95.7541 101.164L90.0108 103.543C89.3701 103.809 88.8932 104.363 88.7257 105.035L88.0812 107.622H84.2912L83.6467 105.035C83.4792 104.363 83.0023 103.809 82.3616 103.543L76.6183 101.164C75.9767 100.898 75.248 100.952 74.6539 101.309L72.3706 102.682L69.6898 100.001L71.0623 97.718C71.4199 97.1234 71.4739 96.3946 71.2084 95.7536L68.8284 90.0106C68.5628 89.3698 68.0092 88.8932 67.3363 88.7254L64.7498 88.081V84.2911L67.3363 83.6467C68.0092 83.4789 68.5628 83.0023 68.8284 82.3615L71.2084 76.6185C71.4739 75.9775 71.4199 75.2487 71.0623 74.6541L69.6898 72.3708L72.3706 69.69L74.6539 71.0627C75.2485 71.4199 75.9778 71.4743 76.6183 71.2086L82.3616 68.8288C83.0023 68.5632 83.4792 68.0096 83.6467 67.3367L84.2912 64.75H88.081L88.7254 67.3367C88.893 68.0096 89.3699 68.5632 90.0106 68.8288L95.7539 71.2086C96.3952 71.4741 97.1239 71.4197 97.7183 71.0627L100.002 69.69L102.682 72.3708L101.31 74.6541C100.952 75.2487 100.898 75.9775 101.164 76.6185L103.544 82.3615C103.809 83.0023 104.363 83.4789 105.036 83.6467L107.622 84.2911V88.081H107.623L105.036 88.7254Z" fill="#222222"/>
</svg>
