<svg width="76" height="76" viewBox="0 0 76 76" fill="none" xmlns="http://www.w3.org/2000/svg">
<path d="M29.182 53.542C30.2959 55.8172 30.8754 58.3181 30.8754 60.8499V71.25H14.2504V61.75L7.15865 53.7961C5.52703 51.9674 4.66728 49.5757 4.75515 47.1271L5.57453 24.7095C5.56028 23.0114 6.83328 21.5792 8.51953 21.3964C10.2343 21.2087 11.8445 22.3677 12.1248 24.0706C12.557 26.6926 13.0605 33.592 13.3194 37.4229C12.0227 39.33 11.6379 41.8095 12.5214 44.08L14.6162 49.4641C14.9653 50.3595 15.9818 50.8369 16.9223 50.4782C17.839 50.122 18.2927 49.0889 17.9364 48.1697C18.067 48.507 16.0079 43.2155 15.8417 42.788C15.1838 41.0922 15.9177 39.045 17.6372 38.2066C19.3994 37.3445 21.6319 38.1187 22.4917 39.8738L29.182 53.542Z" fill="white"/>
<path d="M71.2429 47.1271C71.3331 49.5757 70.471 51.9673 68.8394 53.7961L61.75 61.75V71.25H45.125V60.8498C45.125 58.3157 45.7045 55.8172 46.8184 53.542L53.5088 39.8715C54.3685 38.1163 56.601 37.3421 58.3632 38.2042C59.9996 38.9998 60.7786 40.9165 60.2039 42.6265C60.0376 43.1181 57.9714 48.4048 58.064 48.1673C57.7078 49.0865 58.1614 50.1172 59.0781 50.4758C60.0186 50.8368 61.0351 50.3595 61.3843 49.4617L63.479 44.0776C64.3601 41.8095 63.9754 39.3276 62.681 37.4205C62.9399 33.5896 63.4434 26.6902 63.8756 24.0682C64.1559 22.3653 65.7661 21.2087 67.4809 21.394C69.1671 21.5792 70.4401 23.0113 70.4259 24.7071L71.2429 47.1271Z" fill="white"/>
<path d="M56.3659 17.4681L52.3806 17.0311C52.1075 17.0002 51.8843 16.8173 51.794 16.5584C51.1813 14.7962 50.2882 13.2477 49.0675 11.8346C48.8894 11.6279 48.8419 11.3406 48.9511 11.0912L50.5661 7.4218C50.7134 7.0893 50.5851 6.6998 50.2693 6.51693L44.7307 3.32018C44.4149 3.1373 44.0159 3.2228 43.7997 3.51493L41.42 6.76393C41.2585 6.98243 40.9901 7.08455 40.7218 7.0323C38.9357 6.6903 37.0856 6.6713 35.264 7.01568C34.998 7.06555 34.7273 6.96581 34.5681 6.74731L32.2002 3.51493C31.9841 3.2228 31.5851 3.1373 31.2693 3.32018L25.7307 6.51693C25.4149 6.6998 25.289 7.0893 25.4339 7.4218L27.0489 11.0888C27.1581 11.3358 27.1083 11.6208 26.9325 11.8251C25.7213 13.2311 24.814 14.8437 24.2179 16.5584C24.1276 16.8149 23.9067 16.9978 23.636 17.0287L19.6341 17.4681C19.2731 17.5084 19 17.8148 19 18.1782V24.5741C19 24.9374 19.2731 25.2438 19.6341 25.2818L23.6194 25.7188C23.8925 25.7497 24.1158 25.9326 24.206 26.1914C24.8188 27.9537 25.7118 29.5022 26.9325 30.9153C27.1106 31.1219 27.1581 31.4093 27.0489 31.6587L25.4339 35.3281C25.2866 35.6606 25.4149 36.0501 25.7307 36.2329L31.2693 39.4297C31.5851 39.6126 31.9841 39.5271 32.2002 39.2349L34.58 35.9883C34.7415 35.7698 35.0099 35.6677 35.2782 35.7199C37.0643 36.0619 38.9144 36.0809 40.736 35.7366C41.002 35.6867 41.2727 35.7864 41.4319 36.0049L43.7997 39.2373C44.0135 39.5294 44.4149 39.6149 44.7307 39.4321L50.2693 36.2353C50.5851 36.0524 50.711 35.6629 50.5661 35.3304L48.9511 31.6634C48.8419 31.4164 48.8918 31.1314 49.0675 30.9272C50.2787 29.5212 51.186 27.9086 51.7821 26.1938C51.8724 25.9373 52.0933 25.7544 52.364 25.7236L56.3659 25.2866C56.7269 25.2414 57 24.9351 57 24.5717V18.1782C57 17.8148 56.7269 17.5084 56.3659 17.4681ZM38 28.4999C34.0646 28.4999 30.875 25.3103 30.875 21.3749C30.875 17.4396 34.0646 14.2499 38 14.2499C41.9354 14.2499 45.125 17.4396 45.125 21.3749C45.125 25.3103 41.9354 28.4999 38 28.4999Z" fill="white"/>
</svg>
