<svg width="100" height="100" viewBox="0 0 100 100" fill="none" xmlns="http://www.w3.org/2000/svg">
<path d="M7.8125 82.8125H14.0625V85.9375H7.8125V82.8125Z" fill="#70B859"/>
<path d="M54.6875 82.8125H60.9375V85.9375H54.6875V82.8125Z" fill="#70B859"/>
<path d="M96.875 32.8125H81.25C80.3859 32.8125 79.6875 33.5125 79.6875 34.375V84.375H76.6312C75.7328 84.375 75 83.6437 75 82.7453V75.0687C75 72.4469 72.8672 70.3141 70.2438 70.3141H65.7281C65.2531 69.4891 64.675 68.7172 63.9844 68.0266L62.1813 66.2234L65.8828 65.6062C66.6359 65.4812 67.1891 64.8281 67.1891 64.0656V59.3781C67.1891 58.5156 66.4906 57.8156 65.6266 57.8156H56.3359L54.4719 52.2187C53.4062 49.0234 50.4281 46.8781 47.0609 46.8781H21.6922C18.325 46.8781 15.3453 49.025 14.2813 52.2187L12.4172 57.8156H3.125C2.26094 57.8156 1.5625 58.5156 1.5625 59.3781V64.0656C1.5625 64.8297 2.11562 65.4812 2.86875 65.6062L6.57031 66.2234L4.76719 68.0266C3.29688 69.4969 2.27969 71.3484 1.82656 73.3812C1.65313 74.1625 1.56406 74.9625 1.56406 75.7609V95.3156C1.56406 97.0391 2.96562 98.4406 4.68906 98.4406H14.0641C15.7875 98.4406 17.1891 97.0391 17.1891 95.3156V92.1906H51.5641V95.3156C51.5641 97.0391 52.9656 98.4406 54.6891 98.4406H64.0641C65.7875 98.4406 67.1891 97.0391 67.1891 95.3156V75.7609C67.1891 74.9703 67.0984 74.1953 66.9359 73.4406H70.2453C71.1438 73.4406 71.8766 74.1719 71.8766 75.0703V82.7469C71.8766 85.3687 74.0094 87.5016 76.6328 87.5016H79.6891V96.8766C79.6891 97.7391 80.3875 98.4391 81.2516 98.4391H96.8766C97.7406 98.4391 98.4391 97.7391 98.4391 96.8766V34.375C98.4391 33.5125 97.7406 32.8125 96.8766 32.8125H96.875ZM62.65 71.3C63.2078 72.0969 63.5969 72.9859 63.8234 73.9266C63.0438 75.5156 61.4141 76.5625 59.6219 76.5625H51.9188C51.3953 76.5625 50.9094 76.3016 50.6188 75.8656L50.1406 75.1484L62.65 71.2984V71.3ZM64.0625 60.9375V62.7391L59.4641 63.5062L57.8125 61.8547V60.9391H64.0625V60.9375ZM17.2438 53.2047C17.8844 51.2875 19.6719 50 21.6922 50H47.0578C49.0781 50 50.8656 51.2875 51.5063 53.2047L54.0828 60.9375H50C49.1359 60.9375 48.4375 61.6375 48.4375 62.5C48.4375 63.3625 49.1359 64.0625 50 64.0625H55.6031L60.2953 68.7562L44.8531 73.5078C44.1969 73.7094 43.75 74.3156 43.75 75.0016H37.5C37.0844 75.0016 36.6875 75.1656 36.3953 75.4594L34.375 77.4797L32.3547 75.4594C32.0609 75.1656 31.6656 75.0016 31.25 75.0016H25C25 74.3156 24.5531 73.7094 23.8969 73.5078L8.45469 68.7562L13.1469 64.0625H43.8266C44.6906 64.0625 45.3891 63.3625 45.3891 62.5C45.3891 61.6375 44.6906 60.9375 43.8266 60.9375H14.6672L17.2438 53.2047ZM18.6094 75.1484L18.1313 75.8656C17.8406 76.3016 17.3547 76.5609 16.8313 76.5609H9.12813C7.32969 76.5609 5.69531 75.5062 4.91875 73.9078C5.15 72.9656 5.55312 72.0859 6.10156 71.2984L18.6094 75.1469V75.1484ZM4.6875 62.7375V60.9359H10.9375V61.8516L9.28594 63.5031L4.6875 62.7359V62.7375ZM14.0625 95.3109H4.6875V91.8984C5.17812 92.0734 5.7 92.1859 6.25 92.1859H14.0625V95.3109ZM20.3125 89.0609L22.1891 86.5594C22.4813 86.1687 22.9469 85.9359 23.4375 85.9359H45.3125C45.8016 85.9359 46.2687 86.1687 46.5625 86.5609L48.4375 89.0609H20.3125ZM54.6875 95.3109V92.1859H62.5C63.05 92.1859 63.5719 92.0734 64.0625 91.8984V95.3109H54.6875ZM62.5 89.0609H52.3438L49.0625 84.6859C48.1828 83.5125 46.7812 82.8109 45.3125 82.8109H23.4375C21.9688 82.8109 20.5672 83.5125 19.6891 84.6859L16.4078 89.0609H6.25C5.3875 89.0609 4.6875 88.3594 4.6875 87.4984V78.2922C5.96875 79.1781 7.51094 79.6859 9.12813 79.6859H16.8313C18.4016 79.6859 19.8594 78.9047 20.7312 77.6L21.7266 76.1078L21.875 76.1531V76.5609C21.875 77.4234 22.5734 78.1234 23.4375 78.1234H30.6031L33.2703 80.7906C33.575 81.0953 33.975 81.2484 34.375 81.2484C34.775 81.2484 35.175 81.0953 35.4797 80.7906L38.1469 78.1234H45.3125C46.1766 78.1234 46.875 77.4234 46.875 76.5609V76.1531L47.0234 76.1078L48.0187 77.6C48.8906 78.9062 50.3484 79.6875 51.9188 79.6875H59.6219C61.2391 79.6875 62.7812 79.1797 64.0625 78.2938V87.5C64.0625 88.3609 63.3625 89.0625 62.5 89.0625V89.0609ZM95.3125 95.3109H82.8125V87.4984H85.8688C88.4922 87.4984 90.625 85.3656 90.625 82.7437V67.1859H92.1875C93.0516 67.1859 93.75 66.4859 93.75 65.6234V59.3734C93.75 56.7891 91.6469 54.6859 89.0625 54.6859C86.4781 54.6859 84.375 56.7891 84.375 59.3734V65.6234C84.375 66.4859 85.0734 67.1859 85.9375 67.1859H87.5V82.7437C87.5 83.6422 86.7672 84.3734 85.8688 84.3734H82.8125V35.9375H95.3125V95.3125V95.3109ZM87.5 64.0609V59.3734C87.5 58.5125 88.2 57.8109 89.0625 57.8109C89.925 57.8109 90.625 58.5125 90.625 59.3734V64.0609H87.5Z" fill="#70B859"/>
<path d="M44.1548 43.2359C44.4501 43.5625 44.872 43.75 45.3126 43.75H51.5626C52.2095 43.75 52.7891 43.3516 53.022 42.7484L60.8345 22.4359C61.0188 21.9547 60.9548 21.4156 60.6641 20.9906C60.372 20.5656 59.8907 20.3125 59.3766 20.3125H56.5329L59.3548 3.38281C59.4313 2.92969 59.3032 2.46719 59.0048 2.11562C58.7095 1.76562 58.272 1.5625 57.8126 1.5625H50.0001C49.4235 1.5625 48.8923 1.88125 48.6204 2.38906L36.1204 25.8266C35.8626 26.3109 35.8782 26.8953 36.1595 27.3656C36.4407 27.8359 36.9501 28.1234 37.4985 28.1234H45.147L43.7563 42.0297C43.7126 42.4688 43.8563 42.9062 44.1532 43.2344L44.1548 43.2359ZM50.4907 40.625H49.1516L55.7626 23.4375H57.1016L50.4923 40.625H50.4907ZM54.4501 4.6875H55.9688L53.3657 20.3125H51.847L54.4501 4.6875ZM40.1063 25L50.9391 4.6875H51.2829L48.461 21.6172C48.3845 22.0703 48.5126 22.5328 48.811 22.8844C49.1063 23.2344 49.5438 23.4375 50.0032 23.4375H52.4157L47.4782 36.275L48.4329 26.7188C48.4766 26.2797 48.3329 25.8422 48.036 25.5141C47.7391 25.1859 47.3188 25 46.8782 25H40.1079H40.1063Z" fill="#70B859"/>
<path d="M85.9375 53.125H92.1875C93.0516 53.125 93.75 52.425 93.75 51.5625C93.75 50.7 93.0516 50 92.1875 50H85.9375C85.0734 50 84.375 50.7 84.375 51.5625C84.375 52.425 85.0734 53.125 85.9375 53.125Z" fill="#70B859"/>
<path d="M85.9375 48.4375H92.1875C93.0516 48.4375 93.75 47.7375 93.75 46.875C93.75 46.0125 93.0516 45.3125 92.1875 45.3125H85.9375C85.0734 45.3125 84.375 46.0125 84.375 46.875C84.375 47.7375 85.0734 48.4375 85.9375 48.4375Z" fill="#70B859"/>
<path d="M85.9375 43.75H92.1875C93.0516 43.75 93.75 43.05 93.75 42.1875C93.75 41.325 93.0516 40.625 92.1875 40.625H85.9375C85.0734 40.625 84.375 41.325 84.375 42.1875C84.375 43.05 85.0734 43.75 85.9375 43.75Z" fill="#70B859"/>
</svg>
