<svg width="76" height="76" viewBox="0 0 76 76" fill="none" xmlns="http://www.w3.org/2000/svg">
<path d="M34.7459 0V11.1327C49.5552 11.1351 61.6074 23.1877 61.6074 38.0025C61.6074 52.8148 49.5553 64.8698 34.7385 64.8698C25.7197 64.8698 17.7441 60.396 12.8685 53.5522L3.25781 59.2616C10.0965 69.3535 21.6555 76 34.741 76C55.6936 76 72.7422 58.9533 72.7422 38.0025C72.7397 17.0492 55.696 0.00246625 34.7459 0Z" fill="white"/>
<path d="M34.7406 57.7818C45.6641 57.7818 54.5193 48.9263 54.5193 38.0025C54.5193 27.0787 45.6641 18.2231 34.7406 18.2231C23.8171 18.2231 14.9619 27.0787 14.9619 38.0025C14.9619 48.9263 23.8171 57.7818 34.7406 57.7818Z" fill="white"/>
</svg>
