<svg width="76" height="76" viewBox="0 0 76 76" fill="none" xmlns="http://www.w3.org/2000/svg">
<path d="M37.9814 2.37514C37.3268 2.37514 36.8055 2.92405 36.8148 3.57888V8.32888C36.7973 8.99673 37.3324 9.54653 38 9.54654C38.6676 9.54654 39.205 8.99673 39.1875 8.32888V3.57888C39.1969 2.9097 38.6504 2.36482 37.9814 2.37514ZM59.0836 11.6678L55.62 15.1386C55.1605 15.6026 55.1626 16.3508 55.6249 16.8131C56.0868 17.275 56.8353 17.2772 57.2995 16.8131L60.6556 13.4547C61.4304 12.6998 60.8737 11.3874 59.7927 11.4183C59.4844 11.4182 59.1912 11.5555 59.0837 11.6678H59.0836ZM15.347 13.4593L18.7031 16.8177C19.1674 17.2769 19.9137 17.2751 20.3754 16.8177C20.8371 16.3559 20.8393 15.6072 20.3803 15.1432L17.0242 11.7871C16.7554 11.5806 16.4549 11.4321 16.173 11.4241C15.1078 11.4205 14.5834 12.7165 15.3472 13.4593H15.347ZM38 14.2456C26.8737 14.2456 17.8288 23.2941 17.8287 34.4261C17.8359 40.785 20.8538 46.75 25.9302 50.5501L29.1796 59.3775H46.8088L49.984 50.6058C55.109 46.8119 58.1615 40.8204 58.1713 34.4261C58.1712 23.2936 49.1263 14.2456 38 14.2456ZM7.15051 33.2595C6.48542 33.2595 5.9375 33.7814 5.9375 34.447C5.9375 35.1126 6.48542 35.6465 7.15051 35.6322H11.8959C12.561 35.6322 13.1066 35.1126 13.1066 34.447C13.1066 33.7814 12.561 33.2456 11.8959 33.2595H7.15051ZM64.1041 33.2595C63.439 33.2595 62.8934 33.7814 62.8934 34.447C62.8934 35.1126 63.439 35.6465 64.1041 35.6322H68.8518C69.5169 35.6322 70.0625 35.1126 70.0625 34.447C70.0625 33.7814 69.5169 33.2456 68.8518 33.2595H64.1041ZM29.6945 61.7501V66.4909H46.3055V61.7501H29.6945ZM30.1467 68.8659L32.1924 72.9664C32.3932 73.3704 32.8047 73.6251 33.2546 73.6251H42.7477C43.1972 73.6251 43.607 73.3681 43.8076 72.9664L45.8556 68.8659H30.1467Z" fill="white"/>
</svg>
