<svg width="76" height="76" viewBox="0 0 76 76" fill="none" xmlns="http://www.w3.org/2000/svg">
<path d="M12.0234 14.1016C12.0234 14.4479 12.0362 14.794 12.0619 15.1393C5.2489 16.1304 0 22.0105 0 29.0938C0 32.3585 1.1357 35.5008 3.17241 38C1.1357 40.4992 0 43.6415 0 46.9062C0 53.9895 5.2489 59.8696 12.0619 60.8607C12.0362 61.206 12.0234 61.5521 12.0234 61.8984C12.0234 69.674 18.3494 76 26.125 76C29.8539 76 33.2491 74.545 35.7734 72.1731V3.82687C33.2491 1.45498 29.8539 0 26.125 0C18.3494 0 12.0234 6.32596 12.0234 14.1016Z" fill="white"/>
<path d="M51.3594 25.3828C52.5891 25.3828 53.5859 24.3859 53.5859 23.1562C53.5859 21.9266 52.5891 20.9297 51.3594 20.9297C50.1297 20.9297 49.1328 21.9266 49.1328 23.1562C49.1328 24.3859 50.1297 25.3828 51.3594 25.3828Z" fill="white"/>
<path d="M76 29.0938C76 22.0105 70.7511 16.1304 63.9381 15.1393C63.9638 14.794 63.9766 14.4479 63.9766 14.1016C63.9766 6.32596 57.6506 0 49.875 0C46.1461 0 42.7509 1.45498 40.2266 3.82687V20.9297H45.0627C45.9818 18.3381 48.4567 16.4766 51.3594 16.4766C55.0426 16.4766 58.0391 19.4731 58.0391 23.1562C58.0391 26.8394 55.0426 29.8359 51.3594 29.8359C48.4567 29.8359 45.9818 27.9744 45.0627 25.3828H40.2266V35.7734H51.0002C51.9193 33.1819 54.3942 31.3203 57.2969 31.3203C60.9801 31.3203 63.9766 34.3168 63.9766 38C63.9766 41.6832 60.9801 44.6797 57.2969 44.6797C54.3942 44.6797 51.9193 42.8181 51.0002 40.2266H40.2266V50.6172H45.0627C45.9818 48.0256 48.4567 46.1641 51.3594 46.1641C55.0426 46.1641 58.0391 49.1606 58.0391 52.8438C58.0391 56.5269 55.0426 59.5234 51.3594 59.5234C48.4567 59.5234 45.9818 57.6619 45.0627 55.0703H40.2266V72.1731C42.7509 74.545 46.1461 76 49.875 76C57.6506 76 63.9766 69.674 63.9766 61.8984C63.9766 61.5521 63.9638 61.206 63.9381 60.8607C70.7511 59.8696 76 53.9895 76 46.9062C76 43.6415 74.8643 40.4992 72.8276 38C74.8643 35.5008 76 32.3585 76 29.0938Z" fill="white"/>
<path d="M51.3594 55.0703C52.5891 55.0703 53.5859 54.0734 53.5859 52.8438C53.5859 51.6141 52.5891 50.6172 51.3594 50.6172C50.1297 50.6172 49.1328 51.6141 49.1328 52.8438C49.1328 54.0734 50.1297 55.0703 51.3594 55.0703Z" fill="white"/>
<path d="M57.2969 40.2266C58.5266 40.2266 59.5234 39.2297 59.5234 38C59.5234 36.7703 58.5266 35.7734 57.2969 35.7734C56.0672 35.7734 55.0703 36.7703 55.0703 38C55.0703 39.2297 56.0672 40.2266 57.2969 40.2266Z" fill="white"/>
</svg>
