<svg width="80" height="80" viewBox="0 0 80 80" fill="none" xmlns="http://www.w3.org/2000/svg">
<g clip-path="url(#clip0_621_14979)">
<path d="M69.3335 21.5587V5.33333C69.3335 3.91885 68.7716 2.56229 67.7714 1.5621C66.7712 0.561903 65.4147 0 64.0002 0L16.0002 0C14.5857 0 13.2291 0.561903 12.2289 1.5621C11.2287 2.56229 10.6668 3.91885 10.6668 5.33333V21.5587C7.18267 27.0785 5.3335 33.4725 5.3335 40C5.3335 46.5275 7.18267 52.9215 10.6668 58.4413V74.6667C10.6668 76.0812 11.2287 77.4377 12.2289 78.4379C13.2291 79.4381 14.5857 80 16.0002 80H64.0002C65.4147 80 66.7712 79.4381 67.7714 78.4379C68.7716 77.4377 69.3335 76.0812 69.3335 74.6667V58.4413C72.8177 52.9215 74.6669 46.5275 74.6669 40C74.6669 33.4725 72.8177 27.0785 69.3335 21.5587V21.5587ZM13.3335 5.33333C13.3335 4.62609 13.6145 3.94781 14.1146 3.44772C14.6147 2.94762 15.2929 2.66667 16.0002 2.66667H64.0002C64.7074 2.66667 65.3857 2.94762 65.8858 3.44772C66.3859 3.94781 66.6668 4.62609 66.6668 5.33333V17.876C63.4185 13.9522 59.3443 10.7935 54.7348 8.6254C50.1253 6.45729 45.0941 5.33313 40.0002 5.33313C34.9062 5.33313 29.8751 6.45729 25.2656 8.6254C20.6561 10.7935 16.5818 13.9522 13.3335 17.876V5.33333ZM40.0002 8C46.3292 8 52.5161 9.87677 57.7784 13.393C63.0408 16.9092 67.1423 21.9069 69.5643 27.7541C71.9863 33.6014 72.62 40.0355 71.3853 46.2429C70.1506 52.4503 67.1029 58.1521 62.6276 62.6274C58.1523 67.1027 52.4505 70.1504 46.2431 71.3851C40.0357 72.6199 33.6015 71.9861 27.7543 69.5641C21.9071 67.1421 16.9094 63.0406 13.3932 57.7783C9.87695 52.5159 8.00018 46.329 8.00018 40C8.01006 31.5161 11.3847 23.3825 17.3837 17.3835C23.3827 11.3845 31.5163 8.00988 40.0002 8V8ZM66.6668 74.6667C66.6668 75.3739 66.3859 76.0522 65.8858 76.5523C65.3857 77.0524 64.7074 77.3333 64.0002 77.3333H16.0002C15.2929 77.3333 14.6147 77.0524 14.1146 76.5523C13.6145 76.0522 13.3335 75.3739 13.3335 74.6667V62.124C16.5818 66.0478 20.6561 69.2065 25.2656 71.3746C29.8751 73.5427 34.9062 74.6669 40.0002 74.6669C45.0941 74.6669 50.1253 73.5427 54.7348 71.3746C59.3443 69.2065 63.4185 66.0478 66.6668 62.124V74.6667Z" fill="white"/>
<path d="M40.0001 67.9995C46.903 68.0118 53.5662 65.4689 58.7058 60.8608C63.8454 56.2527 67.0977 49.9055 67.8361 43.0422C67.8935 42.4953 67.8353 41.9424 67.6653 41.4194C67.4953 40.8963 67.2174 40.4149 66.8494 40.0062C66.4706 39.5863 66.0078 39.2506 65.491 39.0209C64.9742 38.7913 64.4149 38.6727 63.8494 38.6729H16.1507C15.5852 38.6727 15.0259 38.7913 14.5092 39.0209C13.9924 39.2506 13.5296 39.5863 13.1507 40.0062C12.7827 40.4151 12.5047 40.8968 12.3347 41.42C12.1647 41.9433 12.1066 42.4964 12.1641 43.0435C12.9027 49.9066 16.1552 56.2535 21.2948 60.8613C26.4344 65.4691 33.0974 68.0118 40.0001 67.9995V67.9995ZM15.1361 41.7875C15.2637 41.6446 15.42 41.5302 15.5949 41.4519C15.7697 41.3735 15.9591 41.333 16.1507 41.3329H63.8494C64.041 41.333 64.2304 41.3735 64.4053 41.4519C64.5801 41.5302 64.7365 41.6446 64.8641 41.7875C64.9832 41.9166 65.0734 42.0696 65.1288 42.2362C65.1842 42.4029 65.2035 42.5795 65.1854 42.7542C64.5113 48.9631 61.5675 54.7042 56.9191 58.8752C52.2707 63.0462 46.2455 65.3532 40.0001 65.3532C33.7547 65.3532 27.7294 63.0462 23.081 58.8752C18.4327 54.7042 15.4888 48.9631 14.8147 42.7542C14.7967 42.5795 14.816 42.403 14.8714 42.2363C14.9268 42.0696 15.017 41.9167 15.1361 41.7875V41.7875Z" fill="white"/>
<path d="M21.3332 31.9997H58.6665C59.3737 31.9997 60.052 31.7187 60.5521 31.2186C61.0522 30.7185 61.3332 30.0403 61.3332 29.333V23.9997C61.3332 23.2924 61.0522 22.6142 60.5521 22.1141C60.052 21.614 59.3737 21.333 58.6665 21.333H21.3332C20.6259 21.333 19.9477 21.614 19.4476 22.1141C18.9475 22.6142 18.6665 23.2924 18.6665 23.9997V29.333C18.6665 30.0403 18.9475 30.7185 19.4476 31.2186C19.9477 31.7187 20.6259 31.9997 21.3332 31.9997ZM42.6665 29.333H37.3332V23.9997H42.6665V29.333ZM45.3332 23.9997H50.6665V29.333H45.3332V23.9997ZM34.6665 29.333H29.3332V23.9997H34.6665V29.333ZM58.6665 29.333H53.3332V23.9997H58.6665V29.333ZM21.3332 23.9997H26.6665V29.333H21.3332V23.9997Z" fill="white"/>
<path d="M36 54.6668H41.5094L37.5574 60.5935C37.3611 60.8877 37.2898 61.2478 37.359 61.5947C37.4283 61.9415 37.6325 62.2466 37.9267 62.4428C38.2209 62.6391 38.581 62.7104 38.9279 62.6412C39.2747 62.5719 39.5798 62.3677 39.776 62.0735L45.1094 54.0735C45.2433 53.8727 45.3203 53.6393 45.332 53.3982C45.3437 53.1571 45.2897 52.9173 45.1759 52.7045C45.062 52.4916 44.8925 52.3137 44.6854 52.1897C44.4783 52.0656 44.2414 52.0001 44 52.0002H38.4907L42.4427 46.0735C42.639 45.7793 42.7103 45.4192 42.641 45.0723C42.5718 44.7255 42.3676 44.4204 42.0734 44.2242C41.7792 44.0279 41.419 43.9566 41.0722 44.0258C40.7254 44.0951 40.4203 44.2993 40.224 44.5935L34.8907 52.5935C34.7567 52.7943 34.6798 53.0277 34.6681 53.2688C34.6564 53.5099 34.7103 53.7497 34.8242 53.9625C34.9381 54.1754 35.1076 54.3533 35.3147 54.4773C35.5218 54.6014 35.7586 54.6669 36 54.6668V54.6668Z" fill="white"/>
</g>
<defs>
<clipPath id="clip0_621_14979">
<rect width="80" height="80" fill="white"/>
</clipPath>
</defs>
</svg>
