<svg width="24" height="24" viewBox="0 0 24 24" fill="none" xmlns="http://www.w3.org/2000/svg">
<g clip-path="url(#clip0_258_697)">
<path d="M12 24C18.6165 24 24 18.6169 24 12C24 10.8579 23.8406 9.73242 23.5249 8.65454C23.3694 8.12451 22.8159 7.82007 22.2844 7.97559C21.7539 8.13062 21.4504 8.68604 21.6055 9.21606C21.8669 10.1116 22 11.0486 22 12C22 17.5139 17.5139 22 12 22C6.48608 22 2 17.5139 2 12C2 6.48608 6.48608 2 12 2C14.0039 2 15.9319 2.58594 17.5754 3.69409C18.033 4.00293 18.655 3.88159 18.9634 3.42407C19.272 2.96606 19.1516 2.34448 18.6936 2.03589C16.7185 0.704102 14.4041 0 12 0C5.38354 0 0 5.38306 0 12C0 18.6169 5.38354 24 12 24Z" fill="#70B859"/>
<path d="M22.2928 2.29303L11.9998 12.5855L8.70685 9.29303C8.31622 8.90265 7.68341 8.90265 7.29279 9.29303C6.9024 9.68365 6.9024 10.3165 7.29279 10.7071L11.2928 14.7071C11.4883 14.9026 11.7437 15.0001 11.9998 15.0001C12.2559 15.0001 12.5113 14.9026 12.7068 14.7071L23.7068 3.70709C24.0972 3.31647 24.0972 2.68365 23.7068 2.29303C23.3162 1.90265 22.6834 1.90265 22.2928 2.29303Z" fill="#70B859"/>
</g>
<defs>
<clipPath id="clip0_258_697">
<rect width="24" height="24" fill="white"/>
</clipPath>
</defs>
</svg>
