<svg width="100" height="100" viewBox="0 0 100 100" fill="none" xmlns="http://www.w3.org/2000/svg">
<path d="M68.3641 15.5281C63.1774 12.7672 57.4338 11.2144 51.5625 10.9859V6.25C51.5625 5.8356 51.3979 5.43817 51.1049 5.14515C50.8118 4.85212 50.4144 4.6875 50 4.6875C49.5856 4.6875 49.1882 4.85212 48.8951 5.14515C48.6021 5.43817 48.4375 5.8356 48.4375 6.25V10.9859C42.5662 11.2144 36.8226 12.7672 31.6359 15.5281C31.2704 15.7239 30.9977 16.0569 30.8777 16.4538C30.7577 16.8507 30.8003 17.279 30.9961 17.6445C31.1919 18.01 31.5249 18.2828 31.9218 18.4028C32.3187 18.5228 32.747 18.4802 33.1125 18.2844C38.3099 15.5124 44.1096 14.0625 50 14.0625C55.8903 14.0625 61.6901 15.5124 66.8875 18.2844C67.253 18.4802 67.6813 18.5228 68.0782 18.4028C68.4751 18.2828 68.8081 18.01 69.0039 17.6445C69.1997 17.279 69.2423 16.8507 69.1223 16.4538C69.0023 16.0569 68.7296 15.7239 68.3641 15.5281V15.5281Z" fill="#70B859"/>
<path d="M17.6453 30.9967C17.4644 30.8994 17.266 30.8388 17.0617 30.8183C16.8573 30.7978 16.6509 30.8178 16.4542 30.8772C16.2576 30.9366 16.0746 31.0341 15.9156 31.1643C15.7567 31.2944 15.6251 31.4546 15.5281 31.6357C12.7672 36.8224 11.2144 42.566 10.9859 48.4373H6.25C5.8356 48.4373 5.43817 48.6019 5.14515 48.8949C4.85212 49.188 4.6875 49.5854 4.6875 49.9998C4.6875 50.4142 4.85212 50.8116 5.14515 51.1047C5.43817 51.3977 5.8356 51.5623 6.25 51.5623H10.9859C11.2144 57.4336 12.7672 63.1772 15.5281 68.3639C15.7239 68.7294 16.0569 69.0021 16.4538 69.1221C16.8507 69.2421 17.279 69.1995 17.6445 69.0037C18.01 68.8079 18.2828 68.4749 18.4028 68.078C18.5228 67.6811 18.4802 67.2528 18.2844 66.8873C15.5124 61.6899 14.0625 55.8901 14.0625 49.9998C14.0625 44.1094 15.5124 38.3097 18.2844 33.1123C18.3814 32.9314 18.4418 32.7332 18.4621 32.529C18.4825 32.3248 18.4624 32.1186 18.4031 31.9221C18.3438 31.7256 18.2463 31.5428 18.1163 31.384C17.9862 31.2252 17.8262 31.0936 17.6453 30.9967V30.9967Z" fill="#70B859"/>
<path d="M66.8875 81.7187C61.6901 84.4906 55.8903 85.9406 50 85.9406C44.1096 85.9406 38.3099 84.4906 33.1125 81.7187C32.747 81.5229 32.3187 81.4803 31.9218 81.6003C31.5249 81.7203 31.1919 81.993 30.9961 82.3585C30.8003 82.724 30.7577 83.1524 30.8777 83.5493C30.9977 83.9462 31.2704 84.2791 31.6359 84.4749C36.8228 87.2348 42.5665 88.7865 48.4375 89.014V93.7499C48.4375 94.1643 48.6021 94.5618 48.8951 94.8548C49.1882 95.1478 49.5856 95.3124 50 95.3124C50.4144 95.3124 50.8118 95.1478 51.1049 94.8548C51.3979 94.5618 51.5625 94.1643 51.5625 93.7499V89.014C57.4338 88.7855 63.1774 87.2328 68.3641 84.4718C68.545 84.3749 68.7052 84.2432 68.8353 84.0844C68.9654 83.9256 69.0629 83.7427 69.1223 83.5461C69.1817 83.3496 69.2018 83.1433 69.1815 82.939C69.1612 82.7347 69.1009 82.5364 69.0039 82.3554C68.907 82.1744 68.7753 82.0143 68.6165 81.8842C68.4576 81.7541 68.2747 81.6566 68.0782 81.5972C67.8817 81.5378 67.6754 81.5176 67.4711 81.5379C67.2668 81.5583 67.0685 81.6186 66.8875 81.7156V81.7187Z" fill="#70B859"/>
<path d="M93.7499 48.4373H89.014C88.7855 42.566 87.2328 36.8223 84.4718 31.6357C84.276 31.2702 83.943 30.9974 83.5461 30.8774C83.1492 30.7575 82.7209 30.8 82.3554 30.9958C81.9899 31.1916 81.7172 31.5246 81.5972 31.9215C81.4772 32.3184 81.5198 32.7467 81.7156 33.1123C84.4875 38.3096 85.9374 44.1094 85.9374 49.9998C85.9374 55.8901 84.4875 61.6899 81.7156 66.8873C81.6186 67.0682 81.5583 67.2665 81.5379 67.4708C81.5176 67.6751 81.5378 67.8814 81.5972 68.078C81.6566 68.2745 81.7541 68.4574 81.8842 68.6162C82.0143 68.7751 82.1744 68.9067 82.3554 69.0037C82.5364 69.1006 82.7347 69.161 82.939 69.1813C83.1433 69.2016 83.3496 69.1815 83.5461 69.1221C83.7427 69.0626 83.9256 68.9651 84.0844 68.835C84.2432 68.7049 84.3749 68.5448 84.4718 68.3638C87.2328 63.1772 88.7855 57.4335 89.014 51.5623H93.7499C94.1643 51.5623 94.5618 51.3976 94.8548 51.1046C95.1478 50.8116 95.3124 50.4142 95.3124 49.9998C95.3124 49.5854 95.1478 49.1879 94.8548 48.8949C94.5618 48.6019 94.1643 48.4373 93.7499 48.4373Z" fill="#70B859"/>
<path d="M56.8749 25.1332C56.5572 24.994 56.2021 24.9646 55.8658 25.0494C55.5294 25.1343 55.2308 25.3287 55.0171 25.602L37.8296 47.477C37.5743 47.801 37.4575 48.2128 37.5046 48.6226C37.5517 49.0324 37.759 49.4069 38.0812 49.6645L45.1781 55.3411L42.2093 73.1879C42.1524 73.5302 42.2111 73.8817 42.376 74.1869C42.5409 74.4922 42.8028 74.7339 43.1203 74.8739C43.3189 74.9598 43.5335 75.0029 43.7499 75.0004C43.9865 75.0004 44.2199 74.9466 44.4327 74.8433C44.6454 74.7399 44.8319 74.5895 44.9781 74.4036L62.1656 52.5286C62.4209 52.2046 62.5377 51.7928 62.4906 51.383C62.4435 50.9732 62.2362 50.5986 61.914 50.3411L54.8171 44.6645L57.7859 26.8176C57.8424 26.4756 57.7836 26.1245 57.6187 25.8195C57.4538 25.5146 57.1921 25.2732 56.8749 25.1332ZM58.7499 51.8161L46.2953 67.6692L48.4156 54.9442C48.4613 54.6701 48.4332 54.3889 48.334 54.1293C48.2349 53.8698 48.0683 53.6414 47.8515 53.4676L41.2499 48.1848L53.7078 32.3317L51.5874 45.0567C51.5417 45.3307 51.5698 45.612 51.669 45.8715C51.7681 46.1311 51.9347 46.3595 52.1515 46.5332L58.7499 51.8161Z" fill="#70B859"/>
<path d="M71.875 29.6878C72.2894 29.6877 72.6867 29.5231 72.9797 29.23L79.4984 22.7113C81.0018 23.7015 82.8005 24.1432 84.5915 23.9622C86.3825 23.7812 88.0564 22.9885 89.3313 21.7175L93.75 17.2988C94.0429 17.0058 94.2075 16.6084 94.2075 16.1941C94.2075 15.7798 94.0429 15.3824 93.75 15.0894L92.6453 13.9847L94.8547 11.7738C95.0039 11.6296 95.123 11.4572 95.2049 11.2666C95.2867 11.076 95.3298 10.8709 95.3316 10.6635C95.3335 10.456 95.2939 10.2502 95.2154 10.0582C95.1368 9.86619 95.0208 9.69173 94.8741 9.54503C94.7274 9.39832 94.5529 9.2823 94.3609 9.20373C94.1688 9.12517 93.9631 9.08564 93.7556 9.08744C93.5482 9.08924 93.3431 9.13235 93.1525 9.21424C92.9619 9.29612 92.7895 9.41516 92.6453 9.56439L90.436 11.7753L88.225 9.56439L90.436 7.35502C90.7206 7.06033 90.8781 6.66564 90.8745 6.25595C90.8709 5.84627 90.7066 5.45438 90.4169 5.16468C90.1272 4.87498 89.7353 4.71065 89.3256 4.70709C88.916 4.70353 88.5213 4.86102 88.2266 5.14564L86.0156 7.35502L84.9109 6.25033C84.6179 5.95741 84.2206 5.79285 83.8063 5.79285C83.3919 5.79285 82.9946 5.95741 82.7016 6.25033L78.2813 10.6691C77.0098 11.9436 76.2167 13.6176 76.0356 15.4088C75.8546 17.1999 76.2968 18.9987 77.2875 20.5019L70.7688 27.0206C70.5502 27.2393 70.4014 27.5178 70.3412 27.821C70.281 28.1242 70.3121 28.4384 70.4305 28.7239C70.5489 29.0095 70.7494 29.2535 71.0065 29.425C71.2636 29.5966 71.5659 29.6881 71.875 29.6878ZM80.4922 12.8785L83.8063 9.56439L90.436 16.1941L87.1219 19.5081C86.6866 19.9435 86.1698 20.2888 85.601 20.5244C85.0323 20.7599 84.4227 20.8812 83.807 20.8812C83.1914 20.8812 82.5818 20.7599 82.0131 20.5244C81.4443 20.2888 80.9275 19.9435 80.4922 19.5081C80.0569 19.0728 79.7116 18.556 79.476 17.9873C79.2404 17.4185 79.1191 16.8089 79.1191 16.1933C79.1191 15.5777 79.2404 14.9681 79.476 14.3993C79.7116 13.8306 80.0569 13.3138 80.4922 12.8785V12.8785Z" fill="#70B859"/>
<path d="M92.6454 86.0156L93.7501 84.9109C94.043 84.6179 94.2076 84.2205 94.2076 83.8062C94.2076 83.3919 94.043 82.9945 93.7501 82.7015L89.3313 78.2812C88.0568 77.0097 86.3828 76.2166 84.5917 76.0356C82.8005 75.8545 81.0017 76.2967 79.4985 77.2874L72.9798 70.7687C72.6851 70.4841 72.2904 70.3266 71.8807 70.3301C71.471 70.3337 71.0791 70.498 70.7894 70.7877C70.4997 71.0774 70.3354 71.4693 70.3318 71.879C70.3283 72.2887 70.4858 72.6834 70.7704 72.9781L77.2892 79.4968C76.2984 81 75.8563 82.7988 76.0373 84.59C76.2183 86.3811 77.0114 88.0551 78.2829 89.3296L82.7017 93.7499C82.9947 94.0429 83.392 94.2074 83.8063 94.2074C84.2207 94.2074 84.618 94.0429 84.911 93.7499L86.0157 92.6453L88.2267 94.8546C88.5213 95.1393 88.916 95.2967 89.3257 95.2932C89.7354 95.2896 90.1273 95.1253 90.417 94.8356C90.7067 94.5459 90.871 94.154 90.8746 93.7443C90.8781 93.3346 90.7207 92.9399 90.436 92.6453L88.2251 90.4359L90.436 88.2249L92.6454 90.4359C92.9401 90.7205 93.3348 90.878 93.7445 90.8744C94.1542 90.8709 94.546 90.7065 94.8357 90.4168C95.1254 90.1271 95.2898 89.7352 95.2933 89.3256C95.2969 88.9159 95.1394 88.5212 94.8548 88.2265L92.6454 86.0156ZM80.4923 87.1218C79.6131 86.2427 79.1192 85.0503 79.1192 83.807C79.1192 82.5637 79.6131 81.3713 80.4923 80.4921C81.3714 79.613 82.5638 79.1191 83.8071 79.1191C85.0504 79.1191 86.2428 79.613 87.122 80.4921L90.436 83.8062L83.8063 90.4359L80.4923 87.1218Z" fill="#70B859"/>
<path d="M22.711 20.5019C23.702 18.9989 24.1444 17.2002 23.9636 15.409C23.7829 13.6179 22.9901 11.9438 21.7188 10.6691L17.2985 6.25033C17.0055 5.95741 16.6082 5.79285 16.1938 5.79285C15.7795 5.79285 15.3822 5.95741 15.0891 6.25033L13.9845 7.35502L11.7735 5.14564C11.4788 4.86102 11.0841 4.70353 10.6745 4.70709C10.2648 4.71065 9.87288 4.87498 9.58318 5.16468C9.29348 5.45438 9.12916 5.84627 9.1256 6.25595C9.12204 6.66564 9.27953 7.06033 9.56415 7.35502L11.7751 9.56439L9.56415 11.7753L7.35477 9.56439C7.06008 9.27977 6.66539 9.12228 6.25571 9.12584C5.84603 9.1294 5.45413 9.29373 5.16443 9.58343C4.87473 9.87313 4.71041 10.265 4.70685 10.6747C4.70329 11.0844 4.86078 11.4791 5.1454 11.7738L7.35477 13.9847L6.25009 15.0894C5.95716 15.3824 5.79261 15.7798 5.79261 16.1941C5.79261 16.6084 5.95716 17.0058 6.25009 17.2988L10.6688 21.7191C11.9437 22.99 13.6176 23.7828 15.4086 23.9638C17.1996 24.1448 18.9983 23.703 20.5016 22.7128L27.0204 29.2316C27.3151 29.5162 27.7098 29.6737 28.1195 29.6701C28.5291 29.6666 28.921 29.5022 29.2107 29.2125C29.5004 28.9228 29.6648 28.531 29.6683 28.1213C29.6719 27.7116 29.5144 27.3169 29.2298 27.0222L22.711 20.5019ZM12.8782 19.5081L9.56415 16.1941L16.1938 9.56439L19.5079 12.8785C20.3871 13.7576 20.881 14.95 20.881 16.1933C20.881 17.4366 20.3871 18.629 19.5079 19.5081C18.6287 20.3873 17.4364 20.8812 16.1931 20.8812C14.9497 20.8812 13.7574 20.3873 12.8782 19.5081V19.5081Z" fill="#70B859"/>
<path d="M27.0202 70.7706L20.5015 77.2894C18.9983 76.2986 17.1995 75.8565 15.4083 76.0375C13.6172 76.2185 11.9432 77.0117 10.6687 78.2831L6.24991 82.7019C5.95699 82.9949 5.79243 83.3923 5.79243 83.8066C5.79243 84.2209 5.95699 84.6183 6.24991 84.9113L7.3546 86.016L5.14523 88.2269C4.99599 88.371 4.87696 88.5434 4.79507 88.7341C4.71318 88.9247 4.67007 89.1297 4.66827 89.3372C4.66647 89.5447 4.706 89.7504 4.78457 89.9424C4.86313 90.1345 4.97915 90.3089 5.12586 90.4556C5.27257 90.6023 5.44702 90.7184 5.63905 90.7969C5.83107 90.8755 6.03682 90.915 6.24429 90.9132C6.45176 90.9114 6.65679 90.8683 6.84742 90.7864C7.03805 90.7045 7.21046 90.5855 7.3546 90.4363L9.56398 88.2253L11.7749 90.4363L9.56398 92.6456C9.41474 92.7898 9.29571 92.9622 9.21382 93.1528C9.13193 93.3435 9.08882 93.5485 9.08702 93.756C9.08522 93.9634 9.12475 94.1692 9.20332 94.3612C9.28188 94.5532 9.3979 94.7277 9.54461 94.8744C9.69132 95.0211 9.86577 95.1371 10.0578 95.2157C10.2498 95.2942 10.4556 95.3338 10.663 95.332C10.8705 95.3302 11.0755 95.2871 11.2662 95.2052C11.4568 95.1233 11.6292 95.0043 11.7734 94.855L13.9843 92.6456L15.089 93.7503C15.382 94.0433 15.7793 94.2078 16.1937 94.2078C16.608 94.2078 17.0053 94.0433 17.2984 93.7503L21.7187 89.3316C22.9901 88.0571 23.7833 86.3831 23.9643 84.5919C24.1453 82.8007 23.7032 81.0019 22.7124 79.4988L29.2312 72.98C29.5158 72.6853 29.6733 72.2906 29.6697 71.881C29.6662 71.4713 29.5018 71.0794 29.2121 70.7897C28.9224 70.5 28.5305 70.3357 28.1209 70.3321C27.7112 70.3285 27.3165 70.486 27.0218 70.7706H27.0202ZM19.5077 87.1222L16.1937 90.4363L9.56398 83.8066L12.878 80.4925C13.3133 80.0572 13.8301 79.7119 14.3989 79.4763C14.9677 79.2407 15.5773 79.1195 16.1929 79.1195C16.8085 79.1195 17.4181 79.2407 17.9869 79.4763C18.5556 79.7119 19.0724 80.0572 19.5077 80.4925C19.943 80.9278 20.2883 81.4446 20.5239 82.0134C20.7595 82.5821 20.8808 83.1917 20.8808 83.8074C20.8808 84.423 20.7595 85.0326 20.5239 85.6013C20.2883 86.1701 19.943 86.6869 19.5077 87.1222V87.1222Z" fill="#70B859"/>
</svg>
