<svg width="100" height="100" viewBox="0 0 100 100" fill="none" xmlns="http://www.w3.org/2000/svg">
<g clip-path="url(#clip0_333_1916)">
<path d="M99.5422 50.4578L71.4172 22.3328C71.361 22.2766 71.3188 22.25 71.2719 22.2219C71.0032 22.0078 70.6719 21.875 70.3126 21.875H66.2719L71.4172 16.7297C71.8641 16.2828 71.9985 15.6109 71.7563 15.0266C71.5157 14.4422 70.9454 14.0625 70.3126 14.0625H29.6876C29.2719 14.0625 28.875 14.2266 28.5829 14.5203L0.457864 42.6453C0.0109891 43.0922 -0.123386 43.7641 0.118802 44.3484C0.360989 44.9328 0.931302 45.3125 1.56255 45.3125H5.60318L0.457864 50.4578C0.0109891 50.9047 -0.123386 51.5766 0.118802 52.1609C0.360989 52.7453 0.931302 53.125 1.56255 53.125H4.68755V84.375C4.68755 85.2391 5.38599 85.9375 6.25005 85.9375H93.7501C94.6141 85.9375 95.3126 85.2391 95.3126 84.375V53.125H98.4376C99.0688 53.125 99.6391 52.7453 99.8813 52.1609C100.123 51.5766 99.9891 50.9047 99.5422 50.4578ZM61.3969 22.3312C61.3954 22.3328 61.3954 22.3328 61.3938 22.3344L55.6032 28.125H45.9594L56.8969 17.1875H66.5407L61.3969 22.3312ZM17.8344 42.1875L28.7719 31.25H38.4157L27.4782 42.1875H17.8344ZM52.4782 17.1875L41.5407 28.125H31.8969L42.8344 17.1875H52.4782ZM42.8344 31.25H52.4782L41.5407 42.1875H31.8969L42.8344 31.25ZM30.3344 17.1875H38.4157L27.4782 28.125H19.3969L30.3344 17.1875ZM16.2719 31.25H24.3532L13.4157 42.1875H5.33443L16.2719 31.25ZM10.0219 45.3125H42.1875C42.6032 45.3125 42.9985 45.1469 43.2922 44.8547L63.1469 25H66.5407L41.5407 50H5.33443L10.0219 45.3125ZM7.81255 53.125H42.1875H45.3125V82.8125H7.81255V53.125ZM64.0626 82.8125V60.9375H76.5626V82.8125H64.0626ZM93.7501 50C92.886 50 92.1876 50.6984 92.1876 51.5625V82.8125H79.6876V59.375C79.6876 58.5109 78.9891 57.8125 78.1251 57.8125H62.5001C61.636 57.8125 60.9376 58.5109 60.9376 59.375V82.8125H48.4375V51.5625C48.4375 50.6984 47.7391 50 46.875 50H45.9594L70.3126 25.6469L94.6657 50H93.7501Z" fill="#70B859"/>
<path d="M70.3125 37.5C66.0047 37.5 62.5 41.0047 62.5 45.3125C62.5 49.6203 66.0047 53.125 70.3125 53.125C74.6203 53.125 78.125 49.6203 78.125 45.3125C78.125 41.0047 74.6203 37.5 70.3125 37.5ZM70.3125 50C67.7281 50 65.625 47.8969 65.625 45.3125C65.625 42.7281 67.7281 40.625 70.3125 40.625C72.8969 40.625 75 42.7281 75 45.3125C75 47.8984 72.8984 50 70.3125 50Z" fill="#70B859"/>
<path d="M40.625 57.8125H12.5C11.6359 57.8125 10.9375 58.5109 10.9375 59.375V75C10.9375 75.8641 11.6359 76.5625 12.5 76.5625H40.625C41.4891 76.5625 42.1875 75.8641 42.1875 75V59.375C42.1875 58.5125 41.4891 57.8125 40.625 57.8125ZM14.0625 60.9375H25V73.4375H14.0625V60.9375ZM39.0625 73.4375H28.125V60.9375H39.0625V73.4375Z" fill="#70B859"/>
</g>
<defs>
<clipPath id="clip0_333_1916">
<rect width="100" height="100" fill="white"/>
</clipPath>
</defs>
</svg>
