<svg width="240" height="240" viewBox="0 0 240 240" fill="none" xmlns="http://www.w3.org/2000/svg">
<g clip-path="url(#clip0_629_16145)">
<path d="M86.0032 169.085L125.849 140.076L117.731 134.165L76.3774 164.272V234.224H86.0032V169.085Z" fill="#D4E1F4"/>
<path d="M55.165 179.032C55.7761 179.032 56.3701 178.838 56.8627 178.479L70.602 168.477V237.112C70.602 238.708 71.8955 240 73.4897 240H161.972C163.568 240 164.859 238.708 164.859 237.112V168.477L178.599 178.479C179.432 179.107 180.539 179.235 181.494 178.818C182.449 178.4 183.105 177.5 183.21 176.462C183.314 175.424 182.851 174.411 181.998 173.811L164.859 161.333V133.924C164.859 132.33 163.568 131.036 161.972 131.036H147.922C146.328 131.036 145.034 132.33 145.034 133.924V146.898L119.43 128.258C118.417 127.521 117.045 127.521 116.031 128.258L53.4636 173.809C52.4522 174.546 52.0291 175.849 52.4164 177.039C52.8056 178.229 53.9148 179.034 55.165 179.032V179.032ZM115.027 234.224H101.551V205.29H115.027V234.224ZM150.81 136.812H159.084V157.128L150.81 151.104V136.812ZM117.731 134.165L159.084 164.272V234.224H120.803V202.403C120.803 200.806 119.509 199.515 117.915 199.515H98.6634C97.0691 199.515 95.7757 200.806 95.7757 202.403V234.224H76.3775V164.272L117.731 134.165Z" fill="#0635C9"/>
<path d="M131.981 203.738H151.233C152.827 203.738 154.121 202.444 154.121 200.85V186.411C154.121 184.817 152.827 183.523 151.233 183.523H131.981C130.385 183.523 129.094 184.817 129.094 186.411V200.85C129.094 202.444 130.385 203.738 131.981 203.738ZM134.869 189.299H148.345V197.962H134.869V189.299Z" fill="#0635C9"/>
<path d="M117.6 106.716C116.005 106.716 114.712 108.009 114.712 109.604V120.301C114.712 121.897 116.005 123.189 117.6 123.189C119.196 123.189 120.487 121.897 120.487 120.301V109.604C120.487 108.009 119.196 106.716 117.6 106.716Z" fill="#70B859"/>
<path d="M117.6 94.7256C116.005 94.7256 114.712 96.0172 114.712 97.6133V102.541C114.712 104.135 116.005 105.429 117.6 105.429C119.196 105.429 120.487 104.135 120.487 102.541V97.6133C120.487 96.0172 119.196 94.7256 117.6 94.7256Z" fill="#70B859"/>
<path d="M117.6 70.8359C116.005 70.8359 114.712 72.1294 114.712 73.7237V89.0384C114.712 90.6327 116.005 91.9262 117.6 91.9262C119.196 91.9262 120.487 90.6327 120.487 89.0384V73.7237C120.487 72.1294 119.196 70.8359 117.6 70.8359Z" fill="#70B859"/>
<path d="M103.14 112.206C101.544 112.206 100.252 113.5 100.252 115.094V115.951C100.252 117.545 101.544 118.839 103.14 118.839C104.734 118.839 106.028 117.545 106.028 115.951V115.094C106.028 113.5 104.734 112.206 103.14 112.206Z" fill="#70B859"/>
<path d="M103.14 78.126C101.544 78.126 100.252 79.4194 100.252 81.0137V106.137C100.252 107.733 101.544 109.024 103.14 109.024C104.734 109.024 106.028 107.733 106.028 106.137V81.0137C106.028 79.4194 104.734 78.126 103.14 78.126Z" fill="#70B859"/>
<path d="M131.1 97.0107C129.506 97.0107 128.212 98.3042 128.212 99.8985V109.795C128.212 111.389 129.506 112.683 131.1 112.683C132.696 112.683 133.988 111.389 133.988 109.795V99.8985C133.988 98.3042 132.696 97.0107 131.1 97.0107Z" fill="#70B859"/>
<path d="M133.988 77.002C133.988 75.4058 132.696 74.1143 131.1 74.1143C129.506 74.1143 128.212 75.4058 128.212 77.002V90.856C128.212 92.4502 129.506 93.7437 131.1 93.7437C132.696 93.7437 133.988 92.4502 133.988 90.856V77.002Z" fill="#70B859"/>
<path d="M104.894 44.5906C104.334 44.0529 103.58 43.7634 102.804 43.7878L100.544 43.8593L117.099 26.2208L134.738 42.7783L131.012 42.8967C129.451 42.9456 128.214 44.224 128.214 45.7844V69.2322C128.214 70.8265 129.508 72.12 131.102 72.12C132.698 72.12 133.99 70.8265 133.99 69.2322V48.5782L141.89 48.3262C143.057 48.2905 144.087 47.5535 144.499 46.4612C144.913 45.3689 144.625 44.1338 143.773 43.3347L118.944 20.0336C117.782 18.9413 115.955 18.9996 114.862 20.1633L91.5611 44.9911C90.7639 45.8427 90.5553 47.0911 91.0365 48.1552C91.5178 49.2174 92.5913 49.8886 93.7588 49.8509L100.034 49.6517L100.252 74.1523C100.266 75.7371 101.555 77.0137 103.14 77.0137H103.167C104.761 76.9987 106.043 75.6958 106.028 74.0996L105.784 46.6474C105.776 45.869 105.455 45.1283 104.894 44.5906Z" fill="#70B859"/>
<path d="M175.354 126.159C173.76 126.159 172.466 127.451 172.466 129.047V144.365C172.466 145.962 173.76 147.253 175.354 147.253C176.95 147.253 178.242 145.962 178.242 144.365V129.047C178.242 127.451 176.95 126.159 175.354 126.159Z" fill="#70B859"/>
<path d="M178.242 90.3526C178.242 88.7583 176.95 87.4648 175.354 87.4648C173.76 87.4648 172.466 88.7583 172.466 90.3526V118.358C172.466 119.952 173.76 121.245 175.354 121.245C176.95 121.245 178.242 119.952 178.242 118.358V90.3526Z" fill="#70B859"/>
<path d="M178.242 78.3614C178.242 76.7652 176.95 75.4736 175.354 75.4736C173.76 75.4736 172.466 76.7652 172.466 78.3614V83.2889C172.466 84.8832 173.76 86.1767 175.354 86.1767C176.95 86.1767 178.242 84.8832 178.242 83.2889V78.3614Z" fill="#70B859"/>
<path d="M178.242 54.4717C178.242 52.8774 176.95 51.584 175.354 51.584C173.76 51.584 172.466 52.8774 172.466 54.4717V69.7865C172.466 71.3807 173.76 72.6742 175.354 72.6742C176.95 72.6742 178.242 71.3807 178.242 69.7865V54.4717Z" fill="#70B859"/>
<path d="M160.895 92.9541C159.298 92.9541 158.007 94.2476 158.007 95.8418V111.138C158.007 112.732 159.298 114.026 160.895 114.026C162.489 114.026 163.782 112.732 163.782 111.138V95.8418C163.782 94.2476 162.489 92.9541 160.895 92.9541Z" fill="#70B859"/>
<path d="M163.782 61.7627C163.782 60.1685 162.489 58.875 160.895 58.875C159.298 58.875 158.007 60.1685 158.007 61.7627V86.8856C158.007 88.4818 159.298 89.7734 160.895 89.7734C162.489 89.7734 163.782 88.4818 163.782 86.8856V61.7627Z" fill="#70B859"/>
<path d="M191.742 80.6475C191.742 79.0532 190.451 77.7598 188.855 77.7598C187.26 77.7598 185.967 79.0532 185.967 80.6475V111.426C185.967 113.02 187.26 114.313 188.855 114.313C190.451 114.313 191.742 113.02 191.742 111.426V80.6475Z" fill="#70B859"/>
<path d="M191.742 122.79C191.742 121.194 190.451 119.902 188.855 119.902C187.26 119.902 185.967 121.194 185.967 122.79V149.605C185.967 151.199 187.26 152.493 188.855 152.493C190.451 152.493 191.742 151.199 191.742 149.605V122.79Z" fill="#70B859"/>
<path d="M188.855 158.173C187.26 158.173 185.967 159.466 185.967 161.061V162.738C185.967 164.332 187.26 165.625 188.855 165.625C190.451 165.625 191.742 164.332 191.742 162.738V161.061C191.742 159.466 190.451 158.173 188.855 158.173Z" fill="#70B859"/>
<path d="M191.742 57.75C191.742 56.1539 190.451 54.8623 188.855 54.8623C187.26 54.8623 185.967 56.1539 185.967 57.75V71.604C185.967 73.1983 187.26 74.4917 188.855 74.4917C190.451 74.4917 191.742 73.1983 191.742 71.604V57.75Z" fill="#70B859"/>
<path d="M151.513 30.6009L157.793 30.4016L158.007 51.0557C158.024 52.6386 159.312 53.9133 160.895 53.9133H160.925C162.519 53.8964 163.799 52.5898 163.782 50.9955L163.538 27.3917C163.53 26.6152 163.209 25.8745 162.649 25.3368C162.088 24.801 161.335 24.5114 160.558 24.5359L158.298 24.6073L174.856 6.96884L192.494 23.5263L188.766 23.6447C187.208 23.6936 185.969 24.9721 185.971 26.5325V49.9803C185.971 51.5745 187.264 52.868 188.858 52.868C190.453 52.868 191.746 51.5745 191.746 49.9803V29.3262L199.644 29.0743C200.811 29.0386 201.842 28.3016 202.255 27.2093C202.667 26.117 202.381 24.8818 201.53 24.0828L176.698 0.781646C175.536 -0.310654 173.709 -0.252373 172.617 0.911369L149.315 25.7391C148.518 26.5908 148.31 27.8391 148.791 28.9032C149.272 29.9654 150.346 30.6366 151.513 30.599V30.6009Z" fill="#70B859"/>
<path d="M62.272 144.366C62.272 145.962 63.5654 147.253 65.1597 147.253C66.7559 147.253 68.0474 145.962 68.0474 144.366V143.294C68.0474 141.7 66.7559 140.406 65.1597 140.406C63.5654 140.406 62.272 141.7 62.272 143.294V144.366Z" fill="#70B859"/>
<path d="M62.272 131.418C62.272 133.012 63.5654 134.305 65.1597 134.305C66.7559 134.305 68.0474 133.012 68.0474 131.418V116.864C68.0474 115.268 66.7559 113.977 65.1597 113.977C63.5654 113.977 62.272 115.268 62.272 116.864V131.418Z" fill="#70B859"/>
<path d="M65.1597 111.177C66.7559 111.177 68.0474 109.884 68.0474 108.29V102.601C68.0474 101.006 66.7559 99.7129 65.1597 99.7129C63.5654 99.7129 62.272 101.006 62.272 102.601V108.29C62.272 109.884 63.5654 111.177 65.1597 111.177Z" fill="#70B859"/>
<path d="M47.8125 164.079C47.8125 165.673 49.1041 166.967 50.7002 166.967C52.2945 166.967 53.588 165.673 53.588 164.079V162.421C53.588 160.827 52.2945 159.533 50.7002 159.533C49.1041 159.533 47.8125 160.827 47.8125 162.421V164.079Z" fill="#70B859"/>
<path d="M47.8125 153.17C47.8125 154.766 49.1041 156.057 50.7002 156.057C52.2945 156.057 53.588 154.766 53.588 153.17V134.345C53.588 132.75 52.2945 131.457 50.7002 131.457C49.1041 131.457 47.8125 132.75 47.8125 134.345V153.17Z" fill="#70B859"/>
<path d="M50.7002 128.278C52.2945 128.278 53.588 126.985 53.588 125.391V89.1963C53.588 87.6021 52.2945 86.3086 50.7002 86.3086C49.1041 86.3086 47.8125 87.6021 47.8125 89.1963V125.391C47.8125 126.985 49.1041 128.278 50.7002 128.278Z" fill="#70B859"/>
<path d="M75.7725 129.047C75.7725 130.641 77.0659 131.935 78.6602 131.935C80.2545 131.935 81.5479 130.641 81.5479 129.047V128.776C81.5479 127.182 80.2545 125.889 78.6602 125.889C77.0659 125.889 75.7725 127.182 75.7725 128.776V129.047Z" fill="#70B859"/>
<path d="M78.6602 122.621C80.2545 122.621 81.5479 121.328 81.5479 119.734V84.2217C81.5479 82.6256 80.2545 81.334 78.6602 81.334C77.0659 81.334 75.7725 82.6256 75.7725 84.2217V119.734C75.7725 121.328 77.0659 122.621 78.6602 122.621Z" fill="#70B859"/>
<path d="M92.0572 27.2093C92.469 26.117 92.1832 24.8818 91.3316 24.0828L66.5038 0.781646C65.342 -0.310654 63.5146 -0.252373 62.4223 0.911369L39.1211 25.7391C38.3221 26.5908 38.1153 27.8391 38.5966 28.9032C39.0779 29.9654 40.1514 30.6366 41.3189 30.599L47.5813 30.3997L47.8125 78.9516C47.82 80.5421 49.1097 81.8262 50.7002 81.8262H50.7134C52.3077 81.8187 53.5955 80.5196 53.588 78.9253L53.3417 27.4067C53.3379 26.6284 53.0202 25.882 52.46 25.3424C51.8978 24.801 51.1421 24.5096 50.3637 24.534L48.102 24.6054L64.6576 6.96696L82.2961 23.5244L78.568 23.6429C77.0095 23.6918 75.7724 24.9702 75.7724 26.5306V74.0428C75.7724 75.639 77.0659 76.9306 78.6601 76.9306C80.2544 76.9306 81.5479 75.639 81.5479 74.0428V29.3262L89.4478 29.0743C90.6134 29.0386 91.6436 28.3016 92.0572 27.2093Z" fill="#70B859"/>
</g>
<defs>
<clipPath id="clip0_629_16145">
<rect width="240" height="240" fill="white"/>
</clipPath>
</defs>
</svg>
