<svg width="112" height="112" viewBox="0 0 112 112" fill="none" xmlns="http://www.w3.org/2000/svg">
<path d="M7.46659 93.3334H39.2V99.8257L31.6214 105.093C30.2017 105.973 29.5391 107.689 29.9992 109.295C30.4592 110.901 31.9296 112.005 33.6 112H78.4C80.0476 111.998 81.4992 110.917 81.9724 109.339C82.4456 107.761 81.8282 106.059 80.4534 105.151L72.8 99.8257V93.3334H104.533C108.657 93.3334 112 89.9905 112 85.8668V7.46681C112 3.34294 108.657 0 104.533 0H7.46659C3.34294 0 0 3.34294 0 7.46659V85.8666C0 89.9905 3.34294 93.3334 7.46659 93.3334ZM78.4 108.267L33.6783 108.216L41.6526 102.667H70.3469L78.4 108.267ZM69.0666 98.9334H42.9334V93.3334H69.0668V98.9334H69.0666ZM104.533 89.6H7.46659C5.40466 89.6 3.73319 87.9285 3.73319 85.8666V78.4H108.267V85.8666C108.267 87.9285 106.595 89.6 104.533 89.6ZM3.73341 7.46659C3.73341 5.40466 5.40487 3.73319 7.46681 3.73319H104.533C106.595 3.73319 108.267 5.40466 108.267 7.46659V74.6666H3.73341V7.46659Z" fill="#222222"/>
<path d="M59.7336 82.1334H52.267C51.236 82.1334 50.4004 82.9693 50.4004 84C50.4004 85.0308 51.2362 85.8666 52.267 85.8666H59.7336C60.7645 85.8666 61.6002 85.031 61.6002 84C61.6002 82.969 60.7645 82.1334 59.7336 82.1334Z" fill="#70B859"/>
<path d="M71.5788 28.446L46.7522 49.726L40.5062 43.4764C40.0374 42.9912 39.3436 42.7965 38.6908 42.9673C38.0381 43.1382 37.5286 43.6479 37.3578 44.3004C37.1869 44.9531 37.3816 45.647 37.8668 46.1158L45.3334 53.5824C46.0229 54.271 47.1263 54.3132 47.8665 53.6795L73.9999 31.2795C74.5356 30.8547 74.7962 30.1711 74.6791 29.4974C74.5621 28.8238 74.0861 28.268 73.4386 28.0488C72.7911 27.8296 72.0754 27.9819 71.5733 28.4458H71.5788V28.446Z" fill="#70B859"/>
<path d="M56 7.46655C38.4742 7.46655 24.2666 21.6741 24.2666 39.2C24.2666 56.7258 38.4742 70.9334 56 70.9334C73.5258 70.9334 87.7334 56.7258 87.7334 39.2C87.7137 21.6822 73.5177 7.48624 56 7.46655ZM56 67.2C40.5361 67.2 28 54.6638 28 39.2C28 23.7361 40.5361 11.2 56 11.2C71.4639 11.2 84 23.7361 84 39.2C83.9825 54.6566 71.4567 67.1825 56 67.2Z" fill="#70B859"/>
</svg>
