<svg width="86" height="86" viewBox="0 0 86 86" fill="none" xmlns="http://www.w3.org/2000/svg">
<g clip-path="url(#clip0_277_1206)">
<path d="M81.5896 14.3333H4.41036C1.98455 14.3333 0 16.3178 0 18.7435V67.2564C0 69.6818 1.98455 71.6667 4.41036 71.6667H81.5898C84.0153 71.6667 86.0002 69.6822 86.0002 67.2564V18.7435C86 16.3178 84.0154 14.3333 81.5896 14.3333ZM79.9347 17.6408L45.537 43.4411C44.9185 43.9117 43.9692 44.2062 42.9998 44.2018C42.0307 44.2062 41.0815 43.9117 40.4628 43.4411L6.06518 17.6408H79.9347ZM61.5605 45.1435L80.3042 68.2974C80.323 68.3206 80.346 68.3383 80.366 68.3593H5.63401C5.65383 68.3373 5.67701 68.3206 5.69582 68.2974L24.4395 45.1435C25.0137 44.4334 24.9049 43.3925 24.1935 42.8169C23.4835 42.2426 22.4426 42.3515 21.8682 43.0616L3.30764 65.9896V19.7081L38.4793 46.0869C39.8014 47.0716 41.4098 47.5049 42.9997 47.5093C44.5873 47.5059 46.1971 47.0726 47.52 46.0869L82.6917 19.7081V65.9892L64.1316 43.0616C63.5572 42.3516 62.5153 42.2425 61.8063 42.8169C61.0951 43.3912 60.9859 44.4334 61.5605 45.1435Z" fill="#70B859"/>
</g>
<defs>
<clipPath id="clip0_277_1206">
<rect width="86" height="86" fill="white"/>
</clipPath>
</defs>
</svg>
