<svg width="86" height="86" viewBox="0 0 86 86" fill="none" xmlns="http://www.w3.org/2000/svg">
<path d="M42.9992 2.57999C35.1348 2.58888 27.595 5.71697 22.0339 11.278C16.4729 16.839 13.3448 24.3788 13.3359 32.2433C13.3359 48.1092 40.5133 81.3829 41.6702 82.7918C41.8315 82.9882 42.0344 83.1464 42.2642 83.255C42.494 83.3636 42.745 83.42 42.9992 83.42C43.2534 83.42 43.5044 83.3636 43.7342 83.255C43.964 83.1464 44.1669 82.9882 44.3283 82.7918C45.4852 81.3829 72.6625 48.1092 72.6625 32.2433C72.6536 24.3788 69.5255 16.839 63.9645 11.278C58.4035 5.71697 50.8637 2.58888 42.9992 2.57999ZM42.9992 78.9508C37.4915 71.9994 16.7759 45.003 16.7759 32.2433C16.7759 28.7996 17.4542 25.3896 18.7721 22.2081C20.0899 19.0265 22.0215 16.1357 24.4566 13.7006C26.8916 11.2656 29.7824 9.33398 32.964 8.01614C36.1456 6.6983 39.5555 6.02001 42.9992 6.02001C46.4429 6.02001 49.8529 6.6983 53.0344 8.01614C56.216 9.33398 59.1068 11.2656 61.5419 13.7006C63.9769 16.1357 65.9085 19.0265 67.2264 22.2081C68.5442 25.3896 69.2225 28.7996 69.2225 32.2433C69.2225 45.003 48.5069 71.9994 42.9992 78.9508Z" fill="#70B859"/>
<path d="M42.9985 19.148C40.6042 19.148 38.2636 19.858 36.2728 21.1882C34.282 22.5184 32.7304 24.4091 31.8141 26.6212C30.8978 28.8333 30.6581 31.2674 31.1252 33.6157C31.5923 35.964 32.7453 38.1211 34.4383 39.8141C36.1314 41.5072 38.2884 42.6601 40.6368 43.1273C42.9851 43.5944 45.4192 43.3546 47.6312 42.4384C49.8433 41.5221 51.734 39.9704 53.0642 37.9796C54.3944 35.9888 55.1044 33.6483 55.1044 31.2539C55.1008 28.0444 53.8241 24.9673 51.5546 22.6978C49.2851 20.4283 46.2081 19.1517 42.9985 19.148ZM42.9985 39.9199C41.2846 39.9199 39.6091 39.4116 38.184 38.4594C36.7589 37.5072 35.6481 36.1537 34.9922 34.5702C34.3363 32.9868 34.1647 31.2443 34.4991 29.5633C34.8335 27.8823 35.6588 26.3382 36.8708 25.1262C38.0827 23.9142 39.6268 23.0889 41.3079 22.7545C42.9889 22.4201 44.7313 22.5918 46.3148 23.2477C47.8983 23.9036 49.2517 25.0143 50.204 26.4394C51.1562 27.8645 51.6644 29.54 51.6644 31.2539C51.6618 33.5515 50.7479 35.7542 49.1233 37.3788C47.4987 39.0034 45.296 39.9172 42.9985 39.9199Z" fill="#70B859"/>
</svg>
