<svg width="80" height="80" viewBox="0 0 80 80" fill="none" xmlns="http://www.w3.org/2000/svg">
<path d="M17.5 62.5001C19.0086 62.477 20.4467 61.8582 21.5006 60.7785C22.5544 59.6989 23.1384 58.2462 23.125 56.7376C23.125 53.0251 18.9188 47.8938 18.4375 47.3188C18.3162 47.1848 18.1682 47.0776 18.003 47.0043C17.8377 46.931 17.6589 46.8931 17.4782 46.8931C17.2974 46.8931 17.1186 46.931 16.9533 47.0043C16.7881 47.0776 16.6401 47.1848 16.5188 47.3188C16.0375 47.8938 11.8313 53.0251 11.8313 56.7376C11.8247 57.4883 11.9661 58.2329 12.2475 58.9289C12.5289 59.6249 12.9447 60.2587 13.4712 60.7938C13.9977 61.329 14.6245 61.7552 15.3158 62.048C16.0071 62.3407 16.7493 62.4944 17.5 62.5001ZM17.5 50.1626C18.8375 51.9876 20.625 54.8751 20.625 56.7376C20.625 57.5714 20.2938 58.371 19.7042 58.9606C19.1147 59.5501 18.315 59.8813 17.4813 59.8813C16.6475 59.8813 15.8479 59.5501 15.2583 58.9606C14.6687 58.371 14.3375 57.5714 14.3375 56.7376C14.375 54.8751 16.1625 51.9876 17.5 50.1626Z" fill="white"/>
<path d="M19.1495 26.3812C18.8536 26.2334 18.5111 26.209 18.1971 26.3132C17.8831 26.4175 17.6233 26.642 17.4745 26.9375L13.7245 34.4375C13.6284 34.6282 13.5828 34.8404 13.592 35.0538C13.6012 35.2673 13.6649 35.4748 13.7771 35.6565C13.8893 35.8383 14.0462 35.9883 14.2329 36.0922C14.4195 36.1961 14.6297 36.2504 14.8433 36.25H18.212L14.7183 41.8375C14.6255 41.9766 14.5617 42.1329 14.5304 42.2972C14.4992 42.4615 14.5012 42.6303 14.5364 42.7938C14.5716 42.9572 14.6392 43.112 14.7353 43.2489C14.8313 43.3857 14.9539 43.5019 15.0956 43.5906C15.2374 43.6792 15.3955 43.7385 15.5606 43.765C15.7257 43.7915 15.8944 43.7845 16.0568 43.7446C16.2192 43.7047 16.3719 43.6326 16.5059 43.5326C16.6399 43.4326 16.7525 43.3067 16.837 43.1625L21.5245 35.6625C21.6426 35.4735 21.7081 35.2564 21.7141 35.0337C21.7201 34.811 21.6665 34.5907 21.5588 34.3956C21.451 34.2006 21.2931 34.0379 21.1014 33.9244C20.9097 33.8108 20.6911 33.7506 20.4683 33.75H16.8745L19.7183 28.0562C19.791 27.9089 19.834 27.7487 19.8448 27.5848C19.8556 27.4208 19.834 27.2564 19.7811 27.1008C19.7283 26.9452 19.6453 26.8016 19.537 26.6781C19.4286 26.5547 19.2969 26.4538 19.1495 26.3812Z" fill="white"/>
<path d="M36.25 70H7.5V22.5H21.25C21.5815 22.5 21.8995 22.3683 22.1339 22.1339C22.3683 21.8995 22.5 21.5815 22.5 21.25V7.5H50V15.5813C50 15.9128 50.1317 16.2307 50.3661 16.4651C50.6005 16.6996 50.9185 16.8313 51.25 16.8313C51.5815 16.8313 51.8995 16.6996 52.1339 16.4651C52.3683 16.2307 52.5 15.9128 52.5 15.5813V6.25C52.5 5.91848 52.3683 5.60054 52.1339 5.36612C51.8995 5.1317 51.5815 5 51.25 5H21.25C20.919 5.0014 20.6021 5.13401 20.3687 5.36875L5.36875 20.3687C5.13401 20.6021 5.0014 20.919 5 21.25V71.25C5 71.5815 5.1317 71.8995 5.36612 72.1339C5.60054 72.3683 5.91848 72.5 6.25 72.5H36.25C36.5815 72.5 36.8995 72.3683 37.1339 72.1339C37.3683 71.8995 37.5 71.5815 37.5 71.25C37.5 70.9185 37.3683 70.6005 37.1339 70.3661C36.8995 70.1317 36.5815 70 36.25 70ZM20 9.26875V20H9.26875L20 9.26875Z" fill="white"/>
<path d="M56.25 35C52.0472 35 47.9387 36.2463 44.4441 38.5813C40.9496 40.9163 38.2259 44.235 36.6176 48.118C35.0092 52.0009 34.5884 56.2736 35.4083 60.3957C36.2283 64.5178 38.2521 68.3042 41.224 71.276C44.1959 74.2479 47.9822 76.2718 52.1043 77.0917C56.2264 77.9116 60.4991 77.4908 64.382 75.8824C68.265 74.2741 71.5838 71.5504 73.9187 68.0559C76.2537 64.5613 77.5 60.4529 77.5 56.25C77.5 50.6141 75.2612 45.2091 71.276 41.224C67.2909 37.2388 61.8859 35 56.25 35ZM56.25 75C52.5416 75 48.9165 73.9003 45.8331 71.8401C42.7496 69.7798 40.3464 66.8514 38.9273 63.4253C37.5081 59.9992 37.1368 56.2292 37.8603 52.5921C38.5838 48.9549 40.3695 45.614 42.9918 42.9917C45.614 40.3695 48.9549 38.5837 52.5921 37.8603C56.2292 37.1368 59.9992 37.5081 63.4253 38.9273C66.8514 40.3464 69.7798 42.7496 71.8401 45.8331C73.9003 48.9165 75 52.5416 75 56.25C75 61.2228 73.0246 65.9919 69.5083 69.5083C65.992 73.0246 61.2228 75 56.25 75Z" fill="white"/>
<path d="M57.0314 54.8875C53.8689 53.6375 51.9502 52.7687 51.9502 50.8374C51.9502 48.2374 54.3439 47.0562 56.5627 47.0562C58.2064 47.0562 60.9877 47.8062 60.9877 50.6062C60.9877 50.9377 61.1194 51.2557 61.3538 51.4901C61.5882 51.7245 61.9062 51.8562 62.2377 51.8562C62.5692 51.8562 62.8872 51.7245 63.1216 51.4901C63.356 51.2557 63.4877 50.9377 63.4877 50.6062C63.4877 46.9875 60.6002 44.9499 57.4877 44.6124V42.7C57.4877 42.3684 57.356 42.0505 57.1216 41.8161C56.8872 41.5816 56.5692 41.45 56.2377 41.45C55.9062 41.45 55.5882 41.5816 55.3538 41.8161C55.1194 42.0505 54.9877 42.3684 54.9877 42.7V44.7062C52.0377 45.25 49.4502 47.3312 49.4502 50.8374C49.4502 54.5874 52.9939 55.9937 56.1252 57.2125C59.3689 58.4625 61.3377 59.3937 61.3377 61.4437C61.3561 62.01 61.2373 62.5723 60.9913 63.0827C60.7454 63.5932 60.3796 64.0365 59.9252 64.375C58.9046 65.0877 57.682 65.4536 56.4377 65.4187C53.8064 65.4187 51.1377 63.9875 51.1377 61.25C51.1377 60.9184 51.006 60.6005 50.7716 60.3661C50.5372 60.1316 50.2192 60 49.8877 60C49.5562 60 49.2382 60.1316 49.0038 60.3661C48.7694 60.6005 48.6377 60.9184 48.6377 61.25C48.6377 65.0812 51.6439 67.3187 54.9877 67.8125V69.775C54.9877 70.1065 55.1194 70.4244 55.3538 70.6588C55.5882 70.8933 55.9062 71.025 56.2377 71.025C56.5692 71.025 56.8872 70.8933 57.1216 70.6588C57.356 70.4244 57.4877 70.1065 57.4877 69.775V67.8562C58.9118 67.7224 60.2738 67.2087 61.4314 66.3687C62.2003 65.7973 62.8204 65.0492 63.2392 64.1876C63.658 63.326 63.8633 62.3763 63.8377 61.4187C63.8377 57.5374 60.2252 56.1312 57.0314 54.8875Z" fill="white"/>
<path d="M44.375 35C44.375 34.6685 44.2433 34.3505 44.0089 34.1161C43.7745 33.8817 43.4565 33.75 43.125 33.75H27.5C27.1685 33.75 26.8505 33.8817 26.6161 34.1161C26.3817 34.3505 26.25 34.6685 26.25 35C26.25 35.3315 26.3817 35.6495 26.6161 35.8839C26.8505 36.1183 27.1685 36.25 27.5 36.25H43.125C43.4565 36.25 43.7745 36.1183 44.0089 35.8839C44.2433 35.6495 44.375 35.3315 44.375 35Z" fill="white"/>
<path d="M27.5 53.75C27.1685 53.75 26.8505 53.8817 26.6161 54.1161C26.3817 54.3505 26.25 54.6685 26.25 55C26.25 55.3315 26.3817 55.6495 26.6161 55.8839C26.8505 56.1183 27.1685 56.25 27.5 56.25H31.25C31.5815 56.25 31.8995 56.1183 32.1339 55.8839C32.3683 55.6495 32.5 55.3315 32.5 55C32.5 54.6685 32.3683 54.3505 32.1339 54.1161C31.8995 53.8817 31.5815 53.75 31.25 53.75H27.5Z" fill="white"/>
<path d="M64.2066 28.8124C64.3228 28.6963 64.415 28.5585 64.4779 28.4067C64.5408 28.255 64.5732 28.0923 64.5732 27.928C64.5732 27.7638 64.5408 27.6011 64.4779 27.4494C64.415 27.2976 64.3228 27.1598 64.2066 27.0437C63.1618 25.9986 61.9215 25.1696 60.5563 24.604C59.1912 24.0384 57.728 23.7473 56.2503 23.7473C54.7726 23.7473 53.3094 24.0384 51.9443 24.604C50.5791 25.1696 49.3388 25.9986 48.2941 27.0437C48.0595 27.2782 47.9277 27.5963 47.9277 27.928C47.9277 28.2597 48.0595 28.5779 48.2941 28.8124C48.5286 29.047 48.8467 29.1787 49.1784 29.1787C49.5101 29.1787 49.8283 29.047 50.0628 28.8124C50.8753 27.9998 51.84 27.3552 52.9016 26.9154C53.9633 26.4756 55.1012 26.2493 56.2503 26.2493C57.3994 26.2493 58.5373 26.4756 59.599 26.9154C60.6606 27.3552 61.6253 27.9998 62.4378 28.8124C62.5539 28.9286 62.6918 29.0208 62.8435 29.0837C62.9952 29.1466 63.1579 29.179 63.3222 29.179C63.4864 29.179 63.6491 29.1466 63.8008 29.0837C63.9526 29.0208 64.0905 28.9286 64.2066 28.8124Z" fill="white"/>
<path d="M51.8312 30.5813C51.5966 30.8159 51.4648 31.134 51.4648 31.4657C51.4648 31.7974 51.5966 32.1155 51.8312 32.3501C52.0657 32.5846 52.3838 32.7164 52.7155 32.7164C53.0472 32.7164 53.3654 32.5846 53.5999 32.3501C53.9482 32.0014 54.3618 31.7248 54.817 31.5361C55.2723 31.3474 55.7602 31.2503 56.253 31.2503C56.7458 31.2503 57.2338 31.3474 57.6891 31.5361C58.1443 31.7248 58.5579 32.0014 58.9062 32.3501C59.1407 32.5846 59.4588 32.7164 59.7905 32.7164C60.1222 32.7164 60.4404 32.5846 60.6749 32.3501C60.9095 32.1155 61.0412 31.7974 61.0412 31.4657C61.0412 31.134 60.9095 30.8159 60.6749 30.5813C60.0945 30.0002 59.4052 29.5392 58.6464 29.2247C57.8877 28.9102 57.0744 28.7483 56.253 28.7483C55.4317 28.7483 54.6184 28.9102 53.8597 29.2247C53.1009 29.5392 52.4116 30.0002 51.8312 30.5813Z" fill="white"/>
<path d="M44.7621 25.275C44.8782 25.3912 45.0161 25.4834 45.1678 25.5463C45.3196 25.6092 45.4822 25.6416 45.6465 25.6416C45.8108 25.6416 45.9734 25.6092 46.1252 25.5463C46.2769 25.4834 46.4148 25.3912 46.5309 25.275C49.1094 22.6969 52.6064 21.2485 56.2527 21.2485C59.8991 21.2485 63.3961 22.6969 65.9746 25.275C66.2092 25.5095 66.5273 25.6413 66.859 25.6413C67.1907 25.6413 67.5088 25.5095 67.7434 25.275C67.9779 25.0404 68.1097 24.7223 68.1097 24.3906C68.1097 24.0589 67.9779 23.7408 67.7434 23.5062C66.2344 21.9972 64.443 20.8002 62.4714 19.9836C60.4999 19.1669 58.3868 18.7466 56.2527 18.7466C54.1187 18.7466 52.0056 19.1669 50.034 19.9836C48.0625 20.8002 46.2711 21.9972 44.7621 23.5062C44.6459 23.6223 44.5537 23.7602 44.4908 23.9119C44.4279 24.0637 44.3955 24.2263 44.3955 24.3906C44.3955 24.5549 44.4279 24.7175 44.4908 24.8693C44.5537 25.021 44.6459 25.1589 44.7621 25.275Z" fill="white"/>
</svg>
