<svg width="80" height="80" viewBox="0 0 80 80" fill="none" xmlns="http://www.w3.org/2000/svg">
<path fill-rule="evenodd" clip-rule="evenodd" d="M66.7729 14.5427C60.5157 7.68576 51.5924 3.37633 41.6655 3.37402C31.343 3.37172 22.0816 7.95268 15.8035 15.1883C15.4182 15.6324 15.4657 16.3059 15.9099 16.6912C16.354 17.0765 17.0274 17.0287 17.4127 16.5846C23.3002 9.79918 31.985 5.50253 41.6649 5.50483C50.9708 5.50688 59.3335 9.55117 65.1992 15.9791C65.5955 16.4133 66.27 16.4442 66.7041 16.0479C67.1385 15.6516 67.1695 14.9771 66.7729 14.5427Z" fill="white"/>
<path fill-rule="evenodd" clip-rule="evenodd" d="M8.97135 27.4609C7.98009 30.6658 7.44547 34.0714 7.43473 37.6015C7.3859 53.9273 18.561 67.5804 34.0678 71.0075C34.6421 71.1343 35.2109 70.7712 35.338 70.197C35.4648 69.623 35.1018 69.0539 34.5275 68.9271C19.9913 65.7145 9.51977 52.9122 9.56554 37.6079C9.57526 34.2949 10.0764 31.0984 11.0068 28.0904C11.1806 27.5286 10.8657 26.9316 10.3039 26.758C9.74221 26.5842 9.14495 26.8992 8.97135 27.4609Z" fill="white"/>
<path fill-rule="evenodd" clip-rule="evenodd" d="M15.5931 29.6405L13.9711 20.8283C13.9092 20.4919 13.6896 20.2058 13.3807 20.059C13.0719 19.9122 12.7114 19.9225 12.4114 20.0869L4.55348 24.3925C4.03778 24.675 3.84858 25.3231 4.1311 25.8386C4.41363 26.3543 5.06151 26.5435 5.57721 26.2609L12.1425 22.6636L13.4978 30.0263C13.6042 30.6044 14.16 30.9876 14.7384 30.881C15.3164 30.7747 15.6997 30.2188 15.5931 29.6405Z" fill="white"/>
<path fill-rule="evenodd" clip-rule="evenodd" d="M61.4633 18.9273L69.8263 22.1442C70.1454 22.2672 70.5041 22.2291 70.7907 22.0424C71.077 21.8555 71.2565 21.5426 71.2729 21.2012L71.7027 12.251C71.7311 11.6637 71.277 11.1641 70.6897 11.1358C70.1024 11.1076 69.6028 11.5615 69.5744 12.1488L69.2155 19.6265L62.2283 16.9386C61.6794 16.7277 61.0627 17.0018 60.8515 17.5504C60.6403 18.0994 60.9147 18.7163 61.4633 18.9273Z" fill="white"/>
<path fill-rule="evenodd" clip-rule="evenodd" d="M49.1895 71.0069C64.5349 67.5775 76.1541 53.9031 75.8957 37.5876C75.832 33.5676 75.0931 29.7087 73.7894 26.1244C73.5884 25.5718 72.9766 25.2865 72.4241 25.4875C71.8716 25.6884 71.5862 26.3003 71.7872 26.8528C73.0119 30.2198 73.7053 33.845 73.7651 37.6214C74.0075 52.9108 63.1052 65.7139 48.7249 68.9275C48.1509 69.0555 47.7891 69.6257 47.9175 70.1994C48.0458 70.7732 48.6157 71.135 49.1895 71.0069Z" fill="white"/>
<path fill-rule="evenodd" clip-rule="evenodd" d="M45.4198 29.9909V13.3561C45.4198 12.2337 44.6676 11.2506 43.5843 10.9568C42.5008 10.6633 41.3551 11.1322 40.7885 12.1012C36.6905 19.1081 28.865 32.4881 24.8575 39.3398C24.1511 40.5478 24.1447 42.0415 24.8412 43.2555C25.5374 44.4694 26.8301 45.218 28.2294 45.218H37.9111V61.8529C37.9111 62.9753 38.6633 63.9586 39.7469 64.2521C40.8302 64.5457 41.9759 64.0767 42.5427 63.1077C46.6407 56.1009 54.4662 42.7211 58.4734 35.8692C59.1801 34.6611 59.1862 33.1675 58.49 31.9535C57.7936 30.7396 56.5011 29.9909 55.1015 29.9909H45.4198ZM43.2893 31.0563C43.2893 31.6447 43.7661 32.1215 44.3547 32.1215H55.1015C55.7377 32.1215 56.3252 32.4618 56.6417 33.0138C56.9583 33.5656 56.9555 34.2444 56.6343 34.7936L40.7034 62.0321C40.6226 62.1707 40.4589 62.2377 40.304 62.1957C40.1493 62.1538 40.0419 62.0132 40.0419 61.8529V44.1526C40.0419 43.5643 39.5648 43.0875 38.9765 43.0875C38.9765 43.0875 32.8306 43.0875 28.2294 43.0875C27.5933 43.0875 27.0057 42.7472 26.6892 42.1954C26.3727 41.6437 26.3758 40.9646 26.6969 40.4154L42.6276 13.1769C42.7086 13.0386 42.8723 12.9716 43.027 13.0135C43.1819 13.0554 43.2893 13.1958 43.2893 13.3561V31.0563Z" fill="white"/>
<path fill-rule="evenodd" clip-rule="evenodd" d="M47.8158 64.179L40.9665 69.9558C40.7049 70.1762 40.5653 70.5088 40.5909 70.8499C40.6164 71.191 40.8041 71.4988 41.0956 71.6778L48.7301 76.3684C49.2312 76.6763 49.8878 76.5193 50.1956 76.0184C50.5032 75.5173 50.3465 74.8607 49.8456 74.5529L43.467 70.6341L49.1895 65.8077C49.639 65.4285 49.696 64.7558 49.3171 64.3066C48.938 63.8571 48.2653 63.7999 47.8158 64.179Z" fill="white"/>
</svg>
