<svg width="80" height="80" viewBox="0 0 80 80" fill="none" xmlns="http://www.w3.org/2000/svg">
<path d="M52.9019 27.3284C52.85 26.6832 52.283 26.201 51.639 26.2539C47.909 26.5539 43.9928 26.706 39.9989 26.706C30.4769 26.706 21.5941 25.852 14.9867 24.3012C14.3576 24.1543 13.7253 24.5443 13.5772 25.1748C13.4292 25.8054 13.8205 26.4364 14.4508 26.5843C21.2286 28.1751 30.3017 29.051 39.9989 29.051C44.0551 29.051 48.0348 28.8964 51.8272 28.5912C52.4728 28.5393 52.9537 27.9739 52.9019 27.3284Z" fill="white"/>
<path d="M52.9019 47.4242C52.85 46.7789 52.283 46.2972 51.639 46.3497C47.909 46.6497 43.9928 46.8019 39.9989 46.8019C30.4769 46.8019 21.5941 45.9478 14.9867 44.3971C14.3576 44.2497 13.7253 44.6402 13.5772 45.2706C13.4292 45.9013 13.8205 46.5322 14.4508 46.6802C21.2286 48.271 30.3017 49.1469 39.9989 49.1469C44.0551 49.1469 48.0348 48.9922 51.8272 48.6871C52.4728 48.6352 52.9537 48.0697 52.9019 47.4242Z" fill="white"/>
<path d="M76.8807 9.22359C76.6335 3.61625 61.465 1.42422 54.9118 0.739531C52.8899 0.528281 50.7707 0.359375 48.6125 0.237812C45.8089 0.08 42.9107 0 39.9985 0C32.5471 0 25.3913 0.518125 19.3047 1.49859C18.6654 1.60156 18.2305 2.20328 18.3336 2.84266C18.4366 3.48188 19.0391 3.91719 19.6777 3.81375C25.6432 2.85297 32.6699 2.345 39.9986 2.345C42.8671 2.345 45.7208 2.42375 48.4808 2.57922C50.6014 2.69859 52.6832 2.86438 54.6683 3.07172C60.7324 3.70531 65.8591 4.71156 69.4941 5.98172C74.2982 7.66047 74.5416 9.09203 74.5416 9.36188C74.5416 10.2748 72.53 12.2812 64.9913 14.0098C64.783 14.0577 64.5727 14.1047 64.3602 14.1511C57.7735 15.5894 49.1574 16.3789 39.9986 16.3789C30.8399 16.3789 22.2238 15.5892 15.6371 14.1511C15.4246 14.1047 15.2143 14.0577 15.006 14.0098C7.53566 12.297 5.49394 10.3122 5.45738 9.38797C5.45754 9.37922 5.45863 9.37078 5.45863 9.36219C5.45863 9.35391 5.45754 9.34594 5.45738 9.33766C5.4766 8.78578 6.14473 8.08234 7.29988 7.40219C8.75738 6.54391 10.8946 5.75 13.6524 5.0425C14.2796 4.88156 14.6575 4.24266 14.4966 3.61531C14.3357 2.98828 13.6974 2.61063 13.0694 2.77109C6.46113 4.46641 3.11035 6.68422 3.11035 9.36234V70.6383C3.11035 73.5091 6.93629 75.8419 14.4818 77.572C21.3111 79.1377 30.3732 80 39.9985 80C49.6238 80 58.6861 79.1377 65.515 77.5717C73.0605 75.8416 76.8864 73.5088 76.8864 70.638V9.4225C76.8875 9.40234 76.8896 9.38234 76.8896 9.36203C76.8897 9.31516 76.8863 9.26906 76.8807 9.22359ZM64.9911 75.2859C58.3286 76.8136 49.4529 77.6548 39.9985 77.6548C30.5441 77.6548 21.6683 76.8136 15.0058 75.2859C7.46707 73.5572 5.45551 71.5509 5.45551 70.638V53.7767C5.48113 53.7944 5.50941 53.8117 5.53551 53.8294C5.5991 53.8723 5.66426 53.915 5.73035 53.9575C5.78379 53.9919 5.8377 54.0262 5.8927 54.0605C5.9616 54.1033 6.03254 54.1456 6.1041 54.188C6.16035 54.2213 6.21613 54.2547 6.27395 54.2877C6.34941 54.3308 6.42738 54.3736 6.50551 54.4164C6.56332 54.448 6.62004 54.4797 6.67926 54.5111C6.76441 54.5563 6.8527 54.6008 6.94082 54.6455C6.99676 54.6737 7.05113 54.7023 7.10832 54.7305C7.21754 54.7842 7.33051 54.8373 7.4441 54.8905C7.48379 54.9089 7.52145 54.9278 7.5616 54.9463C7.71582 55.017 7.87426 55.0872 8.03645 55.1567C8.08707 55.1784 8.14035 55.1997 8.19191 55.2214C8.30645 55.2695 8.42113 55.3175 8.53957 55.365C8.60691 55.392 8.67676 55.4186 8.74535 55.4455C8.8516 55.487 8.95785 55.5286 9.06707 55.5697C9.1427 55.5981 9.22035 55.6262 9.29738 55.6544C9.40363 55.6933 9.51035 55.7322 9.61926 55.7708C9.70035 55.7994 9.78332 55.8278 9.86598 55.8563C9.9752 55.8938 10.0852 55.9313 10.1972 55.9684C10.2824 55.9967 10.3688 56.0248 10.4555 56.053C10.5689 56.0897 10.6836 56.1263 10.7997 56.1625C10.8885 56.1903 10.9779 56.218 11.0682 56.2455C11.1869 56.2817 11.3075 56.3177 11.4289 56.3534C11.52 56.3803 11.611 56.407 11.7036 56.4338C11.8296 56.47 11.9579 56.5058 12.0866 56.5416C12.1783 56.567 12.2694 56.5927 12.3625 56.6178C12.4993 56.6548 12.6389 56.6916 12.7788 56.7281C12.8674 56.7514 12.955 56.7748 13.0449 56.7978C13.2019 56.8381 13.3624 56.8778 13.523 56.9175C13.5994 56.9364 13.6741 56.9555 13.7513 56.9742C13.991 57.0323 14.2341 57.0898 14.4818 57.1466C21.3111 58.7123 30.373 59.5748 39.9985 59.5748C49.6239 59.5748 58.686 58.7123 65.5152 57.1466C65.7629 57.0898 66.006 57.0322 66.2457 56.9742C66.323 56.9555 66.3979 56.9364 66.4743 56.9175C66.6347 56.8778 66.795 56.8383 66.9519 56.798C67.0421 56.7748 67.1297 56.7514 67.2186 56.7281C67.3582 56.6916 67.4977 56.6548 67.6343 56.6178C67.7274 56.5925 67.8185 56.567 67.9102 56.5416C68.0389 56.5058 68.1672 56.47 68.2932 56.4338C68.3857 56.4072 68.4768 56.3803 68.5679 56.3534C68.6893 56.3177 68.8099 56.2817 68.9286 56.2455C69.0189 56.218 69.1083 56.1903 69.1972 56.1625C69.3132 56.1263 69.4277 56.0897 69.5411 56.0531C69.628 56.025 69.7146 55.9969 69.7999 55.9684C69.9116 55.9313 70.0216 55.8939 70.1307 55.8564C70.2133 55.828 70.2963 55.7995 70.3774 55.7709C70.4864 55.7325 70.593 55.6936 70.6993 55.6545C70.7763 55.6262 70.8539 55.5983 70.9296 55.5698C71.0388 55.5288 71.145 55.4872 71.2513 55.4456C71.3199 55.4187 71.3897 55.3922 71.4571 55.3652C71.575 55.3178 71.6896 55.2698 71.8038 55.2219C71.8557 55.2002 71.9093 55.1786 71.9604 55.1567C72.1225 55.0872 72.2808 55.017 72.435 54.9464C72.4752 54.928 72.513 54.9092 72.5525 54.8906C72.6661 54.8375 72.7791 54.7844 72.8883 54.7306C72.9455 54.7025 72.9999 54.6739 73.0558 54.6456C73.1439 54.6009 73.2322 54.5564 73.3174 54.5113C73.3766 54.4798 73.4335 54.4481 73.4913 54.4164C73.5693 54.3738 73.6472 54.3309 73.7225 54.2878C73.7805 54.2547 73.8364 54.2212 73.8929 54.1878C73.9643 54.1455 74.035 54.1031 74.1039 54.0605C74.1591 54.0262 74.2129 53.9919 74.2664 53.9575C74.3325 53.915 74.3977 53.8722 74.4613 53.8294C74.4874 53.8117 74.5155 53.7944 74.5413 53.7767V70.638H74.5414C74.5414 71.5509 72.53 73.5573 64.9911 75.2859ZM74.4857 50.4972C74.1158 51.4995 71.8233 53.2941 64.9913 54.8608C58.3288 56.3884 49.4529 57.2298 39.9986 57.2298C30.5444 57.2298 21.6685 56.3884 15.006 54.8608C8.17395 53.2941 5.88144 51.4995 5.5116 50.4972C5.47332 50.3936 5.45566 50.2983 5.45566 50.2127V33.3512C5.48051 33.3683 5.5077 33.385 5.53285 33.402C5.59816 33.4461 5.66504 33.49 5.73301 33.5337C5.7852 33.5673 5.83754 33.6008 5.89129 33.6341C5.96145 33.6775 6.03363 33.7208 6.10645 33.7639C6.1616 33.7966 6.21645 33.8294 6.27316 33.8617C6.34941 33.9053 6.42816 33.9484 6.50707 33.9917C6.56426 34.023 6.62051 34.0544 6.6791 34.0855C6.76395 34.1305 6.85191 34.175 6.93988 34.2194C6.99645 34.248 7.05145 34.2769 7.1091 34.3053C7.2166 34.3583 7.32785 34.4105 7.43957 34.4628C7.48082 34.4822 7.52035 34.5017 7.56223 34.5209C7.71613 34.5916 7.87426 34.6616 8.03598 34.7309C8.08941 34.7539 8.14582 34.7764 8.20019 34.7992C8.31176 34.8459 8.42332 34.8928 8.53848 34.9391C8.60832 34.967 8.68082 34.9947 8.75191 35.0225C8.85551 35.063 8.9591 35.1036 9.06566 35.1436C9.14332 35.1728 9.22332 35.2017 9.30254 35.2308C9.4066 35.2689 9.51082 35.3069 9.61754 35.3447C9.70051 35.3741 9.78535 35.4031 9.86988 35.4322C9.97723 35.4691 10.0852 35.5058 10.195 35.5423C10.2819 35.5712 10.37 35.5998 10.4585 35.6284C10.5705 35.6647 10.6836 35.7006 10.7982 35.7366C10.888 35.7647 10.9785 35.7927 11.0699 35.8205C11.1877 35.8564 11.3071 35.892 11.4274 35.9273C11.5193 35.9544 11.6111 35.9816 11.7044 36.0083C11.8297 36.0442 11.9572 36.08 12.0854 36.1155C12.1777 36.1411 12.2696 36.1669 12.3633 36.1923C12.4989 36.2291 12.6374 36.2655 12.776 36.3019C12.8658 36.3255 12.9546 36.3492 13.0457 36.3725C13.2019 36.4127 13.3618 36.452 13.5218 36.4916C13.5986 36.5105 13.6738 36.5298 13.7514 36.5486C13.9911 36.6067 14.2343 36.6642 14.4819 36.7209C21.3113 38.2867 30.3733 39.1492 39.9986 39.1492C49.6239 39.1492 58.6861 38.2867 65.5154 36.7209C65.763 36.6642 66.0061 36.6066 66.2458 36.5486C66.3236 36.5297 66.3989 36.5105 66.4758 36.4916C66.6357 36.4522 66.7952 36.4127 66.9513 36.3727C67.0425 36.3492 67.1316 36.3255 67.2216 36.3019C67.3599 36.2656 67.4982 36.2294 67.6336 36.1925C67.7274 36.167 67.8193 36.1413 67.9116 36.1156C68.0396 36.08 68.1672 36.0444 68.2925 36.0084C68.386 35.9816 68.4779 35.9545 68.5696 35.9275C68.6899 35.892 68.8094 35.8564 68.9271 35.8206C69.0185 35.7928 69.1089 35.7647 69.1989 35.7366C69.3133 35.7008 69.4264 35.6648 69.5383 35.6286C69.6269 35.6 69.7152 35.5712 69.8022 35.5423C69.9119 35.5059 70.0197 35.4692 70.1269 35.4323C70.2116 35.4033 70.2963 35.3742 70.3794 35.3448C70.4861 35.3072 70.5903 35.2691 70.6944 35.2309C70.7736 35.2019 70.8536 35.1731 70.9313 35.1437C71.0378 35.1037 71.1413 35.0631 71.245 35.0227C71.3161 34.9948 71.3886 34.9672 71.4585 34.9392C71.5733 34.8931 71.6846 34.8466 71.7958 34.7998C71.8507 34.7769 71.9072 34.7542 71.9611 34.7311C72.123 34.6617 72.281 34.5917 72.4349 34.5211C72.4768 34.5019 72.5161 34.4823 72.5575 34.463C72.6693 34.4108 72.7805 34.3584 72.888 34.3055C72.9457 34.277 73.0007 34.2483 73.0572 34.2195C73.145 34.175 73.2332 34.1305 73.318 34.0856C73.3766 34.0545 73.433 34.0231 73.4902 33.9917C73.5689 33.9486 73.6477 33.9055 73.7238 33.8619C73.7807 33.8294 73.8357 33.7966 73.891 33.7637C73.9636 33.7206 74.0358 33.6775 74.1058 33.6341C74.1596 33.6008 74.2119 33.5672 74.2641 33.5337C74.3321 33.49 74.3989 33.4461 74.4643 33.402C74.4894 33.385 74.5166 33.3683 74.5414 33.3512V50.2127H74.5416C74.5414 50.2983 74.5239 50.3934 74.4857 50.4972ZM64.9911 34.4353C58.3286 35.963 49.4527 36.8044 39.9985 36.8044C30.5443 36.8044 21.6683 35.963 15.0058 34.4353C7.46707 32.7067 5.45551 30.7005 5.45551 29.7873V12.9259C5.48035 12.943 5.50754 12.9597 5.5327 12.9767C5.59801 13.0208 5.66488 13.0647 5.73285 13.1084C5.78504 13.142 5.83738 13.1755 5.89113 13.2088C5.96129 13.2522 6.03348 13.2955 6.10629 13.3386C6.16145 13.3712 6.21629 13.4041 6.27301 13.4364C6.34926 13.48 6.42801 13.5231 6.50691 13.5664C6.5641 13.5977 6.62035 13.6291 6.67895 13.6602C6.76379 13.7052 6.85176 13.7497 6.93973 13.7941C6.99629 13.8227 7.05129 13.8516 7.10895 13.88C7.21645 13.933 7.3277 13.9852 7.43941 14.0375C7.48066 14.0569 7.5202 14.0764 7.56207 14.0956C7.71598 14.1662 7.8741 14.2362 8.03582 14.3056C8.08926 14.3286 8.14566 14.3511 8.20004 14.3739C8.3116 14.4206 8.42316 14.4675 8.53832 14.5138C8.60816 14.5417 8.68066 14.5694 8.75176 14.5972C8.85535 14.6377 8.95895 14.6783 9.06551 14.7183C9.14316 14.7475 9.22316 14.7764 9.30238 14.8055C9.40645 14.8436 9.51066 14.8816 9.61738 14.9194C9.70035 14.9488 9.7852 14.9778 9.86973 15.0069C9.97707 15.0437 10.085 15.0805 10.1949 15.117C10.2818 15.1459 10.3699 15.1745 10.4583 15.2031C10.5704 15.2394 10.6835 15.2753 10.798 15.3112C10.8879 15.3394 10.9783 15.3673 11.0697 15.3952C11.1875 15.4311 11.3069 15.4667 11.4272 15.502C11.5191 15.5291 11.611 15.5563 11.7043 15.583C11.8296 15.6189 11.9571 15.6547 12.0852 15.6902C12.1775 15.7158 12.2694 15.7416 12.3632 15.767C12.4988 15.8037 12.6372 15.8402 12.7758 15.8766C12.8657 15.9002 12.9544 15.9239 13.0455 15.9472C13.2018 15.9872 13.3616 16.0267 13.5216 16.0662C13.5985 16.0852 13.6736 16.1045 13.7513 16.1233C13.991 16.1814 14.2341 16.2389 14.4818 16.2956C21.311 17.8614 30.373 18.7239 39.9985 18.7239C49.6239 18.7239 58.6861 17.8614 65.5152 16.2956C65.7629 16.2389 66.006 16.1812 66.2457 16.1233C66.3235 16.1044 66.3988 16.0852 66.4757 16.0662C66.6355 16.0269 66.795 15.9873 66.9511 15.9473C67.0424 15.9239 67.1314 15.9002 67.2214 15.8766C67.3597 15.8403 67.498 15.8041 67.6335 15.7672C67.7272 15.7417 67.8191 15.7159 67.9114 15.6903C68.0394 15.6547 68.1671 15.6191 68.2924 15.5831C68.3858 15.5563 68.4777 15.5292 68.5694 15.5022C68.6897 15.4667 68.8093 15.4311 68.9269 15.3953C69.0183 15.3675 69.1088 15.3394 69.1988 15.3112C69.3132 15.2755 69.4263 15.2395 69.5382 15.2033C69.6268 15.1747 69.715 15.1459 69.8021 15.117C69.9118 15.0806 70.0196 15.0439 70.1268 15.007C70.2114 14.978 70.2961 14.9489 70.3793 14.9195C70.486 14.8819 70.5902 14.8437 70.6943 14.8056C70.7735 14.7766 70.8535 14.7478 70.9311 14.7184C71.0377 14.6784 71.1411 14.6378 71.2449 14.5973C71.316 14.5695 71.3885 14.5419 71.4583 14.5139C71.5732 14.4678 71.6844 14.4213 71.7957 14.3745C71.8505 14.3516 71.9071 14.3289 71.961 14.3058C72.1228 14.2364 72.2808 14.1664 72.4347 14.0958C72.4766 14.0766 72.516 14.057 72.5574 14.0377C72.6691 13.9855 72.7803 13.9331 72.8878 13.8802C72.9455 13.8517 73.0005 13.823 73.0571 13.7942C73.1449 13.7497 73.233 13.7052 73.3179 13.6603C73.3764 13.6292 73.4329 13.5978 73.49 13.5664C73.5688 13.5233 73.6475 13.4802 73.7236 13.4366C73.7805 13.4041 73.8355 13.3712 73.8908 13.3384C73.9635 13.2953 74.0357 13.2522 74.1057 13.2088C74.1594 13.1755 74.2118 13.1419 74.2639 13.1084C74.3319 13.0647 74.3988 13.0208 74.4641 12.9767C74.4893 12.9597 74.5164 12.943 74.5413 12.9259V29.7873H74.5414C74.5414 30.7003 72.53 32.7067 64.9911 34.4353Z" fill="white"/>
<path d="M64.9224 22.5797C63.1399 20.7977 60.2401 20.7977 58.4577 22.5797C56.6755 24.362 56.6755 27.2619 58.4577 29.0442C59.3488 29.9352 60.5195 30.3809 61.6901 30.3809C62.8607 30.3809 64.0312 29.9353 64.9224 29.0442C66.7046 27.2619 66.7046 24.362 64.9224 22.5797ZM63.264 27.3859C62.8437 27.8064 62.2846 28.038 61.6901 28.038C61.0955 28.038 60.5365 27.8064 60.1162 27.3859C59.6957 26.9656 59.4641 26.4066 59.4641 25.812C59.4641 25.2175 59.6957 24.6584 60.1162 24.2381C60.5365 23.8177 61.0955 23.5861 61.6901 23.5861C62.2846 23.5861 62.8437 23.8177 63.264 24.2381C63.6845 24.6584 63.916 25.2175 63.916 25.812C63.916 26.4066 63.6845 26.9656 63.264 27.3859Z" fill="white"/>
<path d="M64.9224 42.7364C63.1399 40.9544 60.2401 40.9544 58.4577 42.7364C56.6755 44.5188 56.6755 47.4186 58.4577 49.201C59.3488 50.0919 60.5195 50.5377 61.6901 50.5377C62.8607 50.5377 64.0312 50.092 64.9224 49.201C66.7046 47.4186 66.7046 44.5188 64.9224 42.7364ZM63.264 47.5427C62.8437 47.9631 62.2846 48.1947 61.6901 48.1947C61.0955 48.1947 60.5365 47.9631 60.1162 47.5427C59.6957 47.1224 59.4641 46.5633 59.4641 45.9688C59.4641 45.3742 59.6957 44.8152 60.1162 44.3949C60.5365 43.9744 61.0955 43.7428 61.6901 43.7428C62.2846 43.7428 62.8437 43.9744 63.264 44.3949C63.6845 44.8152 63.916 45.3742 63.916 45.9688C63.916 46.5633 63.6845 47.1224 63.264 47.5427Z" fill="white"/>
<path d="M64.9224 62.9237C63.1399 61.1417 60.2401 61.1417 58.4577 62.9237C56.6755 64.706 56.6755 67.6059 58.4577 69.3882C59.3488 70.2792 60.5195 70.7249 61.6901 70.7249C62.8607 70.7249 64.0312 70.2793 64.9224 69.3882C66.7046 67.6059 66.7046 64.706 64.9224 62.9237ZM63.264 67.7299C62.8437 68.1504 62.2846 68.382 61.6901 68.382C61.0955 68.382 60.5365 68.1504 60.1162 67.7299C59.6957 67.3096 59.4641 66.7506 59.4641 66.156C59.4641 65.5615 59.6957 65.0024 60.1162 64.5821C60.5365 64.1617 61.0955 63.9301 61.6901 63.9301C62.2846 63.9301 62.8437 64.1617 63.264 64.5821C63.6845 65.0024 63.916 65.5615 63.916 66.156C63.916 66.7504 63.6845 67.3096 63.264 67.7299Z" fill="white"/>
<path d="M52.9019 67.899C52.8501 67.2538 52.283 66.7702 51.6391 66.8245C49.9993 66.9563 48.3049 67.0609 46.603 67.1348C45.9562 67.1631 45.4544 67.7102 45.4826 68.3573C45.5101 68.987 46.029 69.4788 46.6532 69.4788C46.6704 69.4788 46.6877 69.4785 46.7051 69.4777C48.4357 69.4024 50.1588 69.2962 51.8273 69.1618C52.4727 69.1099 52.954 68.5445 52.9019 67.899Z" fill="white"/>
<path d="M40.3637 67.2764C40.3628 67.2764 40.3617 67.2764 40.3608 67.2764L39.9989 67.2768C30.4769 67.2768 21.5941 66.4227 14.9867 64.8719C14.3576 64.7246 13.7253 65.115 13.5772 65.7455C13.4292 66.3761 13.8205 67.0071 14.4508 67.155C21.2286 68.7458 30.3017 69.6218 39.9989 69.6218L40.3665 69.6214C41.0142 69.6197 41.5378 69.0935 41.5362 68.446C41.5344 67.7994 41.0098 67.2764 40.3637 67.2764Z" fill="white"/>
</svg>
