<svg width="80" height="80" viewBox="0 0 80 80" fill="none" xmlns="http://www.w3.org/2000/svg">
<path d="M66.7667 58.2563C65.1931 59.83 66.3227 62.5224 68.5338 62.5224C70.743 62.5224 71.8765 59.8317 70.301 58.2563C69.3245 57.2794 67.7435 57.2793 66.7667 58.2563ZM74.6602 53.8972C75.1807 54.4177 75.1807 55.2616 74.6602 55.7823C74.1397 56.3026 73.296 56.3031 72.7751 55.7823C70.4313 53.4382 66.6369 53.4381 64.2929 55.7823C63.7722 56.3029 62.9285 56.3028 62.4079 55.7823C61.8874 55.2618 61.8874 54.4179 62.4079 53.8972C65.7935 50.5116 71.2738 50.5107 74.6602 53.8972ZM78.6656 51.2245C78.3244 51.2245 77.9834 51.0944 77.7231 50.8341C72.6445 45.7552 64.4239 45.7549 59.3448 50.8341C58.8241 51.3548 57.9804 51.3546 57.4598 50.8341C56.9393 50.3136 56.9393 49.4696 57.4598 48.9491C63.5806 42.8284 73.4867 42.8279 79.6083 48.9491C80.449 49.79 79.8444 51.2243 78.6656 51.2245ZM67.8102 67.9071C67.8102 72.3167 64.2228 75.9044 59.8129 75.9044H16.6611C12.2513 75.9044 8.66385 72.3167 8.66385 67.9071V27.5058L2.05846 31.7913C1.441 32.192 0.615618 32.0161 0.214923 31.3986C-0.185773 30.781 -0.0100001 29.9556 0.607454 29.5551L31.6694 9.40188C35.5851 6.86142 40.6447 6.86142 44.5603 9.40188L52.3155 14.4335V6.76145C51.5794 6.76145 50.9826 6.16466 50.9826 5.42858C50.9826 4.6925 51.5794 4.0957 52.3155 4.0957H66.4773C67.2134 4.0957 67.8102 4.6925 67.8102 5.42858C67.8102 6.16466 67.2134 6.76145 66.4773 6.76145H66.3107V15.7584C66.3107 16.4944 65.7139 17.0912 64.9778 17.0912C64.2418 17.0912 63.645 16.4944 63.645 15.7584V6.76145H54.9813V16.1631L75.6223 29.5551C76.7356 30.2774 76.2155 32.0063 74.8956 32.0063C74.3111 32.0063 76.4187 33.2495 43.1095 11.6381C40.0756 9.66979 36.1549 9.66962 33.1206 11.6381L11.3296 25.7763V67.9071C11.3296 70.8469 13.7213 73.2386 16.6611 73.2386H48.3169V51.1584C48.3169 49.5531 47.0108 48.2472 45.4056 48.2472H30.9017C29.2964 48.2472 27.9904 49.5531 27.9904 51.1584V67.7405C27.9904 68.4766 27.3936 69.0734 26.6575 69.0734C25.9214 69.0734 25.3246 68.4766 25.3246 67.7405V51.1584C25.3246 48.0832 27.8266 45.5814 30.9017 45.5814H45.4056C48.4807 45.5814 50.9826 48.0832 50.9826 51.1584V73.2386H59.8129C62.7528 73.2386 65.1444 70.8469 65.1444 67.9071C65.1444 67.171 65.7412 66.5742 66.4773 66.5742C67.2134 66.5742 67.8102 67.171 67.8102 67.9071ZM66.4773 32.2527C67.2134 32.2527 67.8102 32.8495 67.8102 33.5856V39.0004C67.8102 39.7365 67.2134 40.3332 66.4773 40.3332C65.7412 40.3332 65.1444 39.7365 65.1444 39.0004V33.5856C65.1444 32.8495 65.7412 32.2527 66.4773 32.2527Z" fill="white"/>
</svg>
