<svg width="86" height="86" viewBox="0 0 86 86" fill="none" xmlns="http://www.w3.org/2000/svg">
<path d="M17.5238 57.167C26.0062 67.3067 36.2171 75.2901 47.8715 80.9391C52.3087 83.0419 58.2428 85.5367 64.8541 85.9644C65.264 85.9822 65.656 86 66.0659 86C70.5031 86 74.0671 84.4675 76.9718 81.3133C76.9896 81.2955 77.0253 81.2598 77.0431 81.2242C78.0766 79.9768 79.2528 78.8541 80.4824 77.6602C81.3199 76.8583 82.1753 76.0207 82.995 75.1654C86.7907 71.2093 86.7907 66.184 82.9594 62.3527L72.2495 51.6428C70.4318 49.7538 68.2578 48.7559 65.9768 48.7559C63.6958 48.7559 61.5039 49.7538 59.6328 51.625L53.2532 58.0046C52.6651 57.666 52.0592 57.363 51.489 57.0779C50.7762 56.7215 50.1168 56.3829 49.5288 56.0087C43.7194 52.3199 38.4447 47.5085 33.4016 41.3249C30.8533 38.0995 29.1425 35.3908 27.9486 32.6287C29.6237 31.114 31.1919 29.528 32.7066 27.9776C33.2412 27.4252 33.7936 26.8728 34.346 26.3203C36.2706 24.3958 37.3042 22.1683 37.3042 19.9051C37.3042 17.6419 36.2884 15.4144 34.346 13.4898L29.0356 8.17945C28.4119 7.55574 27.8238 6.94985 27.218 6.32615C26.0418 5.11438 24.8122 3.86697 23.6005 2.7443C21.765 0.944467 19.6088 0 17.3278 0C15.0646 0 12.8906 0.944467 10.9838 2.76212L4.31908 9.42686C1.89554 11.8504 0.523393 14.7907 0.238271 18.1944C-0.100312 22.4534 0.683775 26.9797 2.71527 32.4505C5.8338 40.915 10.5383 48.7737 17.5238 57.167ZM4.58639 18.5686C4.80023 16.1985 5.70905 14.2205 7.41979 12.5097L14.0489 5.88065C15.0824 4.88272 16.2229 4.36593 17.3278 4.36593C18.4148 4.36593 19.5197 4.88272 20.5354 5.91629C21.7294 7.02114 22.852 8.17944 24.0638 9.40903C24.6697 10.0327 25.2934 10.6564 25.9171 11.298L31.2275 16.6084C32.3323 17.7132 32.9026 18.8359 32.9026 19.9407C32.9026 21.0456 32.3323 22.1683 31.2275 23.2731C30.6751 23.8255 30.1226 24.3958 29.5702 24.9482C27.9129 26.6233 26.3626 28.2093 24.6519 29.724C24.6162 29.7596 24.5984 29.7775 24.5628 29.8131C23.0837 31.2922 23.3154 32.7 23.6718 33.7692C23.6896 33.8226 23.7074 33.8583 23.7252 33.9117C25.0974 37.2085 27.0041 40.3448 29.9801 44.087C35.3261 50.6805 40.9573 55.7949 47.1587 59.7331C47.925 60.2321 48.7447 60.6241 49.511 61.0162C50.2238 61.3726 50.8831 61.7111 51.4712 62.0854C51.5425 62.121 51.5959 62.1567 51.6672 62.1923C52.2553 62.4952 52.8255 62.6378 53.3957 62.6378C54.8214 62.6378 55.748 61.729 56.0509 61.426L62.7157 54.7613C63.7492 53.7277 64.8719 53.1753 65.9768 53.1753C67.3311 53.1753 68.4359 54.0128 69.1309 54.7613L79.8765 65.489C82.0149 67.6274 81.9971 69.9441 79.823 72.2072C79.0746 73.0091 78.2905 73.7754 77.4529 74.5773C76.2055 75.7891 74.9047 77.0365 73.7285 78.4443C71.6792 80.654 69.2379 81.6875 66.0837 81.6875C65.7807 81.6875 65.46 81.6697 65.157 81.6519C59.312 81.2777 53.8769 78.9967 49.7961 77.0543C38.712 71.6904 28.9822 64.0812 20.9096 54.4227C14.2627 46.4215 9.78987 38.9726 6.83172 30.9892C4.99625 26.0887 4.30126 22.1504 4.58639 18.5686Z" fill="#70B859"/>
</svg>
