<?xml version="1.0" standalone="no"?>
<!DOCTYPE svg PUBLIC "-//W3C//DTD SVG 20010904//EN"
 "http://www.w3.org/TR/2001/REC-SVG-20010904/DTD/svg10.dtd">
<svg version="1.0" xmlns="http://www.w3.org/2000/svg"
 width="141.000000pt" height="141.000000pt" viewBox="0 0 141.000000 141.000000"
 preserveAspectRatio="xMidYMid meet">
<metadata>
Created by potrace 1.14, written by Peter Selinger 2001-2017
</metadata>
<g transform="translate(0.000000,141.000000) scale(0.100000,-0.100000)"
fill="#000000" stroke="none">
<path d="M767 1314 c-1 -1 -31 -5 -66 -8 -36 -4 -96 -19 -135 -34 -74 -29
-176 -90 -176 -106 0 -10 130 -226 137 -226 2 0 21 13 41 30 134 106 334 98
453 -20 70 -69 109 -172 103 -267 -4 -57 -40 -163 -55 -163 -5 0 -9 -5 -9 -11
0 -6 -15 -25 -32 -41 -114 -102 -238 -128 -374 -77 -96 36 -193 149 -206 240
-2 20 1 24 22 22 77 -5 130 -6 135 -2 2 3 -29 59 -69 125 -40 65 -103 168
-139 227 l-65 108 -29 -38 c-15 -21 -36 -47 -45 -58 -39 -47 -256 -330 -254
-332 2 -2 100 -11 143 -12 18 -1 23 -9 28 -38 40 -243 195 -432 416 -504 104
-34 283 -35 380 -1 430 148 562 671 252 997 -69 73 -179 140 -268 164 -38 10
-183 30 -188 25z"/>
</g>
</svg>
