<?xml version="1.0" standalone="no"?>
<!DOCTYPE svg PUBLIC "-//W3C//DTD SVG 20010904//EN"
 "http://www.w3.org/TR/2001/REC-SVG-20010904/DTD/svg10.dtd">
<svg version="1.0" xmlns="http://www.w3.org/2000/svg"
 width="700.000000pt" height="700.000000pt" viewBox="0 0 700.000000 700.000000"
 preserveAspectRatio="xMidYMid meet">
<metadata>
Created by potrace 1.14, written by Peter Selinger 2001-2017
</metadata>
<g transform="translate(0.000000,700.000000) scale(0.100000,-0.100000)"
fill="#000000" stroke="none">
<path d="M3278 6996 c-1 -2 -42 -6 -89 -10 -47 -4 -95 -8 -105 -10 -10 -2 -46
-7 -79 -11 -59 -7 -79 -10 -125 -20 -36 -8 -71 -14 -105 -20 -129 -23 -490
-136 -612 -191 -28 -13 -55 -24 -58 -24 -13 0 -309 -152 -383 -197 -74 -45
-206 -129 -227 -145 -5 -5 -53 -40 -105 -79 -141 -106 -210 -167 -370 -328
-201 -202 -292 -312 -439 -534 -269 -404 -469 -912 -535 -1362 -2 -16 -8 -50
-12 -75 -36 -226 -40 -683 -9 -907 10 -67 14 -99 20 -148 4 -27 10 -66 15 -85
5 -19 12 -48 14 -65 28 -156 114 -435 189 -615 218 -523 542 -965 993 -1355
58 -50 202 -157 289 -215 44 -29 99 -66 122 -81 23 -16 44 -29 47 -29 4 0 25
-12 48 -26 54 -34 295 -155 378 -189 132 -54 249 -95 430 -149 39 -12 153 -39
215 -52 135 -27 153 -30 224 -40 25 -3 57 -8 71 -10 73 -11 248 -19 430 -19
254 0 367 9 575 45 33 6 76 13 95 16 66 10 267 63 381 100 522 167 989 448
1378 828 83 81 121 122 252 270 147 168 351 486 468 731 158 331 279 748 316
1090 4 33 9 71 11 85 9 47 11 525 3 605 -15 165 -21 220 -24 225 -2 3 -6 30
-10 60 -7 55 -58 298 -75 355 -153 517 -344 888 -664 1290 -171 214 -508 525
-733 677 -32 21 -65 44 -74 51 -20 15 -38 26 -179 107 -359 207 -786 358
-1175 416 -27 4 -57 9 -65 10 -8 2 -42 6 -76 9 -33 4 -74 9 -90 11 -33 5 -540
14 -546 10z m372 -840 c115 -6 142 -9 255 -26 472 -72 924 -276 1295 -583 223
-185 459 -464 600 -708 61 -106 168 -336 208 -449 65 -181 118 -412 137 -595
3 -27 7 -70 10 -95 6 -55 6 -328 0 -390 -8 -99 -17 -172 -21 -193 -2 -12 -7
-40 -10 -62 -33 -233 -141 -550 -274 -801 -58 -110 -216 -353 -262 -404 -13
-14 -41 -48 -63 -75 -99 -123 -364 -367 -480 -440 -16 -11 -32 -22 -35 -26
-16 -21 -246 -152 -365 -210 -162 -77 -391 -161 -506 -184 -9 -2 -59 -12 -110
-24 -106 -22 -196 -35 -344 -46 -68 -6 -320 -5 -375 0 -25 3 -70 7 -100 10
-66 6 -116 13 -150 20 -14 2 -40 7 -58 10 -18 3 -61 12 -95 21 -34 8 -73 17
-86 20 -14 3 -74 21 -134 40 -579 187 -1077 567 -1412 1078 -232 352 -385 780
-423 1181 -15 163 -7 549 13 655 3 13 7 42 11 65 71 494 358 1049 737 1428
127 127 165 160 302 262 341 254 736 422 1150 490 55 9 111 18 125 21 14 2 90
7 170 10 80 4 147 8 148 10 2 1 9 1 15 -1 7 -2 64 -6 127 -9z"/>
<path d="M3296 5230 c-52 -26 -82 -55 -114 -110 l-27 -45 -2 -825 c-2 -744 -1
-830 14 -874 17 -51 60 -101 143 -166 24 -19 134 -109 245 -200 393 -323 617
-505 651 -527 78 -54 190 -38 265 37 73 73 95 164 65 264 -25 83 -22 80 -472
446 -50 41 -138 113 -195 159 -165 134 -202 165 -228 188 l-25 22 -1 728 -1
728 -23 53 c-53 119 -189 175 -295 122z"/>
</g>
</svg>
