<svg width="1411" height="200" viewBox="0 0 1411 200" fill="none" xmlns="http://www.w3.org/2000/svg">
<path d="M1169.96 126.488H0V72.9217H1169.96V126.488Z" fill="#F5F9FC"/>
<path d="M1260.51 199.186H1250.3C1195.36 199.186 1150.82 154.646 1150.82 99.705C1150.82 44.7635 1195.36 0.224365 1250.3 0.224365H1260.51V199.186Z" fill="#F5F9FC"/>
<path d="M1390.59 53.7908H1296.21C1285 53.7908 1275.81 44.604 1275.81 33.3845C1275.81 22.1551 1285 12.9782 1296.21 12.9782H1390.59C1401.82 12.9782 1411 22.1551 1411 33.3845C1411 44.604 1401.82 53.7908 1390.59 53.7908Z" fill="#F5F9FC"/>
<path d="M1390.59 181.33H1296.21C1285 181.33 1275.81 172.143 1275.81 160.924C1275.81 149.694 1285 140.518 1296.21 140.518H1390.59C1401.82 140.518 1411 149.694 1411 160.924C1411 172.143 1401.82 181.33 1390.59 181.33Z" fill="#F5F9FC"/>
<path d="M608.174 66.6843L575.622 90.0399L594.224 99.1371L569.344 108.583L594.224 116.823L559.609 131.59H852.043L837.984 118.886L852.043 106.52L837.984 99.1371L852.043 85.9149L821.962 77.6746L852.043 66.6843H608.174Z" fill="#70B859"/>
<path d="M603.32 53.7909L584.977 33.3847L594.223 22.4741L603.32 53.7909Z" fill="#EF8A2B"/>
<path d="M665.625 83.6929L684.048 22.4741L710.503 38.1275L665.625 83.6929Z" fill="#EF8A2B"/>
<path d="M645.23 119.404L676.238 168.716L660.734 181.33L645.23 119.404Z" fill="#EF8A2B"/>
<path d="M796.793 75.2334L743.705 43.5478L759.339 24.1679L796.793 75.2334Z" fill="#EF8A2B"/>
<path d="M731.229 183.771L782.035 127.973L755.102 188.205L731.229 183.771Z" fill="#EF8A2B"/>
<path d="M773.874 98.2601L756.975 126.488L747.908 111.054L773.874 98.2601Z" fill="#EF8A2B"/>
<path d="M707.594 149.346L681.279 119.912L717.279 132.736L707.594 149.346Z" fill="#EF8A2B"/>
<path d="M821.96 119.404L814.139 150.362H829.852L821.96 119.404Z" fill="#EF8A2B"/>
<path d="M603.322 126.488L629.119 160.924L603.322 162.837V126.488Z" fill="#EF8A2B"/>
<path d="M619.531 78.8903L637.386 83.6929L619.531 88.4956L614.728 106.351L609.926 88.4956L592.08 83.6929L609.926 78.8903L614.728 61.0348L619.531 78.8903Z" fill="#EF8A2B"/>
<path d="M830.012 174.644L842.726 178.062L830.012 181.489L826.595 194.203L823.177 181.489L810.463 178.062L823.177 174.644L826.595 161.93L830.012 174.644Z" fill="#EF8A2B"/>
<path d="M736.348 63.2665L749.062 66.6842L736.348 70.1118L732.931 82.8159L729.503 70.1118L716.799 66.6842L729.503 63.2665L732.931 50.5525L736.348 63.2665Z" fill="#EF8A2B"/>
</svg>
