<svg width="80" height="80" viewBox="0 0 80 80" fill="none" xmlns="http://www.w3.org/2000/svg">
<path d="M21.2903 16.5469C22.5806 14.9986 23.3548 13.063 23.3548 10.9985C23.3548 6.3534 19.4838 2.48242 14.8387 2.48242C10.1935 2.48242 6.32255 6.3534 6.32255 10.9985C6.32255 13.063 7.09671 14.9986 8.38703 16.5469C2.83865 18.8694 0 22.8695 0 28.1598C0 30.4825 0.516162 32.0308 1.67741 33.0631C3.61282 34.7406 7.74195 33.9664 9.1612 33.7084C10.8386 33.4504 12.7742 33.1922 14.8387 33.1922C16.9031 33.1922 18.8387 33.4502 20.5161 33.7084C23.6129 34.2246 26.1936 34.6116 28.0001 33.0633C29.1613 32.1601 29.6775 30.4827 29.6775 28.16C29.6775 22.8695 26.8387 18.8694 21.2903 16.5469ZM14.8387 5.19199C18.0644 5.19199 20.7741 7.90172 20.7741 11.1275C20.7741 14.3532 18.0646 17.0631 14.8387 17.0631C11.6128 17.0631 8.9032 14.3533 8.9032 11.1276C8.9032 7.90188 11.6129 5.19199 14.8387 5.19199ZM26.3227 31.1276C25.4194 31.9017 23.3549 31.5147 20.9034 31.1276C19.0969 30.8696 17.0324 30.4825 14.8388 30.4825C12.6453 30.4825 10.5808 30.7405 8.77427 31.1276C6.3227 31.6437 4.25822 31.9017 3.35497 31.1276C2.83881 30.7405 2.58081 29.7082 2.58081 28.2889C2.58081 23.5147 5.29054 20.4179 10.7098 18.6116C11.8711 19.2568 13.2905 19.6439 14.8388 19.6439C16.3871 19.6439 17.8066 19.2568 18.9678 18.6116C24.3871 20.4181 27.0968 23.6438 27.0968 28.2889C27.0968 29.7082 26.8387 30.7405 26.3227 31.1276Z" fill="white"/>
<path d="M71.6126 16.6761C72.9029 15.1277 73.677 13.1922 73.677 11.1277C73.677 6.48255 69.8061 2.61157 65.1609 2.61157C60.5158 2.61157 56.6448 6.48255 56.6448 11.1277C56.6448 13.1922 57.419 15.1277 58.7093 16.6761C53.1609 18.9987 50.3223 22.9986 50.3223 28.289C50.3223 30.6116 50.8384 32.16 51.9997 33.1923C53.9351 34.8697 58.0642 34.0955 59.4835 33.8374C61.1609 33.5794 63.2254 33.3212 65.1609 33.3212C67.2254 33.3212 69.161 33.5792 70.8384 33.8374C73.9352 34.3535 76.5159 34.7406 78.3222 33.1923C79.4834 32.2891 79.9996 30.6116 79.9996 28.289C79.9996 22.9986 77.1609 18.9986 71.6126 16.6761ZM65.1609 5.19206C68.3868 5.19206 71.0964 7.90179 71.0964 11.1275C71.0964 14.3533 68.3867 17.063 65.1609 17.063C61.9352 17.063 59.2255 14.3533 59.2255 11.1275C59.2255 7.90179 61.935 5.19206 65.1609 5.19206ZM76.6448 31.1276C75.7415 31.9018 73.677 31.5147 71.2255 31.1276C69.419 30.8696 67.3545 30.4826 65.1609 30.4826C62.9674 30.4826 60.9029 30.7406 59.0964 31.1276C56.6448 31.5147 54.5803 31.7727 53.6771 31.1276C53.1609 30.7406 52.9029 29.7082 52.9029 28.289C52.9029 23.5148 55.6126 20.418 61.0319 18.6116C62.1932 19.2569 63.6126 19.644 65.1609 19.644C66.7092 19.644 68.1287 19.2569 69.2899 18.6116C74.7092 20.4181 77.4189 23.6439 77.4189 28.289C77.4189 29.7082 77.1609 30.7406 76.6448 31.1276Z" fill="white"/>
<path d="M46.4514 59.9017C47.7417 58.3533 48.5159 56.4178 48.5159 54.3533C48.5159 49.7081 44.6449 45.8372 39.9998 45.8372C35.3547 45.8372 31.4837 49.7081 31.4837 54.3533C31.4837 56.4178 32.2578 58.3533 33.5482 59.9017C27.9998 62.2243 25.1611 66.2242 25.1611 71.5146C25.1611 73.8372 25.6773 75.3856 26.8385 76.4179C28.7739 78.0953 32.9031 77.3211 34.3225 77.0631C35.9999 76.8051 38.0644 76.547 40 76.547C42.0644 76.547 44 76.805 45.6774 77.0631C48.7742 77.5793 51.3549 77.9664 53.1612 76.4179C54.3225 75.5146 54.8386 73.8372 54.8386 71.5146C54.8386 66.2242 51.9998 62.2241 46.4514 59.9017ZM40 48.4176C43.2257 48.4176 45.9354 51.1274 45.9354 54.3531C45.9354 57.5788 43.2257 60.2886 40 60.2886C36.7742 60.2886 34.0645 57.5788 34.0645 54.3531C34.0643 51.1274 36.7741 48.4176 40 48.4176ZM51.4838 74.4823C50.5806 75.2565 48.5161 74.8694 46.0645 74.4823C44.258 74.2243 42.1935 73.8371 40 73.8371C37.8064 73.8371 35.7419 74.0951 33.9354 74.4823C31.4838 74.8694 29.4193 75.1274 28.5161 74.4823C27.9999 74.0952 27.7419 73.0629 27.7419 71.6437C27.7419 66.8694 30.4517 63.7726 35.871 61.9663C37.0322 62.6114 38.4516 62.9986 40 62.9986C41.5483 62.9986 42.9677 62.6115 44.1289 61.9663C49.5482 63.7728 52.258 66.9985 52.258 71.6437C52.258 73.0629 51.9998 73.9662 51.4838 74.4823Z" fill="white"/>
<path d="M68.3875 36.1597C68.0004 45.9661 62.3229 54.9984 53.5488 59.7726L54.8392 62.0953C64.3876 56.934 70.452 46.9984 70.9681 36.2887L68.3875 36.1597Z" fill="white"/>
<path d="M40.1287 3.90161C34.9674 3.90161 29.8061 5.19194 25.29 7.64351L26.5804 9.96616C30.5804 7.64351 35.2256 6.48226 39.9998 6.48226C44.774 6.48226 49.4191 7.64351 53.5481 9.96616L54.8384 7.64351C50.3222 5.19194 45.29 3.90161 40.1287 3.90161Z" fill="white"/>
<path d="M11.6129 36.1597L9.03223 36.2887C9.54839 47.6435 16.258 57.8372 26.4515 62.8694L27.6128 60.4178C18.1934 55.9016 12.129 46.6114 11.6129 36.1597Z" fill="white"/>
<path d="M41.2906 30.9985H38.71V33.5792H41.2906V30.9985Z" fill="white"/>
<path d="M46.4517 30.9985H43.8711V33.5792H46.4517V30.9985Z" fill="white"/>
<path d="M36.1295 30.9985H33.5488V33.5792H36.1295V30.9985Z" fill="white"/>
</svg>
