<svg xmlns="http://www.w3.org/2000/svg" viewBox="0 0 67.414 27.953" class="Header_logo__1B8p7"><title>CoLab</title><g fill="currentColor"><path d="M0 16.601c0 7.846 2.812 11.352 7.255 11.352 4.339 0 6.526-3.4 6.526-8.887v-2.4H8.505a15.818 15.818 0 0 0-.278 3.471v2.777c0 .8-.312 1.319-.937 1.319s-.972-.521-.972-1.354V5.068c0-.833.347-1.354.972-1.354s.937.521.937 1.319v2.6a15.818 15.818 0 0 0 .278 3.471h5.277V8.891c0-5.485-2.187-8.887-6.526-8.887C2.812 0 0 3.506 0 11.351Z" data-name="Path 9382"></path><path d="M14.94 18.857c0 5.554 2.361 9.026 6.7 9.026 4.374 0 6.735-3.471 6.735-9.026v-4.721c0-5.52-2.36-9.026-6.735-9.026-4.339 0-6.7 3.506-6.7 9.026Zm5.763-8.991c0-.764.312-1.25.937-1.25s.937.486.937 1.25v13.261c0 .764-.312 1.25-.937 1.25s-.937-.486-.937-1.25Z"></path><path d="M29.555 27.606h10.033v-4.34h-4.409V.347h-5.624Z"></path><path d="M47.262 5.11c-3.923 0-6.145 2.187-6.145 6.179v2.256h4.756a15.414 15.414 0 0 0 .243-3.124v-.623c0-.764.347-1.18.9-1.18.59 0 .9.417.9 1.18v1.25a3.35 3.35 0 0 1-1.354 3.159l-1.979 1.458c-2.5 1.77-4.027 3.957-3.992 6.978v.521c.035 3.055 1.77 4.721 4.166 4.721a3.053 3.053 0 0 0 3.263-2.152h.347v1.875h4.86V11.289c.003-3.891-2.045-6.179-5.965-6.179Zm.66 17.531c0 1.007-.382 1.493-1.007 1.493-.59 0-.972-.486-.972-1.6v-.625a7.219 7.219 0 0 1 .764-3.61l.243-.382a9.269 9.269 0 0 0 .625-1.493h.347Z"></path><path d="m58.979 27.606.417-1.944h.347a2.92 2.92 0 0 0 3.055 2.118c2.846 0 4.617-2.534 4.617-7.6v-7.36c0-5.068-1.771-7.6-4.617-7.6a2.661 2.661 0 0 0-2.5 1.215h-.347V.347h-5.52v27.259Zm.972-17.843c0-.764.312-1.25.937-1.25s.937.486.937 1.25V22.78c0 .764-.312 1.25-.937 1.25s-.937-.486-.937-1.25Z"></path></g></svg>