<svg width="326" height="327" viewBox="0 0 326 327" fill="none" xmlns="http://www.w3.org/2000/svg">
<path d="M29.4128 60.5187C25.3074 60.5187 21.9766 57.1887 21.9766 53.0825C21.9766 48.978 25.3074 45.6462 29.4128 45.6462C33.5191 45.6462 36.8481 48.978 36.8481 53.0825C36.8481 57.1887 33.5191 60.5187 29.4128 60.5187ZM29.4128 41.2646C22.8747 41.2646 17.595 46.5453 17.595 53.0825C17.595 59.6061 22.8747 64.9003 29.4128 64.9003C35.9382 64.9003 41.2288 59.6061 41.2288 53.0825C41.2288 46.5453 35.9382 41.2646 29.4128 41.2646Z" fill="#CEDDEA"/>
<path d="M313.674 209.209C310.867 209.209 308.586 206.929 308.586 204.122C308.586 201.312 310.867 199.034 313.674 199.034C316.484 199.034 318.762 201.312 318.762 204.122C318.762 206.929 316.484 209.209 313.674 209.209ZM313.674 194.421C308.308 194.421 303.973 198.756 303.973 204.122C303.973 209.477 308.308 213.82 313.674 213.82C319.03 213.82 323.373 209.477 323.373 204.122C323.373 198.756 319.03 194.421 313.674 194.421Z" fill="#CEDDEA"/>
<path d="M313.563 64.3284C309.24 64.3284 305.734 60.8234 305.734 56.5023C305.734 52.1803 309.24 48.6752 313.563 48.6752C317.885 48.6752 321.388 52.1803 321.388 56.5023C321.388 60.8234 317.885 64.3284 313.563 64.3284ZM313.563 44.0625C306.679 44.0625 301.121 49.6203 301.121 56.5023C301.121 63.3698 306.679 68.9411 313.563 68.9411C320.431 68.9411 326 63.3698 326 56.5023C326 49.6203 320.431 44.0625 313.563 44.0625Z" fill="#CEDDEA"/>
<path d="M12.4398 221.65C8.11775 221.65 4.61176 218.143 4.61176 213.821C4.61176 209.5 8.11775 205.995 12.4398 205.995C16.7618 205.995 20.2659 209.5 20.2659 213.821C20.2659 218.143 16.7618 221.65 12.4398 221.65ZM12.4398 201.382C5.55777 201.382 0 206.94 0 213.821C0 220.689 5.55777 226.26 12.4398 226.26C19.3082 226.26 24.8777 220.689 24.8777 213.821C24.8777 206.94 19.3082 201.382 12.4398 201.382Z" fill="#CEDDEA"/>
<path d="M12.4387 129.906C12.4387 132.791 10.1008 135.129 7.21677 135.129C4.33182 135.129 1.9939 132.791 1.9939 129.906C1.9939 127.022 4.33182 124.684 7.21677 124.684C10.1008 124.684 12.4387 127.022 12.4387 129.906Z" fill="#CEDDEA"/>
<path d="M318.784 112.946C318.784 115.83 316.445 118.166 313.561 118.166C310.677 118.166 308.338 115.83 308.338 112.946C308.338 110.059 310.677 107.723 313.561 107.723C316.445 107.723 318.784 110.059 318.784 112.946Z" fill="#CEDDEA"/>
<path d="M100.706 4.71196C100.706 7.31618 98.5965 9.42573 95.9931 9.42573C93.3907 9.42573 91.2803 7.31618 91.2803 4.71196C91.2803 2.10955 93.3907 0 95.9931 0C98.5965 0 100.706 2.10955 100.706 4.71196Z" fill="#CEDDEA"/>
<path d="M254.706 14.7021C254.706 17.2368 252.651 19.294 250.115 19.294C247.577 19.294 245.52 17.2368 245.52 14.7021C245.52 12.1647 247.577 10.1084 250.115 10.1084C252.651 10.1084 254.706 12.1647 254.706 14.7021Z" fill="#CEDDEA"/>
<path d="M267.088 14.7021C267.088 17.2368 265.031 19.294 262.493 19.294C259.958 19.294 257.902 17.2368 257.902 14.7021C257.902 12.1647 259.958 10.1084 262.493 10.1084C265.031 10.1084 267.088 12.1647 267.088 14.7021Z" fill="#CEDDEA"/>
<path d="M279.467 14.7021C279.467 17.2368 277.413 19.294 274.875 19.294C272.338 19.294 270.282 17.2368 270.282 14.7021C270.282 12.1647 272.338 10.1084 274.875 10.1084C277.413 10.1084 279.467 12.1647 279.467 14.7021Z" fill="#CEDDEA"/>
<path d="M30.8695 249.86C30.8695 252.398 28.8132 254.452 26.2766 254.452C23.7401 254.452 21.6838 252.398 21.6838 249.86C21.6838 247.323 23.7401 245.267 26.2766 245.267C28.8132 245.267 30.8695 247.323 30.8695 249.86Z" fill="#CEDDEA"/>
<path d="M43.2496 249.86C43.2496 252.398 41.1933 254.452 38.6568 254.452C36.1203 254.452 34.064 252.398 34.064 249.86C34.064 247.323 36.1203 245.267 38.6568 245.267C41.1933 245.267 43.2496 247.323 43.2496 249.86Z" fill="#CEDDEA"/>
<path d="M55.6302 249.86C55.6302 252.398 53.5739 254.452 51.0374 254.452C48.5009 254.452 46.4446 252.398 46.4446 249.86C46.4446 247.323 48.5009 245.267 51.0374 245.267C53.5739 245.267 55.6302 247.323 55.6302 249.86Z" fill="#CEDDEA"/>
<path d="M95.9931 284.143C95.9931 286.747 93.8827 288.856 91.2802 288.856C88.6769 288.856 86.5674 286.747 86.5674 284.143C86.5674 281.54 88.6769 279.431 91.2802 279.431C93.8827 279.431 95.9931 281.54 95.9931 284.143Z" fill="#CEDDEA"/>
<mask id="mask0_618_10480" style="mask-type:alpha" maskUnits="userSpaceOnUse" x="111" y="142" width="192" height="185">
<path d="M111.288 142.307H302.857V326.712H111.288V142.307Z" fill="black"/>
</mask>
<g mask="url(#mask0_618_10480)">
<mask id="mask1_618_10480" style="mask-type:alpha" maskUnits="userSpaceOnUse" x="111" y="142" width="192" height="185">
<path d="M302.817 152.742C302.817 248.809 224.937 326.682 128.871 326.682C124.039 326.682 119.258 326.483 114.53 326.097C118.613 319.282 122.236 312.168 125.37 304.786C125.421 304.657 125.481 304.527 125.532 304.401C134.285 283.638 139.126 260.815 139.126 236.871C139.126 202.076 128.913 169.667 111.311 142.486H302.508C302.629 144.58 302.723 146.683 302.767 148.795C302.802 150.108 302.817 151.42 302.817 152.742Z" fill="black"/>
</mask>
<g mask="url(#mask1_618_10480)">
<mask id="mask2_618_10480" style="mask-type:alpha" maskUnits="userSpaceOnUse" x="111" y="142" width="192" height="185">
<path d="M302.817 152.742C302.817 248.809 224.937 326.682 128.871 326.682C124.039 326.682 119.258 326.483 114.53 326.097C118.613 319.282 122.236 312.168 125.37 304.786C125.421 304.657 125.481 304.527 125.532 304.401C134.285 283.638 139.126 260.815 139.126 236.871C139.126 202.076 128.913 169.667 111.311 142.486H302.508C302.629 144.58 302.723 146.683 302.767 148.795C302.802 150.108 302.817 151.42 302.817 152.742Z" fill="black"/>
</mask>
<g mask="url(#mask2_618_10480)">
<path d="M111.311 142.486V326.682H302.817V142.486H111.311Z" fill="url(#paint0_linear_618_10480)"/>
</g>
</g>
</g>
<path d="M298.475 148.793C296.345 235.582 225.333 305.272 138.029 305.272C133.764 305.272 129.548 305.11 125.37 304.784C125.421 304.655 125.481 304.525 125.532 304.399C134.285 283.636 139.126 260.813 139.126 236.869C139.126 202.074 128.913 169.665 111.311 142.484H298.217C298.337 144.578 298.432 146.681 298.475 148.793Z" fill="#46C760"/>
<mask id="mask3_618_10480" style="mask-type:alpha" maskUnits="userSpaceOnUse" x="19" y="2" width="284" height="285">
<path d="M19.5469 2.96191H302.857V286.503H19.5469V2.96191Z" fill="black"/>
</mask>
<g mask="url(#mask3_618_10480)">
<mask id="mask4_618_10480" style="mask-type:alpha" maskUnits="userSpaceOnUse" x="19" y="3" width="284" height="284">
<path d="M302.818 144.774C302.818 222.987 239.416 286.39 161.203 286.39C82.9904 286.39 19.5874 222.987 19.5874 144.774C19.5874 66.5631 82.9904 3.16016 161.203 3.16016C239.416 3.16016 302.818 66.5631 302.818 144.774Z" fill="black"/>
</mask>
<g mask="url(#mask4_618_10480)">
<mask id="mask5_618_10480" style="mask-type:alpha" maskUnits="userSpaceOnUse" x="19" y="3" width="284" height="284">
<path d="M302.818 144.774C302.818 222.987 239.416 286.39 161.203 286.39C82.9904 286.39 19.5874 222.987 19.5874 144.774C19.5874 66.5631 82.9904 3.16016 161.203 3.16016C239.416 3.16016 302.818 66.5631 302.818 144.774Z" fill="black"/>
</mask>
<g mask="url(#mask5_618_10480)">
<path d="M19.5869 3.16113V286.391H302.817V3.16113H19.5869Z" fill="url(#paint1_linear_618_10480)"/>
</g>
</g>
</g>
<path d="M133.465 138.774L132.582 153.912L145.029 145.488C140.827 143.835 136.929 141.565 133.465 138.774Z" fill="white"/>
<path d="M119.949 120.282L111.619 132.948L126.621 131.878C123.848 128.402 121.579 124.504 119.949 120.282Z" fill="white"/>
<path d="M117.495 97.5088L99.5579 104.311L117.462 110.882C117.165 108.892 116.991 106.865 116.966 104.795C116.941 102.316 117.128 99.8774 117.495 97.5088Z" fill="white"/>
<path d="M111.607 75.6758L120.03 88.1219C121.684 83.9181 123.953 80.0204 126.745 76.5559L111.607 75.6758Z" fill="white"/>
<path d="M132.571 54.71L133.641 69.7124C137.116 66.9412 141.012 64.6701 145.234 63.0425L132.571 54.71Z" fill="white"/>
<path d="M161.199 42.6494L154.634 60.554C156.625 60.2633 158.651 60.0828 160.722 60.0647C163.203 60.0322 165.634 60.2191 168.007 60.5865L161.199 42.6494Z" fill="white"/>
<path d="M188.94 69.922L189.822 54.7832L177.375 63.2088C181.577 64.8607 185.475 67.13 188.94 69.922Z" fill="white"/>
<path d="M202.456 88.4107L210.786 75.7471L195.784 76.8176C198.557 80.2929 200.826 84.1916 202.456 88.4107Z" fill="white"/>
<path d="M210.798 133.019L202.375 120.573C200.721 124.777 198.451 128.676 195.659 132.137L210.798 133.019Z" fill="white"/>
<path d="M189.833 153.983L188.763 138.98C185.288 141.753 181.392 144.023 177.17 145.652L189.833 153.983Z" fill="white"/>
<path d="M195.805 76.7318C198.578 80.2071 200.841 84.1057 202.476 88.3275L210.807 75.6621L195.805 76.7318Z" fill="white"/>
<path d="M204.91 111.184L222.847 104.383L204.943 97.8105C205.241 99.8 205.414 101.827 205.439 103.897C205.464 106.38 205.278 108.815 204.91 111.184Z" fill="white"/>
<path d="M161.205 166.045L167.77 148.138C165.78 148.432 163.753 148.612 161.683 148.631C159.201 148.661 156.77 148.476 154.397 148.108L161.205 166.045Z" fill="white"/>
<path d="M154.191 135.834L158.809 110.429L146.157 110.967L156.689 79.3294H169.337L162.229 100.476L177.171 100.067L154.191 135.834ZM161.2 66.3291C140.204 66.3291 123.182 83.3553 123.182 104.349C123.182 125.346 140.204 142.37 161.2 142.37C161.512 142.37 161.824 142.36 162.131 142.356C180.532 141.916 195.68 128.414 198.682 110.773C199.034 108.682 199.219 106.54 199.219 104.349C199.219 83.3553 182.201 66.3291 161.2 66.3291Z" fill="white"/>
<path d="M85.0427 222.301V190.129H105.24V222.301H118.188V177.309H138.385V222.301H151.104V182.213H171.3V222.301H184.133V161.059H204.329V222.301H217.164V133.583H237.361V222.301H244.61V227.516H77.7942V222.301H85.0427Z" fill="white"/>
<defs>
<linearGradient id="paint0_linear_618_10480" x1="111.311" y1="234.583" x2="302.818" y2="234.583" gradientUnits="userSpaceOnUse">
<stop stop-color="#51D66C"/>
<stop offset="0.125" stop-color="#51D66C"/>
<stop offset="0.1875" stop-color="#51D66C"/>
<stop offset="0.203125" stop-color="#52D66D"/>
<stop offset="0.21875" stop-color="#52D76E"/>
<stop offset="0.234375" stop-color="#53D76F"/>
<stop offset="0.242188" stop-color="#54D86F"/>
<stop offset="0.25" stop-color="#54D870"/>
<stop offset="0.257813" stop-color="#55D870"/>
<stop offset="0.265625" stop-color="#55D971"/>
<stop offset="0.273438" stop-color="#56D971"/>
<stop offset="0.28125" stop-color="#56D972"/>
<stop offset="0.289063" stop-color="#57D973"/>
<stop offset="0.296875" stop-color="#57DA73"/>
<stop offset="0.304688" stop-color="#58DA74"/>
<stop offset="0.3125" stop-color="#58DA74"/>
<stop offset="0.320312" stop-color="#59DB75"/>
<stop offset="0.328125" stop-color="#59DB76"/>
<stop offset="0.335938" stop-color="#5ADB76"/>
<stop offset="0.34375" stop-color="#5ADC77"/>
<stop offset="0.351562" stop-color="#5BDC78"/>
<stop offset="0.359375" stop-color="#5BDC78"/>
<stop offset="0.367188" stop-color="#5CDD79"/>
<stop offset="0.375" stop-color="#5CDD7A"/>
<stop offset="0.382812" stop-color="#5DDD7A"/>
<stop offset="0.390625" stop-color="#5EDE7B"/>
<stop offset="0.398437" stop-color="#5EDE7C"/>
<stop offset="0.40625" stop-color="#5FDE7C"/>
<stop offset="0.414062" stop-color="#5FDF7D"/>
<stop offset="0.421875" stop-color="#60DF7E"/>
<stop offset="0.429687" stop-color="#61E07E"/>
<stop offset="0.4375" stop-color="#61E07F"/>
<stop offset="0.445313" stop-color="#62E080"/>
<stop offset="0.453125" stop-color="#62E180"/>
<stop offset="0.460938" stop-color="#63E181"/>
<stop offset="0.46875" stop-color="#64E182"/>
<stop offset="0.476562" stop-color="#64E283"/>
<stop offset="0.484375" stop-color="#65E283"/>
<stop offset="0.492188" stop-color="#65E384"/>
<stop offset="0.5" stop-color="#66E385"/>
<stop offset="0.507813" stop-color="#67E386"/>
<stop offset="0.515625" stop-color="#67E486"/>
<stop offset="0.523438" stop-color="#68E487"/>
<stop offset="0.53125" stop-color="#69E488"/>
<stop offset="0.539063" stop-color="#69E589"/>
<stop offset="0.546875" stop-color="#6AE589"/>
<stop offset="0.554688" stop-color="#6BE68A"/>
<stop offset="0.5625" stop-color="#6BE68B"/>
<stop offset="0.570313" stop-color="#6CE68C"/>
<stop offset="0.578125" stop-color="#6DE78C"/>
<stop offset="0.585938" stop-color="#6DE78D"/>
<stop offset="0.59375" stop-color="#6EE88E"/>
<stop offset="0.601562" stop-color="#6FE88F"/>
<stop offset="0.609375" stop-color="#6FE890"/>
<stop offset="0.617188" stop-color="#70E990"/>
<stop offset="0.625" stop-color="#71E991"/>
<stop offset="0.632812" stop-color="#71EA92"/>
<stop offset="0.640625" stop-color="#72EA93"/>
<stop offset="0.648438" stop-color="#73EB94"/>
<stop offset="0.65625" stop-color="#73EB94"/>
<stop offset="0.664062" stop-color="#74EB95"/>
<stop offset="0.671875" stop-color="#75EC96"/>
<stop offset="0.679688" stop-color="#75EC97"/>
<stop offset="0.6875" stop-color="#76ED98"/>
<stop offset="0.695312" stop-color="#77ED99"/>
<stop offset="0.703125" stop-color="#77EE99"/>
<stop offset="0.710938" stop-color="#78EE9A"/>
<stop offset="0.71875" stop-color="#79EE9B"/>
<stop offset="0.726562" stop-color="#7AEF9C"/>
<stop offset="0.734375" stop-color="#7AEF9D"/>
<stop offset="0.742188" stop-color="#7BF09E"/>
<stop offset="0.75" stop-color="#7CF09E"/>
<stop offset="0.757812" stop-color="#7CF19F"/>
<stop offset="0.765625" stop-color="#7DF1A0"/>
<stop offset="0.773437" stop-color="#7EF1A1"/>
<stop offset="0.78125" stop-color="#7FF2A2"/>
<stop offset="0.789062" stop-color="#7FF2A3"/>
<stop offset="0.796875" stop-color="#80F3A3"/>
<stop offset="0.804687" stop-color="#81F3A4"/>
<stop offset="0.8125" stop-color="#82F4A5"/>
<stop offset="0.820312" stop-color="#82F4A6"/>
<stop offset="0.828125" stop-color="#83F5A7"/>
<stop offset="0.835937" stop-color="#84F5A8"/>
<stop offset="0.84375" stop-color="#84F5A9"/>
<stop offset="0.851562" stop-color="#85F6AA"/>
<stop offset="0.859375" stop-color="#86F6AA"/>
<stop offset="0.867187" stop-color="#87F7AB"/>
<stop offset="0.875" stop-color="#87F7AC"/>
<stop offset="0.882813" stop-color="#88F8AD"/>
<stop offset="0.890625" stop-color="#89F8AE"/>
<stop offset="0.898438" stop-color="#8AF9AF"/>
<stop offset="0.90625" stop-color="#8AF9B0"/>
<stop offset="0.914063" stop-color="#8BFAB1"/>
<stop offset="0.921875" stop-color="#8CFAB2"/>
<stop offset="0.929688" stop-color="#8DFBB2"/>
<stop offset="0.9375" stop-color="#8DFBB3"/>
<stop offset="0.945312" stop-color="#8EFBB4"/>
<stop offset="0.953125" stop-color="#8FFCB5"/>
<stop offset="0.960938" stop-color="#90FCB6"/>
<stop offset="0.96875" stop-color="#91FDB7"/>
<stop offset="0.976562" stop-color="#91FDB8"/>
<stop offset="0.984375" stop-color="#92FEB9"/>
<stop offset="0.992188" stop-color="#93FEBA"/>
<stop offset="1" stop-color="#94FFBB"/>
</linearGradient>
<linearGradient id="paint1_linear_618_10480" x1="19.5865" y1="144.775" x2="302.818" y2="144.775" gradientUnits="userSpaceOnUse">
<stop stop-color="#51D66C"/>
<stop offset="0.125" stop-color="#51D66C"/>
<stop offset="0.1875" stop-color="#51D66C"/>
<stop offset="0.203125" stop-color="#52D66D"/>
<stop offset="0.21875" stop-color="#52D76E"/>
<stop offset="0.234375" stop-color="#53D76F"/>
<stop offset="0.242188" stop-color="#54D86F"/>
<stop offset="0.25" stop-color="#54D870"/>
<stop offset="0.257812" stop-color="#55D870"/>
<stop offset="0.265625" stop-color="#55D971"/>
<stop offset="0.273438" stop-color="#56D971"/>
<stop offset="0.28125" stop-color="#56D972"/>
<stop offset="0.289062" stop-color="#57D973"/>
<stop offset="0.296875" stop-color="#57DA73"/>
<stop offset="0.304688" stop-color="#58DA74"/>
<stop offset="0.3125" stop-color="#58DA74"/>
<stop offset="0.320312" stop-color="#59DB75"/>
<stop offset="0.328125" stop-color="#59DB76"/>
<stop offset="0.335938" stop-color="#5ADB76"/>
<stop offset="0.34375" stop-color="#5ADC77"/>
<stop offset="0.351562" stop-color="#5BDC78"/>
<stop offset="0.359375" stop-color="#5BDC78"/>
<stop offset="0.367188" stop-color="#5CDD79"/>
<stop offset="0.375" stop-color="#5CDD7A"/>
<stop offset="0.382812" stop-color="#5DDD7A"/>
<stop offset="0.390625" stop-color="#5EDE7B"/>
<stop offset="0.398438" stop-color="#5EDE7C"/>
<stop offset="0.40625" stop-color="#5FDE7C"/>
<stop offset="0.414062" stop-color="#5FDF7D"/>
<stop offset="0.421875" stop-color="#60DF7E"/>
<stop offset="0.429688" stop-color="#61E07E"/>
<stop offset="0.4375" stop-color="#61E07F"/>
<stop offset="0.445312" stop-color="#62E080"/>
<stop offset="0.453125" stop-color="#62E180"/>
<stop offset="0.460938" stop-color="#63E181"/>
<stop offset="0.46875" stop-color="#64E182"/>
<stop offset="0.476562" stop-color="#64E283"/>
<stop offset="0.484375" stop-color="#65E283"/>
<stop offset="0.492188" stop-color="#65E384"/>
<stop offset="0.5" stop-color="#66E385"/>
<stop offset="0.507812" stop-color="#67E386"/>
<stop offset="0.515625" stop-color="#67E486"/>
<stop offset="0.523438" stop-color="#68E487"/>
<stop offset="0.53125" stop-color="#69E488"/>
<stop offset="0.539062" stop-color="#69E589"/>
<stop offset="0.546875" stop-color="#6AE589"/>
<stop offset="0.554688" stop-color="#6BE68A"/>
<stop offset="0.5625" stop-color="#6BE68B"/>
<stop offset="0.570312" stop-color="#6CE68C"/>
<stop offset="0.578125" stop-color="#6DE78C"/>
<stop offset="0.585938" stop-color="#6DE78D"/>
<stop offset="0.59375" stop-color="#6EE88E"/>
<stop offset="0.601562" stop-color="#6FE88F"/>
<stop offset="0.609375" stop-color="#6FE890"/>
<stop offset="0.617188" stop-color="#70E990"/>
<stop offset="0.625" stop-color="#71E991"/>
<stop offset="0.632812" stop-color="#71EA92"/>
<stop offset="0.640625" stop-color="#72EA93"/>
<stop offset="0.648438" stop-color="#73EB94"/>
<stop offset="0.65625" stop-color="#73EB94"/>
<stop offset="0.664062" stop-color="#74EB95"/>
<stop offset="0.671875" stop-color="#75EC96"/>
<stop offset="0.679688" stop-color="#75EC97"/>
<stop offset="0.6875" stop-color="#76ED98"/>
<stop offset="0.695312" stop-color="#77ED99"/>
<stop offset="0.703125" stop-color="#77EE99"/>
<stop offset="0.710938" stop-color="#78EE9A"/>
<stop offset="0.71875" stop-color="#79EE9B"/>
<stop offset="0.726562" stop-color="#7AEF9C"/>
<stop offset="0.734375" stop-color="#7AEF9D"/>
<stop offset="0.742188" stop-color="#7BF09E"/>
<stop offset="0.75" stop-color="#7CF09E"/>
<stop offset="0.757812" stop-color="#7CF19F"/>
<stop offset="0.765625" stop-color="#7DF1A0"/>
<stop offset="0.773438" stop-color="#7EF1A1"/>
<stop offset="0.78125" stop-color="#7FF2A2"/>
<stop offset="0.789062" stop-color="#7FF2A3"/>
<stop offset="0.796875" stop-color="#80F3A3"/>
<stop offset="0.804688" stop-color="#81F3A4"/>
<stop offset="0.8125" stop-color="#82F4A5"/>
<stop offset="0.820312" stop-color="#82F4A6"/>
<stop offset="0.828125" stop-color="#83F5A7"/>
<stop offset="0.835938" stop-color="#84F5A8"/>
<stop offset="0.84375" stop-color="#84F5A9"/>
<stop offset="0.851562" stop-color="#85F6AA"/>
<stop offset="0.859375" stop-color="#86F6AA"/>
<stop offset="0.867188" stop-color="#87F7AB"/>
<stop offset="0.875" stop-color="#87F7AC"/>
<stop offset="0.882812" stop-color="#88F8AD"/>
<stop offset="0.890625" stop-color="#89F8AE"/>
<stop offset="0.898438" stop-color="#8AF9AF"/>
<stop offset="0.90625" stop-color="#8AF9B0"/>
<stop offset="0.914062" stop-color="#8BFAB1"/>
<stop offset="0.921875" stop-color="#8CFAB2"/>
<stop offset="0.929688" stop-color="#8DFBB2"/>
<stop offset="0.9375" stop-color="#8DFBB3"/>
<stop offset="0.945312" stop-color="#8EFBB4"/>
<stop offset="0.953125" stop-color="#8FFCB5"/>
<stop offset="0.960938" stop-color="#90FCB6"/>
<stop offset="0.96875" stop-color="#91FDB7"/>
<stop offset="0.976562" stop-color="#91FDB8"/>
<stop offset="0.984375" stop-color="#92FEB9"/>
<stop offset="0.992188" stop-color="#93FEBA"/>
<stop offset="1" stop-color="#94FFBB"/>
</linearGradient>
</defs>
</svg>
