<svg width="449" height="508" viewBox="0 0 449 508" fill="none" xmlns="http://www.w3.org/2000/svg">
<g filter="url(#filter0_f_172_117)">
<path d="M50.1558 203.109C50.1558 118.549 118.705 50 203.265 50C287.824 50 356.373 118.549 356.373 203.109V410.154H50.1558V203.109Z" fill="#213ED7"/>
</g>
<g filter="url(#filter1_d_172_117)">
<path d="M50.1558 203.109C50.1558 118.549 118.705 50 203.265 50C287.824 50 356.373 118.549 356.373 203.109V410.154H50.1558V203.109Z" fill="#213ED7"/>
<path d="M51.6558 203.109C51.6558 119.378 119.533 51.5 203.265 51.5C286.996 51.5 354.873 119.378 354.873 203.109V408.654H51.6558V203.109Z" stroke="url(#paint0_linear_172_117)" stroke-opacity="0.5" stroke-width="3"/>
</g>
<g filter="url(#filter2_f_172_117)">
<path d="M92.7827 250.955C92.7827 166.396 161.332 97.8464 245.891 97.8464C330.451 97.8464 399 166.396 399 250.955V458H92.7827V250.955Z" fill="#213ED7"/>
</g>
<g filter="url(#filter3_d_172_117)">
<path d="M92.7827 250.955C92.7827 166.396 161.332 97.8464 245.891 97.8464C330.451 97.8464 399 166.396 399 250.955V458H92.7827V250.955Z" fill="#213ED7"/>
<path d="M94.2827 250.955C94.2827 167.224 162.16 99.3464 245.891 99.3464C329.623 99.3464 397.5 167.224 397.5 250.955V456.5H94.2827V250.955Z" stroke="url(#paint1_linear_172_117)" stroke-opacity="0.5" stroke-width="3"/>
</g>
<defs>
<filter id="filter0_f_172_117" x="0.155762" y="0" width="406.218" height="460.154" filterUnits="userSpaceOnUse" color-interpolation-filters="sRGB">
<feFlood flood-opacity="0" result="BackgroundImageFix"/>
<feBlend mode="normal" in="SourceGraphic" in2="BackgroundImageFix" result="shape"/>
<feGaussianBlur stdDeviation="25" result="effect1_foregroundBlur_172_117"/>
</filter>
<filter id="filter1_d_172_117" x="38.1558" y="38" width="330.218" height="384.154" filterUnits="userSpaceOnUse" color-interpolation-filters="sRGB">
<feFlood flood-opacity="0" result="BackgroundImageFix"/>
<feColorMatrix in="SourceAlpha" type="matrix" values="0 0 0 0 0 0 0 0 0 0 0 0 0 0 0 0 0 0 127 0" result="hardAlpha"/>
<feMorphology radius="5" operator="erode" in="SourceAlpha" result="effect1_dropShadow_172_117"/>
<feOffset/>
<feGaussianBlur stdDeviation="8.5"/>
<feComposite in2="hardAlpha" operator="out"/>
<feColorMatrix type="matrix" values="0 0 0 0 0.966667 0 0 0 0 0.966667 0 0 0 0 0.966667 0 0 0 0.25 0"/>
<feBlend mode="normal" in2="BackgroundImageFix" result="effect1_dropShadow_172_117"/>
<feBlend mode="normal" in="SourceGraphic" in2="effect1_dropShadow_172_117" result="shape"/>
</filter>
<filter id="filter2_f_172_117" x="42.7827" y="47.8464" width="406.218" height="460.154" filterUnits="userSpaceOnUse" color-interpolation-filters="sRGB">
<feFlood flood-opacity="0" result="BackgroundImageFix"/>
<feBlend mode="normal" in="SourceGraphic" in2="BackgroundImageFix" result="shape"/>
<feGaussianBlur stdDeviation="25" result="effect1_foregroundBlur_172_117"/>
</filter>
<filter id="filter3_d_172_117" x="80.7827" y="85.8464" width="330.218" height="384.154" filterUnits="userSpaceOnUse" color-interpolation-filters="sRGB">
<feFlood flood-opacity="0" result="BackgroundImageFix"/>
<feColorMatrix in="SourceAlpha" type="matrix" values="0 0 0 0 0 0 0 0 0 0 0 0 0 0 0 0 0 0 127 0" result="hardAlpha"/>
<feMorphology radius="5" operator="erode" in="SourceAlpha" result="effect1_dropShadow_172_117"/>
<feOffset/>
<feGaussianBlur stdDeviation="8.5"/>
<feComposite in2="hardAlpha" operator="out"/>
<feColorMatrix type="matrix" values="0 0 0 0 0.966667 0 0 0 0 0.966667 0 0 0 0 0.966667 0 0 0 0.25 0"/>
<feBlend mode="normal" in2="BackgroundImageFix" result="effect1_dropShadow_172_117"/>
<feBlend mode="normal" in="SourceGraphic" in2="effect1_dropShadow_172_117" result="shape"/>
</filter>
<linearGradient id="paint0_linear_172_117" x1="56.6803" y1="50" x2="325.49" y2="388.84" gradientUnits="userSpaceOnUse">
<stop stop-color="white"/>
<stop offset="1" stop-color="white" stop-opacity="0"/>
</linearGradient>
<linearGradient id="paint1_linear_172_117" x1="99.3072" y1="97.8464" x2="368.117" y2="436.687" gradientUnits="userSpaceOnUse">
<stop stop-color="white"/>
<stop offset="1" stop-color="white" stop-opacity="0"/>
</linearGradient>
</defs>
</svg>
