<svg width="680" height="722" viewBox="0 0 680 722" fill="none" xmlns="http://www.w3.org/2000/svg">
<g opacity="0.2" clip-path="url(#clip0_172_136)">
<path d="M-705.629 610.421C-705.361 604.534 -703.423 598.844 -700.041 594.016L-156.348 -183.368C-151.601 -190.133 -144.366 -194.742 -136.226 -196.185C-128.087 -197.628 -119.707 -195.786 -112.923 -191.064L666.924 351.191C670.28 353.523 673.142 356.494 675.346 359.934C677.55 363.374 679.052 367.215 679.768 371.237C680.483 375.259 680.397 379.383 679.514 383.371C678.631 387.36 676.97 391.135 674.624 394.48L130.931 1171.86C126.186 1178.63 118.95 1183.24 110.81 1184.69C102.669 1186.13 94.2888 1184.29 87.5057 1179.56L-692.297 637.316C-696.618 634.331 -700.109 630.296 -702.441 625.592C-704.773 620.887 -705.87 615.666 -705.629 610.421V610.421ZM677.748 377.943C677.973 373.119 676.967 368.316 674.823 363.988C672.679 359.66 669.469 355.948 665.495 353.203L-114.353 -189.041C-120.594 -193.386 -128.305 -195.08 -135.794 -193.75C-143.283 -192.421 -149.938 -188.177 -154.302 -181.949L-697.995 595.434C-700.147 598.517 -701.67 601.993 -702.477 605.665C-703.283 609.336 -703.358 613.13 -702.696 616.831C-702.034 620.531 -700.648 624.064 -698.619 627.228C-696.589 630.393 -693.955 633.126 -690.868 635.271L88.9795 1177.52C95.2213 1181.86 102.932 1183.55 110.421 1182.22C117.909 1180.89 124.565 1176.65 128.929 1170.42L672.622 393.04C675.736 388.599 677.515 383.361 677.748 377.943V377.943Z" fill="#213ED7"/>
<path d="M-709.775 580.338C-709.521 574.462 -707.552 568.79 -704.111 564.02L-164.509 -186.974C-159.793 -193.515 -152.675 -197.922 -144.715 -199.228C-136.756 -200.535 -128.603 -198.635 -122.041 -193.945L631.331 344.22C634.581 346.533 637.342 349.465 639.456 352.848C641.569 356.23 642.993 359.997 643.646 363.932C644.299 367.866 644.168 371.891 643.261 375.775C642.354 379.659 640.688 383.325 638.359 386.563L98.7469 1137.56C94.0302 1144.09 86.917 1148.5 78.9615 1149.81C71.0061 1151.12 62.8552 1149.23 56.2899 1144.55L-697.093 606.364C-701.216 603.433 -704.538 599.514 -706.754 594.967C-708.969 590.42 -710.008 585.39 -709.775 580.338V580.338ZM641.516 370.125C641.729 365.488 640.775 360.871 638.74 356.699C636.704 352.526 633.654 348.931 629.868 346.243L-123.504 -191.944C-129.53 -196.266 -137.026 -198.018 -144.344 -196.816C-151.662 -195.614 -158.204 -191.556 -162.529 -185.534L-702.131 565.461C-704.266 568.436 -705.793 571.803 -706.623 575.37C-707.453 578.936 -707.57 582.632 -706.967 586.243C-706.364 589.855 -705.053 593.312 -703.109 596.416C-701.166 599.52 -698.628 602.209 -695.641 604.33L57.7418 1142.49C63.7694 1146.79 71.2513 1148.52 78.5544 1147.32C85.8575 1146.12 92.3889 1142.08 96.7231 1136.08L636.325 385.09C639.478 380.714 641.282 375.513 641.516 370.125V370.125Z" fill="#213ED7"/>
<path d="M-713.944 550.265C-713.694 544.402 -711.69 538.748 -708.191 534.036L-172.671 -190.57C-167.985 -196.883 -160.99 -201.086 -153.214 -202.26C-145.438 -203.435 -137.513 -201.485 -131.17 -196.837L595.748 337.249C598.885 339.549 601.536 342.446 603.551 345.773C605.565 349.1 606.903 352.792 607.487 356.637C608.072 360.482 607.891 364.404 606.957 368.179C606.022 371.954 604.351 375.507 602.04 378.636L66.5302 1103.24C61.8458 1109.56 54.8485 1113.77 47.069 1114.94C39.2895 1116.12 31.3613 1114.16 25.019 1109.51L-701.9 575.412C-705.823 572.536 -708.976 568.735 -711.077 564.348C-713.178 559.962 -714.163 555.124 -713.944 550.265V550.265ZM605.307 362.241C605.518 357.785 604.624 353.345 602.705 349.316C600.787 345.288 597.902 341.796 594.307 339.151L-132.644 -194.847C-138.454 -199.108 -145.714 -200.897 -152.839 -199.824C-159.964 -198.751 -166.374 -194.902 -170.669 -189.118L-706.178 535.487C-708.301 538.353 -709.835 541.609 -710.693 545.07C-711.552 548.531 -711.717 552.127 -711.179 555.652C-710.641 559.177 -709.411 562.56 -707.56 565.608C-705.709 568.656 -703.273 571.308 -700.393 573.41L26.5149 1107.5C32.3235 1111.76 39.5863 1113.55 46.713 1112.48C53.8398 1111.4 60.2497 1107.55 64.5394 1101.76L600.049 377.151C603.257 372.829 605.089 367.641 605.307 362.263V362.241Z" fill="#213ED7"/>
<path d="M-718.113 520.192C-717.865 514.335 -715.822 508.697 -712.261 504.04L-180.843 -194.176C-176.182 -200.264 -169.3 -204.26 -161.701 -205.29C-154.102 -206.32 -146.403 -204.301 -140.289 -199.674L560.166 330.31C563.892 333.129 566.877 336.81 568.866 341.037C570.855 345.264 571.787 349.911 571.583 354.577C571.338 360.44 569.291 366.084 565.72 370.741L34.3573 1068.92C29.6948 1075.01 22.815 1079 15.2194 1080.03C7.62371 1081.06 -0.0711424 1079.04 -6.18595 1074.42L-706.64 544.437C-710.375 541.628 -713.371 537.954 -715.37 533.73C-717.368 529.506 -718.31 524.86 -718.113 520.192V520.192ZM569.097 354.423C569.281 350.158 568.428 345.912 566.61 342.05C564.792 338.187 562.063 334.823 558.659 332.246L-141.796 -197.739C-147.385 -201.97 -154.423 -203.814 -161.37 -202.865C-168.316 -201.917 -174.603 -198.255 -178.852 -192.681L-710.292 505.546C-712.392 508.302 -713.927 511.445 -714.808 514.795C-715.69 518.145 -715.9 521.637 -715.428 525.069C-714.956 528.5 -713.81 531.805 -712.057 534.793C-710.303 537.781 -707.977 540.393 -705.211 542.48L-4.75606 1072.46C0.835114 1076.68 7.86914 1078.52 14.81 1077.57C21.751 1076.62 28.0348 1072.97 32.2894 1067.41L563.718 369.191C566.981 364.935 568.859 359.78 569.097 354.423V354.423Z" fill="#213ED7"/>
<path d="M-722.292 490.119C-722.043 484.265 -719.957 478.637 -716.331 474.033L-189.005 -197.794C-184.383 -203.667 -177.621 -207.472 -170.201 -208.374C-162.78 -209.277 -155.303 -207.204 -149.407 -202.61L524.572 323.306C527.488 325.576 529.927 328.4 531.749 331.614C533.571 334.829 534.741 338.371 535.19 342.039C535.64 345.706 535.361 349.426 534.369 352.985C533.378 356.544 531.693 359.873 529.412 362.78L2.07458 1034.61C-2.54543 1040.48 -9.30799 1044.29 -16.7306 1045.19C-24.1533 1046.09 -31.6303 1044.01 -37.5227 1039.41L-711.502 513.518C-715.031 510.755 -717.851 507.192 -719.727 503.123C-721.604 499.054 -722.483 494.596 -722.292 490.119V490.119ZM532.876 346.573C533.045 342.488 532.235 338.421 530.513 334.712C528.791 331.004 526.207 327.76 522.977 325.252L-150.947 -200.664C-156.321 -204.851 -163.136 -206.739 -169.9 -205.915C-176.664 -205.09 -182.825 -201.621 -187.036 -196.265L-714.362 475.583C-717.69 479.766 -719.614 484.891 -719.861 490.229C-720.03 494.316 -719.219 498.384 -717.497 502.094C-715.775 505.804 -713.192 509.05 -709.962 511.561L-35.9719 1037.47C-30.5976 1041.65 -23.7827 1043.54 -17.019 1042.72C-10.2554 1041.89 -4.09387 1038.42 0.116682 1033.07L527.443 361.241C530.752 357.044 532.654 351.912 532.876 346.573V346.573Z" fill="#213ED7"/>
<path d="M-726.483 460.047C-726.233 454.198 -724.099 448.587 -720.4 444.048L-197.166 -201.389C-192.58 -207.044 -185.937 -210.649 -178.695 -211.414C-171.453 -212.179 -164.203 -210.041 -158.537 -205.469L488.989 316.368C492.324 319.066 494.981 322.507 496.748 326.415C498.514 330.324 499.342 334.591 499.164 338.876C498.923 344.724 496.792 350.338 493.092 354.874L-30.1423 1000.31C-34.7285 1005.97 -41.3712 1009.57 -48.6132 1010.34C-55.8551 1011.1 -63.1047 1008.96 -68.7717 1004.39L-716.298 482.565C-719.636 479.867 -722.296 476.425 -724.065 472.515C-725.833 468.604 -726.662 464.334 -726.483 460.047V460.047ZM496.634 338.733C496.797 334.834 496.044 330.952 494.436 327.396C492.828 323.841 490.408 320.712 487.373 318.259L-160.098 -203.566C-165.256 -207.711 -171.845 -209.646 -178.426 -208.95C-185.006 -208.253 -191.044 -204.982 -195.219 -199.85L-718.465 445.587C-721.82 449.712 -723.75 454.811 -723.964 460.123C-724.129 464.028 -723.377 467.917 -721.766 471.479C-720.156 475.04 -717.733 478.174 -714.692 480.63L-67.1657 1002.46C-62.0127 1006.61 -55.4226 1008.55 -48.8395 1007.86C-42.2563 1007.16 -36.2171 1003.89 -32.0451 998.75L491.189 353.313C494.55 349.175 496.476 344.059 496.678 338.733H496.634Z" fill="#213ED7"/>
<path d="M-730.663 429.974C-730.41 424.146 -728.232 418.567 -724.47 414.107L-205.305 -204.941C-200.738 -210.357 -194.21 -213.745 -187.15 -214.363C-180.091 -214.981 -173.073 -212.78 -167.633 -208.24L453.429 309.364C456.124 311.603 458.35 314.353 459.979 317.455C461.608 320.557 462.608 323.95 462.921 327.439C463.233 330.929 462.853 334.446 461.802 337.788C460.751 341.13 459.049 344.231 456.795 346.914L-62.3702 965.962C-66.9413 971.373 -73.4681 974.757 -80.5261 975.375C-87.5841 975.993 -94.6 973.795 -100.043 969.26L-721.104 451.613C-724.272 448.998 -726.786 445.681 -728.445 441.924C-730.104 438.167 -730.864 434.075 -730.663 429.974V429.974ZM460.479 330.893C460.656 327.174 459.964 323.465 458.457 320.061C456.951 316.656 454.672 313.648 451.801 311.277L-169.25 -206.469C-174.184 -210.564 -180.537 -212.542 -186.924 -211.974C-193.311 -211.405 -199.215 -208.336 -203.348 -203.434L-722.512 415.614C-724.56 418.048 -726.106 420.864 -727.06 423.898C-728.015 426.932 -728.361 430.125 -728.076 433.293C-727.792 436.461 -726.884 439.541 -725.405 442.357C-723.925 445.173 -721.903 447.668 -719.455 449.7L-98.3927 967.446C-93.453 971.554 -87.0874 973.539 -80.6876 972.968C-74.2878 972.398 -68.3744 969.317 -64.24 964.4L454.925 345.352C458.332 341.283 460.286 336.196 460.479 330.893V330.893Z" fill="#213ED7"/>
<path d="M-734.865 399.901C-734.624 394.051 -732.388 388.46 -728.529 384.056L-213.489 -208.602C-208.961 -213.807 -202.554 -217.005 -195.672 -217.496C-188.79 -217.986 -181.994 -215.729 -176.773 -211.219L417.824 302.393C420.405 304.622 422.521 307.338 424.051 310.386C425.58 313.434 426.493 316.754 426.737 320.155C426.981 323.556 426.552 326.972 425.474 330.207C424.395 333.442 422.689 336.433 420.453 339.008L-94.5979 931.667C-99.1286 936.867 -105.536 940.061 -112.417 940.55C-119.299 941.038 -126.093 938.781 -131.313 934.272L-725.9 420.704C-728.881 418.148 -731.238 414.945 -732.791 411.34C-734.345 407.735 -735.054 403.822 -734.865 399.901ZM424.292 323.053C424.454 319.513 423.808 315.983 422.404 312.729C420.999 309.476 418.873 306.584 416.186 304.273L-178.401 -209.339C-183.121 -213.416 -189.265 -215.457 -195.488 -215.014C-201.71 -214.571 -207.503 -211.68 -211.597 -206.975L-726.648 385.684C-728.67 388.011 -730.212 390.714 -731.187 393.638C-732.162 396.563 -732.551 399.65 -732.33 402.725C-732.109 405.799 -731.284 408.8 -729.901 411.555C-728.519 414.31 -726.606 416.765 -724.272 418.78L-129.675 932.436C-124.954 936.507 -118.813 938.544 -112.594 938.101C-106.375 937.658 -100.585 934.771 -96.4898 930.072L418.561 337.413C422.066 333.427 424.089 328.356 424.292 323.053V323.053Z" fill="#213ED7"/>
<path d="M-739.066 369.828C-738.809 363.981 -736.522 358.405 -732.599 354.061L-221.639 -212.209C-217.142 -217.187 -210.855 -220.181 -204.154 -220.533C-197.454 -220.886 -190.886 -218.568 -185.892 -214.089L382.242 295.476C384.712 297.69 386.721 300.369 388.154 303.36C389.586 306.352 390.414 309.596 390.59 312.908C390.765 316.219 390.286 319.533 389.178 322.659C388.07 325.785 386.356 328.662 384.134 331.124L-126.826 897.394C-131.324 902.373 -137.614 905.366 -144.316 905.719C-151.019 906.071 -157.588 903.754 -162.584 899.274L-730.707 389.697C-733.488 387.213 -735.68 384.141 -737.126 380.704C-738.572 377.268 -739.235 373.553 -739.066 369.828V369.828ZM388.104 315.202C388.258 311.843 387.662 308.492 386.358 305.392C385.055 302.292 383.078 299.521 380.57 297.28L-187.564 -212.286C-192.063 -216.305 -197.97 -218.382 -203.996 -218.063C-210.022 -217.744 -215.676 -215.054 -219.725 -210.582L-730.751 355.732C-732.752 357.953 -734.295 360.547 -735.29 363.366C-736.286 366.184 -736.714 369.172 -736.55 372.157C-736.387 375.141 -735.635 378.064 -734.337 380.758C-733.04 383.451 -731.223 385.861 -728.991 387.85L-160.868 897.427C-156.365 901.462 -150.445 903.55 -144.405 903.233C-138.365 902.915 -132.696 900.219 -128.641 895.733L382.319 329.464C385.849 325.528 387.895 320.485 388.104 315.202V315.202Z" fill="#213ED7"/>
<path d="M-743.29 339.755C-743.026 333.907 -740.686 328.344 -736.69 324.065L-229.823 -215.815C-225.352 -220.567 -219.177 -223.352 -212.655 -223.558C-206.132 -223.764 -199.795 -221.375 -195.032 -216.915L346.637 288.56C348.991 290.764 350.886 293.411 352.215 296.348C353.545 299.285 354.281 302.456 354.384 305.678C354.486 308.9 353.951 312.111 352.811 315.126C351.67 318.142 349.946 320.903 347.737 323.251L-159.142 863.132C-163.617 867.872 -169.787 870.649 -176.304 870.855C-182.822 871.061 -189.155 868.679 -193.921 864.231L-735.513 358.756C-738.107 356.339 -740.145 353.389 -741.488 350.109C-742.83 346.829 -743.445 343.296 -743.29 339.755ZM351.939 307.363C352.077 304.181 351.524 301.007 350.318 298.06C349.112 295.112 347.283 292.46 344.954 290.287L-196.715 -215.189C-201.003 -219.182 -206.698 -221.317 -212.556 -221.125C-218.414 -220.934 -223.957 -218.432 -227.975 -214.166L-734.843 325.769C-736.828 327.88 -738.377 330.362 -739.4 333.072C-740.423 335.783 -740.901 338.669 -740.805 341.565C-740.708 344.46 -740.041 347.308 -738.84 349.945C-737.64 352.582 -735.93 354.956 -733.809 356.93L-192.139 862.406C-187.85 866.397 -182.155 868.529 -176.298 868.338C-170.442 868.146 -164.899 865.646 -160.879 861.383L345.988 321.503C349.605 317.656 351.717 312.637 351.939 307.363Z" fill="#213ED7"/>
<path d="M-747.514 309.65C-747.25 303.793 -744.838 298.239 -740.738 294.047L-237.951 -219.444C-233.511 -223.964 -227.461 -226.544 -221.124 -226.621C-214.787 -226.697 -208.677 -224.263 -204.128 -219.851L311.077 281.545C313.322 283.732 315.115 286.339 316.351 289.219C317.587 292.099 318.243 295.194 318.281 298.328C318.319 301.462 317.738 304.572 316.571 307.481C315.405 310.389 313.676 313.04 311.484 315.279L-191.292 828.771C-195.733 833.294 -201.785 835.876 -208.125 835.953C-214.465 836.029 -220.577 833.593 -225.126 829.177L-740.32 327.792C-742.728 325.444 -744.613 322.614 -745.852 319.488C-747.092 316.362 -747.658 313.009 -747.514 309.65V309.65ZM315.773 299.501C315.907 296.493 315.402 293.492 314.293 290.693C313.184 287.894 311.496 285.361 309.339 283.261L-205.866 -218.135C-209.942 -222.086 -215.416 -224.265 -221.093 -224.197C-226.77 -224.129 -232.189 -221.82 -236.169 -217.773L-738.89 295.806C-740.856 297.811 -742.406 300.184 -743.451 302.789C-744.496 305.394 -745.017 308.18 -744.982 310.986C-744.947 313.793 -744.358 316.565 -743.248 319.144C-742.139 321.722 -740.531 324.056 -738.516 326.011L-223.322 827.407C-219.245 831.356 -213.771 833.533 -208.094 833.463C-202.417 833.393 -196.998 831.082 -193.019 827.033L309.757 313.542C313.421 309.77 315.564 304.777 315.773 299.523V299.501Z" fill="#213ED7"/>
<path d="M-751.748 279.599C-751.495 273.724 -749.008 268.167 -744.797 264.062L-246.124 -223.094C-241.71 -227.387 -235.778 -229.76 -229.62 -229.696C-223.463 -229.633 -217.581 -227.137 -213.258 -222.754L275.494 274.563C277.634 276.731 279.324 279.301 280.467 282.124C281.609 284.948 282.182 287.969 282.151 291.015C282.12 294.061 281.487 297.07 280.288 299.87C279.089 302.67 277.347 305.205 275.164 307.33L-223.52 794.487C-227.933 798.779 -233.866 801.152 -240.023 801.089C-246.181 801.025 -252.063 798.529 -256.386 794.146L-745.127 296.84C-747.35 294.571 -749.084 291.87 -750.223 288.905C-751.362 285.94 -751.881 282.773 -751.748 279.599V279.599ZM279.619 291.694C279.741 288.861 279.28 286.032 278.264 283.384C277.248 280.736 275.699 278.325 273.712 276.3L-215.018 -221.016C-218.879 -224.929 -224.132 -227.156 -229.63 -227.212C-235.127 -227.267 -240.424 -225.147 -244.364 -221.313L-743.048 265.844C-744.992 267.742 -746.543 270.006 -747.611 272.505C-748.678 275.004 -749.242 277.689 -749.27 280.406C-749.297 283.123 -748.788 285.819 -747.771 288.339C-746.755 290.859 -745.25 293.154 -743.345 295.092L-254.615 792.408C-250.754 796.321 -245.501 798.548 -240.003 798.604C-234.505 798.659 -229.209 796.539 -225.269 792.705L273.415 305.548C277.185 301.89 279.412 296.93 279.641 291.683L279.619 291.694Z" fill="#213ED7"/>
<path d="M-755.994 249.526C-755.748 243.633 -753.182 238.077 -748.856 234.067L-254.263 -226.646C-249.88 -230.715 -244.065 -232.883 -238.087 -232.677C-232.11 -232.471 -226.457 -229.907 -222.365 -225.546L239.911 267.603C241.933 269.76 243.509 272.295 244.549 275.063C245.588 277.831 246.071 280.776 245.969 283.731C245.866 286.685 245.181 289.591 243.953 292.28C242.725 294.969 240.978 297.389 238.811 299.402L-255.759 760.18C-260.143 764.246 -265.958 766.413 -271.935 766.207C-277.911 766.001 -283.563 763.439 -287.657 759.081L-749.89 265.877C-751.952 263.7 -753.556 261.131 -754.605 258.322C-755.654 255.513 -756.126 252.522 -755.994 249.526V249.526ZM243.486 283.843C243.609 281.18 243.194 278.52 242.266 276.021C241.338 273.521 239.916 271.234 238.085 269.296L-224.125 -223.919C-227.765 -227.8 -232.796 -230.081 -238.114 -230.262C-243.433 -230.443 -248.607 -228.51 -252.503 -224.887L-747.151 235.881C-749.077 237.674 -750.629 239.829 -751.72 242.224C-752.811 244.618 -753.418 247.204 -753.507 249.833C-753.596 252.463 -753.165 255.084 -752.238 257.546C-751.312 260.009 -749.908 262.264 -748.108 264.183L-285.842 757.399C-282.197 761.271 -277.168 763.547 -271.852 763.728C-266.536 763.909 -261.364 761.982 -257.464 758.366L237.129 297.555C240.971 293.999 243.255 289.072 243.486 283.843V283.843Z" fill="#213ED7"/>
<path d="M-760.251 219.486C-760.132 216.558 -759.421 213.684 -758.16 211.038C-756.899 208.393 -755.114 206.03 -752.914 204.093L-262.414 -230.318C-258.059 -234.158 -252.363 -236.12 -246.567 -235.778C-240.771 -235.436 -235.345 -232.818 -231.473 -228.493L204.34 260.643C206.251 262.785 207.72 265.284 208.663 267.995C209.606 270.707 210.004 273.577 209.834 276.443C209.665 279.309 208.931 282.113 207.675 284.694C206.418 287.275 204.665 289.583 202.514 291.485L-287.998 725.885C-292.354 729.723 -298.051 731.684 -303.847 731.34C-309.643 730.996 -315.068 728.375 -318.939 724.049L-754.74 234.88C-758.518 230.666 -760.496 225.14 -760.251 219.486V219.486ZM207.354 276.026C207.578 271 205.825 266.086 202.47 262.336L-233.343 -226.844C-236.771 -230.679 -241.578 -233.002 -246.714 -233.305C-251.85 -233.608 -256.897 -231.866 -260.753 -228.46L-751.253 205.929C-753.159 207.615 -754.712 209.661 -755.825 211.949C-756.938 214.237 -757.588 216.721 -757.738 219.261C-757.889 221.8 -757.536 224.345 -756.701 226.747C-755.865 229.15 -754.564 231.365 -752.87 233.264L-317.069 722.4C-313.639 726.236 -308.83 728.559 -303.692 728.862C-298.554 729.165 -293.505 727.423 -289.648 724.016L200.853 289.627C202.803 287.913 204.385 285.82 205.503 283.476C206.62 281.133 207.25 278.587 207.354 275.993V276.026Z" fill="#213ED7"/>
<path d="M-764.529 189.381C-764.398 186.446 -763.658 183.57 -762.358 180.935C-761.057 178.301 -759.223 175.965 -756.973 174.075L-270.564 -233.936C-266.242 -237.545 -260.667 -239.298 -255.056 -238.809C-249.446 -238.321 -244.257 -235.632 -240.624 -231.33L168.757 253.693C170.555 255.824 171.914 258.287 172.757 260.944C173.6 263.6 173.911 266.396 173.671 269.173C173.43 271.949 172.644 274.651 171.358 277.123C170.071 279.595 168.309 281.789 166.172 283.579L-320.237 691.579C-324.56 695.196 -330.14 696.955 -335.757 696.47C-341.373 695.986 -346.57 693.299 -350.21 688.995L-759.547 203.95C-762.983 199.894 -764.763 194.691 -764.529 189.381V189.381ZM171.243 268.153C171.444 263.464 169.873 258.872 166.843 255.288L-242.494 -229.758C-245.709 -233.556 -250.297 -235.928 -255.256 -236.355C-260.215 -236.781 -265.142 -235.228 -268.958 -232.034L-755.389 175.977C-757.276 177.558 -758.832 179.495 -759.969 181.678C-761.105 183.861 -761.799 186.247 -762.01 188.699C-762.222 191.151 -761.947 193.62 -761.201 195.966C-760.456 198.311 -759.254 200.486 -757.666 202.366L-348.296 687.401C-345.08 691.194 -340.494 693.562 -335.538 693.988C-330.583 694.415 -325.66 692.865 -321.843 689.677L164.567 281.666C166.557 280 168.178 277.938 169.328 275.612C170.477 273.285 171.129 270.745 171.243 268.153V268.153Z" fill="#213ED7"/>
<path d="M-768.819 159.297C-768.689 156.348 -767.925 153.461 -766.58 150.833C-765.234 148.205 -763.338 145.898 -761.021 144.068L-278.703 -237.554C-274.415 -240.949 -268.955 -242.508 -263.52 -241.89C-258.084 -241.272 -253.115 -238.526 -249.698 -234.255L133.175 246.744C134.861 248.858 136.114 251.284 136.861 253.883C137.608 256.481 137.835 259.202 137.528 261.888C137.222 264.575 136.388 267.174 135.075 269.538C133.761 271.901 131.994 273.983 129.875 275.663L-352.475 657.284C-356.765 660.677 -362.224 662.234 -367.659 661.616C-373.093 660.998 -378.063 658.255 -381.48 653.986L-764.364 172.986C-767.445 169.106 -769.026 164.247 -768.819 159.297V159.297ZM135.144 260.313C135.33 255.963 133.94 251.691 131.228 248.284L-251.623 -232.672C-254.622 -236.431 -258.987 -238.85 -263.765 -239.4C-268.543 -239.95 -273.345 -238.586 -277.12 -235.607L-759.47 146.014C-761.336 147.488 -762.892 149.316 -764.05 151.393C-765.208 153.469 -765.944 155.754 -766.217 158.116C-766.49 160.477 -766.294 162.87 -765.64 165.156C-764.986 167.441 -763.887 169.576 -762.407 171.436L-379.534 652.402C-376.531 656.159 -372.164 658.577 -367.385 659.127C-362.607 659.677 -357.804 658.315 -354.026 655.338L128.291 273.716C130.328 272.105 131.995 270.073 133.177 267.761C134.36 265.448 135.03 262.908 135.144 260.313V260.313Z" fill="#213ED7"/>
<path d="M-773.12 129.224C-772.995 126.256 -772.207 123.354 -770.814 120.73C-769.42 118.107 -767.457 115.828 -765.068 114.061L-286.821 -241.171C-282.556 -244.333 -277.212 -245.677 -271.958 -244.91C-266.704 -244.144 -261.967 -241.329 -258.784 -237.081L97.592 239.795C99.1629 241.898 100.303 244.289 100.948 246.833C101.593 249.377 101.729 252.023 101.349 254.619C100.969 257.216 100.08 259.712 98.7329 261.964C97.3861 264.217 95.608 266.182 93.5003 267.746L-384.714 623.022C-388.981 626.178 -394.324 627.519 -399.576 626.753C-404.828 625.986 -409.564 623.175 -412.751 618.932L-769.127 142.056C-771.899 138.367 -773.309 133.834 -773.12 129.224ZM99.0549 252.473C99.2281 248.452 98.0082 244.495 95.6011 241.269L-260.775 -235.607C-263.564 -239.322 -267.708 -241.783 -272.305 -242.455C-276.902 -243.126 -281.579 -241.953 -285.314 -239.192L-763.584 116.063C-765.428 117.432 -766.985 119.151 -768.164 121.123C-769.343 123.094 -770.121 125.279 -770.455 127.551C-770.788 129.824 -770.669 132.14 -770.105 134.367C-769.541 136.593 -768.544 138.687 -767.169 140.528L-410.793 617.415C-408.003 621.127 -403.857 623.586 -399.26 624.256C-394.663 624.925 -389.988 623.751 -386.254 620.988L92.0154 265.756C94.1065 264.208 95.8242 262.211 97.0424 259.913C98.2605 257.614 98.9482 255.072 99.0549 252.473Z" fill="#213ED7"/>
<path d="M-777.388 99.1404C-777.267 96.1537 -776.452 93.2361 -775.007 90.6193C-773.561 88.0025 -771.526 85.7585 -769.061 84.0656L-294.993 -244.789C-290.757 -247.72 -285.532 -248.857 -280.461 -247.951C-275.389 -247.044 -270.882 -244.168 -267.924 -239.951L62.0535 232.857C63.5116 234.946 64.543 237.301 65.0885 239.789C65.6339 242.277 65.6827 244.848 65.2321 247.355C64.7814 249.862 63.8402 252.255 62.4623 254.398C61.0845 256.54 59.2972 258.39 57.2029 259.84L-416.964 588.694C-421.203 591.622 -426.427 592.755 -431.498 591.847C-436.569 590.938 -441.075 588.062 -444.033 583.845L-774.011 111.038C-776.419 107.553 -777.606 103.37 -777.388 99.1404V99.1404ZM62.9554 244.644C63.1229 240.949 62.0591 237.302 59.9306 234.275L-270.047 -238.532C-272.624 -242.209 -276.55 -244.718 -280.971 -245.511C-285.391 -246.304 -289.946 -245.317 -293.64 -242.765L-767.697 86.1107C-769.521 87.3758 -771.076 88.9885 -772.274 90.8563C-773.473 92.724 -774.29 94.81 -774.679 96.9944C-775.069 99.1788 -775.023 101.419 -774.544 103.585C-774.065 105.752 -773.162 107.802 -771.888 109.619L-441.91 582.427C-439.336 586.106 -435.409 588.617 -430.987 589.41C-426.566 590.203 -422.011 589.215 -418.317 586.66L55.7509 257.795C57.8878 256.31 59.6508 254.349 60.9009 252.067C62.1511 249.785 62.8544 247.244 62.9554 244.644Z" fill="#213ED7"/>
<path d="M-781.787 69.0677C-781.656 66.0588 -780.804 63.1253 -779.304 60.5137C-777.803 57.9021 -775.698 55.6884 -773.164 54.0588L-303.133 -248.406C-298.925 -251.108 -293.819 -252.035 -288.93 -250.984C-284.041 -249.934 -279.767 -246.99 -277.043 -242.798L26.4488 225.908C27.7934 227.983 28.7148 230.302 29.1601 232.734C29.6054 235.166 29.5657 237.661 29.0435 240.078C28.5212 242.494 27.5266 244.783 26.1168 246.814C24.707 248.845 22.9097 250.578 20.8282 251.912L-449.214 554.388C-453.422 557.087 -458.527 558.013 -463.416 556.962C-468.304 555.911 -472.578 552.97 -475.304 548.78L-778.796 80.0742C-780.915 76.8065 -781.961 72.9585 -781.787 69.0677V69.0677ZM26.9548 236.804C27.1111 233.428 26.199 230.089 24.348 227.26L-279.121 -241.457C-281.49 -245.092 -285.2 -247.644 -289.443 -248.554C-293.686 -249.465 -298.117 -248.66 -301.769 -246.317L-771.811 56.1479C-773.622 57.3054 -775.186 58.8098 -776.413 60.5743C-777.64 62.3389 -778.505 64.3288 -778.959 66.4293C-779.413 68.5297 -779.447 70.6993 -779.058 72.8128C-778.67 74.9263 -777.866 76.942 -776.695 78.7437L-473.203 547.439C-470.837 551.074 -467.129 553.625 -462.888 554.535C-458.646 555.446 -454.217 554.642 -450.567 552.299L19.4753 249.823C21.6722 248.409 23.4979 246.489 24.7993 244.223C26.1007 241.958 26.8399 239.414 26.9548 236.804V236.804Z" fill="#213ED7"/>
<rect x="-15" y="351" width="695" height="371" fill="url(#paint0_linear_172_136)"/>
<rect x="680" y="351" width="695" height="381" transform="rotate(-180 680 351)" fill="url(#paint1_linear_172_136)"/>
</g>
<defs>
<linearGradient id="paint0_linear_172_136" x1="340.022" y1="155.147" x2="328.304" y2="617.68" gradientUnits="userSpaceOnUse">
<stop stop-color="#111543" stop-opacity="0"/>
<stop offset="1" stop-color="#111543"/>
</linearGradient>
<linearGradient id="paint1_linear_172_136" x1="1035.02" y1="149.867" x2="1021.12" y2="657.119" gradientUnits="userSpaceOnUse">
<stop stop-color="#111543" stop-opacity="0"/>
<stop offset="1" stop-color="#111543"/>
</linearGradient>
<clipPath id="clip0_172_136">
<rect width="680" height="722" fill="white"/>
</clipPath>
</defs>
</svg>
