<svg width="1440" height="854" viewBox="0 0 1440 854" fill="none" xmlns="http://www.w3.org/2000/svg">
<path d="M911 514C1199.23 363.979 1459 0 1459 0L1452 853L-84 851L-79.5 658L-47.5 662.5L4.5 664.5H143.5C334.198 658.972 681.37 633.518 911 514Z" fill="url(#paint0_linear_1226_100821)"/>
<g filter="url(#filter0_i_1226_100821)">
<path d="M977 515C1265.23 364.979 1525 1 1525 1L1518 854L-18 852L-13.5 659L18.5 663.5L70.5 665.5H209.5C400.198 659.972 747.37 634.518 977 515Z" fill="white"/>
</g>
<defs>
<filter id="filter0_i_1226_100821" x="-18" y="1" width="1543" height="903" filterUnits="userSpaceOnUse" color-interpolation-filters="sRGB">
<feFlood flood-opacity="0" result="BackgroundImageFix"/>
<feBlend mode="normal" in="SourceGraphic" in2="BackgroundImageFix" result="shape"/>
<feColorMatrix in="SourceAlpha" type="matrix" values="0 0 0 0 0 0 0 0 0 0 0 0 0 0 0 0 0 0 127 0" result="hardAlpha"/>
<feOffset dy="60"/>
<feGaussianBlur stdDeviation="25"/>
<feComposite in2="hardAlpha" operator="arithmetic" k2="-1" k3="1"/>
<feColorMatrix type="matrix" values="0 0 0 0 0 0 0 0 0 0 0 0 0 0 0 0 0 0 0.1 0"/>
<feBlend mode="normal" in2="shape" result="effect1_innerShadow_1226_100821"/>
</filter>
<linearGradient id="paint0_linear_1226_100821" x1="-1508.5" y1="1248.5" x2="1434.5" y2="152.5" gradientUnits="userSpaceOnUse">
<stop/>
<stop offset="1" stop-color="#04F7AC"/>
</linearGradient>
</defs>
</svg>
