<svg height="498pt" viewBox="-79 0 498 498.66098" width="498pt" xmlns="http://www.w3.org/2000/svg"><path d="m99.363281 351.316406 82.789063-60.273437-16.867188-12.28125-85.921875 62.554687v145.34375h20zm0 0" fill="#d4e1f4"/><path d="m35.289062 371.984375c1.269532 0 2.503907-.402344 3.527344-1.148437l28.546875-20.78125v142.605468c0 3.316406 2.6875 6 6 6h183.84375c3.316407 0 6-2.683594 6-6v-142.605468l28.546875 20.78125c1.730469 1.304687 4.03125 1.570312 6.015625.703124 1.984375-.867187 3.347657-2.738281 3.566407-4.894531.214843-2.15625-.746094-4.261719-2.519532-5.507812l-35.609375-25.925781v-56.949219c0-3.3125-2.683593-6-6-6h-29.191406c-3.3125 0-6 2.6875-6 6v26.957031l-53.199219-38.730469c-2.105468-1.53125-4.957031-1.53125-7.0625 0l-130 94.644531c-2.101562 1.53125-2.980468 4.238282-2.175781 6.710938.808594 2.472656 3.113281 4.144531 5.710937 4.140625zm124.378907 114.675781h-28v-60.117187h28zm74.347656-202.398437h17.191406v42.210937l-17.191406-12.515625zm-68.730469-5.5 85.921875 62.554687v145.34375h-79.539062v-66.117187c0-3.316407-2.6875-6-6-6h-40c-3.3125 0-6 2.683593-6 6v66.117187h-40.304688v-145.34375zm0 0" fill="#0635c9"/><path d="m194.894531 423.316406h40c3.3125 0 6-2.6875 6-6v-30c0-3.3125-2.6875-6-6-6h-40c-3.316406 0-6 2.6875-6 6v30c0 3.3125 2.683594 6 6 6zm6-30h28v18h-28zm0 0" fill="#0635c9"/><g fill="#1ae5be"><path d="m165.011719 221.730469c-3.3125 0-6 2.6875-6 6v22.226562c0 3.316407 2.6875 6 6 6 3.316406 0 6-2.683593 6-6v-22.226562c0-3.3125-2.683594-6-6-6zm0 0"/><path d="m165.011719 196.816406c-3.3125 0-6 2.683594-6 6v10.238282c0 3.3125 2.6875 6 6 6 3.316406 0 6-2.6875 6-6v-10.238282c0-3.316406-2.683594-6-6-6zm0 0"/><path d="m165.011719 147.179688c-3.3125 0-6 2.6875-6 6v31.820312c0 3.3125 2.6875 6 6 6 3.316406 0 6-2.6875 6-6v-31.820312c0-3.3125-2.683594-6-6-6zm0 0"/><path d="m134.96875 233.136719c-3.316406 0-6 2.6875-6 6v1.78125c0 3.3125 2.683594 6 6 6 3.3125 0 6-2.6875 6-6v-1.78125c0-3.3125-2.6875-6-6-6zm0 0"/><path d="m134.96875 162.328125c-3.316406 0-6 2.6875-6 6v52.199219c0 3.316406 2.683594 6 6 6 3.3125 0 6-2.683594 6-6v-52.199219c0-3.3125-2.6875-6-6-6zm0 0"/><path d="m193.0625 201.566406c-3.3125 0-6 2.6875-6 6v20.5625c0 3.3125 2.6875 6 6 6 3.316406 0 6-2.6875 6-6v-20.5625c0-3.3125-2.683594-6-6-6zm0 0"/><path d="m199.0625 159.992188c0-3.316407-2.683594-6-6-6-3.3125 0-6 2.683593-6 6v28.785156c0 3.3125 2.6875 6 6 6 3.316406 0 6-2.6875 6-6zm0 0"/><path d="m138.613281 92.648438c-1.164062-1.117188-2.730469-1.71875-4.34375-1.667969l-4.695312.148437 34.398437-36.648437 36.648438 34.402343-7.742188.246094c-3.242187.101563-5.8125 2.757813-5.8125 6v48.71875c0 3.3125 2.6875 6 6 6 3.316406 0 6-2.6875 6-6v-42.914062l16.414063-.523438c2.425781-.074218 4.566406-1.605468 5.421875-3.875.859375-2.269531.261718-4.835937-1.507813-6.496094l-51.589843-48.414062c-2.414063-2.269531-6.210938-2.148438-8.480469.269531l-48.414063 51.585938c-1.65625 1.769531-2.089844 4.363281-1.089844 6.574219 1 2.207031 3.230469 3.601562 5.65625 3.523437l13.039063-.414063.453125 50.90625c.027344 3.292969 2.707031 5.945313 6 5.945313h.054688c3.3125-.03125 5.976562-2.738281 5.945312-6.054687l-.507812-57.039063c-.015626-1.617187-.683594-3.15625-1.847657-4.273437zm0 0"/><path d="m285.011719 262.128906c-3.3125 0-6 2.683594-6 6v31.828125c0 3.316407 2.6875 6 6 6 3.316406 0 6-2.683593 6-6v-31.828125c0-3.316406-2.683594-6-6-6zm0 0"/><path d="m291.011719 187.730469c0-3.3125-2.683594-6-6-6-3.3125 0-6 2.6875-6 6v58.1875c0 3.3125 2.6875 6 6 6 3.316406 0 6-2.6875 6-6zm0 0"/><path d="m291.011719 162.816406c0-3.316406-2.683594-6-6-6-3.3125 0-6 2.683594-6 6v10.238282c0 3.3125 2.6875 6 6 6 3.316406 0 6-2.6875 6-6zm0 0"/><path d="m291.011719 113.179688c0-3.3125-2.683594-6-6-6-3.3125 0-6 2.6875-6 6v31.820312c0 3.3125 2.6875 6 6 6 3.316406 0 6-2.6875 6-6zm0 0"/><path d="m254.96875 193.136719c-3.316406 0-6 2.6875-6 6v31.78125c0 3.3125 2.683594 6 6 6 3.3125 0 6-2.6875 6-6v-31.78125c0-3.3125-2.6875-6-6-6zm0 0"/><path d="m260.96875 128.328125c0-3.3125-2.6875-6-6-6-3.316406 0-6 2.6875-6 6v52.199219c0 3.316406 2.683594 6 6 6 3.3125 0 6-2.683594 6-6zm0 0"/><path d="m319.0625 167.566406c0-3.3125-2.683594-6-6-6-3.3125 0-6 2.6875-6 6v63.949219c0 3.3125 2.6875 6 6 6 3.316406 0 6-2.6875 6-6zm0 0"/><path d="m319.0625 255.128906c0-3.316406-2.683594-6-6-6-3.3125 0-6 2.683594-6 6v55.714844c0 3.3125 2.6875 6 6 6 3.316406 0 6-2.6875 6-6zm0 0"/><path d="m313.0625 328.644531c-3.3125 0-6 2.6875-6 6v3.484375c0 3.3125 2.6875 6 6 6 3.316406 0 6-2.6875 6-6v-3.484375c0-3.3125-2.683594-6-6-6zm0 0"/><path d="m319.0625 119.992188c0-3.316407-2.683594-6-6-6-3.3125 0-6 2.683593-6 6v28.785156c0 3.3125 2.6875 6 6 6 3.316406 0 6-2.6875 6-6zm0 0"/><path d="m235.476562 63.582031 13.046876-.414062.445312 42.914062c.035156 3.289063 2.710938 5.9375 6 5.9375h.0625c3.3125-.035156 5.972656-2.75 5.9375-6.0625l-.507812-49.042969c-.015626-1.613281-.683594-3.152343-1.847657-4.269531-1.164062-1.113281-2.730469-1.714843-4.34375-1.664062l-4.695312.148437 34.402343-36.648437 36.648438 34.402343-7.746094.246094c-3.238281.101563-5.8125 2.757813-5.808594 6v48.71875c0 3.3125 2.6875 6 6 6s6-2.6875 6-6v-42.914062l16.410157-.523438c2.425781-.074218 4.566406-1.605468 5.425781-3.875.855469-2.269531.261719-4.835937-1.507812-6.496094l-51.59375-48.414062c-2.414063-2.269531-6.210938-2.148438-8.480469.269531l-48.414063 51.585938c-1.65625 1.769531-2.089844 4.363281-1.089844 6.574219 1 2.207031 3.230469 3.601562 5.65625 3.523437zm0 0"/><path d="m50.054688 299.957031c0 3.316407 2.6875 6 6 6 3.316406 0 6-2.683593 6-6v-2.226562c0-3.3125-2.683594-6-6-6-3.3125 0-6 2.6875-6 6zm0 0"/><path d="m50.054688 273.054688c0 3.3125 2.6875 6 6 6 3.316406 0 6-2.6875 6-6v-30.238282c0-3.316406-2.683594-6-6-6-3.3125 0-6 2.683594-6 6zm0 0"/><path d="m56.054688 231c3.316406 0 6-2.6875 6-6v-11.820312c0-3.3125-2.683594-6-6-6-3.3125 0-6 2.6875-6 6v11.820312c0 3.3125 2.6875 6 6 6zm0 0"/><path d="m20.011719 340.917969c0 3.3125 2.683593 6 6 6 3.3125 0 6-2.6875 6-6v-3.445313c0-3.3125-2.6875-6-6-6-3.316407 0-6 2.6875-6 6zm0 0"/><path d="m20.011719 318.25c0 3.316406 2.683593 6 6 6 3.3125 0 6-2.683594 6-6v-39.113281c0-3.3125-2.6875-6-6-6-3.316407 0-6 2.6875-6 6zm0 0"/><path d="m26.011719 266.53125c3.3125 0 6-2.6875 6-6v-75.203125c0-3.3125-2.6875-6-6-6-3.316407 0-6 2.6875-6 6v75.203125c0 3.3125 2.683593 6 6 6zm0 0"/><path d="m78.105469 268.128906c0 3.3125 2.6875 6 6 6s6-2.6875 6-6v-.5625c0-3.3125-2.6875-6-6-6s-6 2.6875-6 6zm0 0"/><path d="m84.105469 254.777344c3.3125 0 6-2.6875 6-6v-73.785156c0-3.316407-2.6875-6-6-6s-6 2.683593-6 6v73.785156c0 3.3125 2.6875 6 6 6zm0 0"/><path d="m111.941406 56.535156c.855469-2.269531.261719-4.835937-1.507812-6.496094l-51.585938-48.414062c-2.414062-2.269531-6.210937-2.148438-8.480468.269531l-48.414063 51.585938c-1.660156 1.769531-2.089844 4.363281-1.089844 6.574219 1 2.207031 3.230469 3.601562 5.65625 3.523437l13.011719-.414063.480469 100.878907c.015625 3.304687 2.695312 5.972656 6 5.972656h.027343c3.3125-.015625 5.988282-2.714844 5.972657-6.027344l-.511719-107.042969c-.007812-1.617187-.667969-3.167968-1.832031-4.289062-1.167969-1.125-2.738281-1.730469-4.355469-1.679688l-4.699219.148438 34.398438-36.648438 36.648437 34.402344-7.746094.246094c-3.238281.101562-5.808593 2.757812-5.808593 6v98.71875c0 3.316406 2.6875 6 6 6s6-2.683594 6-6v-92.910156l16.414062-.523438c2.421875-.074218 4.5625-1.605468 5.421875-3.875zm0 0"/></g></svg>