<svg width="115" height="115" viewBox="0 0 115 115" fill="none" xmlns="http://www.w3.org/2000/svg">
<g clip-path="url(#clip0_221_443)">
<path d="M112.276 30.4313C110.963 25.5543 107.118 21.71 102.242 20.3968C93.3333 17.9587 57.6978 17.9587 57.6978 17.9587C57.6978 17.9587 22.0632 17.9587 13.1543 20.3038C8.37197 21.6162 4.43303 25.5552 3.12063 30.4313C0.776367 39.3393 0.776367 57.8137 0.776367 57.8137C0.776367 57.8137 0.776367 76.381 3.12063 85.1961C4.4339 90.0722 8.27817 93.9174 13.1552 95.2306C22.157 97.6687 57.6987 97.6687 57.6987 97.6687C57.6987 97.6687 93.3333 97.6687 102.242 95.3236C107.119 94.0112 110.963 90.166 112.277 85.2899C114.621 76.381 114.621 57.9075 114.621 57.9075C114.621 57.9075 114.715 39.3393 112.276 30.4313Z" fill="#291E3C"/>
<path d="M46.3516 74.8811L75.9845 57.8138L46.3516 40.7464V74.8811Z" fill="white"/>
</g>
<defs>
<clipPath id="clip0_221_443">
<rect width="113.845" height="113.845" fill="white" transform="translate(0.776367 0.837311)"/>
</clipPath>
</defs>
</svg>
