<svg height="494pt" viewBox="-77 0 494 494" width="494pt" xmlns="http://www.w3.org/2000/svg"><path d="m104.558594 346.65625 82.792968-60.277344-16.867187-12.277344-85.925781 62.554688v145.34375h20zm0 0" fill="#d4e1f4"/><path d="m40.488281 367.324219c1.265625 0 2.503907-.402344 3.527344-1.148438l28.542969-20.785156v142.609375c0 3.3125 2.6875 6 6 6h183.847656c3.3125 0 6-2.6875 6-6v-142.609375l28.546875 20.785156c1.730469 1.300781 4.027344 1.570313 6.015625.703125 1.984375-.871094 3.347656-2.742187 3.5625-4.898437.21875-2.15625-.746094-4.261719-2.515625-5.507813l-35.609375-25.921875v-28.949219c0-1.980468-.976562-3.832031-2.609375-4.953124l-29.191406-20c-1.839844-1.257813-4.21875-1.394532-6.191407-.355469-1.96875 1.039062-3.199218 3.082031-3.199218 5.308593v18.953126l-53.203125-38.730469c-2.101563-1.53125-4.957031-1.53125-7.0625 0l-130 94.648437c-2.101563 1.527344-2.976563 4.238282-2.171875 6.707032.804687 2.472656 3.109375 4.144531 5.710937 4.140624zm124.378907 114.675781h-28v-60.121094h28zm74.347656-189.015625 17.191406 11.78125v17.046875l-17.191406-12.511719zm-68.730469-18.882813 85.921875 62.554688v145.34375h-79.539062v-66.121094c0-3.3125-2.6875-6-6-6h-40c-3.316407 0-6 2.6875-6 6v66.121094h-40.308594v-145.34375zm0 0" fill="#0635c9"/><path d="m200.089844 418.65625h40c3.316406 0 6-2.6875 6-6v-30c0-3.316406-2.683594-6-6-6h-40c-3.3125 0-6 2.683594-6 6v30c0 3.3125 2.6875 6 6 6zm6-30h28v18h-28zm0 0" fill="#0635c9"/><g fill="#1ae5be"><path d="m176.277344 13.1875c3.3125 0 6-2.6875 6-6v-1.1875c0-3.3125-2.6875-6-6-6s-6 2.6875-6 6v1.1875c0 3.3125 2.6875 6 6 6zm0 0"/><path d="m176.277344 62.101562c3.3125 0 6-2.6875 6-6v-34.238281c0-3.316406-2.6875-6-6-6s-6 2.683594-6 6v34.238281c0 3.3125 2.6875 6 6 6zm0 0"/><path d="m176.277344 131.738281c3.3125 0 6-2.6875 6-6v-55.824219c0-3.3125-2.6875-6-6-6s-6 2.6875-6 6v55.824219c0 3.3125 2.6875 6 6 6zm0 0"/><path d="m206.320312 51.78125c3.316407 0 6-2.683594 6-6v-39.78125c0-3.3125-2.683593-6-6-6-3.3125 0-6 2.6875-6 6v39.78125c0 3.316406 2.6875 6 6 6zm0 0"/><path d="m206.320312 122.589844c3.316407 0 6-2.6875 6-6v-52.199219c0-3.316406-2.683593-6-6-6-3.3125 0-6 2.683594-6 6v52.199219c0 3.3125 2.6875 6 6 6zm0 0"/><path d="m148.226562 103.351562c3.3125 0 6-2.6875 6-6v-36.460937c0-3.3125-2.6875-6-6-6s-6 2.6875-6 6v36.460937c0 3.3125 2.6875 6 6 6zm0 0"/><path d="m148.226562 50.847656c3.3125 0 6-2.6875 6-6v-8.847656c0-3.3125-2.6875-6-6-6s-6 2.6875-6 6v8.847656c0 3.3125 2.6875 6 6 6zm0 0"/><path d="m173.484375 243.292969c2.414063 2.265625 6.210937 2.144531 8.480469-.269531l48.417968-51.585938c1.660157-1.769531 2.089844-4.363281 1.089844-6.574219-1-2.210937-3.230468-3.601562-5.65625-3.523437l-13.039062.414062-.453125-50.902344c-.027344-3.292968-2.707031-5.945312-6-5.945312h-.054688c-3.3125.027344-5.972656 2.738281-5.945312 6.054688l.511719 57.039062c.011718 1.617188.675781 3.15625 1.84375 4.277344 1.164062 1.117187 2.730468 1.71875 4.34375 1.667968l4.695312-.148437-34.398438 36.648437-36.648437-34.402343 7.742187-.246094c3.238282-.101563 5.8125-2.757813 5.8125-6v-73.65625c0-3.3125-2.6875-6-6-6-3.316406 0-6 2.6875-6 6v67.84375l-16.414062.519531c-2.425781.078125-4.566406 1.609375-5.421875 3.878906-.859375 2.269532-.261719 4.832032 1.507813 6.496094zm0 0"/><path d="m56.277344 52.789062c3.3125 0 6-2.683593 6-6v-30.789062c0-3.3125-2.6875-6-6-6s-6 2.6875-6 6v30.789062c0 3.316407 2.6875 6 6 6zm0 0"/><path d="m56.277344 102.1875c3.3125 0 6-2.6875 6-6v-27.1875c0-3.3125-2.6875-6-6-6s-6 2.6875-6 6v27.1875c0 3.3125 2.6875 6 6 6zm0 0"/><path d="m56.277344 126.863281c3.3125 0 6-2.6875 6-6v-8.761719c0-3.316406-2.6875-6-6-6s-6 2.683594-6 6v8.757813c-.003906 3.316406 2.683594 6.003906 6 6.003906zm0 0"/><path d="m86.320312 53.1875c3.316407 0 6-2.6875 6-6v-13.1875c0-3.3125-2.683593-6-6-6-3.3125 0-6 2.6875-6 6v13.1875c0 3.3125 2.6875 6 6 6zm0 0"/><path d="m86.320312 97.863281c3.316407 0 6-2.6875 6-6v-21.949219c0-3.3125-2.683593-6-6-6-3.3125 0-6 2.6875-6 6v21.949219c0 3.3125 2.6875 6 6 6zm0 0"/><path d="m86.320312 151.78125c3.316407 0 6-2.683594 6-6v-35.292969c0-3.3125-2.683593-6-6-6-3.3125 0-6 2.6875-6 6v35.292969c0 3.316406 2.6875 6 6 6zm0 0"/><path d="m28.226562 153.351562c3.3125 0 6-2.6875 6-6v-63.953124c0-3.3125-2.6875-6-6-6s-6 2.6875-6 6v63.953124c0 3.3125 2.6875 6 6 6zm0 0"/><path d="m28.226562 65.789062c3.3125 0 6-2.683593 6-6v-43.789062c0-3.3125-2.6875-6-6-6s-6 2.6875-6 6v43.789062c0 3.316407 2.6875 6 6 6zm0 0"/><path d="m28.226562 200.925781c3.3125 0 6-2.6875 6-6v-28.785156c0-3.3125-2.6875-6-6-6s-6 2.6875-6 6v28.785156c0 3.3125 2.6875 6 6 6zm0 0"/><path d="m111.472656 254.863281c-1-2.210937-3.234375-3.601562-5.660156-3.527343l-13.046875.414062-.445313-42.851562v-44.511719c0-3.3125-2.683593-6-6-6-3.3125 0-6 2.6875-6 6v44.574219l.511719 49.039062c.015625 1.613281.679688 3.152344 1.847657 4.269531 1.164062 1.117188 2.726562 1.71875 4.339843 1.667969l4.695313-.152344-34.398438 36.648438-36.648437-34.398438 7.742187-.246094c3.242188-.101562 5.8125-2.757812 5.8125-6v-48.714843c0-3.3125-2.6875-6-6-6s-6 2.6875-6 6v42.910156l-16.414062.519531c-2.425782.078125-4.566406 1.609375-5.421875 3.878906-.855469 2.269532-.261719 4.832032 1.507812 6.496094l51.589844 48.414063c2.414063 2.265625 6.210937 2.144531 8.480469-.269531l48.417968-51.585938c1.660157-1.769531 2.089844-4.363281 1.089844-6.574219zm0 0"/><path d="m285.234375 23.1875c3.3125 0 6-2.6875 6-6v-1.1875c0-3.3125-2.6875-6-6-6s-6 2.6875-6 6v1.1875c0 3.3125 2.6875 6 6 6zm0 0"/><path d="m285.234375 78.101562c3.3125 0 6-2.6875 6-6v-30.238281c0-3.316406-2.6875-6-6-6s-6 2.683594-6 6v30.238281c0 3.3125 2.6875 6 6 6zm0 0"/><path d="m285.234375 97.738281c3.3125 0 6-2.6875 6-6v-1.824219c0-3.3125-2.6875-6-6-6s-6 2.6875-6 6v1.824219c0 3.3125 2.6875 6 6 6zm0 0"/><path d="m315.28125 41.78125c3.316406 0 6-2.683594 6-6v-19.78125c0-3.3125-2.683594-6-6-6-3.3125 0-6 2.6875-6 6v19.78125c0 3.316406 2.6875 6 6 6zm0 0"/><path d="m315.28125 115.589844c3.316406 0 6-2.6875 6-6v-55.199219c0-3.316406-2.683594-6-6-6-3.3125 0-6 2.683594-6 6v55.199219c0 3.3125 2.6875 6 6 6zm0 0"/><path d="m257.183594 53.351562c3.3125 0 6-2.6875 6-6v-20.5625c0-3.3125-2.6875-6-6-6s-6 2.6875-6 6v20.5625c0 3.3125 2.6875 6 6 6zm0 0"/><path d="m257.183594 125.925781c3.3125 0 6-2.6875 6-6v-53.785156c0-3.3125-2.6875-6-6-6s-6 2.6875-6 6v53.785156c0 3.3125 2.6875 6 6 6zm0 0"/><path d="m334.773438 231.335938-13.015626.410156-.476562-100.875c-.011719-3.304688-2.695312-5.972656-6-5.972656h-.027344c-3.3125.015624-5.988281 2.714843-5.972656 6.027343l.511719 107.042969c.007812 1.621094.667969 3.167969 1.835937 4.292969 1.164063 1.121093 2.734375 1.726562 4.351563 1.675781l4.695312-.148438-34.398437 36.648438-36.648438-34.402344 7.742188-.246094c3.242187-.101562 5.8125-2.757812 5.8125-6v-98.714843c0-3.3125-2.6875-6-6-6s-6 2.6875-6 6v92.910156l-16.414063.519531c-2.425781.078125-4.566406 1.609375-5.421875 3.878906-.855468 2.269532-.261718 4.832032 1.507813 6.496094l51.585937 48.414063c2.414063 2.265625 6.210938 2.144531 8.480469-.269531l48.414063-51.585938c1.660156-1.769531 2.089843-4.363281 1.089843-6.574219-1-2.210937-3.230469-3.601562-5.65625-3.523437zm0 0"/></g></svg>