<svg width="210" height="24" viewBox="0 0 210 24" fill="none" xmlns="http://www.w3.org/2000/svg">
<g clip-path="url(#clip0_196_2)">
<path d="M33.3848 3.20996H41.9248C43.2139 3.20996 44.3311 3.34603 45.2764 3.61816C46.2217 3.88314 47.0059 4.26986 47.6289 4.77832C48.252 5.28678 48.7139 5.90625 49.0146 6.63672C49.3226 7.36719 49.4766 8.19434 49.4766 9.11816C49.4766 9.74121 49.4014 10.3356 49.251 10.9014C49.1006 11.46 48.8678 11.9756 48.5527 12.4482C48.2448 12.9209 47.8545 13.3434 47.3818 13.7158C46.9092 14.0811 46.3542 14.3854 45.7168 14.6289L49.3691 20H45.2012L42.043 15.2305H41.9463L36.79 15.2197V20H33.3848V3.20996ZM42.0107 12.2764C42.6553 12.2764 43.2174 12.2012 43.6973 12.0508C44.1842 11.9004 44.5889 11.6891 44.9111 11.417C45.2406 11.1449 45.484 10.8154 45.6416 10.4287C45.8063 10.0348 45.8887 9.59798 45.8887 9.11816C45.8887 8.18001 45.5664 7.45671 44.9219 6.94824C44.2773 6.43262 43.307 6.1748 42.0107 6.1748H36.79V12.2764H42.0107ZM60.1156 3.20996H74.4135V6.19629H63.5209V9.54785H73.1674V12.3516H63.5209V17.0244H74.6391V20H60.1156V3.20996ZM85.0203 3.20996H93.8719C95.1609 3.20996 96.2781 3.34961 97.2234 3.62891C98.1688 3.9082 98.9529 4.31283 99.576 4.84277C100.199 5.36556 100.661 6.00651 100.962 6.76562C101.27 7.52474 101.424 8.38053 101.424 9.33301C101.424 10.2282 101.273 11.0553 100.972 11.8145C100.672 12.5736 100.21 13.2324 99.5867 13.791C98.9708 14.3424 98.1902 14.7757 97.2449 15.0908C96.2996 15.3988 95.1824 15.5527 93.8934 15.5527L88.4256 15.542V20H85.0203V3.20996ZM93.9578 12.5986C94.6023 12.5986 95.1645 12.5234 95.6443 12.373C96.1313 12.2155 96.5359 11.9971 96.8582 11.7178C97.1876 11.4313 97.4311 11.0876 97.5887 10.6865C97.7534 10.2783 97.8357 9.82715 97.8357 9.33301C97.8357 8.33757 97.5099 7.56413 96.8582 7.0127C96.2137 6.4541 95.2469 6.1748 93.9578 6.1748H88.4256V12.5986H93.9578ZM110.763 11.5566C110.763 10.2891 110.996 9.12891 111.461 8.07617C111.927 7.02344 112.578 6.12109 113.416 5.36914C114.261 4.61003 115.271 4.02279 116.446 3.60742C117.627 3.19206 118.934 2.98438 120.366 2.98438C121.792 2.98438 123.095 3.19206 124.277 3.60742C125.458 4.02279 126.468 4.61003 127.306 5.36914C128.151 6.12109 128.806 7.02344 129.272 8.07617C129.737 9.12891 129.97 10.2891 129.97 11.5566C129.97 12.8314 129.737 14.0023 129.272 15.0693C128.806 16.1292 128.151 17.0423 127.306 17.8086C126.468 18.5749 125.458 19.1729 124.277 19.6025C123.095 20.0251 121.792 20.2363 120.366 20.2363C118.934 20.2363 117.627 20.0251 116.446 19.6025C115.271 19.1729 114.261 18.5749 113.416 17.8086C112.578 17.0423 111.927 16.1292 111.461 15.0693C110.996 14.0023 110.763 12.8314 110.763 11.5566ZM114.168 11.5566C114.168 12.4232 114.322 13.2038 114.63 13.8984C114.945 14.5931 115.378 15.1875 115.93 15.6816C116.488 16.1686 117.144 16.5446 117.896 16.8096C118.655 17.0745 119.478 17.207 120.366 17.207C121.254 17.207 122.074 17.0745 122.826 16.8096C123.585 16.5446 124.241 16.1686 124.792 15.6816C125.344 15.1875 125.777 14.5931 126.092 13.8984C126.407 13.2038 126.565 12.4232 126.565 11.5566C126.565 10.6901 126.407 9.91309 126.092 9.22559C125.777 8.53809 125.344 7.95801 124.792 7.48535C124.241 7.00553 123.585 6.6403 122.826 6.38965C122.074 6.139 121.254 6.01367 120.366 6.01367C119.478 6.01367 118.655 6.139 117.896 6.38965C117.144 6.6403 116.488 7.00553 115.93 7.48535C115.378 7.95801 114.945 8.53809 114.63 9.22559C114.322 9.91309 114.168 10.6901 114.168 11.5566ZM140.351 3.20996H148.891C150.18 3.20996 151.297 3.34603 152.243 3.61816C153.188 3.88314 153.972 4.26986 154.595 4.77832C155.218 5.28678 155.68 5.90625 155.981 6.63672C156.289 7.36719 156.443 8.19434 156.443 9.11816C156.443 9.74121 156.368 10.3356 156.217 10.9014C156.067 11.46 155.834 11.9756 155.519 12.4482C155.211 12.9209 154.821 13.3434 154.348 13.7158C153.876 14.0811 153.321 14.3854 152.683 14.6289L156.336 20H152.168L149.009 15.2305H148.913L143.756 15.2197V20H140.351V3.20996ZM148.977 12.2764C149.622 12.2764 150.184 12.2012 150.664 12.0508C151.151 11.9004 151.555 11.6891 151.878 11.417C152.207 11.1449 152.45 10.8154 152.608 10.4287C152.773 10.0348 152.855 9.59798 152.855 9.11816C152.855 8.18001 152.533 7.45671 151.888 6.94824C151.244 6.43262 150.273 6.1748 148.977 6.1748H143.756V12.2764H148.977ZM172.142 6.19629H165.943V3.20996H181.745V6.19629H175.547V20H172.142V6.19629ZM191.987 3.20996H200.527C201.816 3.20996 202.933 3.34603 203.878 3.61816C204.824 3.88314 205.608 4.26986 206.231 4.77832C206.854 5.28678 207.316 5.90625 207.617 6.63672C207.925 7.36719 208.079 8.19434 208.079 9.11816C208.079 9.74121 208.003 10.3356 207.853 10.9014C207.703 11.46 207.47 11.9756 207.155 12.4482C206.847 12.9209 206.456 13.3434 205.984 13.7158C205.511 14.0811 204.956 14.3854 204.319 14.6289L207.971 20H203.803L200.645 15.2305H200.548L195.392 15.2197V20H191.987V3.20996ZM200.613 12.2764C201.257 12.2764 201.819 12.2012 202.299 12.0508C202.786 11.9004 203.191 11.6891 203.513 11.417C203.843 11.1449 204.086 10.8154 204.244 10.4287C204.408 10.0348 204.491 9.59798 204.491 9.11816C204.491 8.18001 204.168 7.45671 203.524 6.94824C202.879 6.43262 201.909 6.1748 200.613 6.1748H195.392V12.2764H200.613Z" fill="white"/>
<path d="M14.7332 13.6909L12.3334 11.7273V7.72731C12.3334 7.32513 12.0354 7.00003 11.6668 7.00003C11.2981 7.00003 11.0001 7.32513 11.0001 7.72731V12.0909C11.0001 12.32 11.0988 12.536 11.2668 12.6728L13.9332 14.8546C14.0532 14.9528 14.1932 15 14.3325 15C14.5358 15 14.7358 14.9004 14.8665 14.7084C15.0879 14.3876 15.0279 13.9316 14.7332 13.6909Z" fill="#FAAF40"/>
<path d="M12 3C7.0371 3 3 7.0371 3 12C3 16.9629 7.0371 21 12 21C16.9629 21 21 16.9629 21 12C21 7.0371 16.9629 3 12 3ZM12 19.6057C7.80674 19.6057 4.39426 16.1933 4.39426 12C4.39426 7.80674 7.80674 4.39426 12 4.39426C16.194 4.39426 19.6057 7.80674 19.6057 12C19.6057 16.1933 16.1933 19.6057 12 19.6057Z" fill="#FAAF40"/>
<path d="M12 2C6.48566 2 2 6.48566 2 12C2 17.5143 6.48566 22 12 22C17.5143 22 22 17.5143 22 12C22 6.48566 17.5143 2 12 2ZM12 20.4508C7.34082 20.4508 3.54918 16.6592 3.54918 12C3.54918 7.34082 7.34082 3.54918 12 3.54918C16.66 3.54918 20.4508 7.34082 20.4508 12C20.4508 16.6592 16.6592 20.4508 12 20.4508Z" fill="#FAAF40"/>
</g>
<defs>
<clipPath id="clip0_196_2">
<rect width="210" height="24" fill="white"/>
</clipPath>
</defs>
</svg>
