<svg width="100" height="100" viewBox="0 0 100 100" fill="none" xmlns="http://www.w3.org/2000/svg">
<circle cx="50" cy="50" r="20" fill="#FFD290"/>
<g clip-path="url(#clip0_198_148)">
<path d="M96.562 6.91606e-07H89.7772C88.9682 6.91606e-07 88.3124 0.65586 88.3124 1.46484C88.3124 2.27383 88.9682 2.92969 89.7772 2.92969H96.562C96.8422 2.92969 97.0702 3.15762 97.0702 3.43789V27.6217H89.4544C87.6702 27.6217 86.2188 29.0732 86.2188 30.8572V31.0467C86.2188 31.9064 86.5614 32.7244 87.1835 33.3502C87.8336 34.0041 88.1919 34.8721 88.1919 35.7943C88.1919 36.7791 87.7708 37.7209 87.0366 38.3785C86.2926 39.0449 85.3296 39.3508 84.3237 39.2398C82.7538 39.0664 81.4754 37.8043 81.284 36.2387C81.1528 35.1645 81.5089 34.1129 82.2618 33.3535C82.886 32.7234 83.2297 31.9039 83.2297 31.0457V30.857C83.2297 29.0729 81.7782 27.6215 79.9942 27.6215H72.3784V20.0059C72.3784 19.8371 72.5157 19.7 72.6842 19.7H72.8729C72.9524 19.7 73.042 19.7436 73.1182 19.8191C74.5182 21.207 76.4508 21.865 78.4213 21.624C81.3208 21.2695 83.6581 18.9035 83.9788 15.998C84.1796 14.1803 83.5999 12.3619 82.3879 11.009C81.1754 9.65508 79.438 8.87852 77.6213 8.87852C75.9198 8.87852 74.318 9.53926 73.1116 10.7389C73.0692 10.7809 72.9821 10.8516 72.8735 10.8516H72.684C72.5153 10.8516 72.3782 10.7143 72.3782 10.5457V2.92969H82.9344C83.7434 2.92969 84.3993 2.27383 84.3993 1.46484C84.3993 0.65586 83.7434 6.91606e-07 82.9344 6.91606e-07H70.9133C70.1044 6.91606e-07 69.4485 0.65586 69.4485 1.46484V10.5455C69.4485 12.3297 70.9001 13.7811 72.684 13.7811H72.8735C73.7333 13.7811 74.5512 13.4385 75.177 12.8164C75.8309 12.1662 76.6989 11.808 77.6213 11.808C78.6061 11.808 79.5479 12.2291 80.2055 12.9635C80.8719 13.7074 81.1778 14.6709 81.0667 15.6764C80.8932 17.2463 79.6311 18.5246 78.0655 18.716C76.9917 18.8473 75.9397 18.4912 75.1805 17.7385C74.5506 17.1143 73.7311 16.7703 72.8727 16.7703H72.684C70.8999 16.7703 69.4485 18.2219 69.4485 20.0059V29.0865C69.4485 29.8955 70.1044 30.5514 70.9133 30.5514H79.994C80.1628 30.5514 80.2999 30.6887 80.2999 30.8572V31.0459C80.2999 31.1256 80.2563 31.215 80.1807 31.2914C78.7928 32.6914 78.1348 34.6244 78.3758 36.5945C78.7303 39.4939 81.0963 41.8312 84.0018 42.152C84.2385 42.1781 84.4751 42.191 84.7108 42.191C86.2852 42.191 87.8141 41.615 88.9909 40.5611C90.3448 39.3484 91.1213 37.6111 91.1213 35.7945C91.1213 34.093 90.4606 32.4914 89.261 31.2848C89.219 31.2424 89.1483 31.1553 89.1483 31.0467V30.8572C89.1483 30.6885 89.2856 30.5514 89.4542 30.5514H98.535C99.344 30.5514 99.9999 29.8955 99.9999 29.0865V3.43789C99.9999 1.54219 98.4577 6.91606e-07 96.562 6.91606e-07Z" fill="url(#paint0_linear_198_148)"/>
<path d="M98.535 69.4485H89.4544C87.6702 69.4485 86.2188 70.9001 86.2188 72.684V72.8735C86.2188 73.7333 86.5614 74.5512 87.1835 75.177C87.8337 75.8309 88.1919 76.6989 88.1919 77.6213C88.1919 78.6061 87.7708 79.5479 87.0364 80.2055C86.2925 80.8719 85.3292 81.1776 84.3235 81.0667C82.7536 80.8932 81.4753 79.6311 81.2839 78.0657C81.1526 76.9915 81.5087 75.9399 82.2614 75.1807C82.8856 74.5508 83.2296 73.7313 83.2296 72.8729V72.6842C83.2296 70.9001 81.778 69.4487 79.994 69.4487H70.9134C70.1044 69.4487 69.4485 70.1046 69.4485 70.9135V79.9942C69.4485 80.1629 69.3112 80.3001 69.1427 80.3001H68.954C68.8743 80.3001 68.7849 80.2565 68.7085 80.1809C67.3085 78.793 65.3759 78.1352 63.4054 78.376C60.5059 78.7305 58.1686 81.0965 57.8479 84.002C57.6472 85.8198 58.227 87.6381 59.4388 88.9911C60.6515 90.345 62.3888 91.1215 64.2054 91.1215C65.9069 91.1215 67.5085 90.4608 68.7151 89.2612C68.7575 89.2192 68.8446 89.1485 68.9532 89.1485H69.4487V98.535C69.4487 99.344 70.1046 99.9999 70.9136 99.9999H96.5622C98.4579 99.9999 100 98.4577 100 96.562V70.9133C99.9999 70.1044 99.344 69.4485 98.535 69.4485ZM97.0702 96.562C97.0702 96.8422 96.8423 97.0702 96.562 97.0702H72.3782V87.6837C72.3782 86.8747 71.7223 86.2188 70.9134 86.2188H68.953C68.0933 86.2188 67.2753 86.5614 66.6495 87.1835C65.9956 87.8336 65.1276 88.1919 64.2054 88.1919C63.2206 88.1919 62.2788 87.7708 61.6212 87.0366C60.9548 86.2924 60.6489 85.329 60.7598 84.3237C60.9333 82.7538 62.1954 81.4754 63.761 81.284C64.8345 81.1528 65.8868 81.5089 66.6462 82.2618C67.2763 82.886 68.0958 83.2297 68.954 83.2297H69.1427C70.9268 83.2297 72.3782 81.7782 72.3782 79.9942V72.3784H79.994C80.1628 72.3784 80.2999 72.5157 80.2999 72.6842V72.8729C80.2999 72.9524 80.2563 73.042 80.1807 73.1182C78.7929 74.5182 78.1348 76.4512 78.3759 78.4213C78.7304 81.3208 81.0964 83.6581 84.0018 83.9788C85.8194 84.1792 87.638 83.5999 88.9909 82.3879C90.3448 81.1754 91.1214 79.438 91.1214 77.6213C91.1214 75.9198 90.4606 74.318 89.261 73.1116C89.219 73.0692 89.1483 72.9821 89.1483 72.8735V72.684C89.1483 72.5153 89.2856 72.3782 89.4542 72.3782H97.0702V96.562Z" fill="url(#paint1_linear_198_148)"/>
<path d="M29.0865 69.4485H20.0059C19.8371 69.4485 19.7 69.3112 19.7 69.1427V68.954C19.7 68.8743 19.7436 68.7849 19.8191 68.7085C21.2072 67.3083 21.865 65.3755 21.624 63.4054C21.2695 60.5059 18.9033 58.1686 15.998 57.8479C14.1799 57.6468 12.3619 58.227 11.009 59.4388C9.65508 60.6515 8.87852 62.3888 8.87852 64.2054C8.87852 65.9069 9.53926 67.5085 10.7389 68.7151C10.7809 68.7575 10.8516 68.8446 10.8516 68.9532V69.1427C10.8516 69.3114 10.7143 69.4485 10.5457 69.4485H1.46484C0.65586 69.4485 6.91606e-07 70.1044 6.91606e-07 70.9134V96.562C6.91606e-07 98.4577 1.54219 99.9999 3.43789 99.9999H6.69238C7.50137 99.9999 8.15723 99.344 8.15723 98.535C8.15723 97.7261 7.50137 97.0702 6.69238 97.0702H3.43789C3.15762 97.0702 2.92969 96.8423 2.92969 96.562V72.3782H10.5455C12.3297 72.3782 13.7811 70.9266 13.7811 69.1427V68.9532C13.7811 68.0934 13.4385 67.2755 12.8164 66.6497C12.1662 65.9958 11.808 65.1278 11.808 64.2056C11.808 63.2208 12.2291 62.279 12.9633 61.6214C13.7072 60.955 14.6703 60.6493 15.6762 60.76C17.2459 60.9335 18.5244 62.1956 18.7158 63.7612C18.8473 64.8354 18.491 65.887 17.7381 66.6464C17.1139 67.2765 16.7701 68.096 16.7701 68.9542V69.1429C16.7701 70.927 18.2217 72.3784 20.0057 72.3784H27.6215V79.9934C27.6215 80.1626 27.4838 80.3001 27.3148 80.3001H27.127C27.0475 80.3001 26.9578 80.2565 26.8814 80.1809C25.4812 78.793 23.5482 78.1348 21.5783 78.3763C18.6789 78.7307 16.3418 81.097 16.0211 84.0022C15.8203 85.82 16.4 87.6384 17.6119 88.9913C18.8244 90.3452 20.5619 91.1218 22.3785 91.1218C24.0801 91.1218 25.6818 90.461 26.8883 89.2614C26.9307 89.2194 27.0178 89.1487 27.1264 89.1487H27.315C27.4842 89.1487 27.6217 89.2864 27.6217 89.4554V97.0702H13.5324C12.7234 97.0702 12.0676 97.7261 12.0676 98.535C12.0676 99.344 12.7234 99.9999 13.5324 99.9999H29.0865C29.8955 99.9999 30.5514 99.344 30.5514 98.535V89.4552C30.5514 87.6706 29.0994 86.2188 27.315 86.2188H27.1264C26.2666 86.2188 25.4486 86.5614 24.8229 87.1835C24.1689 87.8337 23.301 88.1919 22.3785 88.1919C21.3938 88.1919 20.452 87.7708 19.7943 87.0364C19.1279 86.2925 18.8221 85.329 18.9332 84.3235C19.1066 82.7538 20.3688 81.4753 21.9344 81.2839C23.0078 81.1526 24.06 81.5087 24.8193 82.2614C25.4492 82.8856 26.2688 83.2296 27.1271 83.2296H27.315C29.0996 83.2296 30.5514 81.7778 30.5514 79.9932V70.9134C30.5514 70.1044 29.8955 69.4485 29.0865 69.4485Z" fill="url(#paint2_linear_198_148)"/>
<path d="M1.46484 30.5514H10.5455C12.3297 30.5514 13.7811 29.0998 13.7811 27.3158V27.1264C13.7811 26.2666 13.4385 25.4486 12.8164 24.8229C12.1662 24.1689 11.808 23.301 11.808 22.3785C11.808 21.3938 12.2291 20.452 12.9635 19.7943C13.7074 19.1279 14.6717 18.8225 15.6764 18.9332C17.2463 19.1066 18.5246 20.3687 18.716 21.9342C18.8473 23.0084 18.4912 24.06 17.7385 24.8191C17.1143 25.449 16.7703 26.2686 16.7703 27.127V27.3156C16.7703 29.0998 18.2219 30.5512 20.0059 30.5512H29.0865C29.8955 30.5512 30.5514 29.8953 30.5514 29.0863V20.0059C30.5514 19.8371 30.6887 19.7 30.8572 19.7H31.0459C31.1256 19.7 31.215 19.7436 31.2914 19.8191C32.6914 21.207 34.6236 21.8646 36.5945 21.624C39.4939 21.2695 41.8312 18.9035 42.152 15.998C42.3527 14.1803 41.7729 12.3619 40.5611 11.009C39.3484 9.65508 37.6111 8.87852 35.7945 8.87852C34.093 8.87852 32.4914 9.53926 31.2848 10.7389C31.2424 10.7809 31.1553 10.8516 31.0467 10.8516H30.8572C30.6885 10.8516 30.5514 10.7143 30.5514 10.5457V1.46484C30.5514 0.655859 29.8955 0 29.0865 0H3.43789C1.54219 0 0 1.54219 0 3.43789V29.0865C0 29.8955 0.655859 30.5514 1.46484 30.5514ZM2.92969 3.43789C2.92969 3.15762 3.15762 2.92969 3.43789 2.92969H27.6217V10.5455C27.6217 12.3297 29.0732 13.7811 30.8572 13.7811H31.0467C31.9064 13.7811 32.7244 13.4385 33.3502 12.8164C34.0041 12.1662 34.8721 11.808 35.7943 11.808C36.7791 11.808 37.7209 12.2291 38.3785 12.9633C39.0449 13.7074 39.3508 14.6709 39.2398 15.6762C39.0664 17.2461 37.8043 18.5244 36.2387 18.7158C35.165 18.8471 34.1131 18.491 33.3535 17.7381C32.7234 17.1139 31.9039 16.7701 31.0457 16.7701H30.857C29.0729 16.7701 27.6215 18.2217 27.6215 20.0057V27.6215H20.0059C19.8371 27.6215 19.7 27.4842 19.7 27.3156V27.127C19.7 27.0475 19.7436 26.9578 19.8191 26.8816C21.207 25.4816 21.865 23.5486 21.624 21.5785C21.2695 18.6791 18.9035 16.3418 15.998 16.0211C14.1807 15.8203 12.3619 16.4 11.009 17.6119C9.65508 18.8244 8.87852 20.5619 8.87852 22.3785C8.87852 24.0801 9.53926 25.6818 10.7389 26.8883C10.7809 26.9307 10.8516 27.0178 10.8516 27.1264V27.3158C10.8516 27.4846 10.7143 27.6217 10.5457 27.6217H2.92969V3.43789Z" fill="url(#paint3_linear_198_148)"/>
<path d="M46.638 16.9379H47.8099C48.6189 16.9379 49.2747 16.282 49.2747 15.473C49.2747 14.664 48.6189 14.0082 47.8099 14.0082H46.638C45.829 14.0082 45.1732 14.664 45.1732 15.473C45.1732 16.282 45.829 16.9379 46.638 16.9379Z" fill="url(#paint4_linear_198_148)"/>
<path d="M54.3638 16.9379H57.2767C58.0856 16.9379 58.7415 16.282 58.7415 15.473C58.7415 14.664 58.0856 14.0082 57.2767 14.0082H54.3638C53.5548 14.0082 52.8989 14.664 52.8989 15.473C52.8989 16.282 53.5548 16.9379 54.3638 16.9379Z" fill="url(#paint5_linear_198_148)"/>
<path d="M63.8305 16.9379H65.0024C65.8114 16.9379 66.4673 16.282 66.4673 15.473C66.4673 14.664 65.8114 14.0082 65.0024 14.0082H63.8305C63.0216 14.0082 62.3657 14.664 62.3657 15.473C62.3657 16.282 63.0216 16.9379 63.8305 16.9379Z" fill="url(#paint6_linear_198_148)"/>
<path d="M84.5268 49.2747C85.3358 49.2747 85.9916 48.6189 85.9916 47.8099V46.638C85.9916 45.829 85.3358 45.1732 84.5268 45.1732C83.7178 45.1732 83.062 45.829 83.062 46.638V47.8099C83.062 48.6189 83.7178 49.2747 84.5268 49.2747Z" fill="url(#paint7_linear_198_148)"/>
<path d="M83.062 57.2767C83.062 58.0856 83.7178 58.7415 84.5268 58.7415C85.3358 58.7415 85.9916 58.0856 85.9916 57.2767V54.3638C85.9916 53.5548 85.3358 52.8989 84.5268 52.8989C83.7178 52.8989 83.062 53.5548 83.062 54.3638V57.2767Z" fill="url(#paint8_linear_198_148)"/>
<path d="M83.062 65.0024C83.062 65.8114 83.7178 66.4673 84.5268 66.4673C85.3358 66.4673 85.9916 65.8114 85.9916 65.0024V63.8305C85.9916 63.0216 85.3358 62.3657 84.5268 62.3657C83.7178 62.3657 83.062 63.0216 83.062 63.8305V65.0024Z" fill="url(#paint9_linear_198_148)"/>
<path d="M53.3618 83.062H52.1899C51.381 83.062 50.7251 83.7178 50.7251 84.5268C50.7251 85.3358 51.381 85.9916 52.1899 85.9916H53.3618C54.1708 85.9916 54.8267 85.3358 54.8267 84.5268C54.8267 83.7178 54.1708 83.062 53.3618 83.062Z" fill="url(#paint10_linear_198_148)"/>
<path d="M45.6361 83.062H42.7232C41.9142 83.062 41.2583 83.7178 41.2583 84.5268C41.2583 85.3358 41.9142 85.9916 42.7232 85.9916H45.6361C46.445 85.9916 47.1009 85.3358 47.1009 84.5268C47.1009 83.7178 46.445 83.062 45.6361 83.062Z" fill="url(#paint11_linear_198_148)"/>
<path d="M36.1693 83.062H34.9974C34.1884 83.062 33.5326 83.7178 33.5326 84.5268C33.5326 85.3358 34.1884 85.9916 34.9974 85.9916H36.1693C36.9783 85.9916 37.6341 85.3358 37.6341 84.5268C37.6341 83.7178 36.9783 83.062 36.1693 83.062Z" fill="url(#paint12_linear_198_148)"/>
<path d="M15.473 50.7251C14.664 50.7251 14.0082 51.381 14.0082 52.1899V53.3618C14.0082 54.1708 14.664 54.8267 15.473 54.8267C16.282 54.8267 16.9379 54.1708 16.9379 53.3618V52.1899C16.9379 51.381 16.282 50.7251 15.473 50.7251Z" fill="url(#paint13_linear_198_148)"/>
<path d="M16.9379 42.7232C16.9379 41.9142 16.282 41.2583 15.473 41.2583C14.664 41.2583 14.0082 41.9142 14.0082 42.7232V45.6361C14.0082 46.445 14.664 47.1009 15.473 47.1009C16.282 47.1009 16.9379 46.445 16.9379 45.6361V42.7232Z" fill="url(#paint14_linear_198_148)"/>
<path d="M16.9379 34.9974C16.9379 34.1884 16.282 33.5326 15.473 33.5326C14.664 33.5326 14.0082 34.1884 14.0082 34.9974V36.1693C14.0082 36.9783 14.664 37.6341 15.473 37.6341C16.282 37.6341 16.9379 36.9783 16.9379 36.1693V34.9974Z" fill="url(#paint15_linear_198_148)"/>
<path d="M61.0261 63.8412L64.1148 65.6244C64.9365 66.0988 65.8933 66.2246 66.8101 65.979C67.7265 65.7335 68.4925 65.1457 68.9667 64.3242L71.8886 59.2634C72.363 58.4417 72.489 57.4845 72.2435 56.5681C71.998 55.6517 71.4101 54.8857 70.5886 54.4115L67.5017 52.6292C67.2953 52.5101 67.181 52.2685 67.2107 52.0136C67.2876 51.349 67.3267 50.6714 67.3267 49.9999C67.3267 49.3285 67.2876 48.6509 67.2107 47.9859C67.1812 47.7314 67.2955 47.4898 67.5017 47.3707L70.5886 45.5884C71.4103 45.114 71.998 44.3482 72.2435 43.4318C72.489 42.5154 72.363 41.5582 71.8886 40.7365L68.9667 35.6755C68.4923 34.8539 67.7265 34.2662 66.8101 34.0207C65.8939 33.7751 64.9365 33.9011 64.1148 34.3753L61.0261 36.1585C60.8183 36.2785 60.5501 36.2564 60.3433 36.1021C59.2691 35.3017 58.1025 34.6269 56.8757 34.096C56.6316 33.9904 56.474 33.7619 56.474 33.5138V29.9636C56.474 28.005 54.8806 26.4117 52.922 26.4117H47.0783C45.1197 26.4117 43.5263 28.005 43.5263 29.9636V33.5138C43.5263 33.7619 43.3685 33.9904 43.1246 34.096C41.8978 34.6267 40.731 35.3017 39.6568 36.1021C39.4499 36.2562 39.182 36.2783 38.974 36.1583L35.8853 34.3751C35.0636 33.9007 34.1066 33.7746 33.19 34.0205C32.2736 34.266 31.5076 34.8539 31.0333 35.6753L28.1115 40.7361C27.6371 41.5578 27.5111 42.515 27.7566 43.4314C28.0021 44.3478 28.59 45.1138 29.4115 45.588L32.4984 47.3703C32.7048 47.4894 32.8191 47.731 32.7894 47.9859C32.7124 48.6505 32.6734 49.3281 32.6734 49.9996C32.6734 50.671 32.7124 51.3486 32.7894 52.0136C32.8189 52.2681 32.7046 52.5097 32.4984 52.6289L29.4115 54.4111C28.5898 54.8855 28.0021 55.6513 27.7566 56.5677C27.5111 57.4841 27.6371 58.4414 28.1115 59.263L31.0333 64.324C31.5078 65.1457 32.2736 65.7334 33.19 65.9789C34.1064 66.2244 35.0636 66.0984 35.8853 65.6242L38.974 63.841C39.1816 63.721 39.4499 63.7431 39.6568 63.8974C40.731 64.6978 41.8976 65.3726 43.1244 65.9035C43.3685 66.0091 43.5261 66.2376 43.5261 66.4857V70.0359C43.5261 71.9945 45.1195 73.5878 47.0781 73.5878H52.9218C54.8804 73.5878 56.4738 71.9945 56.4738 70.0359V66.4857C56.4738 66.2376 56.6316 66.0091 56.8755 65.9035C58.1023 65.3728 59.2691 64.6978 60.3433 63.8974C60.5503 63.7435 60.8183 63.7212 61.0261 63.8412ZM55.7122 63.2148C54.3951 63.7845 53.5441 65.0685 53.5441 66.4859V70.0361C53.5441 70.3792 53.265 70.6583 52.9218 70.6583H47.0781C46.7349 70.6583 46.4558 70.3792 46.4558 70.0361V66.4859C46.4558 65.0687 45.6048 63.7847 44.2876 63.2148C43.2687 62.774 42.2996 62.2132 41.4072 61.5484C40.7718 61.0748 40.0183 60.8345 39.2648 60.8345C38.6593 60.8345 38.0535 60.9898 37.5091 61.3041L34.4205 63.0872C34.2261 63.1994 34.0414 63.1744 33.9484 63.1494C33.8554 63.1246 33.6828 63.0537 33.5705 62.8595L30.6486 57.7986C30.5365 57.6044 30.5615 57.4195 30.5865 57.3265C30.6115 57.2335 30.6822 57.0609 30.8763 56.9486L33.9634 55.1664C35.1826 54.4624 35.864 53.0923 35.6998 51.6765C35.6357 51.1234 35.6033 50.5593 35.6033 49.9999C35.6033 49.4406 35.6359 48.8765 35.6998 48.3236C35.864 46.9076 35.1826 45.5374 33.9634 44.8335L30.8765 43.0513C30.6824 42.9392 30.6115 42.7665 30.5867 42.6734C30.5619 42.5802 30.5367 42.3955 30.6488 42.2013L33.5707 37.1404C33.6828 36.946 33.8554 36.8753 33.9486 36.8505C34.0417 36.8255 34.2265 36.8005 34.4207 36.9126L37.5093 38.6958C38.7314 39.4015 40.2615 39.3056 41.4074 38.4517C42.2998 37.7869 43.2691 37.2261 44.288 36.7853C45.6052 36.2156 46.4562 34.9316 46.4562 33.5142V29.964C46.4562 29.6208 46.7353 29.3417 47.0785 29.3417H52.9222C53.2654 29.3417 53.5445 29.6208 53.5445 29.964V33.5142C53.5445 34.9314 54.3955 36.2154 55.7126 36.7853C56.7316 37.2261 57.7007 37.7869 58.5931 38.4517C59.7392 39.3058 61.2693 39.4017 62.4912 38.696L65.5798 36.9128C65.7742 36.8007 65.9589 36.8257 66.0519 36.8507C66.1449 36.8755 66.3175 36.9464 66.4298 37.1406L69.3517 42.2015C69.4638 42.3957 69.4388 42.5806 69.4138 42.6736C69.3888 42.7666 69.3181 42.9392 69.124 43.0515L66.0369 44.8337C64.8177 45.5376 64.1363 46.9078 64.3005 48.3236C64.3646 48.8767 64.397 49.4408 64.397 50.0001C64.397 50.5595 64.3644 51.1236 64.3005 51.6765C64.1363 53.0925 64.8177 54.4626 66.0369 55.1665L69.1238 56.9488C69.3179 57.0609 69.3888 57.2335 69.4136 57.3267C69.4384 57.4199 69.4636 57.6046 69.3515 57.7988L66.4296 62.8597C66.3175 63.0541 66.1449 63.1248 66.0517 63.1496C65.9585 63.1746 65.7738 63.1996 65.5796 63.0874L62.491 61.3042C61.2691 60.5986 59.7388 60.6945 58.5929 61.5484C57.7003 62.2132 56.7312 62.7738 55.7122 63.2148Z" fill="url(#paint16_linear_198_148)"/>
<path d="M49.9999 44.7226C47.09 44.7226 44.7226 47.09 44.7226 49.9999C44.7226 52.9099 47.09 55.2773 49.9999 55.2773C52.9099 55.2773 55.2773 52.9099 55.2773 49.9999C55.2773 47.09 52.9099 44.7226 49.9999 44.7226ZM49.9999 52.3476C48.7054 52.3476 47.6523 51.2944 47.6523 49.9999C47.6523 48.7054 48.7054 47.6523 49.9999 47.6523C51.2944 47.6523 52.3476 48.7054 52.3476 49.9999C52.3476 51.2944 51.2944 52.3476 49.9999 52.3476Z" fill="url(#paint17_linear_198_148)"/>
<path d="M49.9999 38.6702C43.7527 38.6702 38.6702 43.7527 38.6702 49.9999C38.6702 56.2472 43.7527 61.3296 49.9999 61.3296C56.2472 61.3296 61.3296 56.2472 61.3296 49.9999C61.3296 43.7527 56.2472 38.6702 49.9999 38.6702ZM49.9999 58.3999C45.3681 58.3999 41.5999 54.6318 41.5999 49.9999C41.5999 45.3681 45.3681 41.5999 49.9999 41.5999C54.6318 41.5999 58.3999 45.3681 58.3999 49.9999C58.3999 54.6318 54.6318 58.3999 49.9999 58.3999Z" fill="url(#paint18_linear_198_148)"/>
</g>
<defs>
<linearGradient id="paint0_linear_198_148" x1="-17" y1="-21.5" x2="110.5" y2="109.5" gradientUnits="userSpaceOnUse">
<stop stop-color="#213ED7"/>
<stop offset="1" stop-color="#111543"/>
</linearGradient>
<linearGradient id="paint1_linear_198_148" x1="-17" y1="-21.5" x2="110.5" y2="109.5" gradientUnits="userSpaceOnUse">
<stop stop-color="#213ED7"/>
<stop offset="1" stop-color="#111543"/>
</linearGradient>
<linearGradient id="paint2_linear_198_148" x1="-17" y1="-21.5" x2="110.5" y2="109.5" gradientUnits="userSpaceOnUse">
<stop stop-color="#213ED7"/>
<stop offset="1" stop-color="#111543"/>
</linearGradient>
<linearGradient id="paint3_linear_198_148" x1="-17" y1="-21.5" x2="110.5" y2="109.5" gradientUnits="userSpaceOnUse">
<stop stop-color="#213ED7"/>
<stop offset="1" stop-color="#111543"/>
</linearGradient>
<linearGradient id="paint4_linear_198_148" x1="-17" y1="-21.5" x2="110.5" y2="109.5" gradientUnits="userSpaceOnUse">
<stop stop-color="#213ED7"/>
<stop offset="1" stop-color="#111543"/>
</linearGradient>
<linearGradient id="paint5_linear_198_148" x1="-17" y1="-21.5" x2="110.5" y2="109.5" gradientUnits="userSpaceOnUse">
<stop stop-color="#213ED7"/>
<stop offset="1" stop-color="#111543"/>
</linearGradient>
<linearGradient id="paint6_linear_198_148" x1="-17" y1="-21.5" x2="110.5" y2="109.5" gradientUnits="userSpaceOnUse">
<stop stop-color="#213ED7"/>
<stop offset="1" stop-color="#111543"/>
</linearGradient>
<linearGradient id="paint7_linear_198_148" x1="-17" y1="-21.5" x2="110.5" y2="109.5" gradientUnits="userSpaceOnUse">
<stop stop-color="#213ED7"/>
<stop offset="1" stop-color="#111543"/>
</linearGradient>
<linearGradient id="paint8_linear_198_148" x1="-17" y1="-21.5" x2="110.5" y2="109.5" gradientUnits="userSpaceOnUse">
<stop stop-color="#213ED7"/>
<stop offset="1" stop-color="#111543"/>
</linearGradient>
<linearGradient id="paint9_linear_198_148" x1="-17" y1="-21.5" x2="110.5" y2="109.5" gradientUnits="userSpaceOnUse">
<stop stop-color="#213ED7"/>
<stop offset="1" stop-color="#111543"/>
</linearGradient>
<linearGradient id="paint10_linear_198_148" x1="-17" y1="-21.5" x2="110.5" y2="109.5" gradientUnits="userSpaceOnUse">
<stop stop-color="#213ED7"/>
<stop offset="1" stop-color="#111543"/>
</linearGradient>
<linearGradient id="paint11_linear_198_148" x1="-17" y1="-21.5" x2="110.5" y2="109.5" gradientUnits="userSpaceOnUse">
<stop stop-color="#213ED7"/>
<stop offset="1" stop-color="#111543"/>
</linearGradient>
<linearGradient id="paint12_linear_198_148" x1="-17" y1="-21.5" x2="110.5" y2="109.5" gradientUnits="userSpaceOnUse">
<stop stop-color="#213ED7"/>
<stop offset="1" stop-color="#111543"/>
</linearGradient>
<linearGradient id="paint13_linear_198_148" x1="-17" y1="-21.5" x2="110.5" y2="109.5" gradientUnits="userSpaceOnUse">
<stop stop-color="#213ED7"/>
<stop offset="1" stop-color="#111543"/>
</linearGradient>
<linearGradient id="paint14_linear_198_148" x1="-17" y1="-21.5" x2="110.5" y2="109.5" gradientUnits="userSpaceOnUse">
<stop stop-color="#213ED7"/>
<stop offset="1" stop-color="#111543"/>
</linearGradient>
<linearGradient id="paint15_linear_198_148" x1="-17" y1="-21.5" x2="110.5" y2="109.5" gradientUnits="userSpaceOnUse">
<stop stop-color="#213ED7"/>
<stop offset="1" stop-color="#111543"/>
</linearGradient>
<linearGradient id="paint16_linear_198_148" x1="-17" y1="-21.5" x2="110.5" y2="109.5" gradientUnits="userSpaceOnUse">
<stop stop-color="#213ED7"/>
<stop offset="1" stop-color="#111543"/>
</linearGradient>
<linearGradient id="paint17_linear_198_148" x1="-17" y1="-21.5" x2="110.5" y2="109.5" gradientUnits="userSpaceOnUse">
<stop stop-color="#213ED7"/>
<stop offset="1" stop-color="#111543"/>
</linearGradient>
<linearGradient id="paint18_linear_198_148" x1="-17" y1="-21.5" x2="110.5" y2="109.5" gradientUnits="userSpaceOnUse">
<stop stop-color="#213ED7"/>
<stop offset="1" stop-color="#111543"/>
</linearGradient>
<clipPath id="clip0_198_148">
<rect width="100" height="100" fill="white"/>
</clipPath>
</defs>
</svg>
