<svg width="114" height="114" viewBox="0 0 114 114" fill="none" xmlns="http://www.w3.org/2000/svg">
<g clip-path="url(#clip0_172_101)">
<path d="M111.499 29.594C110.187 24.717 106.342 20.8727 101.466 19.5595C92.5569 17.1214 56.9214 17.1214 56.9214 17.1214C56.9214 17.1214 21.2868 17.1214 12.3779 19.4665C7.5956 20.7789 3.65666 24.7179 2.34426 29.594C0 38.502 0 56.9764 0 56.9764C0 56.9764 0 75.5437 2.34426 84.3588C3.65753 89.2349 7.5018 93.0801 12.3788 94.3933C21.3806 96.8314 56.9223 96.8314 56.9223 96.8314C56.9223 96.8314 92.5569 96.8314 101.466 94.4863C106.343 93.1739 110.187 89.3287 111.5 84.4526C113.845 75.5437 113.845 57.0702 113.845 57.0702C113.845 57.0702 113.938 38.502 111.499 29.594Z" fill="#111543"/>
<path d="M45.5754 74.0438L75.2084 56.9765L45.5754 39.9091V74.0438Z" fill="white"/>
</g>
<defs>
<clipPath id="clip0_172_101">
<rect width="113.845" height="113.845" fill="white"/>
</clipPath>
</defs>
</svg>
