<svg width="100" height="100" viewBox="0 0 100 100" fill="none" xmlns="http://www.w3.org/2000/svg">
<circle cx="50" cy="50" r="20" fill="#FFD290"/>
<g clip-path="url(#clip0_198_146)">
<path d="M68.2919 95.8208L41.2481 68.777L47.5767 62.4485C49.0322 60.9359 51.5792 60.7484 53.2412 62.0145C52.6344 69.8807 62.4581 74.466 68.1471 68.9969C74.1463 63.3615 69.7287 53.2137 61.5325 53.7251C60.2656 52.0631 60.4529 49.5159 61.9659 48.0599L68.2942 41.7313L74.6275 48.0646C77.6753 51.1438 82.7019 50.8007 85.4756 47.5355C84.7433 44.6864 86.1409 41.519 88.9315 40.4191L87.8161 37.6959C84.3592 39.076 82.0864 42.7373 82.3609 46.4173C80.6583 47.6667 78.2462 47.5221 76.7084 45.9841L68.294 37.5699L59.8848 45.9794C56.8064 48.9501 57.1575 54.1408 60.4139 56.8389C66.4292 55.3458 70.5807 62.4965 66.1268 66.8578C61.6683 70.9132 54.872 66.7075 56.3555 60.8973C53.6571 57.6405 48.4664 57.2897 45.496 60.3684C45.496 60.3682 37.0868 68.7776 37.0868 68.7776L68.2921 99.9829L74.3801 93.8951L72.2992 91.8144L68.2919 95.8208Z" fill="url(#paint0_linear_198_146)"/>
<path d="M74.4599 89.6386L76.5132 87.5853L78.5937 89.6657L76.5404 91.719L74.4599 89.6386Z" fill="url(#paint1_linear_198_146)"/>
<path d="M89.81 57.2821C89.81 56.343 90.1053 55.4494 90.652 54.707C102.65 54.9254 103.332 37.7363 91.3412 37.0355L91.6482 39.9888C94.6198 40.1785 97.1158 42.7968 97.102 45.7891C97.2115 49.7511 93.3003 52.59 89.5338 51.5934C86.2802 54.2886 85.929 59.474 89.0043 62.4414C89.0041 62.4414 95.3378 68.7747 95.3378 68.7747L78.6851 85.4272L80.766 87.5079L99.4992 68.7745L91.085 60.3603C90.2628 59.5383 89.81 58.445 89.81 57.2821Z" fill="url(#paint2_linear_198_146)"/>
<path d="M32.2572 44.1486H44.1343V32.269C44.1343 30.0824 45.7471 28.2655 47.8457 27.9454C53.2845 34.1019 63.5775 30.0502 63.3217 21.8236C63.1665 13.9348 52.9771 10.2292 47.8445 16.2203C45.7467 15.8998 44.1343 14.0829 44.1343 11.8969V0.0176392H0V17.6656H2.94269V2.96033H41.1914V11.8973C41.1693 16.2403 44.975 19.5612 49.256 19.2134C52.315 14.0553 60.0957 15.8884 60.3802 21.9083C60.4445 28.1425 52.4527 30.2613 49.256 24.9527C44.9748 24.6052 41.1695 27.9256 41.1914 32.269V41.2057H32.257C27.9116 41.1836 24.5888 44.991 24.9366 49.2744C30.246 52.4714 28.1245 60.4653 21.8919 60.3984C15.8717 60.1133 14.0396 52.3334 19.1972 49.2744C19.5446 44.9908 16.2223 41.1836 11.8767 41.2057H2.9425V20.6081H0V44.1486H11.8769C14.0653 44.1486 15.8839 45.7628 16.2044 47.8631C10.1189 53.0829 14.0518 63.4231 22.0706 63.344C30.1663 63.3654 33.9932 53.2094 27.9295 47.8643C28.2497 45.7636 30.0684 44.1486 32.2572 44.1486Z" fill="url(#paint3_linear_198_146)"/>
<path d="M45.872 68.6851L47.9524 66.6046L50.0329 68.6851L47.9524 70.7656L45.872 68.6851Z" fill="url(#paint4_linear_198_146)"/>
<path d="M50.0331 72.8448L52.1136 70.7643L54.1941 72.8448L52.1136 74.9253L50.0331 72.8448Z" fill="url(#paint5_linear_198_146)"/>
<path d="M5.91678 5.89459H8.85947V8.83729H5.91678V5.89459Z" fill="url(#paint6_linear_198_146)"/>
<path d="M5.91678 11.78H8.85947V14.7227H5.91678V11.78Z" fill="url(#paint7_linear_198_146)"/>
</g>
<defs>
<linearGradient id="paint0_linear_198_146" x1="-17" y1="-21.4749" x2="110.455" y2="109.523" gradientUnits="userSpaceOnUse">
<stop stop-color="#213ED7"/>
<stop offset="1" stop-color="#111543"/>
</linearGradient>
<linearGradient id="paint1_linear_198_146" x1="-17" y1="-21.4749" x2="110.455" y2="109.523" gradientUnits="userSpaceOnUse">
<stop stop-color="#213ED7"/>
<stop offset="1" stop-color="#111543"/>
</linearGradient>
<linearGradient id="paint2_linear_198_146" x1="-17" y1="-21.4749" x2="110.455" y2="109.523" gradientUnits="userSpaceOnUse">
<stop stop-color="#213ED7"/>
<stop offset="1" stop-color="#111543"/>
</linearGradient>
<linearGradient id="paint3_linear_198_146" x1="-17" y1="-21.4749" x2="110.455" y2="109.523" gradientUnits="userSpaceOnUse">
<stop stop-color="#213ED7"/>
<stop offset="1" stop-color="#111543"/>
</linearGradient>
<linearGradient id="paint4_linear_198_146" x1="-17" y1="-21.4749" x2="110.455" y2="109.523" gradientUnits="userSpaceOnUse">
<stop stop-color="#213ED7"/>
<stop offset="1" stop-color="#111543"/>
</linearGradient>
<linearGradient id="paint5_linear_198_146" x1="-17" y1="-21.4749" x2="110.455" y2="109.523" gradientUnits="userSpaceOnUse">
<stop stop-color="#213ED7"/>
<stop offset="1" stop-color="#111543"/>
</linearGradient>
<linearGradient id="paint6_linear_198_146" x1="-17" y1="-21.4749" x2="110.455" y2="109.523" gradientUnits="userSpaceOnUse">
<stop stop-color="#213ED7"/>
<stop offset="1" stop-color="#111543"/>
</linearGradient>
<linearGradient id="paint7_linear_198_146" x1="-17" y1="-21.4749" x2="110.455" y2="109.523" gradientUnits="userSpaceOnUse">
<stop stop-color="#213ED7"/>
<stop offset="1" stop-color="#111543"/>
</linearGradient>
<clipPath id="clip0_198_146">
<rect width="100" height="100" fill="white"/>
</clipPath>
</defs>
</svg>
