<svg width="100" height="100" viewBox="0 0 100 100" fill="none" xmlns="http://www.w3.org/2000/svg">
<circle cx="50" cy="50" r="20" fill="#FFD290"/>
<path d="M77.0861 27.3027C76.6613 26.6141 75.7589 26.4001 75.0707 26.8244C74.3821 27.2488 74.168 28.1513 74.5924 28.8399C77.1273 32.952 78.5748 37.6349 78.8236 42.464H71.5116C70.8312 39.5904 68.2379 37.4416 65.1663 37.4416C62.094 37.4416 59.5001 39.5904 58.8195 42.464H51.4649V33.8515C51.4649 33.0426 50.8093 32.3868 50.0002 32.3868C48.0205 32.3868 46.4101 30.7762 46.4101 28.7967C46.4101 26.8172 48.0205 25.2066 50.0002 25.2066C50.8093 25.2066 51.4649 24.5508 51.4649 23.7419V15.132C58.8515 15.496 65.6878 18.6098 70.8468 23.9933C71.5312 24.5799 72.2215 24.5946 72.9177 24.0374C73.5017 23.4777 73.5216 22.5504 72.9619 21.9665C66.9103 15.6517 58.7634 12.1721 50.0203 12.1668C50.0134 12.1668 50.007 12.1659 50.0002 12.1659C49.9935 12.1659 49.9873 12.1668 49.9806 12.1668C42.2538 12.1715 34.8151 14.9625 29.033 20.0268C28.4245 20.5598 28.3631 21.4853 28.8963 22.0936C29.4292 22.7024 30.3547 22.7635 30.9631 22.2305C35.8495 17.9505 42.0413 15.4607 48.5355 15.1341V22.4432C45.6435 23.1097 43.4807 25.7056 43.4807 28.7969C43.4807 31.8882 45.6435 34.4841 48.5355 35.1506V42.4644H39.8904C39.0813 42.4644 38.4257 43.1202 38.4257 43.9291V43.9633C38.4257 45.943 36.8145 47.5534 34.8338 47.5534C32.8541 47.5534 31.2437 45.9428 31.2437 43.9633V43.9291C31.2437 43.1202 30.5881 42.4644 29.779 42.4644H21.1726C21.4614 36.7249 23.404 31.301 26.8365 26.6975C27.3201 26.0489 27.1863 25.1312 26.5379 24.6477C25.8897 24.1643 24.9717 24.2979 24.4881 24.9463C20.385 30.4489 18.2121 37.0127 18.2041 43.9295C17.9114 56.01 25.6204 67.6013 36.4052 72.7115C37.632 73.2929 38.4249 74.5571 38.4249 75.9323V78.852C35.4179 78.852 33.3685 80.4628 33.3685 83.3496C33.3685 86.2343 35.3527 87.8498 38.4249 87.8472V94.5126C38.4249 97.4123 41.0264 100 43.9127 100H56.0873C58.9737 100 61.5751 97.4131 61.5751 94.5126V87.8472C65.0052 87.85 66.6326 86.0271 66.6314 83.3496C66.6301 80.5581 64.8751 78.852 61.5751 78.852V75.9323C61.5751 74.5569 62.3724 73.2904 63.6069 72.7055C74.7018 67.4443 81.5992 56.126 81.7958 43.9281C81.79 38.0402 80.1612 32.2913 77.0861 27.3027ZM37.6595 70.0637C28.053 65.5118 21.7036 55.9344 21.1738 45.3932H28.4723C29.1262 48.3023 31.7302 50.4822 34.8336 50.4822C37.938 50.4822 40.5427 48.3023 41.1967 45.3932H48.5351V54.0723C48.5351 54.8812 49.1907 55.537 49.9998 55.537C51.9795 55.537 53.5899 57.1476 53.5899 59.1271C53.5899 61.1066 51.9795 62.7172 49.9998 62.7172C49.1907 62.7172 48.5351 63.373 48.5351 64.1819V78.8512H41.3541V75.9315C41.3543 73.4306 39.904 71.1273 37.6595 70.0637ZM56.0873 97.0706H43.9127C42.0511 97.0706 41.2627 95.4135 41.3543 93.9457H58.6455C58.6488 95.508 58.1535 97.0706 56.0873 97.0706ZM62.1316 84.9174H53.0778C52.2687 84.9174 51.6131 85.5732 51.6131 86.3821C51.6131 86.3855 51.6135 86.3886 51.6135 86.3919C51.6135 86.3952 51.6131 86.3983 51.6131 86.4017C51.6131 87.2106 52.2687 87.8664 53.0778 87.8664H58.6456V91.0163H41.3545V87.8664H46.6958C47.5049 87.8664 48.1605 87.2106 48.1605 86.4017C48.1605 86.3983 48.1601 86.3952 48.1601 86.3919C48.1601 86.3886 48.1605 86.3855 48.1605 86.3821C48.1605 85.5732 47.5049 84.9174 46.6958 84.9174H37.8685C35.5484 84.9526 35.4834 81.781 37.8685 81.781H62.1318C64.1588 81.781 64.4517 84.92 62.1316 84.9174ZM62.3519 70.0579C60.1004 71.1248 58.6455 73.4306 58.6455 75.9319V78.8516H51.4645V65.481C54.3564 64.8144 56.5193 62.2186 56.5193 59.1273C56.5193 56.036 54.3564 53.4401 51.4645 52.7736V45.3932H60.1096C60.9148 45.3932 61.5692 44.7431 61.5743 43.9379C61.5868 41.9711 63.1982 40.3708 65.1661 40.3708C67.1331 40.3708 68.7437 41.9711 68.7564 43.9379C68.7615 44.7431 69.4159 45.3932 70.2211 45.3932H78.826C78.2956 55.9311 71.9508 65.5062 62.3519 70.0579Z" fill="url(#paint0_linear_198_147)"/>
<path d="M50 8.99584C49.1909 8.99584 48.5353 8.34004 48.5353 7.53113V1.46471C48.5353 0.655798 49.1909 0 50 0C50.8091 0 51.4647 0.655798 51.4647 1.46471V7.53113C51.4647 8.34004 50.8091 8.99584 50 8.99584Z" fill="url(#paint1_linear_198_147)"/>
<path d="M70.4945 14.4873C69.7921 14.0864 69.554 13.187 69.9585 12.4865L72.9916 7.23292C73.3958 6.5324 74.2913 6.29199 74.9924 6.69683C75.6929 7.10129 75.9329 7.9971 75.5285 8.69762L72.4953 13.9512C72.2243 14.4209 71.287 14.9396 70.4945 14.4873Z" fill="url(#paint2_linear_198_147)"/>
<path d="M85.4978 29.4902C85.0934 28.7897 85.3334 27.8939 86.0339 27.4894L91.2873 24.4563C91.9874 24.0518 92.8838 24.2917 93.2881 24.9924C93.6926 25.6929 93.4525 26.5887 92.752 26.9932L87.4986 30.0263C86.6665 30.5143 85.7689 29.9603 85.4978 29.4902Z" fill="url(#paint3_linear_198_147)"/>
<path d="M6.71185 74.9773C6.33688 74.2606 6.54741 73.381 7.24793 72.9766L12.5013 69.9434C13.2015 69.539 14.0975 69.7788 14.5021 70.4795C14.9066 71.18 14.6666 72.0759 13.9661 72.4803L8.71264 75.5134C7.86526 75.969 7.08408 75.689 6.71185 74.9773Z" fill="url(#paint4_linear_198_147)"/>
<path d="M27.5044 13.9512L24.4713 8.69762C24.0669 7.9971 24.3069 7.10129 25.0074 6.69683C25.7075 6.29218 26.6037 6.5322 27.0082 7.23292L30.0413 12.4865C30.4458 13.187 30.1887 14.0549 29.5052 14.4873C28.7129 14.9884 27.7757 14.4211 27.5044 13.9512Z" fill="url(#paint5_linear_198_147)"/>
<path d="M12.5013 30.0265L7.24793 26.9934C6.54741 26.5889 6.30739 25.6931 6.71185 24.9926C7.11611 24.2919 8.01153 24.0518 8.71264 24.4565L13.9661 27.4896C14.6666 27.8941 15.0113 28.8617 14.5021 29.4904C13.8706 30.2702 13.2358 30.3679 12.5013 30.0265Z" fill="url(#paint6_linear_198_147)"/>
<path d="M91.2873 75.5136L86.0339 72.4805C85.3334 72.076 85.0934 71.1802 85.4978 70.4797C85.9021 69.779 86.7983 69.5392 87.4986 69.9436L92.752 72.9767C93.4525 73.3812 93.7248 74.2965 93.2881 74.9775C92.8182 75.7103 92.1347 76.0179 91.2873 75.5136Z" fill="url(#paint7_linear_198_147)"/>
<path d="M7.54595 51.4497H1.47972C0.670617 51.4497 0.0150146 50.7939 0.0150146 49.985C0.0150146 49.1761 0.670617 48.5203 1.47972 48.5203H7.54614C8.35525 48.5203 9.01085 49.1761 9.01085 49.985C9.01085 50.7939 8.35505 51.4497 7.54595 51.4497Z" fill="url(#paint8_linear_198_147)"/>
<path d="M98.5202 51.4497H92.4538C91.6447 51.4497 90.9891 50.7939 90.9891 49.985C90.9891 49.1761 91.6447 48.5203 92.4538 48.5203H98.5202C99.3293 48.5203 99.9849 49.1761 99.9849 49.985C99.9849 50.7939 99.3293 51.4497 98.5202 51.4497Z" fill="url(#paint9_linear_198_147)"/>
<defs>
<linearGradient id="paint0_linear_198_147" x1="-16.9799" y1="-21.5001" x2="110.522" y2="109.461" gradientUnits="userSpaceOnUse">
<stop stop-color="#213ED7"/>
<stop offset="1" stop-color="#111543"/>
</linearGradient>
<linearGradient id="paint1_linear_198_147" x1="-16.9799" y1="-21.5001" x2="110.522" y2="109.461" gradientUnits="userSpaceOnUse">
<stop stop-color="#213ED7"/>
<stop offset="1" stop-color="#111543"/>
</linearGradient>
<linearGradient id="paint2_linear_198_147" x1="-16.9799" y1="-21.5001" x2="110.522" y2="109.461" gradientUnits="userSpaceOnUse">
<stop stop-color="#213ED7"/>
<stop offset="1" stop-color="#111543"/>
</linearGradient>
<linearGradient id="paint3_linear_198_147" x1="-16.9799" y1="-21.5001" x2="110.522" y2="109.461" gradientUnits="userSpaceOnUse">
<stop stop-color="#213ED7"/>
<stop offset="1" stop-color="#111543"/>
</linearGradient>
<linearGradient id="paint4_linear_198_147" x1="-16.9799" y1="-21.5001" x2="110.522" y2="109.461" gradientUnits="userSpaceOnUse">
<stop stop-color="#213ED7"/>
<stop offset="1" stop-color="#111543"/>
</linearGradient>
<linearGradient id="paint5_linear_198_147" x1="-16.9799" y1="-21.5001" x2="110.522" y2="109.461" gradientUnits="userSpaceOnUse">
<stop stop-color="#213ED7"/>
<stop offset="1" stop-color="#111543"/>
</linearGradient>
<linearGradient id="paint6_linear_198_147" x1="-16.9799" y1="-21.5001" x2="110.522" y2="109.461" gradientUnits="userSpaceOnUse">
<stop stop-color="#213ED7"/>
<stop offset="1" stop-color="#111543"/>
</linearGradient>
<linearGradient id="paint7_linear_198_147" x1="-16.9799" y1="-21.5001" x2="110.522" y2="109.461" gradientUnits="userSpaceOnUse">
<stop stop-color="#213ED7"/>
<stop offset="1" stop-color="#111543"/>
</linearGradient>
<linearGradient id="paint8_linear_198_147" x1="-16.9799" y1="-21.5001" x2="110.522" y2="109.461" gradientUnits="userSpaceOnUse">
<stop stop-color="#213ED7"/>
<stop offset="1" stop-color="#111543"/>
</linearGradient>
<linearGradient id="paint9_linear_198_147" x1="-16.9799" y1="-21.5001" x2="110.522" y2="109.461" gradientUnits="userSpaceOnUse">
<stop stop-color="#213ED7"/>
<stop offset="1" stop-color="#111543"/>
</linearGradient>
</defs>
</svg>
