<svg width="226" height="91" viewBox="0 0 226 91" fill="none" xmlns="http://www.w3.org/2000/svg">
<path d="M2.50006 87.5645C8.00017 65.5695 25.8128 30.3599 63.1764 17.4198C91.9588 7.45154 130.057 28.8894 128.105 62.0694C127.637 70.0191 118.033 75.6456 110.848 76.4618C99.4822 77.753 91.9317 71.2191 88.0897 60.7713C81.1103 41.7919 87.4889 13.3748 108.412 6.09246C141.156 -5.30386 174.176 12.6919 195.677 37.2187C199.96 42.1042 225.48 83.5364 204.523 66.0244C200.719 62.8461 189.71 52.8876 193.706 55.8204C200.331 60.6831 203.851 63.6913 208.719 70.5684C209.685 71.9337 213.738 79.7753 215.013 75.1523C217.623 65.6866 220.951 56.4669 223.349 46.9268" stroke="#70B859" stroke-width="5" stroke-linecap="round"/>
</svg>
