<svg width="54" height="76" viewBox="0 0 54 76" fill="none" xmlns="http://www.w3.org/2000/svg">
<path d="M41.9155 3.00011C46.9912 8.90765 53.3285 20.8902 49.5413 33.935C46.6239 43.9838 33.0515 50.4117 24.1356 43.2789C21.9993 41.57 22.3277 37.7606 23.5248 35.5839C25.4186 32.1406 28.7493 31.3203 32.4413 32.3166C39.1482 34.1264 45.8502 41.5549 43.7395 48.867C40.4364 60.3099 28.8369 65.997 17.6925 67.1579C15.4727 67.3891 -1.20971 66.3219 7.86001 63.9211C9.50606 63.4854 14.4833 62.3751 12.8679 62.9134C10.1895 63.806 8.64741 64.1959 5.75303 64.1959C5.17841 64.1959 2.17536 63.7759 3.21857 65.0509C5.35457 67.6616 7.27922 70.4245 9.4784 72.9902" stroke="#70B859" stroke-width="5" stroke-linecap="round"/>
</svg>
