<svg width="243" height="44" viewBox="0 0 243 44" fill="none" xmlns="http://www.w3.org/2000/svg">
<path d="M68.5917 26.283H68.4671C67.0963 26.283 65.4763 25.4748 64.8087 24.1368C64.7464 24.0111 64.7019 23.8585 64.7019 23.7328C64.7019 23.2568 65.1024 22.9336 65.5386 22.9336C65.7967 22.9336 66.0727 23.0234 66.2685 23.3017C66.8026 24.0111 67.7283 24.6577 68.5116 24.6577H68.6184C69.9179 24.6577 70.6656 23.9213 70.6656 23.203C70.7012 20.3385 65.1114 22.5115 65.1025 18.4168C65.1025 16.3426 67.2565 15.6511 68.6006 15.6511H68.6896C70.1672 15.6511 71.1285 16.2887 71.4934 16.567C71.7071 16.7377 71.7961 16.9532 71.7961 17.1866C71.7961 17.5728 71.4756 17.9679 71.0306 17.9679C70.8793 17.9679 70.7279 17.923 70.5588 17.8421C70.1138 17.6266 69.642 17.2585 68.6807 17.2674H68.5917C67.3989 17.2674 66.7581 17.8152 66.7402 18.4348C66.7046 20.7874 72.2945 18.8748 72.3034 23.1581V23.2479C72.2767 25.2234 70.3808 26.283 68.5917 26.283Z" fill="#E30613"/>
<path d="M86.7591 16.6303L84.2579 25.6458C84.1778 25.9242 83.9197 26.2475 83.4746 26.2475H83.3055C82.9227 26.2475 82.5756 25.9062 82.4955 25.6279C81.9792 23.7781 80.5996 18.6058 80.466 18.2826C80.3592 18.6328 79.0063 23.805 78.5167 25.6368C78.4544 25.9152 78.134 26.2654 77.7245 26.2654H77.5287C77.0836 26.2654 76.8255 25.9421 76.7365 25.6638L74.2086 16.6662C74.1908 16.5764 74.1641 16.5136 74.1641 16.4238C74.1641 15.9748 74.5023 15.6246 74.9919 15.6246C75.3123 15.6246 75.6327 15.7952 75.7663 16.2262L77.6177 22.7723L79.5225 16.1903C79.6293 15.8221 79.9231 15.6066 80.4393 15.6066H80.4571C81.098 15.6066 81.2938 15.867 81.3829 16.1903L83.3411 22.7813L85.1836 16.1993C85.3082 15.7683 85.6109 15.5977 85.9313 15.5977C86.4209 15.5977 86.768 15.9389 86.768 16.3879C86.7858 16.4777 86.7858 16.5405 86.7591 16.6303Z" fill="#E30613"/>
<path d="M90.2126 13.1909C89.8031 13.1909 89.4026 12.9125 89.4026 12.3738V11.8978C89.4026 11.3591 89.8031 11.0807 90.2126 11.0807C90.622 11.0807 91.0226 11.3591 91.0226 11.8978V12.3738C91.0226 12.9125 90.6131 13.1909 90.2126 13.1909ZM90.2482 26.2293C89.8387 26.2293 89.4382 25.9509 89.4293 25.4121L89.4115 16.4056C89.4115 15.8668 89.812 15.5884 90.2215 15.5884C90.6309 15.5884 91.0315 15.8668 91.0404 16.4056L91.0582 25.4121C91.0582 25.9509 90.6487 26.2293 90.2482 26.2293Z" fill="#E30613"/>
<path d="M97.5826 26.2113H97.458C96.0873 26.2113 94.4673 25.4031 93.7997 24.0651C93.7374 23.9394 93.6929 23.7868 93.6929 23.6521C93.6929 23.1761 94.0934 22.8529 94.5207 22.8529C94.7788 22.8529 95.0547 22.9337 95.2506 23.221C95.7846 23.9304 96.7103 24.577 97.4936 24.577H97.6005C98.9 24.577 99.6477 23.8406 99.6477 23.1313C99.6833 20.2668 94.0934 22.4308 94.0756 18.3361C94.0667 16.2619 96.2297 15.5704 97.5738 15.5704H97.6628C99.1403 15.5704 100.102 16.208 100.467 16.4864C100.68 16.657 100.769 16.8725 100.769 17.1059C100.769 17.4921 100.449 17.8872 100.004 17.8872C99.8524 17.8872 99.7011 17.8423 99.532 17.7615C99.078 17.5459 98.6152 17.1778 97.6539 17.1868H97.5648C96.3721 17.1868 95.7312 17.7345 95.7134 18.3541C95.6778 20.7068 101.268 18.7941 101.277 23.0864V23.1761C101.277 25.1427 99.3807 26.2023 97.5826 26.2113Z" fill="#E30613"/>
<path d="M107.401 26.1849H107.276C105.905 26.1849 104.285 25.3767 103.618 24.0388C103.555 23.913 103.511 23.7604 103.511 23.6257C103.511 23.1498 103.92 22.8265 104.339 22.8265C104.597 22.8265 104.873 22.9073 105.069 23.1947C105.603 23.9041 106.528 24.5506 107.312 24.5506H107.419C108.718 24.5506 109.466 23.8143 109.466 23.1049C109.501 20.2404 103.912 22.4045 103.903 18.3098C103.903 16.2355 106.057 15.5441 107.401 15.5441H107.49C108.967 15.5441 109.929 16.1816 110.294 16.46C110.507 16.6306 110.596 16.8461 110.596 17.0886C110.596 17.4747 110.276 17.8608 109.831 17.8698C109.679 17.8698 109.528 17.8249 109.359 17.7441C108.914 17.5286 108.442 17.1604 107.481 17.1694H107.401C106.199 17.1694 105.567 17.7171 105.54 18.3367C105.505 20.6894 111.095 18.7767 111.104 23.069V23.1588C111.095 25.1163 109.199 26.1849 107.401 26.1849Z" fill="#E30613"/>
<path d="M130.962 26.1214C130.552 26.1214 130.152 25.8431 130.143 25.3043L130.125 18.9198C130.116 17.7345 129.395 17.1149 128.3 17.1149H128.113C127.09 17.1149 126.28 17.9141 126.28 18.9737L126.298 25.2684C126.298 25.8251 125.897 26.1304 125.488 26.1304C125.078 26.1304 124.678 25.8341 124.669 25.2684L124.651 18.9737C124.651 17.8961 123.832 17.1239 122.808 17.1239H122.613C121.651 17.1239 120.779 17.7973 120.779 18.7851L120.797 25.3133C120.797 25.852 120.396 26.1304 119.987 26.1304C119.577 26.1304 119.177 25.852 119.168 25.3133L119.141 16.3067C119.141 15.7859 119.542 15.4896 119.969 15.4896C120.307 15.4896 120.672 15.7051 120.761 16.1361C121.144 15.75 121.847 15.4896 122.595 15.4806H122.791C123.859 15.4806 124.802 15.9475 125.443 16.7018C126.084 15.9475 127.019 15.4716 128.087 15.4626H128.283C130.098 15.4626 131.727 16.5312 131.736 18.9018L131.754 25.2863C131.772 25.8431 131.371 26.1214 130.962 26.1214Z" fill="#E30613"/>
<path d="M141.83 26.0947L141.679 26.0768C140.949 25.969 140.504 25.6457 140.228 25.2417C139.614 25.7804 138.804 26.1037 137.922 26.1127H137.736C136 26.1127 134.291 25.0261 134.291 23.0147V22.7543C134.433 19.351 139.177 19.9347 139.685 19.2074C139.747 19.1176 139.747 18.947 139.747 18.8392C139.747 17.5641 138.955 17.0972 138.011 17.0972H137.86C136.988 17.0972 136.534 17.4653 136.133 18.1747C135.964 18.48 135.688 18.6057 135.412 18.6057C135.003 18.6057 134.602 18.3094 134.593 17.8514C134.593 17.7257 134.611 17.591 134.682 17.4653C135.359 15.9119 136.73 15.4539 137.86 15.4539H138.011C139.916 15.4449 141.367 16.9086 141.376 18.7674L141.385 23.769C141.385 24.1551 141.554 24.4155 141.946 24.4784C142.417 24.5592 142.631 24.9094 142.631 25.2506C142.622 25.6817 142.346 26.0947 141.83 26.0947ZM139.747 20.9314C138.172 21.3625 135.964 21.2817 135.911 22.7902V22.9608C135.911 23.8857 136.641 24.4694 137.736 24.4694H137.931C138.937 24.4694 139.765 23.6433 139.765 22.6286L139.747 20.9314Z" fill="#E30613"/>
<path d="M150.927 26.0765C150.562 26.0765 150.179 25.861 150.135 25.4299C149.832 25.7353 149.218 26.0765 148.301 26.0855H148.105C146.183 26.0944 144.643 24.541 144.634 22.6283L144.625 18.9197C144.616 16.9981 146.156 15.4446 148.079 15.4446H148.23C148.978 15.4446 149.725 15.6961 150.09 16.154L150.081 11.754C150.081 11.2153 150.482 10.9369 150.891 10.9369C151.301 10.9369 151.701 11.2153 151.71 11.754L151.746 25.3132C151.737 25.8161 151.336 26.0765 150.927 26.0765ZM150.099 18.7222C150.099 17.7344 149.245 17.07 148.283 17.07H148.096C147.073 17.07 146.263 17.8961 146.263 18.9108L146.272 22.6193C146.272 23.634 147.091 24.4512 148.096 24.4512H148.31C149.271 24.4512 150.126 23.7957 150.126 22.7451L150.099 18.7222Z" fill="#E30613"/>
<path d="M161.012 21.4788L156.357 21.4877V22.5833C156.357 23.5979 157.175 24.4151 158.172 24.4151H158.386C159.214 24.4151 159.775 23.9122 160.051 23.3106C160.202 22.9424 160.478 22.7898 160.754 22.7898C161.181 22.7898 161.59 23.1579 161.59 23.6249C161.59 23.7326 161.573 23.8584 161.51 23.993C161.003 25.1963 159.828 26.0404 158.395 26.0494H158.181C156.276 26.0584 154.737 24.5049 154.728 22.5922L154.719 18.8837C154.71 16.962 156.25 15.4086 158.146 15.3996H158.359C160.264 15.3906 161.804 16.8812 161.813 18.8837V20.6526C161.822 21.0837 161.457 21.4788 161.012 21.4788ZM160.193 18.8926C160.193 17.833 159.33 17.0428 158.395 17.0428H158.181C157.175 17.0428 156.348 17.869 156.348 18.8837V19.9612L160.193 19.9522V18.8926Z" fill="#E30613"/>
<path d="M173.384 26.0142H173.26C171.889 26.0142 170.269 25.206 169.601 23.8681C169.539 23.7423 169.495 23.5897 169.495 23.455C169.495 22.9791 169.904 22.6558 170.322 22.6558C170.581 22.6558 170.856 22.7366 171.052 23.024C171.586 23.7334 172.512 24.3799 173.304 24.3799H173.411C174.711 24.3799 175.458 23.6436 175.458 22.9252C175.494 20.0607 169.904 22.2248 169.886 18.1301C169.877 16.0558 172.04 15.3644 173.384 15.3644H173.473C174.951 15.3644 175.912 16.0019 176.277 16.2803C176.491 16.4509 176.58 16.6664 176.58 16.8999C176.58 17.286 176.259 17.6811 175.814 17.6811C175.663 17.6811 175.512 17.6362 175.343 17.5554C174.889 17.3399 174.426 16.9717 173.465 16.9807H173.376C172.183 16.9807 171.542 17.5284 171.524 18.1481C171.488 20.5006 177.078 18.5881 177.087 22.8803V22.9701C177.078 24.9456 175.182 26.0142 173.384 26.0142Z" fill="#E30613"/>
<path d="M183.167 25.9868H182.953C181.048 25.9958 179.509 24.4423 179.5 22.5297L179.491 18.8211C179.482 16.8995 181.022 15.346 182.918 15.346H183.131C185.036 15.337 186.576 16.8905 186.585 18.8031L186.594 22.5117C186.603 24.4333 185.063 25.9868 183.167 25.9868ZM184.965 18.8121C184.965 17.7974 184.146 16.9803 183.14 16.9803H182.927C181.921 16.9803 181.111 17.8064 181.12 18.8211L181.129 22.5297C181.129 23.5444 181.947 24.3615 182.971 24.3615H183.167C184.173 24.3615 184.983 23.5354 184.974 22.5207L184.965 18.8121Z" fill="#E30613"/>
<path d="M192.753 12.4547C192.068 12.4547 191.623 12.9934 191.623 13.6669L191.632 15.391H192.638C193.189 15.391 193.448 15.7951 193.448 16.2081C193.448 16.6212 193.172 17.0253 192.638 17.0253H191.632L191.65 25.1518C191.65 25.6906 191.249 25.969 190.84 25.969C190.43 25.969 190.03 25.6906 190.03 25.1518L190.012 17.0253H189.54C189.006 17.0253 188.73 16.6212 188.73 16.2081C188.73 15.7951 189.006 15.391 189.54 15.391H190.012L190.003 13.6669C189.994 12.0236 191.169 10.8204 192.753 10.8114C193.287 10.8114 193.563 11.2155 193.563 11.6285C193.572 12.0416 193.287 12.4547 192.753 12.4547Z" fill="#E30613"/>
<path d="M199.856 25.9513C198.299 25.9513 197.053 24.6852 197.053 23.1138L197.035 17.0166H196.287C195.753 17.0166 195.477 16.6125 195.477 16.1995C195.477 15.7864 195.753 15.3823 196.287 15.3733H197.035L197.026 11.6199C197.026 11.0811 197.426 10.8027 197.836 10.8027C198.245 10.8027 198.646 11.0811 198.646 11.6199L198.655 15.3733H199.812C200.346 15.3733 200.622 15.7774 200.622 16.1905C200.622 16.6036 200.346 17.0076 199.812 17.0166H198.655L198.673 23.0958C198.673 23.8501 199.251 24.2811 199.919 24.326C200.435 24.344 200.666 24.757 200.666 25.1431C200.666 25.5382 200.408 25.9423 199.856 25.9513Z" fill="#E30613"/>
<path d="M215.335 16.2976L212.834 25.3131C212.745 25.5914 212.496 25.9147 212.042 25.9147H211.873C211.49 25.9147 211.143 25.5735 211.063 25.2951C210.546 23.4453 209.167 18.2731 209.033 17.9498C208.926 18.291 207.574 23.4723 207.084 25.3041C207.022 25.5825 206.701 25.9327 206.292 25.9327H206.096C205.651 25.9327 205.393 25.6094 205.304 25.331L202.785 16.3245C202.767 16.2347 202.74 16.1718 202.74 16.0821C202.74 15.6331 203.078 15.2829 203.568 15.2829C203.888 15.2829 204.209 15.4535 204.334 15.8845L206.185 22.4306L208.09 15.8486C208.197 15.4804 208.49 15.2649 209.007 15.2649H209.024C209.665 15.2649 209.861 15.5163 209.941 15.8396L211.899 22.4306L213.742 15.8486C213.867 15.4176 214.169 15.2469 214.49 15.2469C214.979 15.2469 215.326 15.5882 215.326 16.0372C215.353 16.1449 215.353 16.2078 215.335 16.2976Z" fill="#E30613"/>
<path d="M224.895 25.8797L224.744 25.8617C224.014 25.754 223.569 25.4307 223.293 25.0266C222.67 25.5654 221.86 25.8887 220.987 25.8976H220.792C219.065 25.9066 217.347 24.8111 217.347 22.7997V22.5393C217.489 19.136 222.234 19.7287 222.741 18.9923C222.803 18.9025 222.803 18.7319 222.803 18.6242C222.803 17.3491 222.011 16.8821 221.068 16.8821H220.916C220.035 16.8821 219.59 17.2503 219.189 17.9687C219.02 18.274 218.744 18.3997 218.468 18.3997C218.059 18.3997 217.658 18.1034 217.65 17.6454C217.65 17.5197 217.667 17.385 217.739 17.2593C218.415 15.7058 219.786 15.2478 220.916 15.2478H221.068C222.972 15.2389 224.423 16.7025 224.432 18.5613L224.45 23.5629C224.45 23.9491 224.619 24.2095 225.011 24.2723C225.483 24.3532 225.696 24.7034 225.696 25.0446C225.678 25.4756 225.411 25.8797 224.895 25.8797ZM222.812 20.7164C221.228 21.1474 219.029 21.0756 218.967 22.5752V22.7458C218.967 23.6707 219.697 24.2544 220.783 24.2544H220.979C221.984 24.2544 222.812 23.4283 222.812 22.4136V20.7164Z" fill="#E30613"/>
<path d="M232.764 17.609C232.55 17.609 232.319 17.5192 232.105 17.3126C231.936 17.142 231.651 16.8637 231.117 16.8637C229.853 16.8637 229.684 17.6 229.684 18.3094L229.702 25.0081C229.702 25.5918 229.301 25.8702 228.892 25.8702C228.482 25.8702 228.082 25.5918 228.073 25.0081L228.046 16.0465C228.046 15.5257 228.473 15.2294 228.874 15.2294C229.15 15.2294 229.426 15.3551 229.577 15.6604C229.577 15.6604 230.004 15.2294 231.117 15.2294C231.927 15.2294 232.826 15.5257 233.342 16.28C233.494 16.4955 233.538 16.6661 233.538 16.8367C233.556 17.2857 233.191 17.609 232.764 17.609Z" fill="#E30613"/>
<path d="M241.887 21.2724L237.232 21.2814V22.3769C237.232 23.3916 238.051 24.2087 239.057 24.2087H239.271C240.107 24.2087 240.659 23.7059 240.935 23.1042C241.086 22.7361 241.362 22.5834 241.638 22.5834C242.065 22.5834 242.475 22.9516 242.475 23.4185C242.475 23.5263 242.457 23.652 242.395 23.7867C241.887 24.9989 240.713 25.834 239.279 25.843H239.066C237.161 25.843 235.621 24.2985 235.612 22.3859L235.603 18.6773C235.603 16.7557 237.134 15.2022 239.03 15.2022H239.244C241.149 15.1932 242.689 16.6838 242.697 18.6863V20.4552C242.697 20.8773 242.332 21.2724 241.887 21.2724ZM241.069 18.6863C241.069 17.6267 240.205 16.8365 239.271 16.8365H239.057C238.051 16.8365 237.223 17.6626 237.223 18.6773V19.7548L241.069 19.7459V18.6863Z" fill="#E30613"/>
<path d="M39.3251 7.46197H25.564C25.1278 6.36646 24.6827 5.25299 24.6827 5.25299C24.2555 4.18442 23.2319 3.48401 22.0925 3.48401H10.3431C9.23046 3.48401 8.21569 4.15748 7.77954 5.19013L5.0825 11.5208C4.93118 11.871 4.85107 12.2481 4.85107 12.6342V30.4946C4.85107 32.0481 6.10613 33.3142 7.64602 33.3142H39.3251C40.865 33.3142 42.12 32.0481 42.12 30.4946V10.2906C42.12 8.72809 40.865 7.46197 39.3251 7.46197Z" fill="#E30613"/>
<path d="M28.7327 21.4336H24.923V25.2769C24.923 26.1928 24.2377 26.6687 23.5434 26.6687C22.858 26.6687 22.1637 26.1928 22.1637 25.2769V21.4336H18.354C17.4461 21.4336 16.9744 20.7422 16.9744 20.0418C16.9744 19.3504 17.4461 18.65 18.354 18.65H22.1637V14.8157C22.1637 13.8997 22.8491 13.4238 23.5434 13.4238C24.2288 13.4238 24.923 13.8997 24.923 14.8157V18.6589H28.7327C29.6406 18.6589 30.1124 19.3504 30.1124 20.0508C30.1124 20.7332 29.6406 21.4336 28.7327 21.4336Z" fill="white"/>
</svg>
