<svg width="270" height="382" viewBox="0 0 270 382" fill="none" xmlns="http://www.w3.org/2000/svg">
<path d="M191.566 200.194C197.33 190.712 203.303 182.124 206.538 171.374C206.911 169.988 206.768 168.513 206.136 167.223C205.504 165.934 204.426 164.918 203.101 164.364C201.846 163.825 200.439 163.759 199.138 164.176C199.909 162.735 200.687 161.359 201.444 159.947C205.133 153.081 195.737 148.073 191.256 153.996C186.645 160.086 182.082 166.211 177.566 172.368C183.916 161.652 190.502 151.085 197.323 140.666C200.875 135.255 192.387 128.475 188.223 133.641C185.523 137.004 182.857 140.392 180.225 143.808C181.599 141.488 182.956 139.156 184.296 136.812C187.091 131.905 182.134 127.344 177.646 128.67C184.339 118.403 191.033 108.128 197.632 97.7891C200.731 92.9257 194.628 87.1328 189.829 89.9932C186.536 91.9397 183.609 94.4491 181.183 97.4072C179.807 94.2442 175.419 92.3637 172.537 95.5195C167.191 101.336 161.907 107.201 156.686 113.114C161.49 106.471 166.485 99.9866 171.673 93.6606C175.765 88.6963 169.151 81.6858 164.468 86.4556C155.548 95.5339 146.75 104.792 138.227 114.289C139.963 110.643 141.721 106.939 143.371 103.171L144.668 101.579C148.602 96.7083 152.226 91.6432 155.937 86.6069C158.819 82.6585 162.421 78.9479 163.574 74.0197C164.727 69.0914 158.732 65.3736 154.928 68.9761C153.258 70.5901 151.687 72.3032 150.223 74.1061C148.588 72.1392 145.389 71.1881 143.321 72.7588C141.011 74.5571 138.979 76.6863 137.29 79.0776V79.0128L137.557 78.5661C140.626 73.2704 144.272 68.3709 145.482 62.2538C146.57 56.8212 140.597 53.4061 136.411 56.9726C132.636 60.1932 130.863 65.7267 129.156 70.2298C127.046 75.5321 124.253 80.5362 120.848 85.1154C116.979 90.512 112.836 95.7212 108.6 100.873C111.611 96.4273 114.587 91.9674 117.498 87.4499C120.769 82.3631 124.588 77.5141 127.513 72.2184C129.205 69.3842 130.308 66.2376 130.755 62.9671C131.087 59.7897 130.618 56.6123 130.712 53.4349C130.784 50.769 128.666 48.7228 126.267 48.0455C124.314 46.8135 121.677 46.6766 120.085 48.6651C118.204 51.0068 116.187 53.2115 114.126 55.3802C112.786 52.8945 109.378 52.0659 106.626 54.213C103.502 56.6899 100.639 59.4782 98.0804 62.5348C98.4911 59.6528 96.3008 57.4193 93.462 57.1815C92.9395 57.1346 92.4138 57.1346 91.8913 57.1815C92.4028 56.1368 92.9072 55.0848 93.3899 54.0185C94.4995 51.5472 93.8943 47.4547 90.5079 46.9576C86.5163 46.3739 83.5118 47.7789 80.3776 50.171C77.4092 52.4262 74.5704 54.4508 71.4362 56.461C69.8295 54.4796 66.4503 53.6654 64.1375 55.6828C62.6148 57.0086 61.1138 58.3535 59.6343 59.7177C57.9844 57.7507 54.4179 57.8516 52.5302 59.5159C46.0547 65.196 40.0322 71.3727 34.5176 77.9897C29.0489 84.6255 24.7187 92.0611 19.7833 99.0788C17.384 102.494 20.9577 106.356 24.3873 106.147C20.9277 111.247 17.903 116.629 15.345 122.236C15.1061 122.401 14.9048 122.614 14.7545 122.863C14.6043 123.111 14.5083 123.389 14.4732 123.677C14.4371 123.929 14.4011 124.181 14.3579 124.441C14.2857 125.233 14.5092 126.024 14.9855 126.661C15.4618 127.298 16.157 127.737 16.9373 127.892C12.3981 134.484 7.69322 140.81 5.0922 148.484C3.45666 153.304 9.653 155.811 12.9385 153.052C17.1737 149.373 21.0904 145.343 24.6467 141.005C22.2618 145.414 20.0282 150.076 16.8941 153.974C15.2729 155.977 13.6806 157.843 12.7872 160.293C12.2756 161.669 12.1459 163.413 11.7208 164.962C11.0796 166.042 10.4528 167.123 9.86914 168.262C7.50589 172.779 13.6662 178.298 17.2975 173.99C17.6888 173.53 18.0544 173.049 18.3927 172.549C17.8665 174.667 17.6745 176.855 17.8235 179.033C17.9084 180.281 18.4441 181.456 19.3308 182.339C20.2176 183.222 21.3949 183.752 22.6437 183.832C21.1768 187.444 20.2003 191.236 19.7401 195.108C19.3726 198.465 23.1408 200.403 25.9148 199.812C30.2378 198.897 33.0622 193.796 35.6272 190.576C39.4314 185.799 42.9042 180.813 46.3483 175.776C48.6971 172.347 51.0171 168.903 53.3443 165.466C52.278 167.138 51.2285 168.819 50.1957 170.51C47.8685 174.35 45.7358 178.291 43.6752 182.275C38.7325 189.588 34.3951 197.255 31.6068 205.735C29.7767 211.283 36.6863 213.797 40.4257 210.872C42.1261 209.539 43.0051 207.695 43.8769 205.778C45.1378 203.026 46.514 200.324 47.8541 197.608C49.7562 193.746 51.6656 189.884 53.6758 186.08C55.0735 184.062 56.5145 182.066 57.9988 180.099C65.1102 170.459 72.3656 160.92 79.9453 151.632C82.1645 148.914 84.4005 146.207 86.6532 143.512C80.1687 154.846 73.8859 166.323 68.1435 178.096C65.2615 183.976 62.61 189.949 60.1099 195.994C57.9123 201.304 55.1096 206.463 54.1801 212.191C53.9361 213.463 54.1532 214.781 54.7926 215.908L54.4395 216.759C52.1771 222.422 60.888 225.484 63.9141 220.757C68.3164 213.884 72.5602 206.909 76.8832 200.021C73.8475 205.905 71.0039 211.89 68.3524 217.976C67.2285 220.57 67.6319 223.524 70.2185 225.088C72.4809 226.442 76.1267 225.751 77.3371 223.222C87.2729 202.5 99.8312 183.169 111.561 163.42C112.959 161.455 114.373 159.5 115.805 157.555C110.113 167.368 104.594 177.282 99.0171 187.16C97.8787 188.983 96.7259 190.763 95.5154 192.564C92.3069 197.141 89.6468 202.079 87.5899 207.277C85.522 212.609 93.1954 215.923 96.6106 212.191C94.7496 215.443 93.066 218.793 91.5671 222.227V222.271C91.3797 222.703 91.1924 223.128 91.0123 223.56C88.613 229.396 97.749 232.667 100.869 227.71C102.101 225.758 103.355 223.812 104.601 221.86C101.005 228.525 97.777 235.383 94.9318 242.401C92.5037 248.446 102.194 252.251 105.307 246.775C107.944 242.135 110.598 237.5 113.269 232.869C111.655 236.116 110.132 239.406 108.701 242.74V242.798C108.513 243.252 108.312 243.698 108.124 244.152C105.53 250.356 115.135 253.584 118.492 248.526C124.866 238.919 131.409 229.416 138.119 220.015C136.087 223.911 134.074 227.821 132.081 231.745C130.799 234.267 129.528 236.793 128.27 239.325C126.872 242.12 125.085 244.268 123.312 246.804C120.225 251.348 118.405 256.633 118.038 262.114C117.671 266.228 121.547 268.246 124.948 267.648C124.069 272.49 130.352 276.171 134.365 273.253C132.343 277.048 130.385 280.891 128.493 284.781C127.182 287.498 127.52 290.718 130.056 292.613C132.218 294.242 136.152 294.559 138.032 292.138C145.641 282.353 153.602 272.857 161.672 263.447C156.744 271.445 151.671 279.363 146.599 287.224C143.299 292.361 149.964 299.3 155.144 295.776C160.779 291.943 164.893 286.835 169.482 281.899C170.198 281.126 170.919 280.362 171.644 279.608C170.585 282.317 169.482 285.019 168.683 287.757C167.919 290.293 169.144 293.745 171.615 294.962C174.086 296.18 175.938 296.648 178.532 295.683C181.745 294.443 183.972 291.36 182.992 287.829C182.872 287.408 182.705 287.002 182.495 286.619C185.052 279.414 188.093 272.425 187.754 264.528C187.723 262.863 187.048 261.275 185.871 260.097C184.695 258.919 183.107 258.243 181.443 258.209C180.72 258.206 179.998 258.249 179.281 258.339C186.335 246.461 192.709 234.193 198.375 221.593C201.257 215.029 194.311 209.77 188.698 214.122C183.085 218.473 179.382 224.036 174.828 229.468C173.93 230.544 173.025 231.613 172.112 232.675L173.222 230.801C179.255 220.565 185.369 210.363 191.566 200.194ZM70.9751 67.2613C72.9997 65.8996 75.1468 64.7468 77.2795 63.5868C75.8385 65.878 74.3254 68.1404 72.7691 70.3667C65.3695 77.7951 58.7625 86.0521 51.9466 94.0137C52.278 92.8032 52.6118 91.6024 52.9481 90.4111C56.6659 84.4958 60.3404 78.5661 64.1087 72.694C66.2668 70.7238 68.5613 68.9084 70.9751 67.2613ZM35.0652 153.145C38.4948 148.368 42.2053 143.779 45.9592 139.276C47.3425 137.611 48.7475 135.961 50.1453 134.319C53.6902 130.615 57.2735 126.95 60.8952 123.324L59.3173 125.572L57.7394 127.82C52.7968 133.497 47.9261 139.24 43.2141 145.112C40.0366 149.075 36.8664 153.037 33.8475 157.137L35.0652 153.145ZM108.103 192.478C110.142 189.228 112.173 185.993 114.335 182.809C115.776 180.697 117.217 178.608 118.737 176.54C115.509 181.699 112.253 186.865 109.119 192.06C106.532 196.304 103.808 200.454 101.193 204.654C103.518 200.615 105.821 196.556 108.103 192.478Z" fill="#F4E182"/>
<path d="M210.969 336.182C215.177 330.569 213.325 323.076 207.366 319.611C208.735 318.284 209.879 316.744 210.753 315.05C212.126 312.345 212.39 309.21 211.489 306.313C210.587 303.416 208.591 300.985 205.925 299.537C205.295 299.184 204.603 298.954 203.886 298.86C204.026 298.507 204.143 298.146 204.239 297.779C204.631 296.257 204.685 294.668 204.399 293.122C204.112 291.576 203.493 290.112 202.582 288.831C201.715 287.499 200.572 286.369 199.232 285.516C198.252 284.918 196.811 284.868 195.903 284.263C189.945 280.3 183.986 289.883 190.038 293.701C190.636 294.076 193.641 295.027 193.785 295.25C193.698 295.077 191.825 296.98 191.429 297.297C188.749 299.458 185.225 301.122 182.178 302.65C174.454 306.519 165.123 308.09 156.794 310.208C148.148 312.37 140.028 313.652 131.13 312.795C129.149 312.6 122.938 312.744 122.549 310.006C122.383 308.817 124.112 306.469 124.941 305.734C126.252 304.559 128.219 304.639 129.84 303.99C131.461 303.342 131.469 300.596 129.948 299.84C120.337 295.02 109.933 308.976 117.498 316.584C115.89 316.901 114.409 317.677 113.233 318.818C111.735 320.372 110.756 322.352 110.433 324.485C110.109 326.619 110.455 328.8 111.424 330.728C113.643 335.253 117.909 337.4 122.657 338.416C121.762 339.362 121.072 340.483 120.632 341.708C118.737 347.047 122.073 351.536 126.598 354.079C128.038 354.873 129.539 355.55 131.087 356.104C130.078 359.779 130.467 364.21 132.139 366.775C135.136 371.357 141.318 372.582 146.383 373.115C151.197 373.514 156.043 373.271 160.793 372.395C161.283 377.294 167.069 379.6 171.212 380.659C176.176 381.905 181.616 382.294 186.342 379.859C191.854 376.977 195.031 370.413 195.312 364.397C195.376 363.4 195.17 362.404 194.714 361.515C195.961 360.895 197.193 360.233 198.382 359.505C202.82 356.796 208 354.8 210.162 349.749C212.042 345.376 213.764 340.786 210.623 336.687C210.731 336.485 210.854 336.326 210.969 336.182ZM120.135 327.911C118.802 326.953 117.844 325.029 118.946 323.458C119.962 322.017 122.83 322.291 124.372 322.14C124.834 322.102 125.283 321.962 125.686 321.731C126.088 321.499 126.434 321.181 126.699 320.799C129.141 321.232 131.663 321.419 134.055 321.693C140.633 322.464 147.132 321.693 153.631 320.526C167.033 318.148 180.477 315.302 192.538 308.962C194.161 308.132 195.737 307.213 197.258 306.209C197.393 306.56 197.565 306.895 197.769 307.211C198.307 308.205 198.986 309.115 199.787 309.913L199.895 310.028C199.895 310.028 199.895 310.071 199.895 310.093C198.908 310.503 197.733 312.254 196.869 312.975C193.429 315.703 189.592 317.89 185.492 319.459C176.601 323.178 167.232 325.628 157.659 326.736C148.566 327.745 139.704 329.885 130.517 329.885C127.232 329.878 122.959 329.928 120.135 327.911ZM176.19 371.732C173.813 371.607 171.456 371.231 169.158 370.608C173.323 369.549 177.444 368.23 181.457 366.789L183.294 366.126C182.776 369.815 180.304 371.753 176.19 371.732ZM198.656 345.21C197.429 346.061 196.154 346.84 194.837 347.545C193.187 348.604 191.587 349.756 189.901 350.765C183.482 354.62 175.621 357.106 168.502 359.339C161.542 361.501 154.042 363.705 146.678 363.432C144.481 363.352 139.408 363.309 138.537 360.679C138.372 359.787 138.392 358.87 138.594 357.985C138.591 357.956 138.591 357.927 138.594 357.898C145.432 358.792 152.594 357.963 159.222 356.522C165.339 355.189 171.212 352.919 177.393 351.86C180.456 351.342 183.424 350.989 186.349 349.893C189.462 348.733 192.423 347.177 195.507 345.923C196.588 345.484 197.755 344.994 198.958 344.482C198.792 344.85 198.547 345.261 198.656 345.21ZM195.68 332.392C191.998 334.467 188.035 336.031 184.274 337.947C180.203 340.022 175.801 340.325 171.442 341.507C167.292 342.623 163.279 344.201 159.15 345.383C152.269 347.357 144.819 348.834 137.643 347.869C135.597 347.595 129.624 346.629 128.572 344.482C127.693 342.681 130.316 341.6 131.591 341.298C133.464 340.88 134.588 341.125 136.087 339.741C136.218 339.619 136.336 339.484 136.44 339.338C141.419 339.194 146.282 338.344 151.225 337.753C156.794 337.083 162.414 336.975 167.955 336.074C178.193 334.41 189.318 331.139 198.403 326.023C198.622 326.965 199.034 327.85 199.614 328.624L200.154 329.345C198.699 329.842 196.941 331.679 195.68 332.392Z" fill="white"/>
<path d="M187.114 1.29204C184.304 3.45355 184.275 6.3788 183.252 9.47697C182.157 12.7913 179.902 15.6517 178.677 18.9444C177.301 22.6406 176.386 26.4953 175.074 30.2131C174.037 33.0951 172.581 35.7393 172.596 38.8591C172.612 39.6546 172.936 40.4129 173.498 40.9755C174.061 41.5381 174.819 41.8615 175.615 41.878L176.407 41.9213C178.67 42.0582 179.657 39.7597 179.095 38.0233C180.053 35.8978 181.775 33.8804 182.755 31.8342C184.131 28.9522 185.305 25.9765 186.725 23.1089C188.022 20.4863 189.809 18.2239 191.257 15.6949C192.482 13.5766 192.878 10.32 194.384 8.5259C198.7 3.3887 192.273 -2.70675 187.114 1.29204Z" fill="white"/>
<path d="M221.481 22.5469C220.76 23.7934 219.319 24.6436 218.217 25.6018C216.625 27.0428 215.155 28.5991 213.685 30.1482C210.893 33.1505 208.262 36.2987 205.803 39.5796C203.526 42.5625 201.191 45.4445 198.785 48.3121C196.847 50.6321 195.305 52.9594 195.255 56.0431C195.19 59.552 200.19 59.3646 200.572 56.0431C200.874 53.4637 204.563 51.0933 206.336 49.3424C208.829 46.8999 211.379 44.4934 213.98 42.1734C218.88 37.8504 224.428 34.6153 229.608 30.6814C237.678 24.5643 226.294 14.6358 221.481 22.5469Z" fill="white"/>
<path d="M259.122 49.3712C258.106 50.1422 256.96 50.0917 255.728 50.4952C253.943 51.1423 252.213 51.9326 250.555 52.8585C246.657 54.8615 242.723 56.8212 239.027 59.1485C235.828 61.1515 232.607 63.2193 229.603 65.5105C227.326 67.2469 224.257 70.4099 221.267 70.6261C218.666 70.8062 217.714 74.8843 220.611 75.4679C223.796 76.1091 226.613 75.1004 229.437 73.6522C233.276 71.6459 237.226 69.8586 241.268 68.2989C245.821 66.5841 250.497 65.1935 255.145 63.7525C259.41 62.4268 263.704 63.0752 267.235 59.8978C272.783 54.8903 265.239 44.7312 259.122 49.3712Z" fill="white"/>
<path d="M213.714 103.51C209.708 92.5655 204.06 80.9942 195.637 72.7444C186.44 63.7733 175.986 56.1885 164.605 50.2287C158.963 47.2746 153.379 44.1908 147.378 42.0005C141.114 39.822 134.644 38.2913 128.068 37.4325C114.278 35.4583 100.444 37.0218 86.812 39.4067C74.0951 41.6331 61.0756 44.8105 50.1888 52.102C39.9648 58.9468 31.5565 68.3349 24.2506 78.1554C16.9447 87.9759 9.53797 98.0845 5.35184 109.742C0.891922 122.178 -0.138399 135.853 0.308314 148.959C0.783846 161.928 1.74932 175.222 6.23085 187.485C15.2083 212.083 37.299 228.676 59.8003 240.305C65.9174 243.468 71.631 247.337 77.8129 250.5C83.2671 253.303 89.449 255.45 94.4997 258.959C99.2983 262.302 102.908 267.208 106.691 271.596C108.492 273.686 110.488 275.624 112.008 277.944C113.73 280.552 115.049 283.412 116.634 286.1C118.147 288.665 119.516 291.223 120.856 293.896C121.764 295.747 123.666 298.003 124.797 300.186C123.644 302.081 123.356 304.588 124.689 306.404C127.773 310.568 132.261 310.186 136.937 309.934C143.242 309.596 149.496 309.077 155.743 308.147C162.263 307.241 168.68 305.699 174.901 303.543C180.867 301.454 186.897 299.746 191.861 295.697C196.826 291.648 199.787 287.303 197.539 280.725C195.579 274.925 193.216 269.665 193.353 263.433C193.49 256.617 194.426 250.032 194.981 243.259C195.536 236.486 197.352 230.232 199.225 223.632C201.055 217.198 202.878 210.872 205.299 204.618C207.777 198.242 210.479 191.937 212.504 185.395C214.528 178.853 215.732 171.987 216.877 165.221C218.045 158.304 219.197 151.402 219.457 144.384C219.961 130.803 218.405 116.306 213.714 103.51ZM206.279 154.435C204.326 167.253 201.956 179.739 197.236 191.865C192.618 203.826 188.59 215.714 185.125 228.078C183.352 234.44 182.963 240.96 182.416 247.531C182.163 250.413 181.472 253.245 181.227 256.177C180.982 259.11 181.119 262.266 181.097 265.27C181.054 271.207 183.071 276.856 185.125 282.353C185.305 282.836 185.579 284.183 185.896 284.904C185.824 284.241 187.546 284.047 186.133 284.76C186.051 284.798 185.974 284.847 185.903 284.904C185.958 285.053 186.042 285.19 186.148 285.307C186.017 285.208 185.928 285.065 185.896 284.904C185.6 285.12 185.29 285.43 185.045 285.624C183.048 287.32 180.758 288.636 178.287 289.508C167.163 293.615 156.074 296.972 144.121 297.282C141.311 297.354 138.53 297.707 135.727 297.851L134.048 297.945C133.097 297.988 132.139 297.736 132.103 297.801C130.944 297.29 129.648 297.184 128.421 297.498C128.306 297.232 128.183 296.965 128.061 296.691C126.822 293.917 125.791 291.086 124.638 288.283C122.592 283.312 120.251 278.066 117.239 273.592C114.357 269.269 110.56 265.292 107.195 261.3C103.83 257.309 99.99 253.375 95.2491 250.788C89.8381 247.791 84.1893 245.211 78.7712 242.214C73.353 239.217 68.2446 235.578 62.7544 232.624C51.9468 226.817 41.9174 219.893 33.1633 211.29C24.5821 202.86 17.6725 193.796 14.0411 182.182C10.3665 170.43 9.68206 157.951 9.42268 145.717C9.1633 133.483 10.5467 120.211 15.619 108.842C20.1942 98.5745 27.284 89.0999 34.208 80.3097C41.132 71.5196 49.4394 62.7582 59.4616 57.3977C70.3413 51.576 82.8492 49.1839 94.9537 47.5844C107.692 45.8984 120.668 45.8552 133.198 48.8957C144.913 51.7273 155.375 57.2248 165.7 63.3995C170.873 66.5049 175.247 70.5613 179.879 74.3872C184.13 77.896 188.439 81.3905 191.638 85.9152C198.138 95.2423 202.705 105.777 205.068 116.897C207.674 129.241 208.084 141.948 206.279 154.435Z" fill="white"/>
<path d="M171.103 293.449C170.382 289.126 168.638 284.688 167.752 280.3C166.664 274.875 165.591 269.305 163.919 264.038C162.248 258.771 161.967 253.721 160.756 248.411C159.51 242.949 158.76 237.387 157.571 231.911C156.411 226.565 155.165 221.471 155.035 215.966C154.898 210.325 155.187 204.669 155.381 199.034C155.777 187.816 159.762 177.78 163.22 167.246C166.484 157.332 166.866 146.459 160.85 137.813C156.152 131.062 145.935 127.287 138.392 131.502C135.099 133.339 132.743 136.329 131.007 139.708C129.136 139.072 127.204 138.63 125.242 138.39C120.466 137.813 115.155 138.001 110.832 140.436C108.53 141.812 106.592 143.722 105.184 146.005C96.7106 144.953 87.7115 149.096 81.7025 154.803C78.1432 158.175 75.29 162.008 74.2597 166.878C73.2546 171.915 73.2546 177.101 74.2597 182.139C75.1459 186.973 76.3275 192.276 79.3825 196.232C82.5455 200.331 86.5154 203.804 90.2765 207.335C97.9715 214.561 106.034 222.415 111.373 231.565C113.967 236.018 116.157 240.701 118.729 245.175C121.208 249.498 124.234 253.771 126.035 258.418C129.638 267.785 133.759 277.151 138.183 286.165C139.256 288.326 139.991 290.711 140.942 292.959C141.951 295.33 144.076 297.751 144.682 300.164C145.2 302.254 148.234 301.713 148.327 299.667C148.493 296.266 146.598 292.837 145.582 289.645C144.43 285.985 142.996 282.57 141.656 278.989C138.774 271.243 135.171 263.779 132.239 256.041C129.666 249.232 125.286 242.891 121.762 236.537C117.857 229.512 114.262 222.789 109.197 216.478C104.132 210.166 98.3893 204.381 92.6253 198.631C89.9594 195.965 86.5875 193.033 84.9087 189.603C83.1507 186 82.2717 181.238 81.9258 177.261C81.6016 173.565 81.7097 169.184 83.4317 165.798C85.1537 162.411 88.677 159.479 91.8328 157.62C94.7123 155.882 97.9551 154.833 101.307 154.558C99.0594 162.145 99.0378 171.612 105.753 176.605C113.325 182.225 123.607 175.488 124.673 167.037C125.682 159.111 120.617 152.699 114.075 149.024C114.24 148.873 114.406 148.729 114.579 148.592C117.929 145.991 123.369 146.25 127.923 147.915C127.844 148.239 127.757 148.556 127.678 148.873C126.042 155.487 124.709 165.185 131.605 169.386C135.51 171.763 141.267 171.763 144.091 167.75C146.62 164.148 146.75 158.665 145.755 154.529C144.697 150.283 142.23 146.522 138.759 143.858C141.403 138.98 145.597 136.106 151.476 140.717C154.214 142.878 155.597 146.892 156.707 150.083C158.192 154.056 158.341 158.404 157.132 162.469C154.726 170.675 151.123 178.428 149.293 186.822C147.29 195.987 147.254 205.966 147.326 215.311C147.391 224.771 150.035 233.878 151.606 243.151C153.212 252.604 156.296 261.322 158.811 270.53C160.1 275.285 160.972 280.17 162.255 284.94C163.256 288.629 165.194 292.188 166.131 295.82C167.579 301.468 171.996 298.975 171.103 293.449ZM115.588 167.008C114.521 169.501 111.517 170.358 110.09 167.887C108.462 165.07 108.649 160.552 109.896 156.481C111.043 157.138 112.095 157.947 113.023 158.888C114.968 160.841 116.791 164.126 115.588 167.008ZM137.059 161.316C136.98 161.525 136.922 161.662 136.886 161.763C136.636 161.734 136.392 161.663 136.165 161.554C135.366 160.242 135.337 158.708 135.373 157.231C135.412 156.051 135.522 154.874 135.704 153.708C137.124 155.919 138.017 158.859 137.059 161.287V161.316Z" fill="white"/>
</svg>
