<svg width="361" height="257" viewBox="0 0 361 257" fill="none" xmlns="http://www.w3.org/2000/svg">
<path d="M6.33008 134.333C9.2756 134.333 11.6634 131.945 11.6634 128.999C11.6634 126.054 9.2756 123.666 6.33008 123.666C3.38456 123.666 0.996745 126.054 0.996745 128.999C0.996745 131.945 3.38456 134.333 6.33008 134.333ZM72.0793 127.999L6.33008 127.999L6.33008 129.999L72.0793 129.999L72.0793 127.999Z" fill="#70B859"/>
<path d="M175.332 6.46674C175.332 9.41225 177.72 11.8001 180.665 11.8001C183.611 11.8001 185.998 9.41225 185.998 6.46674C185.998 3.52122 183.611 1.1334 180.665 1.1334C177.72 1.1334 175.332 3.52122 175.332 6.46674ZM181.665 72.216V6.46674H179.665V72.216H181.665Z" fill="#70B859"/>
<path d="M355 134.333C352.054 134.333 349.667 131.945 349.667 128.999C349.667 126.054 352.054 123.666 355 123.666C357.946 123.666 360.333 126.054 360.333 128.999C360.333 131.945 357.946 134.333 355 134.333ZM289.251 127.999L355 127.999L355 129.999L289.251 129.999L289.251 127.999Z" fill="#70B859"/>
<path d="M351.229 2.36585C349.146 4.44865 349.146 7.82552 351.229 9.90832C353.312 11.9911 356.688 11.9911 358.771 9.90832C360.854 7.82552 360.854 4.44865 358.771 2.36585C356.688 0.283053 353.312 0.283053 351.229 2.36585ZM289.958 72.5934L355.707 6.84419L354.293 5.42998L288.544 71.1792L289.958 72.5934Z" fill="#70B859"/>
<path d="M2.22876 9.90826C4.31156 11.9911 7.68844 11.9911 9.77124 9.90826C11.854 7.82546 11.854 4.44858 9.77124 2.36579C7.68844 0.282992 4.31156 0.282992 2.22876 2.36579C0.145968 4.44858 0.145968 7.82546 2.22876 9.90826ZM72.4563 71.1792L6.70711 5.42992L5.29289 6.84413L71.0421 72.5934L72.4563 71.1792Z" fill="#70B859"/>
<path d="M9.77124 255.303C11.854 253.22 11.854 249.844 9.77124 247.761C7.68844 245.678 4.31156 245.678 2.22876 247.761C0.145968 249.844 0.145968 253.22 2.22876 255.303C4.31156 257.386 7.68844 257.386 9.77124 255.303ZM71.0421 185.076L5.29289 250.825L6.70711 252.239L72.4563 186.49L71.0421 185.076Z" fill="#70B859"/>
<path d="M358.771 247.761C356.688 245.678 353.312 245.678 351.229 247.761C349.146 249.844 349.146 253.22 351.229 255.303C353.312 257.386 356.688 257.386 358.771 255.303C360.854 253.22 360.854 249.844 358.771 247.761ZM288.544 186.49L354.293 252.239L355.707 250.825L289.958 185.076L288.544 186.49Z" fill="#70B859"/>
<path d="M175.332 251.532C175.332 248.586 177.72 246.199 180.665 246.199C183.611 246.199 185.998 248.586 185.998 251.532C185.998 254.478 183.611 256.865 180.665 256.865C177.72 256.865 175.332 254.478 175.332 251.532ZM181.665 185.783V251.532H179.665V185.783H181.665Z" fill="#70B859"/>
</svg>
