<svg width="361" height="257" viewBox="0 0 361 257" fill="none" xmlns="http://www.w3.org/2000/svg">
<path d="M175.332 6.4668C175.332 9.41232 177.72 11.8001 180.665 11.8001C183.611 11.8001 185.998 9.41232 185.998 6.4668C185.998 3.52128 183.611 1.13346 180.665 1.13346C177.72 1.13346 175.332 3.52128 175.332 6.4668ZM181.665 72.216V6.4668H179.665V72.216H181.665Z" fill="#70B859"/>
<path d="M351.229 2.36548C349.146 4.44828 349.146 7.82516 351.229 9.90795C353.312 11.9908 356.688 11.9908 358.771 9.90795C360.854 7.82516 360.854 4.44828 358.771 2.36548C356.688 0.282686 353.312 0.282686 351.229 2.36548ZM289.958 72.5931L355.707 6.84383L354.293 5.42961L288.544 71.1789L289.958 72.5931Z" fill="#70B859"/>
<path d="M2.22876 9.90795C4.31156 11.9908 7.68844 11.9908 9.77124 9.90795C11.854 7.82516 11.854 4.44828 9.77124 2.36548C7.68844 0.282686 4.31156 0.282686 2.22876 2.36548C0.145968 4.44828 0.145968 7.82516 2.22876 9.90795ZM72.4563 71.1789L6.70711 5.42961L5.29289 6.84383L71.0421 72.5931L72.4563 71.1789Z" fill="#70B859"/>
<path d="M9.77124 255.302C11.854 253.22 11.854 249.843 9.77124 247.76C7.68844 245.677 4.31156 245.677 2.22876 247.76C0.145968 249.843 0.145968 253.22 2.22876 255.302C4.31156 257.385 7.68844 257.385 9.77124 255.302ZM71.0421 185.075L5.29289 250.824L6.70711 252.238L72.4563 186.489L71.0421 185.075Z" fill="#70B859"/>
<path d="M358.771 247.76C356.688 245.677 353.312 245.677 351.229 247.76C349.146 249.843 349.146 253.22 351.229 255.302C353.312 257.385 356.688 257.385 358.771 255.302C360.854 253.22 360.854 249.843 358.771 247.76ZM288.544 186.489L354.293 252.238L355.707 250.824L289.958 185.075L288.544 186.489Z" fill="#70B859"/>
<path d="M175.332 251.531C175.332 248.586 177.72 246.198 180.665 246.198C183.611 246.198 185.998 248.586 185.998 251.531C185.998 254.477 183.611 256.865 180.665 256.865C177.72 256.865 175.332 254.477 175.332 251.531ZM181.665 185.782V251.531H179.665V185.782H181.665Z" fill="#70B859"/>
</svg>
